<svg width="42" height="42" viewBox="0 0 42 42" fill="none" xmlns="http://www.w3.org/2000/svg"><path d="M39.007 20.986l-1.815-.227a12.477 12.477 0 0 0-2.33-3.68l1.335-5.652a.78.78 0 0 0-.76-.96h-.173a5.383 5.383 0 0 0-4.997 3.437 12.3 12.3 0 0 0-1.708-.54.781.781 0 0 0-.36 1.52 10.818 10.818 0 0 1 5.161 2.872.78.78 0 0 0 .19.195 10.874 10.874 0 0 1 2.348 3.791c.1.276.346.473.637.509l2.278.285a.714.714 0 0 1 .625.708v3.939a.714.714 0 0 1-.625.707l-2.111.265a.781.781 0 0 0-.649.542 10.84 10.84 0 0 1-3.441 5.117.781.781 0 0 0-.283.602v4.318a.704.704 0 0 1-.703.703h-4.532a.704.704 0 0 1-.703-.703v-1.646a.781.781 0 0 0-.78-.781h-6.564a.781.781 0 0 0-.782.781v1.646a.704.704 0 0 1-.703.703H13.03a.704.704 0 0 1-.702-.703v-3.05a.781.781 0 0 0-.409-.686 10.858 10.858 0 0 1-5.685-9.548c0-5.987 4.87-10.857 10.857-10.857h.98a.781.781 0 1 0 0-1.563h-.98c-5.8 0-10.682 3.996-12.042 9.38h-.572a1.916 1.916 0 0 1-1.915-1.915c0-1.055.86-1.914 1.915-1.914a.781.781 0 1 0 0-1.562A3.48 3.48 0 0 0 1 20.495a3.48 3.48 0 0 0 3.477 3.477h.283a12.419 12.419 0 0 0 6.005 12.168v2.594a2.268 2.268 0 0 0 2.265 2.265h4.532a2.268 2.268 0 0 0 2.266-2.265v-.865h5v.865a2.268 2.268 0 0 0 2.266 2.265h4.532a2.268 2.268 0 0 0 2.265-2.265v-3.958a12.395 12.395 0 0 0 3.492-5.132l1.624-.203A2.28 2.28 0 0 0 41 27.183v-3.94a2.28 2.28 0 0 0-1.993-2.257zm-5.456-5.15c-.583-.476-1.207-.899-1.864-1.261a3.815 3.815 0 0 1 2.74-2.451l-.876 3.713z" fill="#fff"/><path d="M32.1 20.838a.787.787 0 0 0-.553-.23.787.787 0 0 0-.552.23.787.787 0 0 0-.23.552.787.787 0 0 0 .781.781.787.787 0 0 0 .553-.229.787.787 0 0 0 .23-.552.787.787 0 0 0-.23-.552zM23.91 5.557a.781.781 0 0 0-.782.781v3.099a.781.781 0 1 0 1.563 0V6.338a.781.781 0 0 0-.781-.781zM24.462 2.95a.787.787 0 0 0-.552-.228.787.787 0 0 0-.553.229.787.787 0 0 0-.229.552.785.785 0 0 0 .782.781.787.787 0 0 0 .552-.228.787.787 0 0 0 .229-.553.789.789 0 0 0-.23-.552zM17.563 1a.781.781 0 0 0-.782.78V3.11a.781.781 0 1 0 1.563 0V1.78a.781.781 0 0 0-.782-.782zM9.901 25.45a.781.781 0 0 0-1.562 0v.042c.003.43.352.776.781.776h.005a.781.781 0 0 0 .776-.786v-.032zM13.36 31.597a7.242 7.242 0 0 1-2.985-3.576.781.781 0 1 0-1.46.56 8.811 8.811 0 0 0 3.632 4.35.778.778 0 0 0 1.074-.26.781.781 0 0 0-.261-1.074zM17.563 4.753a3.285 3.285 0 0 0-3.282 3.282 3.285 3.285 0 0 0 3.281 3.28 3.285 3.285 0 0 0 3.282-3.28 3.285 3.285 0 0 0-3.282-3.282zm0 5a1.72 1.72 0 0 1-1.72-1.718 1.72 1.72 0 0 1 1.72-1.72 1.72 1.72 0 0 1 1.718 1.72 1.72 1.72 0 0 1-1.718 1.718zM27.406 17.562h-.703a3.26 3.26 0 0 0 .488-1.72 3.285 3.285 0 0 0-3.281-3.28 3.285 3.285 0 0 0-3.282 3.28c0 .63.179 1.22.488 1.72H17.25a.781.781 0 0 0 0 1.562h10.156a.781.781 0 1 0 0-1.562zm-3.496 0a1.72 1.72 0 0 1-1.72-1.72 1.72 1.72 0 0 1 1.72-1.718 1.72 1.72 0 0 1 1.718 1.719 1.72 1.72 0 0 1-1.718 1.719z" fill="#fff"/><path fill-rule="evenodd" clip-rule="evenodd" d="M35.264 10.466h.173a.782.782 0 0 1 .76.961l-1.334 5.653a12.477 12.477 0 0 1 2.33 3.679l1.814.227A2.28 2.28 0 0 1 41 23.244v3.939a2.28 2.28 0 0 1-1.993 2.258l-1.624.203a12.395 12.395 0 0 1-3.492 5.132v3.958a2.268 2.268 0 0 1-2.265 2.265h-4.532a2.268 2.268 0 0 1-2.265-2.265v-.865h-5.001v.865a2.268 2.268 0 0 1-2.266 2.265H13.03a2.268 2.268 0 0 1-2.265-2.265V36.14A12.419 12.419 0 0 1 4.76 23.972h-.283A3.48 3.48 0 0 1 1 20.495a3.48 3.48 0 0 1 3.477-3.476.781.781 0 0 1 0 1.562 1.916 1.916 0 0 0-1.915 1.914c0 1.056.86 1.915 1.915 1.915h.572c1.36-5.384 6.243-9.38 12.042-9.38h.98a.781.781 0 0 1 0 1.563h-.98c-5.986 0-10.857 4.87-10.857 10.857 0 3.986 2.179 7.644 5.685 9.548.252.137.409.4.409.687v3.049c0 .387.315.703.703.703h4.531a.704.704 0 0 0 .703-.703v-1.646c0-.431.35-.781.782-.781h6.563c.431 0 .781.35.781.781v1.646c0 .387.316.703.703.703h4.532a.704.704 0 0 0 .703-.703v-4.318c0-.233.103-.453.283-.602a10.84 10.84 0 0 0 3.441-5.117.781.781 0 0 1 .649-.542l2.111-.265a.714.714 0 0 0 .625-.707v-3.94a.714.714 0 0 0-.625-.707l-2.278-.285a.781.781 0 0 1-.637-.509 10.874 10.874 0 0 0-2.348-3.791.78.78 0 0 1-.19-.195 10.818 10.818 0 0 0-5.16-2.872.781.781 0 0 1 .359-1.52 12.242 12.242 0 0 1 1.708.54l.045-.113a5.384 5.384 0 0 1 4.951-3.325zm-5.108 3.18a5.584 5.584 0 0 1 5.108-3.38h.173a.981.981 0 0 1 .955 1.207l-1.31 5.55a12.68 12.68 0 0 1 2.25 3.552l1.7.212a2.48 2.48 0 0 1 2.168 2.457v3.939a2.48 2.48 0 0 1-2.168 2.456l-1.503.189a12.592 12.592 0 0 1-3.438 5.038v3.868a2.468 2.468 0 0 1-2.465 2.465h-4.532a2.468 2.468 0 0 1-2.465-2.465v-.665h-4.601v.665a2.468 2.468 0 0 1-2.466 2.465H13.03a2.468 2.468 0 0 1-2.465-2.465v-2.481a12.618 12.618 0 0 1-6.028-12.081h-.06A3.68 3.68 0 0 1 .8 20.495a3.68 3.68 0 0 1 3.677-3.676.981.981 0 0 1 0 1.962c-.945 0-1.715.77-1.715 1.714 0 .945.77 1.714 1.715 1.714h.417c1.434-5.393 6.358-9.378 12.197-9.378h.98a.981.981 0 0 1 0 1.962h-.98c-5.876 0-10.657 4.78-10.657 10.657 0 3.912 2.139 7.504 5.58 9.372a.981.981 0 0 1 .514.863v3.049c0 .277.225.503.502.503h4.532a.504.504 0 0 0 .503-.503v-1.646c0-.542.44-.981.982-.981h6.563c.542 0 .981.44.981.981v1.646c0 .277.226.503.503.503h4.532a.504.504 0 0 0 .503-.503v-4.318c0-.292.13-.57.355-.756a10.64 10.64 0 0 0 3.378-5.023.981.981 0 0 1 .815-.68l2.111-.265a.515.515 0 0 0 .45-.51v-3.938a.514.514 0 0 0-.45-.51l-2.278-.285a.981.981 0 0 1-.8-.638m-5.554-8.165a12.435 12.435 0 0 0-1.551-.477.981.981 0 1 0-.452 1.91 10.618 10.618 0 0 1 5.053 2.806.98.98 0 0 0 .211.216 10.673 10.673 0 0 1 2.292 3.71M24.603 2.81a.988.988 0 0 1 .288.693.987.987 0 0 1-.288.694.987.987 0 0 1-.694.287.987.987 0 0 1-.693-.287l.141-.141a.785.785 0 0 1-.229-.553.787.787 0 0 1 .781-.781c.206 0 .408.084.553.229a.789.789 0 0 1 .229.552.787.787 0 0 1-.23.553.787.787 0 0 1-.551.228.787.787 0 0 1-.553-.228M8.34 25.45v.042c.003.43.352.776.781.776h.005a.781.781 0 0 0 .776-.786v-.032a.781.781 0 0 0-1.562 0zm1.762.03v-.03.03zm.274 2.541l.187-.071a7.041 7.041 0 0 0 2.902 3.476l-.104.17a7.242 7.242 0 0 1-2.985-3.575zm-1.01-.45a.781.781 0 0 1 1.01.45l.187-.071a.981.981 0 1 0-1.833.702 9.012 9.012 0 0 0 3.714 4.45.978.978 0 0 0 1.349-.328.981.981 0 0 0-.328-1.348l-.104.17a.781.781 0 0 1-.813 1.336 8.811 8.811 0 0 1-3.631-4.352.781.781 0 0 1 .45-1.008zm24.013-11.873c.058.045.115.092.173.139l.876-3.713a3.815 3.815 0 0 0-2.74 2.451c.592.327 1.158.703 1.69 1.123zm.05-.215l.727-3.076a3.618 3.618 0 0 0-2.22 2.077c.52.297 1.02.631 1.494 1zm-1.881 4.926c.258 0 .51.105.694.287l-.142.142a.787.787 0 0 1 .23.552.787.787 0 0 1-.23.552.787.787 0 0 1-.552.23.787.787 0 0 1-.552-.23.787.787 0 0 1-.23-.552.787.787 0 0 1 .781-.781c.206 0 .408.083.553.229m.142 1.246a.987.987 0 0 1-.694.287.987.987 0 0 1-.694-.287.987.987 0 0 1-.287-.694c0-.258.104-.51.287-.694a.987.987 0 0 1 .694-.287m.694 1.675zM22.928 6.338a.981.981 0 0 1 1.963 0v3.099a.981.981 0 1 1-1.963 0V6.338zm-6.347-4.557a.981.981 0 0 1 1.963 0v1.328a.981.981 0 0 1-1.963 0V1.78zm-2.5 6.254a3.485 3.485 0 0 1 3.482-3.482 3.485 3.485 0 0 1 3.48 3.482 3.485 3.485 0 0 1-3.48 3.48 3.485 3.485 0 0 1-3.482-3.48zm1.963 0a1.52 1.52 0 0 0 1.518 1.518 1.52 1.52 0 0 0 1.52-1.518 1.52 1.52 0 0 0-1.52-1.52 1.52 1.52 0 0 0-1.518 1.52zm10.997 9.327h.365a.981.981 0 1 1 0 1.962H17.25a.981.981 0 1 1 0-1.962h3.528a3.457 3.457 0 0 1-.35-1.52 3.485 3.485 0 0 1 3.482-3.48 3.485 3.485 0 0 1 3.48 3.48c0 .545-.125 1.06-.349 1.52zm.365.2a.781.781 0 0 1 0 1.562H17.25a.781.781 0 1 1 0-1.562h3.866a3.258 3.258 0 0 1-.488-1.719 3.285 3.285 0 0 1 3.282-3.281 3.285 3.285 0 0 1 3.28 3.28 3.258 3.258 0 0 1-.487 1.72h.703zm-5.015-1.72a1.52 1.52 0 0 0 1.519 1.52 1.52 1.52 0 0 0 1.518-1.52 1.52 1.52 0 0 0-1.518-1.518 1.52 1.52 0 0 0-1.52 1.519zM16.78 1.782a.781.781 0 1 1 1.563 0v1.328a.781.781 0 0 1-1.563 0V1.78zm6.347 4.557a.781.781 0 1 1 1.563 0v3.099a.781.781 0 1 1-1.563 0V6.338zm-5.566-1.585a3.285 3.285 0 0 0-3.28 3.282 3.285 3.285 0 0 0 3.28 3.28 3.285 3.285 0 0 0 3.282-3.28 3.285 3.285 0 0 0-3.282-3.282zm0 5a1.72 1.72 0 0 1-1.718-1.718 1.72 1.72 0 0 1 1.719-1.72 1.72 1.72 0 0 1 1.718 1.72 1.72 1.72 0 0 1-1.718 1.718zm4.629 6.09a1.72 1.72 0 0 0 1.719 1.719 1.72 1.72 0 0 0 1.718-1.72 1.72 1.72 0 0 0-1.718-1.718 1.72 1.72 0 0 0-1.72 1.719z" fill="#fff"/></svg>