<svg width="40" height="34" viewBox="0 0 40 34" fill="none" xmlns="http://www.w3.org/2000/svg"><path d="M39.618 8.11l-12.65-4.823a.594.594 0 0 0-.423 1.11l11.193 4.268-7.748 2.954-9.745-4.412a.594.594 0 1 0-.49 1.082l8.67 3.926L20 15.428 2.262 8.665 20 1.902l4.371 1.667a.595.595 0 0 0 .424-1.11L20.212.71a.594.594 0 0 0-.424 0L.382 8.11A.595.595 0 0 0 0 8.665v2.713c0 .246.152.467.382.555l6.06 2.31v2.059a.594.594 0 1 0 1.188 0v-1.606l12.158 4.635a.598.598 0 0 0 .424 0l9.164-3.493v9.401A20.213 20.213 0 0 1 20 27.56a20.213 20.213 0 0 1-12.37-4.246v-4.635a.594.594 0 1 0-1.188 0v4.923c0 .18.082.35.223.463A21.404 21.404 0 0 0 20 28.747c3.257 0 6.472-.757 9.376-2.176v2.404a2.26 2.26 0 0 0-1.663 2.178 2.26 2.26 0 0 0 2.257 2.257 2.26 2.26 0 0 0 2.258-2.257 2.26 2.26 0 0 0-1.664-2.178v-3.032a21.174 21.174 0 0 0 2.772-1.879.594.594 0 0 0 .222-.463v-9.358l6.06-2.31a.594.594 0 0 0 .382-.556V8.665a.595.595 0 0 0-.382-.555zm-8.579 23.043c0 .59-.48 1.069-1.069 1.069a1.07 1.07 0 0 1-1.069-1.07 1.07 1.07 0 0 1 2.138 0zM1.19 9.527l18.217 6.946v1.441L1.188 10.968v-1.44zm19.405 8.387v-1.441l8.782-3.348v1.44l-8.782 3.349zm11.776 5.399c-.58.45-1.183.868-1.806 1.25v-9.179l1.806-.688v8.617zm-1.806-9.2v-1.441l8.248-3.145v1.441l-8.248 3.145z" fill="#fff"/></svg>