<svg width="34" height="42" viewBox="0 0 34 42" fill="none" xmlns="http://www.w3.org/2000/svg"><path d="M16.747 41.063a.882.882 0 0 0 .506 0c9.537-2.861 16.253-11.647 16.253-21.845V6.468a.881.881 0 0 0-.881-.88 3.81 3.81 0 0 1-3.806-3.807.881.881 0 0 0-.881-.881H6.063a.881.881 0 0 0-.882.881 3.81 3.81 0 0 1-3.806 3.807.881.881 0 0 0-.881.88v12.75c0 9.98 6.504 18.922 16.253 21.845zM29.854 8.134a6.937 6.937 0 0 1-3.582-3.581.881.881 0 0 0-.807-.528h-5.342a.881.881 0 0 0 0 1.762h4.787a8.687 8.687 0 0 0 3.709 3.71v9.721c0 7.591-4.55 14.142-11.619 16.776C9.93 33.36 5.381 26.81 5.381 19.218V9.496a8.688 8.688 0 0 0 3.71-3.709h4.786a.881.881 0 0 0 0-1.762H8.535a.881.881 0 0 0-.807.528 6.937 6.937 0 0 1-3.582 3.581.881.881 0 0 0-.527.807v10.277c0 8.418 5.207 15.756 13.087 18.545a.88.88 0 0 0 .588 0c7.873-2.786 13.087-10.12 13.087-18.545V8.941a.881.881 0 0 0-.527-.807zm-9.106 9.118a.881.881 0 0 0-1.246 0l-3.283 3.283-.94-.94a.881.881 0 0 0-1.246 1.246l.07-.07-.07.071 1.563 1.563a.88.88 0 0 0 1.246 0l3.906-3.907a.881.881 0 0 0 0-1.246zM17 4.026a.879.879 0 0 0-.88.88c0 .454.34.832.792.876a.879.879 0 0 0 .969-.876.879.879 0 0 0-.881-.88zm14.744 15.192c0 9.278-5.913 17.313-14.744 20.079A21.024 21.024 0 0 1 2.256 19.218V7.28a5.583 5.583 0 0 0 4.618-4.618h20.252a5.583 5.583 0 0 0 4.618 4.618v11.938zM17 12.306a7.14 7.14 0 0 0-7.131 7.132A7.14 7.14 0 0 0 17 26.567a7.14 7.14 0 0 0 7.131-7.13A7.14 7.14 0 0 0 17 12.306zm0 12.5a5.375 5.375 0 0 1-5.369-5.369A5.375 5.375 0 0 1 17 14.07a5.375 5.375 0 0 1 5.369 5.368A5.375 5.375 0 0 1 17 24.808z" fill="#fff" stroke="#fff" stroke-width=".2"/></svg>