<svg width="42" height="40" viewBox="0 0 42 40" fill="none" xmlns="http://www.w3.org/2000/svg"><path d="M40.923 21.848a15.811 15.811 0 0 0-4.544-9.59 15.688 15.688 0 0 0-7.718-4.237V6.035a2.66 2.66 0 0 0 2.015-2.577A2.66 2.66 0 0 0 28.02.802h-5.625a2.66 2.66 0 0 0-2.657 2.656c0 1.243.86 2.29 2.016 2.577v1.991a15.687 15.687 0 0 0-7.694 4.232c-.48.48-.922.983-1.327 1.506a.772.772 0 0 0-.059-.003H7.107a.781.781 0 0 0 0 1.562h4.564a15.654 15.654 0 0 0-1.387 3.003H1.781a.781.781 0 0 0 0 1.562h8.062a15.886 15.886 0 0 0-.388 3.003H6a.781.781 0 1 0 0 1.563h3.48c.066 1.011.228 2.017.488 3.003H4.906a.781.781 0 0 0 0 1.562h5.56a15.69 15.69 0 0 0 3.594 5.558 15.81 15.81 0 0 0 11.148 4.621 15.82 15.82 0 0 0 8.612-2.545.781.781 0 1 0-.853-1.31c-5.59 3.64-13.077 2.854-17.802-1.871-5.544-5.544-5.544-14.565 0-20.109 5.544-5.544 14.565-5.544 20.109 0 4.718 4.719 5.51 12.2 1.881 17.787a.781.781 0 0 0 1.31.851 15.832 15.832 0 0 0 2.458-10.153zM21.3 3.457c0-.603.49-1.094 1.094-1.094h5.625a1.095 1.095 0 0 1 0 2.188h-5.625c-.603 0-1.094-.491-1.094-1.094zm2.015 4.3V6.113H27.1v1.64a15.918 15.918 0 0 0-3.783.003z" fill="#fff"/><path d="M35.826 33.243a.786.786 0 0 0-.78.78.784.784 0 0 0 .78.782.785.785 0 0 0 .782-.781.787.787 0 0 0-.23-.553.789.789 0 0 0-.552-.228zM25.22 11.298c-6.683 0-12.12 5.437-12.12 12.12 0 6.682 5.437 12.119 12.12 12.119 6.682 0 12.119-5.437 12.119-12.12 0-6.683-5.437-12.12-12.12-12.12zm0 22.677c-5.822 0-10.558-4.736-10.558-10.558 0-5.82 4.736-10.557 10.557-10.557 5.822 0 10.557 4.736 10.557 10.557 0 5.822-4.735 10.557-10.557 10.557z" fill="#fff"/><path d="M30.161 17.37l-3.87 3.87a2.413 2.413 0 0 0-2.144 0l-1.732-1.732a.781.781 0 0 0-1.105 1.105l1.732 1.732a2.43 2.43 0 0 0 2.177 3.5 2.43 2.43 0 0 0 2.177-3.5l3.87-3.87a.781.781 0 0 0-1.105-1.105zm-4.942 6.912a.866.866 0 0 1 0-1.73.866.866 0 0 1 0 1.73zM33.572 22.645h-.723a.781.781 0 1 0 0 1.563h.723a.781.781 0 0 0 0-1.563zM17.59 22.627h-.724a.781.781 0 1 0 0 1.562h.724a.781.781 0 0 0 0-1.562zM25.229 16.569c.431 0 .781-.35.781-.781v-.724a.781.781 0 1 0-1.563 0v.724c0 .431.35.78.782.78zM25.21 30.265a.781.781 0 0 0-.782.782v.723a.781.781 0 0 0 1.563 0v-.723a.781.781 0 0 0-.781-.782zM1.781 27.456a.787.787 0 0 0-.552.23.787.787 0 0 0-.229.552.785.785 0 0 0 .781.78.787.787 0 0 0 .553-.228.787.787 0 0 0 .229-.552.787.787 0 0 0-.23-.553.787.787 0 0 0-.552-.229z" fill="#fff"/><path fill-rule="evenodd" clip-rule="evenodd" d="M37.276 32.399a.981.981 0 0 1-.288-1.358c3.576-5.508 2.796-12.884-1.856-17.537-5.466-5.465-14.36-5.465-19.826 0-5.466 5.466-5.466 14.36 0 19.826 4.659 4.659 12.041 5.435 17.552 1.846a.981.981 0 0 1 1.071 1.644 16.019 16.019 0 0 1-10.29 2.501 16.01 16.01 0 0 1-9.72-4.603 15.89 15.89 0 0 1-3.59-5.499H4.906a.981.981 0 0 1 0-1.962H9.71a16.06 16.06 0 0 1-.416-2.603H6a.981.981 0 0 1 0-1.963h3.263c.039-.873.15-1.744.331-2.603H1.781a.981.981 0 0 1 0-1.962h8.36c.313-.894.706-1.766 1.181-2.603H7.107a.981.981 0 0 1 0-1.963h5.531c.393-.5.82-.982 1.28-1.443a15.886 15.886 0 0 1 7.636-4.25v-1.68a2.86 2.86 0 0 1-2.015-2.73A2.86 2.86 0 0 1 22.395.603h5.625a2.86 2.86 0 0 1 2.856 2.856 2.86 2.86 0 0 1-2.015 2.73V7.86a15.886 15.886 0 0 1 7.659 4.256 16.012 16.012 0 0 1 4.602 9.71 16.032 16.032 0 0 1-2.489 10.283.981.981 0 0 1-1.357.289zm-.897 1.072a.789.789 0 0 0-.553-.228.786.786 0 0 0-.78.78.784.784 0 0 0 .78.782.785.785 0 0 0 .782-.781.787.787 0 0 0-.23-.553zm-1.246 1.247a.983.983 0 0 0 1.675-.694.987.987 0 0 0-.288-.694.99.99 0 0 0-.694-.287.985.985 0 0 0-.693.287m-8.841-12.09a2.413 2.413 0 0 0-2.145 0l-1.732-1.732a.781.781 0 0 0-1.105 1.105l1.732 1.732a2.43 2.43 0 0 0 2.177 3.5 2.43 2.43 0 0 0 2.177-3.5l3.87-3.87a.781.781 0 0 0-1.105-1.105l-3.87 3.87zM23.516 7.534A16.12 16.12 0 0 1 26.9 7.53V6.314h-3.383v1.22zM12.9 23.416c0-6.793 5.526-12.32 12.32-12.32 6.793 0 12.319 5.527 12.319 12.32 0 6.794-5.526 12.32-12.32 12.32-6.793 0-12.32-5.526-12.32-12.32zm1.962 0c0 5.711 4.647 10.358 10.357 10.358 5.711 0 10.357-4.647 10.357-10.358 0-5.71-4.646-10.357-10.357-10.357-5.71 0-10.357 4.647-10.357 10.357zm9.692 0a.666.666 0 0 0 1.33 0 .666.666 0 0 0-1.33 0zm8.295-.972h.723a.981.981 0 0 1 0 1.963h-.723a.981.981 0 0 1 0-1.963zm-15.983-.018h.724a.981.981 0 0 1 0 1.962h-.724a.981.981 0 0 1 0-1.962zm9.344-6.64a.981.981 0 1 1-1.963 0v-.723a.981.981 0 0 1 1.963 0v.724zm-1.982 15.26a.981.981 0 0 1 1.963 0v.723a.981.981 0 0 1-1.962 0v-.723zM2.476 28.93a.987.987 0 0 1-.694.288.985.985 0 0 1-.981-.981c0-.259.105-.511.288-.694M21.3 3.458c0-.603.49-1.094 1.094-1.094h5.625a1.095 1.095 0 0 1 0 2.188h-5.625c-.603 0-1.094-.491-1.094-1.094zM13.1 23.418c0-6.683 5.437-12.12 12.12-12.12 6.682 0 12.119 5.437 12.119 12.12 0 6.682-5.437 12.119-12.12 12.119-6.683 0-12.12-5.437-12.12-12.12zm1.562 0c0 5.82 4.736 10.556 10.557 10.556 5.822 0 10.557-4.735 10.557-10.557 0-5.82-4.735-10.557-10.557-10.557-5.821 0-10.557 4.736-10.557 10.557zm10.557.864a.866.866 0 0 1 0-1.73.866.866 0 0 1 0 1.73zm7.63-1.637h.723a.781.781 0 1 1 0 1.563h-.723a.781.781 0 0 1 0-1.563zm-15.26-.018h-.723a.781.781 0 1 0 0 1.562h.724a.781.781 0 0 0 0-1.562zm8.421-6.84a.781.781 0 1 1-1.563 0v-.723a.781.781 0 0 1 1.563 0v.724zm-.8 14.478a.781.781 0 0 0-.782.782v.723a.781.781 0 0 0 1.563 0v-.723a.781.781 0 0 0-.781-.782z" fill="#fff"/></svg>