<svg width="12" height="12" viewBox="0 0 12 12" fill="none" xmlns="http://www.w3.org/2000/svg"><g clip-path="url(#clip0)"><path d="M1.765 10.318c.541.521 1.189.947 1.943 1.237A6.95 6.95 0 0 0 6.213 12c1.015 0 1.953-.155 2.794-.474.764-.28.107-1.702-.454-1.47-.619.262-1.373.397-2.234.397a5.23 5.23 0 0 1-1.837-.31 4 4 0 0 1-1.402-.87A3.963 3.963 0 0 1 2.17 7.9c-.222-.541-.328-1.16-.328-1.837a4.9 4.9 0 0 1 .319-1.789c.213-.541.503-1.025.89-1.412a4.033 4.033 0 0 1 1.373-.938 4.608 4.608 0 0 1 1.789-.338c.609 0 1.17.087 1.673.242.493.154.918.396 1.276.715.358.32.638.706.841 1.17.203.464.3 1.006.3 1.625 0 .358-.039.696-.116 1.015-.077.3-.174.57-.31.783a1.54 1.54 0 0 1-.444.484c-.203.135-.503.213-.735.135-.29-.096-.232-.503-.213-.744.029-.33.116-.639.184-.958.106-.522.222-1.034.328-1.547.058-.28.126-.57.184-.85a.583.583 0 0 0-.57-.707h-.426a.58.58 0 0 0-.56.426c-.03.116-.059.213-.059.213-.212-.658-.996-.842-1.615-.832-.812.01-1.556.426-2.098 1.015-.048.058-.106.116-.155.174-.28.339-.493.735-.638 1.151-.155.445-.232.9-.232 1.364 0 .396.058.773.165 1.112.116.348.28.647.493.899.212.251.483.454.802.6.32.144.677.222 1.064.222.29 0 .56-.049.802-.136.233-.087.445-.193.629-.319a2.61 2.61 0 0 0 .387-.319c.067.126.145.232.251.339.271.29.687.435 1.238.435.435 0 .86-.087 1.257-.261a2.978 2.978 0 0 0 1.054-.793c.29-.348.532-.774.706-1.277.174-.502.26-1.083.26-1.72 0-.871-.163-1.645-.483-2.292a4.789 4.789 0 0 0-1.295-1.635A5.588 5.588 0 0 0 8.32.34 6.452 6.452 0 0 0 6.213 0C5.37 0 4.569.155 3.824.454a6.244 6.244 0 0 0-1.953 1.267A5.868 5.868 0 0 0 .063 6.014c0 .861.145 1.673.445 2.399.29.734.715 1.373 1.257 1.905zm5.23-4.062a2.924 2.924 0 0 1-.299.745c-.135.222-.3.406-.512.55-.194.136-.426.204-.716.204a.802.802 0 0 1-.435-.106.835.835 0 0 1-.28-.3 1.41 1.41 0 0 1-.155-.426 2.39 2.39 0 0 1-.049-.425c0-.27.04-.542.116-.822.078-.27.184-.522.33-.735.144-.213.309-.387.512-.522.183-.126.386-.184.628-.184.194 0 .348.03.464.097a.81.81 0 0 1 .28.261c.078.116.127.251.165.397.039.164.058.338.058.502-.01.242-.038.494-.106.764z" fill="url(#paint0_linear)"/></g><defs><linearGradient id="paint0_linear" x1="6" x2="6" y2="12" gradientUnits="userSpaceOnUse"><stop stop-color="#EB862C"/><stop offset="1" stop-color="#E35930"/></linearGradient><clipPath id="clip0"><path fill="#fff" d="M0 0h12v12H0z"/></clipPath></defs></svg>