<svg width="40" height="40" viewBox="0 0 40 40" fill="none" xmlns="http://www.w3.org/2000/svg"><g clip-path="url(#clip0)" stroke-width=".2"><path d="M36.857 28.859a.897.897 0 0 0-1.151-.531l.034.094-.035-.094-8.286 3.058a.897.897 0 1 0 .62 1.683l8.287-3.058a.897.897 0 0 0 .531-1.152z" fill="url(#paint0_linear)" stroke="url(#paint1_linear)"/><path d="M24.79 32.356l.35-.13a.897.897 0 0 1 1.152.532l-.094.034a.797.797 0 0 1-.471 1.024l-.938-1.46zm0 0a.897.897 0 0 0-.532 1.152l.531-1.152z" fill="url(#paint2_linear)" stroke="url(#paint3_linear)"/><path d="M36.857 25.612a.897.897 0 0 0-1.151-.531l-6.55 2.416a.897.897 0 1 0 .62 1.683h.002l6.548-2.416a.897.897 0 0 0 .531-1.152z" fill="url(#paint4_linear)" stroke="url(#paint5_linear)"/><path d="M36.857 22.399a.897.897 0 0 0-1.151-.531l-6.55 2.416a.897.897 0 1 0 .62 1.683h.002l6.548-2.416a.897.897 0 0 0 .531-1.152z" fill="url(#paint6_linear)" stroke="url(#paint7_linear)"/><path d="M20.31.674a.897.897 0 0 0-.62 0L.486 7.76l-.05.018v.003A.897.897 0 0 0-.1 8.6v22.797c0 .376.234.712.586.842l19.203 7.085a.896.896 0 0 0 .545.024l.002.004.075-.028 19.203-7.085-.035-.094.035.094a.897.897 0 0 0 .586-.842V8.601a.897.897 0 0 0-.586-.841l-.035.094.035-.094L20.31.674zm-1.207 15.638v20.885l-17.41-6.424V9.888l3.386 1.25v9.584c0 .376.234.711.587.842l.034-.094-.034.094 8.605 3.175a.896.896 0 0 0 .823-.106l-.057-.082.057.082a.897.897 0 0 0 .384-.735v-8.924l3.625 1.338zm-4.21-9.823a.898.898 0 0 0-.622 0L5.967 9.553l-2.58-.952L20 2.471l16.612 6.13L20 14.731l-2.836-1.047 6.334-2.337-.035-.094.035.094a.897.897 0 0 0 0-1.683l-.035.094.035-.094-8.606-3.175zm-8.02 5.31l6.812 2.514v8.298l-6.812-2.514v-8.298zm7.709-3.513l6.014 2.22-6.014 2.22-6.015-2.22 6.015-2.22zm23.724 1.602v20.886l-17.41 6.423V16.312l17.41-6.424z" fill="url(#paint8_linear)" stroke="url(#paint9_linear)"/></g><defs><linearGradient id="paint0_linear" x1="31.872" y1="28.372" x2="31.872" y2="33.024" gradientUnits="userSpaceOnUse"><stop stop-color="#EB862C"/><stop offset="1" stop-color="#E35930"/></linearGradient><linearGradient id="paint1_linear" x1="31.872" y1="28.372" x2="31.872" y2="33.024" gradientUnits="userSpaceOnUse"><stop stop-color="#EB862C"/><stop offset="1" stop-color="#E35930"/></linearGradient><linearGradient id="paint2_linear" x1="25.275" y1="32.271" x2="25.275" y2="33.995" gradientUnits="userSpaceOnUse"><stop stop-color="#EB862C"/><stop offset="1" stop-color="#E35930"/></linearGradient><linearGradient id="paint3_linear" x1="25.275" y1="32.271" x2="25.275" y2="33.995" gradientUnits="userSpaceOnUse"><stop stop-color="#EB862C"/><stop offset="1" stop-color="#E35930"/></linearGradient><linearGradient id="paint4_linear" x1="32.742" y1="25.125" x2="32.742" y2="29.136" gradientUnits="userSpaceOnUse"><stop stop-color="#EB862C"/><stop offset="1" stop-color="#E35930"/></linearGradient><linearGradient id="paint5_linear" x1="32.742" y1="25.125" x2="32.742" y2="29.136" gradientUnits="userSpaceOnUse"><stop stop-color="#EB862C"/><stop offset="1" stop-color="#E35930"/></linearGradient><linearGradient id="paint6_linear" x1="32.742" y1="21.912" x2="32.742" y2="25.923" gradientUnits="userSpaceOnUse"><stop stop-color="#EB862C"/><stop offset="1" stop-color="#E35930"/></linearGradient><linearGradient id="paint7_linear" x1="32.742" y1="21.912" x2="32.742" y2="25.923" gradientUnits="userSpaceOnUse"><stop stop-color="#EB862C"/><stop offset="1" stop-color="#E35930"/></linearGradient><linearGradient id="paint8_linear" x1="20" y1=".719" x2="20" y2="39.281" gradientUnits="userSpaceOnUse"><stop stop-color="#EB862C"/><stop offset="1" stop-color="#E35930"/></linearGradient><linearGradient id="paint9_linear" x1="20" y1=".719" x2="20" y2="39.281" gradientUnits="userSpaceOnUse"><stop stop-color="#EB862C"/><stop offset="1" stop-color="#E35930"/></linearGradient><clipPath id="clip0"><path fill="#fff" d="M0 0h40v40H0z"/></clipPath></defs></svg>