<svg width="40" height="40" viewBox="0 0 40 40" fill="none" xmlns="http://www.w3.org/2000/svg"><g clip-path="url(#clip0)"><path d="M23.183 13.333v.15h1.634V12.667a.517.517 0 0 1 1.033 0V13.483H27.483V12.667a2.15 2.15 0 1 0-4.3 0v.666z" fill="url(#paint0_linear)" stroke="url(#paint1_linear)" stroke-width=".3"/><path d="M29.85 13.333v.15H31.483V12.667a.517.517 0 0 1 1.034 0V13.483H34.15V12.667a2.15 2.15 0 0 0-4.3 0v.666z" fill="url(#paint2_linear)" stroke="url(#paint3_linear)" stroke-width=".3"/><path d="M30 15.183h-.15V16a1.183 1.183 0 1 1-2.367 0V15.183H25.85V16a2.817 2.817 0 0 0 5.633 0V15.183H30z" fill="url(#paint4_linear)" stroke="url(#paint5_linear)" stroke-width=".3"/><mask id="a" maskUnits="userSpaceOnUse" x="-1" y="-1" width="42" height="42" fill="#000"><path fill="#fff" d="M-1-1h42v42H-1z"/><path d="M35.333 21.333H32V20.6a7.938 7.938 0 0 0 4.553-5.933h.78a2 2 0 1 0 0-4h-.666V0h-10a6.007 6.007 0 0 0-6 6v4.667H20a2 2 0 1 0 0 4h.78a7.937 7.937 0 0 0 4.553 5.933v.733H22A4.672 4.672 0 0 0 17.333 26v.667h-4V26a2 2 0 0 0-2-2H8.667a2 2 0 0 0-2 2v.667h-6a.667.667 0 0 0-.667.666v12c0 .369.298.667.667.667h38.666a.667.667 0 0 0 .667-.667V26a4.672 4.672 0 0 0-4.667-4.667zM36.667 12h.666a.667.667 0 0 1 0 1.333h-.666V12zm-16 1.333H20A.667.667 0 1 1 20 12h.667v1.333zM34 22.667l-2.739 3.652-.123-.124-1.529-1.528 2-2H34zm-4.276 4l-.667.666h-.781l-.667-.666 1.058-1.058 1.057 1.058zm-2.115-4h2.115l-1.057 1.057-1.058-1.057zM22 6a4.672 4.672 0 0 1 4.667-4.667h8.666v4h-6V6a2 2 0 0 1-2 2H22V6zm0 7.333v-4h5.333A3.339 3.339 0 0 0 30.6 6.667h4.733v6.666a6.627 6.627 0 0 1-4.242 6.206.667.667 0 0 0-.424.62v1.174h-4V20.16a.667.667 0 0 0-.424-.62A6.627 6.627 0 0 1 22 13.333zm3.724 9.334l2 2-1.529 1.528-.123.124-2.739-3.652h2.391zM8 26c0-.368.299-.667.667-.667h2.666c.368 0 .667.299.667.667v.667H8V26zm10.667 12.667H1.333V34H8v2c0 .368.299.667.667.667h2.666A.667.667 0 0 0 12 36v-2h6.667v4.667zm-9.334-3.334V34h1.334v1.333H9.333zm9.334-2.666H1.333V28h17.334v4.667zm1.333 6V27.333a.667.667 0 0 0-.667-.666h-.666V26a3.327 3.327 0 0 1 3.023-3.302l3.777 5.035a.667.667 0 0 0 .486.267H26c.177 0 .346-.07.471-.195l.196-.196.619.62-1.277 7.661c-.03.18.015.364.124.51l1.7 2.267H20zm7.371-2.839l1.194-7.161h.204l1.193 7.161-1.295 1.727-1.296-1.727zm11.296 2.839H29.5l1.7-2.267a.667.667 0 0 0 .124-.51l-1.277-7.661.62-.62.195.196a.667.667 0 0 0 .471.195h.048a.667.667 0 0 0 .486-.267l3.776-5.035A3.327 3.327 0 0 1 38.667 26v12.667z"/></mask><path d="M35.333 21.333H32V20.6a7.938 7.938 0 0 0 4.553-5.933h.78a2 2 0 1 0 0-4h-.666V0h-10a6.007 6.007 0 0 0-6 6v4.667H20a2 2 0 1 0 0 4h.78a7.937 7.937 0 0 0 4.553 5.933v.733H22A4.672 4.672 0 0 0 17.333 26v.667h-4V26a2 2 0 0 0-2-2H8.667a2 2 0 0 0-2 2v.667h-6a.667.667 0 0 0-.667.666v12c0 .369.298.667.667.667h38.666a.667.667 0 0 0 .667-.667V26a4.672 4.672 0 0 0-4.667-4.667zM36.667 12h.666a.667.667 0 0 1 0 1.333h-.666V12zm-16 1.333H20A.667.667 0 1 1 20 12h.667v1.333zM34 22.667l-2.739 3.652-.123-.124-1.529-1.528 2-2H34zm-4.276 4l-.667.666h-.781l-.667-.666 1.058-1.058 1.057 1.058zm-2.115-4h2.115l-1.057 1.057-1.058-1.057zM22 6a4.672 4.672 0 0 1 4.667-4.667h8.666v4h-6V6a2 2 0 0 1-2 2H22V6zm0 7.333v-4h5.333A3.339 3.339 0 0 0 30.6 6.667h4.733v6.666a6.627 6.627 0 0 1-4.242 6.206.667.667 0 0 0-.424.62v1.174h-4V20.16a.667.667 0 0 0-.424-.62A6.627 6.627 0 0 1 22 13.333zm3.724 9.334l2 2-1.529 1.528-.123.124-2.739-3.652h2.391zM8 26c0-.368.299-.667.667-.667h2.666c.368 0 .667.299.667.667v.667H8V26zm10.667 12.667H1.333V34H8v2c0 .368.299.667.667.667h2.666A.667.667 0 0 0 12 36v-2h6.667v4.667zm-9.334-3.334V34h1.334v1.333H9.333zm9.334-2.666H1.333V28h17.334v4.667zm1.333 6V27.333a.667.667 0 0 0-.667-.666h-.666V26a3.327 3.327 0 0 1 3.023-3.302l3.777 5.035a.667.667 0 0 0 .486.267H26c.177 0 .346-.07.471-.195l.196-.196.619.62-1.277 7.661c-.03.18.015.364.124.51l1.7 2.267H20zm7.371-2.839l1.194-7.161h.204l1.193 7.161-1.295 1.727-1.296-1.727zm11.296 2.839H29.5l1.7-2.267a.667.667 0 0 0 .124-.51l-1.277-7.661.62-.62.195.196a.667.667 0 0 0 .471.195h.048a.667.667 0 0 0 .486-.267l3.776-5.035A3.327 3.327 0 0 1 38.667 26v12.667z" fill="url(#paint6_linear)"/><path d="M35.333 21.333H32V20.6a7.938 7.938 0 0 0 4.553-5.933h.78a2 2 0 1 0 0-4h-.666V0h-10a6.007 6.007 0 0 0-6 6v4.667H20a2 2 0 1 0 0 4h.78a7.937 7.937 0 0 0 4.553 5.933v.733H22A4.672 4.672 0 0 0 17.333 26v.667h-4V26a2 2 0 0 0-2-2H8.667a2 2 0 0 0-2 2v.667h-6a.667.667 0 0 0-.667.666v12c0 .369.298.667.667.667h38.666a.667.667 0 0 0 .667-.667V26a4.672 4.672 0 0 0-4.667-4.667zM36.667 12h.666a.667.667 0 0 1 0 1.333h-.666V12zm-16 1.333H20A.667.667 0 1 1 20 12h.667v1.333zM34 22.667l-2.739 3.652-.123-.124-1.529-1.528 2-2H34zm-4.276 4l-.667.666h-.781l-.667-.666 1.058-1.058 1.057 1.058zm-2.115-4h2.115l-1.057 1.057-1.058-1.057zM22 6a4.672 4.672 0 0 1 4.667-4.667h8.666v4h-6V6a2 2 0 0 1-2 2H22V6zm0 7.333v-4h5.333A3.339 3.339 0 0 0 30.6 6.667h4.733v6.666a6.627 6.627 0 0 1-4.242 6.206.667.667 0 0 0-.424.62v1.174h-4V20.16a.667.667 0 0 0-.424-.62A6.627 6.627 0 0 1 22 13.333zm3.724 9.334l2 2-1.529 1.528-.123.124-2.739-3.652h2.391zM8 26c0-.368.299-.667.667-.667h2.666c.368 0 .667.299.667.667v.667H8V26zm10.667 12.667H1.333V34H8v2c0 .368.299.667.667.667h2.666A.667.667 0 0 0 12 36v-2h6.667v4.667zm-9.334-3.334V34h1.334v1.333H9.333zm9.334-2.666H1.333V28h17.334v4.667zm1.333 6V27.333a.667.667 0 0 0-.667-.666h-.666V26a3.327 3.327 0 0 1 3.023-3.302l3.777 5.035a.667.667 0 0 0 .486.267H26c.177 0 .346-.07.471-.195l.196-.196.619.62-1.277 7.661c-.03.18.015.364.124.51l1.7 2.267H20zm7.371-2.839l1.194-7.161h.204l1.193 7.161-1.295 1.727-1.296-1.727zm11.296 2.839H29.5l1.7-2.267a.667.667 0 0 0 .124-.51l-1.277-7.661.62-.62.195.196a.667.667 0 0 0 .471.195h.048a.667.667 0 0 0 .486-.267l3.776-5.035A3.327 3.327 0 0 1 38.667 26v12.667z" stroke="url(#paint7_linear)" stroke-width=".6" mask="url(#a)"/></g><defs><linearGradient id="paint0_linear" x1="25.333" y1="10.667" x2="25.333" y2="13.333" gradientUnits="userSpaceOnUse"><stop stop-color="#EB862C"/><stop offset="1" stop-color="#E35930"/></linearGradient><linearGradient id="paint1_linear" x1="25.333" y1="10.667" x2="25.333" y2="13.333" gradientUnits="userSpaceOnUse"><stop stop-color="#EB862C"/><stop offset="1" stop-color="#E35930"/></linearGradient><linearGradient id="paint2_linear" x1="32" y1="10.667" x2="32" y2="13.333" gradientUnits="userSpaceOnUse"><stop stop-color="#EB862C"/><stop offset="1" stop-color="#E35930"/></linearGradient><linearGradient id="paint3_linear" x1="32" y1="10.667" x2="32" y2="13.333" gradientUnits="userSpaceOnUse"><stop stop-color="#EB862C"/><stop offset="1" stop-color="#E35930"/></linearGradient><linearGradient id="paint4_linear" x1="28.667" y1="15.333" x2="28.667" y2="18.667" gradientUnits="userSpaceOnUse"><stop stop-color="#EB862C"/><stop offset="1" stop-color="#E35930"/></linearGradient><linearGradient id="paint5_linear" x1="28.667" y1="15.333" x2="28.667" y2="18.667" gradientUnits="userSpaceOnUse"><stop stop-color="#EB862C"/><stop offset="1" stop-color="#E35930"/></linearGradient><linearGradient id="paint6_linear" x1="20" x2="20" y2="40" gradientUnits="userSpaceOnUse"><stop stop-color="#EB862C"/><stop offset="1" stop-color="#E35930"/></linearGradient><linearGradient id="paint7_linear" x1="20" x2="20" y2="40" gradientUnits="userSpaceOnUse"><stop stop-color="#EB862C"/><stop offset="1" stop-color="#E35930"/></linearGradient><clipPath id="clip0"><path fill="#fff" d="M0 0h40v40H0z"/></clipPath></defs></svg>