<svg width="12" height="12" viewBox="0 0 12 12" fill="none" xmlns="http://www.w3.org/2000/svg"><g clip-path="url(#clip0)"><path d="M11.731 9.484L9.878 7.63c-.37-.367-.98-.356-1.363.026l-.933.933-.185-.102c-.59-.327-1.396-.775-2.245-1.624-.852-.852-1.3-1.66-1.628-2.25-.034-.063-.067-.123-.1-.18l.626-.626.309-.308c.382-.383.393-.994.024-1.363L2.53.283c-.368-.369-.98-.357-1.362.025L.645.834.66.848a3.02 3.02 0 0 0-.43.759c-.101.264-.164.517-.192.77C-.207 4.406.72 6.26 3.236 8.775c3.478 3.478 6.28 3.215 6.401 3.202a3.131 3.131 0 0 0 1.529-.622l.011.01.53-.518c.381-.383.392-.994.024-1.363z" fill="url(#paint0_linear)"/></g><defs><linearGradient id="paint0_linear" x1="6" y1=".014" x2="6" y2="11.986" gradientUnits="userSpaceOnUse"><stop stop-color="#EB862C"/><stop offset="1" stop-color="#E35930"/></linearGradient><clipPath id="clip0"><path fill="#fff" d="M0 0h12v12H0z"/></clipPath></defs></svg>