<svg width="38" height="30" viewBox="0 0 38 30" fill="none" xmlns="http://www.w3.org/2000/svg"><path d="M37.114 15.522h-2.299c3.327-6.92-.451-13.8-6.699-15.203a.55.55 0 1 0-.24 1.071c5.689 1.28 9.133 7.727 5.72 14.132h-2.038l-1.899-3.818a.55.55 0 0 0-1.014.076l-1.753 5.434-1.967-4.488a.55.55 0 1 0-1.006.441l2.548 5.814a.55.55 0 0 0 1.026-.052l1.783-5.528 1.45 2.915a.55.55 0 0 0 .492.305h1.71c-3.5 5.317-11.077 9.372-14.014 11.406-4.685-3.035-10.897-6.669-14.015-11.406H7.56a.55.55 0 0 0 .494-.31l2.346-4.826 2.94 8.625c.17.504.894.491 1.046-.022l2.324-7.864 2.097 3.524a.55.55 0 0 0 .98-.075l2.514-6.193.751 1.712a.55.55 0 1 0 1.006-.44l-1.273-2.905a.55.55 0 0 0-1.012.014l-2.588 6.375-2.173-3.654a.55.55 0 0 0-.999.125l-2.191 7.413-2.812-8.252a.55.55 0 0 0-1.014-.064l-2.78 5.718H4.232C.371 8.277 5.281 1.169 11.953 1.169c2.502 0 4.833.996 6.564 2.805a.55.55 0 0 0 .794 0 9.072 9.072 0 0 1 5.697-2.764.55.55 0 1 0-.103-1.094 10.168 10.168 0 0 0-5.991 2.705 10.083 10.083 0 0 0-6.96-2.75C4.725.07-.798 7.598 3.011 15.521H.713a.55.55 0 0 0 0 1.099H3.61c3.161 5.31 9.837 9.173 15.006 12.522a.547.547 0 0 0 .596 0c5.16-3.344 11.843-7.211 15.005-12.522h2.897a.55.55 0 0 0 0-1.099z" fill="url(#paint0_linear)"/><defs><linearGradient id="paint0_linear" x1="18.914" y1=".07" x2="18.914" y2="29.231" gradientUnits="userSpaceOnUse"><stop stop-color="#EB862C"/><stop offset="1" stop-color="#E35930"/></linearGradient></defs></svg>