<svg width="42" height="42" viewBox="0 0 42 42" fill="none" xmlns="http://www.w3.org/2000/svg"><mask id="a" maskUnits="userSpaceOnUse" x="-.2" y="-.181" width="42" height="42" fill="#000"><path fill="#fff" d="M-.2-.181h42v42h-42z"/><path d="M35.134 6.843A19.95 19.95 0 0 0 21.02 1.019 19.984 19.984 0 0 0 6.866 6.885 19.984 19.984 0 0 0 1 21.04c0 5.101 1.913 9.82 5.143 13.39a19.91 19.91 0 0 0 12.753 6.547c.425.042.85-.255.892-.723.043-.425-.255-.85-.722-.893-4.676-.51-8.8-2.72-11.732-5.993A18.443 18.443 0 0 1 2.615 21.04c0-5.1 2.083-9.691 5.399-13.007 3.315-3.358 7.906-5.399 13.007-5.399s9.692 2.083 13.008 5.399a18.417 18.417 0 0 1 5.398 13.007c0 1.53-.17 3.06-.552 4.549a19.178 19.178 0 0 1-1.658 4.25c-.213.383-.043.893.34 1.063.382.213.892.043 1.063-.34a18.042 18.042 0 0 0 1.785-4.633c.425-1.616.595-3.273.595-4.931a19.984 19.984 0 0 0-5.866-14.155z"/><path d="M20.979 5.397c-4.336 0-8.204 1.743-11.052 4.591A15.613 15.613 0 0 0 5.336 21.04c0 3.826 1.403 7.396 3.74 10.117a15.373 15.373 0 0 0 9.395 5.271.751.751 0 0 0 .892-.68.751.751 0 0 0-.68-.893c-3.4-.552-6.333-2.295-8.459-4.76C8.27 27.84 7.08 24.95 6.91 21.804h1.997a.807.807 0 1 0 0-1.615H6.91c.212-3.57 1.7-6.759 4.08-9.097a13.993 13.993 0 0 1 9.097-4.08V9.01a.807.807 0 1 0 1.615 0V7.012c3.571.213 6.76 1.7 9.097 4.081a13.994 13.994 0 0 1 4.08 9.097h-1.997a.807.807 0 1 0 0 1.615h1.998a21.904 21.904 0 0 1-.17 1.658 11.58 11.58 0 0 1-.638 2.38c-.17.426.085.85.468 1.02.425.17.85-.084 1.02-.467.297-.85.553-1.743.723-2.635.297-.893.34-1.786.34-2.72 0-4.294-1.743-8.205-4.591-11.053a15.612 15.612 0 0 0-11.052-4.59z"/><path d="M23.53 21.04c0-.68-.298-1.318-.723-1.785a2.522 2.522 0 0 0-.978-.595v-6.504a.807.807 0 1 0-1.615 0v6.504c-.34.127-.68.297-.936.552l-.042.043a2.521 2.521 0 0 0-.595.978h-4.889a.807.807 0 1 0 0 1.615h4.846c.128.382.34.722.595.978a2.506 2.506 0 0 0 1.786.722c.722.043 1.36-.255 1.828-.722a2.506 2.506 0 0 0 .722-1.786zm-1.871.595a.865.865 0 0 1-.638.255c-.255 0-.51-.085-.637-.255-.17-.085-.298-.34-.298-.595 0-.255.085-.51.255-.637l.043-.043a.865.865 0 0 1 .637-.255c.255 0 .51.085.638.255.17.17.255.383.255.638s-.085.51-.255.637zM34.709 31.54h-.935v-.808c-.043-1.403-.595-2.678-1.53-3.613-.893-.893-2.168-1.445-3.571-1.445s-2.678.552-3.571 1.487a5.05 5.05 0 0 0-1.488 3.571v.808h-.935c-.34 0-.638.127-.85.34-.213.212-.34.51-.34.85v7.014c0 .34.127.637.34.85.212.212.51.34.85.34h12.03c.34 0 .637-.127.85-.34.213-.213.34-.51.34-.85V32.73c0-.34-.127-.638-.34-.85a1.187 1.187 0 0 0-.85-.34zm-9.522-.85c0-.893.383-1.786 1.02-2.423a3.433 3.433 0 0 1 2.466-1.02 3.58 3.58 0 0 1 2.465.977 3.434 3.434 0 0 1 1.02 2.466v.807h-6.971v-.807zm9.097 8.671H23.062v-6.248h11.222v6.248z"/><path d="M29.905 35.408c0-.34-.127-.638-.382-.893a1.187 1.187 0 0 0-.85-.34c-.34 0-.638.128-.893.383-.213.212-.34.51-.34.85 0 .255.085.468.212.68.085.17.213.298.383.383l-.468 1.785c-.042.127.043.213.128.255h1.913c.127 0 .212-.085.212-.213v-.042l-.467-1.785c.127-.128.255-.255.34-.383.127-.212.212-.425.212-.68z"/><path fill-rule="evenodd" clip-rule="evenodd" d="M18.896 40.977A19.91 19.91 0 0 1 6.143 34.43 19.905 19.905 0 0 1 1 21.04 19.984 19.984 0 0 1 6.866 6.885 19.984 19.984 0 0 1 21.021 1.02a19.95 19.95 0 0 1 14.113 5.824A19.984 19.984 0 0 1 41 20.998c0 1.658-.17 3.315-.595 4.93a18.042 18.042 0 0 1-1.785 4.634c-.17.383-.68.553-1.063.34-.383-.17-.553-.68-.34-1.063a19.178 19.178 0 0 0 1.658-4.25 18.25 18.25 0 0 0 .552-4.549c0-5.058-2.083-9.691-5.398-13.007-3.316-3.316-7.907-5.399-13.008-5.399-5.1 0-9.692 2.04-13.007 5.399-3.316 3.316-5.399 7.906-5.399 13.007 0 4.719 1.786 9.055 4.719 12.328 2.933 3.273 7.056 5.483 11.732 5.993.468.043.765.468.723.893-.043.468-.468.765-.893.723zm1.092-.704c-.055.59-.589.955-1.112.903h-.002a20.11 20.11 0 0 1-12.88-6.612A20.105 20.105 0 0 1 .8 21.04 20.184 20.184 0 0 1 6.725 6.744 20.184 20.184 0 0 1 21.02.819a20.15 20.15 0 0 1 14.254 5.882A20.184 20.184 0 0 1 41.2 20.998c0 1.67-.171 3.345-.601 4.98a18.239 18.239 0 0 1-1.8 4.674c-.222.484-.853.689-1.331.43-.487-.223-.692-.859-.427-1.338a18.975 18.975 0 0 0 1.64-4.205c.378-1.47.546-2.983.546-4.499 0-5.003-2.06-9.586-5.34-12.866-3.28-3.28-7.82-5.34-12.866-5.34-5.046 0-9.586 2.019-12.865 5.34-3.28 3.28-5.34 7.821-5.34 12.866 0 4.668 1.765 8.956 4.667 12.194 2.9 3.237 6.978 5.423 11.603 5.928.588.055.953.588.902 1.111zm-9.764-10.179c2.126 2.466 5.059 4.209 8.46 4.761a.751.751 0 0 1 .68.893.751.751 0 0 1-.893.68 15.373 15.373 0 0 1-9.394-5.271A15.534 15.534 0 0 1 5.336 21.04c0-4.336 1.785-8.246 4.59-11.052 2.849-2.848 6.717-4.59 11.053-4.59 4.336 0 8.246 1.785 11.052 4.59 2.848 2.848 4.59 6.759 4.59 11.052 0 .935-.042 1.828-.34 2.72a18.57 18.57 0 0 1-.722 2.636c-.17.383-.595.638-1.02.468-.383-.17-.638-.595-.468-1.02.298-.766.51-1.573.638-2.38.075-.487.116-.973.154-1.459l.016-.2H32.88a.807.807 0 1 1 0-1.615h1.998a13.989 13.989 0 0 0-4.08-9.097C28.503 8.757 25.39 7.281 21.9 7.026a14.75 14.75 0 0 0-.2-.014V9.01a.807.807 0 1 1-1.615 0V7.012l-.2.014a13.989 13.989 0 0 0-8.897 4.067C8.653 13.387 7.177 16.5 6.922 19.99c-.005.067-.01.133-.013.2h1.997a.807.807 0 1 1 0 1.615H6.91c.003.067.007.134.012.2.209 3.068 1.39 5.884 3.303 8.09zm-3.103-8.089c.209 3.02 1.372 5.79 3.254 7.958 2.095 2.43 4.985 4.148 8.334 4.694a.95.95 0 0 1 .853 1.12.95.95 0 0 1-1.126.848 15.573 15.573 0 0 1-9.512-5.338A15.734 15.734 0 0 1 5.136 21.04c0-4.392 1.808-8.352 4.65-11.193 2.883-2.884 6.801-4.65 11.193-4.65 4.392 0 8.352 1.809 11.193 4.65 2.884 2.884 4.65 6.845 4.65 11.193 0 .935-.042 1.85-.346 2.771-.173.9-.43 1.798-.728 2.651l-.003.008-.003.007c-.202.454-.727.793-1.277.572l-.008-.002c-.453-.202-.791-.727-.572-1.277.292-.75.5-1.544.626-2.338.073-.473.114-.947.152-1.427H32.88a1.007 1.007 0 1 1 0-2.015h1.784a13.79 13.79 0 0 0-4.008-8.755l-.002-.002c-2.256-2.297-5.318-3.752-8.754-4.007V9.01a1.007 1.007 0 1 1-2.015 0V7.227a13.789 13.789 0 0 0-8.755 4.008l-.002.001c-2.297 2.257-3.752 5.318-4.007 8.754h1.784a1.007 1.007 0 1 1 0 2.015H7.121zm15.834-2.885c.452.498.774 1.182.774 1.92 0 .73-.274 1.42-.781 1.927-.5.5-1.19.826-1.975.781a2.705 2.705 0 0 1-1.921-.781 2.7 2.7 0 0 1-.594-.92h-4.706a1.007 1.007 0 1 1 0-2.015h4.749c.139-.355.347-.672.593-.919l.043-.042c.25-.25.566-.42.877-.548v-6.367a1.007 1.007 0 1 1 2.015 0v6.364c.355.139.672.347.919.593l.006.007zm-1.126-.46v-6.504a.807.807 0 1 0-1.615 0v6.504c-.34.127-.68.297-.936.552l-.042.043a2.521 2.521 0 0 0-.595.978h-4.889a.807.807 0 1 0 0 1.615h4.846c.128.382.34.722.595.978a2.506 2.506 0 0 0 1.786.722c.722.043 1.36-.255 1.828-.722a2.506 2.506 0 0 0 .722-1.786c0-.68-.297-1.318-.722-1.785a2.522 2.522 0 0 0-.978-.595zm-.302 2.824l.012-.009c.098-.073.175-.253.175-.477a.665.665 0 0 0-.197-.497l-.01-.01-.008-.01c-.074-.1-.253-.176-.478-.176a.666.666 0 0 0-.496.197l-.022.021v.001l-.02.02-.142-.142.043-.042a.865.865 0 0 1 .637-.255c.255 0 .51.085.638.255.17.17.255.383.255.638s-.085.51-.255.637a.865.865 0 0 1-.638.255c-.255 0-.51-.085-.637-.255-.17-.085-.298-.34-.298-.595 0-.255.085-.51.255-.637l.12.16c-.098.073-.175.253-.175.477 0 .096.024.193.064.272a.32.32 0 0 0 .123.144l.042.021.029.038c.073.099.253.175.477.175a.666.666 0 0 0 .496-.196l.01-.01zm12.247 9.248v.808h.935c.34 0 .637.127.85.34.213.212.34.51.34.85v7.014c0 .34-.127.637-.34.85-.212.212-.51.34-.85.34h-12.03c-.34 0-.638-.127-.85-.34a1.187 1.187 0 0 1-.34-.85V32.73c0-.34.127-.638.34-.85.212-.213.51-.34.85-.34h.935v-.808a5.05 5.05 0 0 1 1.488-3.57c.893-.936 2.168-1.488 3.57-1.488 1.404 0 2.679.552 3.571 1.445.936.935 1.488 2.21 1.53 3.613zm-8.815-3.71c.931-.975 2.259-1.548 3.714-1.548s2.781.573 3.712 1.504c.972.972 1.545 2.296 1.589 3.748v.614h.735c.391 0 .74.147.991.398.252.252.4.6.4.992v7.014c0 .391-.148.74-.4.991-.25.252-.6.4-.991.4h-12.03c-.391 0-.74-.148-.991-.4a1.386 1.386 0 0 1-.4-.991V32.73c0-.391.148-.74.4-.991.25-.252.6-.4.991-.4h.735v-.607a5.25 5.25 0 0 1 1.545-3.71zm2.736 11.49c-.085-.043-.17-.129-.128-.256l.468-1.785a.834.834 0 0 1-.383-.383c-.127-.212-.212-.425-.212-.68 0-.34.127-.638.34-.85.255-.255.553-.383.893-.383.34 0 .637.128.85.34.255.255.382.553.382.893 0 .255-.085.468-.212.68a2.745 2.745 0 0 1-.34.383l.467 1.785v.042c0 .128-.085.213-.212.213h-1.913zm1.88-1.981c.102-.103.207-.216.284-.332l.005-.008c.139-.23.241-.479.241-.783 0-.397-.15-.744-.44-1.034a1.387 1.387 0 0 0-.992-.399c-.397 0-.744.151-1.034.441-.252.252-.4.6-.4.992 0 .301.102.548.238.777.08.155.189.282.327.38l-.429 1.635a.38.38 0 0 0 .039.322.476.476 0 0 0 .192.168l.042.021h1.96c.11 0 .216-.037.295-.117a.412.412 0 0 0 .117-.295v-.069l-.445-1.7zm-3.226-8.123a3.285 3.285 0 0 0-.962 2.282v.607h6.571v-.607c0-.922-.359-1.72-.959-2.322a3.38 3.38 0 0 0-2.326-.921c-.923 0-1.723.36-2.324.961zm4.79-.184a3.434 3.434 0 0 1 1.02 2.466v.807h-6.972v-.807c0-.893.383-1.786 1.02-2.423a3.433 3.433 0 0 1 2.466-1.02 3.58 3.58 0 0 1 2.465.977zm-7.877 10.937v-5.848h10.822v5.848H23.262zm-.2-6.048h11.222v6.248H23.062v-6.248z"/></mask><path d="M35.134 6.843A19.95 19.95 0 0 0 21.02 1.019 19.984 19.984 0 0 0 6.866 6.885 19.984 19.984 0 0 0 1 21.04c0 5.101 1.913 9.82 5.143 13.39a19.91 19.91 0 0 0 12.753 6.547c.425.042.85-.255.892-.723.043-.425-.255-.85-.722-.893-4.676-.51-8.8-2.72-11.732-5.993A18.443 18.443 0 0 1 2.615 21.04c0-5.1 2.083-9.691 5.399-13.007 3.315-3.358 7.906-5.399 13.007-5.399s9.692 2.083 13.008 5.399a18.417 18.417 0 0 1 5.398 13.007c0 1.53-.17 3.06-.552 4.549a19.178 19.178 0 0 1-1.658 4.25c-.213.383-.043.893.34 1.063.382.213.892.043 1.063-.34a18.042 18.042 0 0 0 1.785-4.633c.425-1.616.595-3.273.595-4.931a19.984 19.984 0 0 0-5.866-14.155z" fill="url(#paint0_linear)"/><path d="M20.979 5.397c-4.336 0-8.204 1.743-11.052 4.591A15.613 15.613 0 0 0 5.336 21.04c0 3.826 1.403 7.396 3.74 10.117a15.373 15.373 0 0 0 9.395 5.271.751.751 0 0 0 .892-.68.751.751 0 0 0-.68-.893c-3.4-.552-6.333-2.295-8.459-4.76C8.27 27.84 7.08 24.95 6.91 21.804h1.997a.807.807 0 1 0 0-1.615H6.91c.212-3.57 1.7-6.759 4.08-9.097a13.993 13.993 0 0 1 9.097-4.08V9.01a.807.807 0 1 0 1.615 0V7.012c3.571.213 6.76 1.7 9.097 4.081a13.994 13.994 0 0 1 4.08 9.097h-1.997a.807.807 0 1 0 0 1.615h1.998a21.904 21.904 0 0 1-.17 1.658 11.58 11.58 0 0 1-.638 2.38c-.17.426.085.85.468 1.02.425.17.85-.084 1.02-.467.297-.85.553-1.743.723-2.635.297-.893.34-1.786.34-2.72 0-4.294-1.743-8.205-4.591-11.053a15.612 15.612 0 0 0-11.052-4.59z" fill="url(#paint1_linear)"/><path d="M23.53 21.04c0-.68-.298-1.318-.723-1.785a2.522 2.522 0 0 0-.978-.595v-6.504a.807.807 0 1 0-1.615 0v6.504c-.34.127-.68.297-.936.552l-.042.043a2.521 2.521 0 0 0-.595.978h-4.889a.807.807 0 1 0 0 1.615h4.846c.128.382.34.722.595.978a2.506 2.506 0 0 0 1.786.722c.722.043 1.36-.255 1.828-.722a2.506 2.506 0 0 0 .722-1.786zm-1.871.595a.865.865 0 0 1-.638.255c-.255 0-.51-.085-.637-.255-.17-.085-.298-.34-.298-.595 0-.255.085-.51.255-.637l.043-.043a.865.865 0 0 1 .637-.255c.255 0 .51.085.638.255.17.17.255.383.255.638s-.085.51-.255.637z" fill="url(#paint2_linear)"/><path d="M34.709 31.54h-.935v-.808c-.043-1.403-.595-2.678-1.53-3.613-.893-.893-2.168-1.445-3.571-1.445s-2.678.552-3.571 1.487a5.05 5.05 0 0 0-1.488 3.571v.808h-.935c-.34 0-.638.127-.85.34-.213.212-.34.51-.34.85v7.014c0 .34.127.637.34.85.212.212.51.34.85.34h12.03c.34 0 .637-.127.85-.34.213-.213.34-.51.34-.85V32.73c0-.34-.127-.638-.34-.85a1.187 1.187 0 0 0-.85-.34zm-9.522-.85c0-.893.383-1.786 1.02-2.423a3.433 3.433 0 0 1 2.466-1.02 3.58 3.58 0 0 1 2.465.977 3.434 3.434 0 0 1 1.02 2.466v.807h-6.971v-.807zm9.097 8.671H23.062v-6.248h11.222v6.248z" fill="url(#paint3_linear)"/><path d="M29.905 35.408c0-.34-.127-.638-.382-.893a1.187 1.187 0 0 0-.85-.34c-.34 0-.638.128-.893.383-.213.212-.34.51-.34.85 0 .255.085.468.212.68.085.17.213.298.383.383l-.468 1.785c-.042.127.043.213.128.255h1.913c.127 0 .212-.085.212-.213v-.042l-.467-1.785c.127-.128.255-.255.34-.383.127-.212.212-.425.212-.68z" fill="url(#paint4_linear)"/><path fill-rule="evenodd" clip-rule="evenodd" d="M18.896 40.977A19.91 19.91 0 0 1 6.143 34.43 19.905 19.905 0 0 1 1 21.04 19.984 19.984 0 0 1 6.866 6.885 19.984 19.984 0 0 1 21.021 1.02a19.95 19.95 0 0 1 14.113 5.824A19.984 19.984 0 0 1 41 20.998c0 1.658-.17 3.315-.595 4.93a18.042 18.042 0 0 1-1.785 4.634c-.17.383-.68.553-1.063.34-.383-.17-.553-.68-.34-1.063a19.178 19.178 0 0 0 1.658-4.25 18.25 18.25 0 0 0 .552-4.549c0-5.058-2.083-9.691-5.398-13.007-3.316-3.316-7.907-5.399-13.008-5.399-5.1 0-9.692 2.04-13.007 5.399-3.316 3.316-5.399 7.906-5.399 13.007 0 4.719 1.786 9.055 4.719 12.328 2.933 3.273 7.056 5.483 11.732 5.993.468.043.765.468.723.893-.043.468-.468.765-.893.723zm1.092-.704c-.055.59-.589.955-1.112.903h-.002a20.11 20.11 0 0 1-12.88-6.612A20.105 20.105 0 0 1 .8 21.04 20.184 20.184 0 0 1 6.725 6.744 20.184 20.184 0 0 1 21.02.819a20.15 20.15 0 0 1 14.254 5.882A20.184 20.184 0 0 1 41.2 20.998c0 1.67-.171 3.345-.601 4.98a18.239 18.239 0 0 1-1.8 4.674c-.222.484-.853.689-1.331.43-.487-.223-.692-.859-.427-1.338a18.975 18.975 0 0 0 1.64-4.205c.378-1.47.546-2.983.546-4.499 0-5.003-2.06-9.586-5.34-12.866-3.28-3.28-7.82-5.34-12.866-5.34-5.046 0-9.586 2.019-12.865 5.34-3.28 3.28-5.34 7.821-5.34 12.866 0 4.668 1.765 8.956 4.667 12.194 2.9 3.237 6.978 5.423 11.603 5.928.588.055.953.588.902 1.111zm-9.764-10.179c2.126 2.466 5.059 4.209 8.46 4.761a.751.751 0 0 1 .68.893.751.751 0 0 1-.893.68 15.373 15.373 0 0 1-9.394-5.271A15.534 15.534 0 0 1 5.336 21.04c0-4.336 1.785-8.246 4.59-11.052 2.849-2.848 6.717-4.59 11.053-4.59 4.336 0 8.246 1.785 11.052 4.59 2.848 2.848 4.59 6.759 4.59 11.052 0 .935-.042 1.828-.34 2.72a18.57 18.57 0 0 1-.722 2.636c-.17.383-.595.638-1.02.468-.383-.17-.638-.595-.468-1.02.298-.766.51-1.573.638-2.38.075-.487.116-.973.154-1.459l.016-.2H32.88a.807.807 0 1 1 0-1.615h1.998a13.989 13.989 0 0 0-4.08-9.097C28.503 8.757 25.39 7.281 21.9 7.026a14.75 14.75 0 0 0-.2-.014V9.01a.807.807 0 1 1-1.615 0V7.012l-.2.014a13.989 13.989 0 0 0-8.897 4.067C8.653 13.387 7.177 16.5 6.922 19.99c-.005.067-.01.133-.013.2h1.997a.807.807 0 1 1 0 1.615H6.91c.003.067.007.134.012.2.209 3.068 1.39 5.884 3.303 8.09zm-3.103-8.089c.209 3.02 1.372 5.79 3.254 7.958 2.095 2.43 4.985 4.148 8.334 4.694a.95.95 0 0 1 .853 1.12.95.95 0 0 1-1.126.848 15.573 15.573 0 0 1-9.512-5.338A15.734 15.734 0 0 1 5.136 21.04c0-4.392 1.808-8.352 4.65-11.193 2.883-2.884 6.801-4.65 11.193-4.65 4.392 0 8.352 1.809 11.193 4.65 2.884 2.884 4.65 6.845 4.65 11.193 0 .935-.042 1.85-.346 2.771-.173.9-.43 1.798-.728 2.651l-.003.008-.003.007c-.202.454-.727.793-1.277.572l-.008-.002c-.453-.202-.791-.727-.572-1.277.292-.75.5-1.544.626-2.338.073-.473.114-.947.152-1.427H32.88a1.007 1.007 0 1 1 0-2.015h1.784a13.79 13.79 0 0 0-4.008-8.755l-.002-.002c-2.256-2.297-5.318-3.752-8.754-4.007V9.01a1.007 1.007 0 1 1-2.015 0V7.227a13.789 13.789 0 0 0-8.755 4.008l-.002.001c-2.297 2.257-3.752 5.318-4.007 8.754h1.784a1.007 1.007 0 1 1 0 2.015H7.121zm15.834-2.885c.452.498.774 1.182.774 1.92 0 .73-.274 1.42-.781 1.927-.5.5-1.19.826-1.975.781a2.705 2.705 0 0 1-1.921-.781 2.7 2.7 0 0 1-.594-.92h-4.706a1.007 1.007 0 1 1 0-2.015h4.749c.139-.355.347-.672.593-.919l.043-.042c.25-.25.566-.42.877-.548v-6.367a1.007 1.007 0 1 1 2.015 0v6.364c.355.139.672.347.919.593l.006.007zm-1.126-.46v-6.504a.807.807 0 1 0-1.615 0v6.504c-.34.127-.68.297-.936.552l-.042.043a2.521 2.521 0 0 0-.595.978h-4.889a.807.807 0 1 0 0 1.615h4.846c.128.382.34.722.595.978a2.506 2.506 0 0 0 1.786.722c.722.043 1.36-.255 1.828-.722a2.506 2.506 0 0 0 .722-1.786c0-.68-.297-1.318-.722-1.785a2.522 2.522 0 0 0-.978-.595zm-.302 2.824l.012-.009c.098-.073.175-.253.175-.477a.665.665 0 0 0-.197-.497l-.01-.01-.008-.01c-.074-.1-.253-.176-.478-.176a.666.666 0 0 0-.496.197l-.022.021v.001l-.02.02-.142-.142.043-.042a.865.865 0 0 1 .637-.255c.255 0 .51.085.638.255.17.17.255.383.255.638s-.085.51-.255.637a.865.865 0 0 1-.638.255c-.255 0-.51-.085-.637-.255-.17-.085-.298-.34-.298-.595 0-.255.085-.51.255-.637l.12.16c-.098.073-.175.253-.175.477 0 .096.024.193.064.272a.32.32 0 0 0 .123.144l.042.021.029.038c.073.099.253.175.477.175a.666.666 0 0 0 .496-.196l.01-.01zm12.247 9.248v.808h.935c.34 0 .637.127.85.34.213.212.34.51.34.85v7.014c0 .34-.127.637-.34.85-.212.212-.51.34-.85.34h-12.03c-.34 0-.638-.127-.85-.34a1.187 1.187 0 0 1-.34-.85V32.73c0-.34.127-.638.34-.85.212-.213.51-.34.85-.34h.935v-.808a5.05 5.05 0 0 1 1.488-3.57c.893-.936 2.168-1.488 3.57-1.488 1.404 0 2.679.552 3.571 1.445.936.935 1.488 2.21 1.53 3.613zm-8.815-3.71c.931-.975 2.259-1.548 3.714-1.548s2.781.573 3.712 1.504c.972.972 1.545 2.296 1.589 3.748v.614h.735c.391 0 .74.147.991.398.252.252.4.6.4.992v7.014c0 .391-.148.74-.4.991-.25.252-.6.4-.991.4h-12.03c-.391 0-.74-.148-.991-.4a1.386 1.386 0 0 1-.4-.991V32.73c0-.391.148-.74.4-.991.25-.252.6-.4.991-.4h.735v-.607a5.25 5.25 0 0 1 1.545-3.71zm2.736 11.49c-.085-.043-.17-.129-.128-.256l.468-1.785a.834.834 0 0 1-.383-.383c-.127-.212-.212-.425-.212-.68 0-.34.127-.638.34-.85.255-.255.553-.383.893-.383.34 0 .637.128.85.34.255.255.382.553.382.893 0 .255-.085.468-.212.68a2.745 2.745 0 0 1-.34.383l.467 1.785v.042c0 .128-.085.213-.212.213h-1.913zm1.88-1.981c.102-.103.207-.216.284-.332l.005-.008c.139-.23.241-.479.241-.783 0-.397-.15-.744-.44-1.034a1.387 1.387 0 0 0-.992-.399c-.397 0-.744.151-1.034.441-.252.252-.4.6-.4.992 0 .301.102.548.238.777.08.155.189.282.327.38l-.429 1.635a.38.38 0 0 0 .039.322.476.476 0 0 0 .192.168l.042.021h1.96c.11 0 .216-.037.295-.117a.412.412 0 0 0 .117-.295v-.069l-.445-1.7zm-3.226-8.123a3.285 3.285 0 0 0-.962 2.282v.607h6.571v-.607c0-.922-.359-1.72-.959-2.322a3.38 3.38 0 0 0-2.326-.921c-.923 0-1.723.36-2.324.961zm4.79-.184a3.434 3.434 0 0 1 1.02 2.466v.807h-6.972v-.807c0-.893.383-1.786 1.02-2.423a3.433 3.433 0 0 1 2.466-1.02 3.58 3.58 0 0 1 2.465.977zm-7.877 10.937v-5.848h10.822v5.848H23.262zm-.2-6.048h11.222v6.248H23.062v-6.248z" fill="url(#paint5_linear)"/><path d="M35.134 6.843l-.07.07.07-.07zm-28.268.042l-.07-.07.07.07zM6.143 34.43l.075-.066-.075.066zm12.753 6.547l-.01.099.01-.1zm.892-.723l-.099-.01.1.01zm-.722-.893l-.011.1h.002l.009-.1zM7.334 33.368l-.075.066.075-.066zm.68-25.335l.07.07h.001l-.071-.07zm26.015 0l-.071.07.07-.07zm4.846 17.556l-.097-.025.097.025zm-1.658 4.25l.087.049.001-.002-.088-.047zm.34 1.063l.049-.088-.009-.003-.04.091zm1.063-.34l-.088-.049-.004.008.092.041zm1.785-4.633l-.097-.026v.003l.097.023zM9.927 9.989l-.071-.072.07.071zm-.85 21.168l.076-.065-.076.065zm9.394 5.271l.02-.098h-.005l-.015.098zm.892-.68l-.098-.02-.001.01.1.01zm-.68-.893l-.016.1h.007l.01-.1zm15.388-9.011l.093.037v-.001l-.093-.037zm.468 1.02l-.04.091.003.002.037-.093zm1.02-.468l.092.04.002-.007-.094-.033zm.723-2.635l-.096-.032-.003.013.099.019zM32.03 9.988l.07-.07-.07.07zm-9.224 9.267l.074-.067-.004-.004-.07.07zm-.978-.595h-.1v.072l.068.023.032-.095zm-1.615 0l.035.093.065-.024v-.07h-.1zm-.936.552l-.07-.07.07.07zm-.042.043l.07.07-.07-.07zm-.595.978v.1h.072l.023-.069-.095-.031zm-.043 1.615l.095-.032-.023-.068h-.072v.1zm.595.978l.071-.071-.07.07zm1.786.722l.006-.1h-.006v.1zm.68-1.913l-.06-.08-.006.005-.005.005.07.07zm-1.275 0l.08-.06-.015-.019-.02-.01-.045.09zm1.275-1.275l-.08.06.004.006.005.005.07-.071zm12.115 11.18h-.1v.1h.1v-.1zm0-.808h.1v-.003l-.1.003zm-1.53-3.613l.07-.07-.07.07zm-7.142.042l.07.071.002-.002-.072-.069zm-1.488 4.379v.1h.1v-.1h-.1zm-1.785.34l.07.07-.07-.07zm0 8.714l.07-.07-.07.07zm13.73 0l-.07-.07.07.07zm0-8.714l-.07.07.07-.07zm-9.352-3.613l-.07-.071.07.07zm4.931-.043l.07-.07-.002-.003-.068.073zm1.02 3.273v.1h.1v-.1h-.1zm-6.971 0h-.1v.1h.1v-.1zm9.097 7.864v.1h.1v-.1h-.1zm-11.222 0h-.1v.1h.1v-.1zm0-6.248v-.1h-.1v.1h.1zm11.222 0h.1v-.1h-.1v.1zm-4.761 1.402l-.07.071.07-.07zm-1.743.043l.07.07-.07-.07zm-.128 1.53l.09-.045-.004-.006-.085.051zm.383.383l.097.025.02-.079-.072-.036-.045.09zm-.468 1.785l.096.032.001-.007-.097-.025zm.128.255l-.045.09.021.01h.024v-.1zm2.125-.255h.1v-.013l-.003-.012-.097.025zm-.467-1.785l-.07-.071-.041.04.014.056.097-.025zm.34-.383l.083.056.003-.004-.086-.052zm5.512-29.316A20.05 20.05 0 0 0 21.02.919v.2a19.85 19.85 0 0 1 14.042 5.794l.142-.141zM21.02.919A20.084 20.084 0 0 0 6.795 6.814l.142.142A19.884 19.884 0 0 1 21.02 1.119v-.2zM6.795 6.814A20.084 20.084 0 0 0 .9 21.04h.2c0-5.498 2.242-10.489 5.837-14.084l-.142-.142zM.9 21.04c0 5.127 1.922 9.869 5.17 13.457l.148-.134A19.805 19.805 0 0 1 1.1 21.04H.9zm5.169 13.457a20.01 20.01 0 0 0 12.816 6.579l.022-.199a19.809 19.809 0 0 1-12.689-6.513l-.15.133zm12.817 6.579c.474.047.954-.284 1.002-.813l-.2-.018a.71.71 0 0 1-.782.632l-.02.199zm1.002-.812c.047-.475-.284-.954-.813-1.002l-.018.199a.71.71 0 0 1 .632.783l.199.02zm-.811-1.002c-4.651-.508-8.752-2.706-11.669-5.961l-.149.133c2.95 3.291 7.095 5.514 11.796 6.027l.022-.2zM7.408 33.3a18.343 18.343 0 0 1-4.693-12.26h-.2c0 4.743 1.795 9.103 4.744 12.393l.15-.133zM2.715 21.04c0-5.074 2.072-9.64 5.37-12.937l-.142-.142c-3.333 3.334-5.428 7.95-5.428 13.078h.2zm5.37-12.938c3.297-3.34 7.863-5.369 12.936-5.369v-.2c-5.128 0-9.744 2.052-13.078 5.429l.142.14zm12.936-5.369c5.073 0 9.64 2.072 12.937 5.37l.141-.142C30.766 4.63 26.15 2.534 21.021 2.534v.2zm12.937 5.37a18.317 18.317 0 0 1 5.37 12.936h.2c0-5.086-2.095-9.744-5.429-13.078l-.141.142zm5.37 12.936c0 1.523-.17 3.045-.55 4.524l.193.05c.385-1.497.556-3.036.556-4.574h-.2zm-.55 4.524a19.08 19.08 0 0 1-1.65 4.229l.177.093a19.274 19.274 0 0 0 1.666-4.272l-.193-.05zm-1.649 4.227c-.24.432-.05 1.008.387 1.203l.081-.183c-.327-.146-.478-.59-.293-.923l-.175-.097zm.38 1.199c.432.24 1.007.05 1.202-.387l-.183-.082c-.145.328-.59.479-.923.294l-.097.175zm1.198-.38a18.14 18.14 0 0 0 1.795-4.658l-.194-.046a17.94 17.94 0 0 1-1.776 4.607l.175.098zm1.795-4.656c.427-1.625.598-3.292.598-4.956h-.2c0 1.65-.17 3.3-.592 4.905l.194.051zm.598-4.956a20.084 20.084 0 0 0-5.895-14.226l-.142.141A19.884 19.884 0 0 1 40.9 20.998h.2zm-20.121-15.7c-4.364 0-8.257 1.753-11.123 4.62l.141.14c2.83-2.83 6.674-4.56 10.982-4.56v-.2zM9.856 9.917a15.712 15.712 0 0 0-4.62 11.122h.2c0-4.308 1.774-8.193 4.561-10.981l-.141-.142zM5.236 21.04c0 3.85 1.412 7.444 3.765 10.182l.151-.13A15.433 15.433 0 0 1 5.436 21.04h-.2zM9 31.222a15.473 15.473 0 0 0 9.455 5.305l.031-.198a15.273 15.273 0 0 1-9.333-5.237l-.153.13zm9.451 5.304a.851.851 0 0 0 1.012-.77l-.2-.017a.651.651 0 0 1-.773.591l-.039.196zm1.01-.759a.851.851 0 0 0-.769-1.011l-.018.199a.651.651 0 0 1 .591.773l.197.04zm-.762-1.01c-3.376-.55-6.288-2.28-8.399-4.728l-.152.13c2.14 2.483 5.094 4.238 8.52 4.795l.031-.197zM6.91 21.905h1.997v-.2H6.91v.2zm1.997 0a.907.907 0 0 0 .908-.907h-.2a.707.707 0 0 1-.708.707v.2zm.908-.907a.907.907 0 0 0-.908-.908v.2c.41 0 .708.334.708.708h.2zm-.908-.908H6.91v.2h1.997v-.2zm11.08-13.078V9.01h.2V7.012h-.2zm0 1.998c0 .477.381.908.908.908v-.2a.707.707 0 0 1-.708-.708h-.2zm.908.908a.907.907 0 0 0 .907-.908h-.2a.707.707 0 0 1-.707.708v.2zm.907-.908V7.012h-.2V9.01h.2zM34.88 20.09H32.88v.2h1.998v-.2zm-1.998 0a.907.907 0 0 0-.908.908h.2c0-.41.335-.708.708-.708v-.2zm-.908.908c0 .476.382.907.908.907v-.2a.707.707 0 0 1-.708-.707h-.2zm.908.907h1.998v-.2H32.88v.2zm1.73 1.543a11.488 11.488 0 0 1-.633 2.36l.186.072c.3-.772.515-1.587.644-2.401l-.198-.031zm-.633 2.358c-.195.488.102.963.52 1.15l.081-.184c-.347-.154-.56-.529-.415-.891l-.186-.075zm.524 1.15c.487.196.963-.101 1.148-.52l-.182-.08c-.155.347-.53.56-.892.415l-.074.186zm1.151-.527a18.68 18.68 0 0 0 .727-2.65l-.197-.037a18.467 18.467 0 0 1-.718 2.621l.188.066zm.724-2.637c.302-.909.345-1.815.345-2.752h-.2c0 .933-.043 1.812-.335 2.689l.19.063zm.345-2.752c0-4.32-1.755-8.257-4.62-11.123l-.142.142c2.83 2.83 4.562 6.715 4.562 10.981h.2zm-4.62-11.123a15.712 15.712 0 0 0-11.123-4.62v.2c4.308 0 8.193 1.774 10.981 4.562l.142-.142zM23.629 21.04c0-.709-.31-1.37-.748-1.852l-.148.134c.41.453.696 1.067.696 1.718h.2zm-.752-1.856a2.623 2.623 0 0 0-1.017-.62l-.063.19c.369.123.695.328.939.572l.141-.142zm-.948-.524v-6.504h-.2v6.504h.2zm0-6.504a.907.907 0 0 0-.908-.908v.2c.41 0 .708.335.708.708h.2zm-.908-.908a.907.907 0 0 0-.907.908h.2c0-.409.334-.708.707-.708v-.2zm-.907.908v6.504h.2v-6.504h-.2zm.064 6.41c-.345.13-.7.306-.97.576l.141.141c.24-.24.565-.404.9-.53l-.07-.187zm-.97.576l-.043.042.142.142.042-.043-.141-.141zm-.043.042c-.266.267-.487.62-.62 1.017l.19.063c.123-.368.328-.695.572-.938l-.142-.142zm-.524.948h-4.889v.2h4.889v-.2zm-4.889 0a.907.907 0 0 0-.907.908h.2c0-.409.334-.707.707-.707v-.2zm-.907.908c0 .477.381.908.907.908v-.2a.707.707 0 0 1-.707-.708h-.2zm.907.908h4.846v-.2h-4.846v.2zm4.751-.069c.133.397.353.75.62 1.017l.141-.141a2.424 2.424 0 0 1-.57-.939l-.19.063zm.62 1.017c.487.487 1.15.752 1.856.752v-.2a2.406 2.406 0 0 1-1.715-.693l-.141.141zm1.85.752c.755.044 1.42-.267 1.904-.752l-.141-.141c-.45.45-1.061.734-1.751.693l-.012.2zm1.904-.752c.488-.487.752-1.15.752-1.856h-.2c0 .655-.245 1.267-.693 1.715l.141.141zm-1.289-1.332a.765.765 0 0 1-.567.226v.2c.28 0 .518-.094.709-.284l-.142-.142zm-.567.226c-.24 0-.457-.08-.557-.215l-.16.12c.154.206.447.295.717.295v-.2zm-.593-.244a.414.414 0 0 1-.168-.19.721.721 0 0 1-.074-.316h-.2c0 .144.036.286.096.406a.61.61 0 0 0 .257.279l.09-.18zm-.242-.506c0-.24.08-.457.215-.557l-.12-.16c-.206.154-.295.447-.295.717h.2zm.268-.61a.766.766 0 0 1 .567-.225v-.2a.965.965 0 0 0-.708.284l.141.142zm.567-.225c.24 0 .457.08.558.215l.16-.12c-.155-.206-.448-.295-.718-.295v.2zm.567.226c.15.15.226.336.226.567h.2a.965.965 0 0 0-.284-.709l-.142.142zm.226.567c0 .24-.081.457-.215.557l.12.16c.206-.154.295-.447.295-.717h-.2zM34.709 31.44h-.935v.2h.935v-.2zm-.835.1v-.808h-.2v.808h.2zm0-.81c-.044-1.428-.606-2.728-1.56-3.682l-.141.142c.916.916 1.459 2.167 1.5 3.545l.2-.006zm-1.56-3.682c-.912-.911-2.212-1.474-3.641-1.474v.2c1.376 0 2.626.542 3.5 1.416l.141-.142zm-3.641-1.474c-1.43 0-2.731.563-3.643 1.518l.144.139c.874-.915 2.122-1.457 3.499-1.457v-.2zM25.03 27.09a5.15 5.15 0 0 0-1.517 3.641h.2a4.95 4.95 0 0 1 1.459-3.5l-.142-.141zm-1.517 3.641v.808h.2v-.808h-.2zm.1.708h-.935v.2h.935v-.2zm-.935 0c-.366 0-.689.137-.92.37l.14.14c.194-.193.466-.31.78-.31v-.2zm-.92.37c-.233.231-.37.554-.37.92h.2c0-.314.117-.586.31-.78l-.14-.14zm-.37.92v7.014h.2V32.73h-.2zm0 7.014c0 .365.137.689.37.92l.14-.14a1.087 1.087 0 0 1-.31-.78h-.2zm.37.92c.231.233.554.37.92.37v-.2c-.314 0-.586-.118-.78-.31l-.14.14zm.92.37h12.03v-.2h-12.03v.2zm12.03 0c.366 0 .689-.137.92-.37l-.14-.14c-.194.192-.466.31-.78.31v.2zm.92-.37c.233-.231.37-.555.37-.92h-.2c0 .314-.117.586-.31.78l.14.14zm.37-.92V32.73h-.2v7.014h.2zm0-7.014c0-.366-.137-.689-.37-.92l-.14.14c.193.194.31.466.31.78h.2zm-.37-.92a1.287 1.287 0 0 0-.92-.37v.2c.314 0 .586.117.78.31l.14-.14zm-10.342-1.12c0-.866.371-1.733.99-2.353l-.14-.141a3.584 3.584 0 0 0-1.05 2.494h.2zm.99-2.353c.62-.62 1.446-.99 2.396-.99v-.2c-1.006 0-1.88.393-2.536 1.049l.14.141zm2.396-.99c.95 0 1.776.371 2.397.95l.136-.146a3.68 3.68 0 0 0-2.533-1.005v.2zm2.395.948c.62.62.99 1.444.99 2.395h.2c0-1.006-.394-1.881-1.05-2.537l-.14.142zm.99 2.395v.807h.2v-.807h-.2zm.1.707h-6.971v.2h6.971v-.2zm-6.871.1v-.807h-.2v.807h.2zm8.997 7.764H23.062v.2h11.222v-.2zm-11.122.1v-6.248h-.2v6.248h.2zm11.022-6.248v6.248h.2v-6.248h-.2zm-4.179 2.295c0-.368-.139-.69-.411-.963l-.142.141c.238.238.353.51.353.822h.2zm-.411-.963a1.287 1.287 0 0 0-.921-.37v.2c.314 0 .586.118.78.311l.14-.141zm-.921-.37c-.369 0-.691.14-.964.412l.142.142c.237-.238.51-.354.822-.354v-.2zm-.964.412c-.232.232-.369.555-.369.921h.2c0-.314.117-.586.31-.78l-.14-.14zm-.369.921c0 .28.094.51.227.732l.171-.103c-.122-.204-.198-.399-.198-.629h-.2zm.223.725c.095.19.238.332.427.427l.09-.179a.734.734 0 0 1-.338-.338l-.179.09zm.375.312l-.467 1.786.193.05.468-1.785-.194-.05zm-.465 1.78a.28.28 0 0 0 .026.243c.04.064.099.106.151.132l.09-.178a.178.178 0 0 1-.072-.06c-.011-.018-.017-.04-.006-.074l-.19-.064zm2.135.386c.086 0 .166-.03.225-.088a.312.312 0 0 0 .087-.225h-.2c0 .042-.013.068-.029.084s-.042.03-.083.03v.2zm.312-.313v-.042h-.2v.042h.2zm-.003-.067l-.467-1.786-.194.051.468 1.785.193-.05zm-.494-1.69c.126-.125.262-.26.353-.397l-.166-.111a2.66 2.66 0 0 1-.328.367l.142.141zm.356-.401c.133-.222.226-.452.226-.732h-.2c0 .23-.076.425-.198.629l.172.103zm-6.717-2.927h11.222v-.2H23.062v.2zm4.633 5.398h1.913v-.2h-1.913v.2zM10.989 11.093l.14.143.002-.001-.142-.142zm19.81 0l-.144.14.002.002.141-.142zm4.08 9.097l-.2.012.4-.024-.2.012zm0 1.615l.2.016-.4-.031.2.015zm-16.003 19.37l-.02.2.02-.2zm1.112-.902l-.2-.02v.002l.2.018zm-1.114.902l-.021.2h.001l.02-.2zm-12.88-6.611l.15-.133-.001-.001-.148.134zm.73-27.82l-.14-.142.14.142zM35.276 6.7l.142-.141-.142.141zM40.6 25.977l-.194-.05v.004l.194.046zm-1.8 4.675l-.175-.097-.004.007-.003.007.181.083zm-1.331.43l.095-.177-.012-.006-.084.182zm-.427-1.338l.175.097.002-.003-.177-.094zm1.64-4.205l-.194-.05.194.05zM33.887 8.174l-.141.142.141-.142zm-25.73 0l.141.14-.142-.14zm-.002 0l.142.142-.142-.142zm-.672 25.06l-.15.134.15-.134zm11.603 5.928l-.022.2h.004l.018-.2zm15.777-17.157l-.199-.015.2.015zm.002-2.015l-.199.015.2-.015zM21.901 7.026l-.014.2.014-.2zm-2.015 0l-.015-.2.015.2zM6.922 19.99l.2.015-.2-.015zm-.001 2.015l-.2.014.2-.014zm3.454 7.958l.152-.13-.152.13zm-3.254-7.958v-.2h-.214l.015.214.2-.014zM18.71 34.657l-.032.198h.012l.02-.198zm.853 1.12l-.197-.037-.002.008v.009l.199.02zm-1.126.848l.038-.196-.007-.002-.031.198zm-9.512-5.338l.153-.13-.153.13zm.861-21.44l.142.141-.142-.141zm22.387 0l.142-.142-.142.142zm4.304 13.964l-.19-.063-.004.013-.003.013.197.037zm-.728 2.651l-.189-.066.189.066zm-.003.008l.183.081.003-.007.003-.008-.189-.066zm-.003.007l-.183-.08.183.08zm-1.277.572l-.075.186.075-.186zm-.008-.002l-.08.183.006.002.075-.185zm-.572-1.277l.186.074v-.001l-.186-.073zm.626-2.338l.198.032v-.001l-.198-.03zm.152-1.427l.2.016.016-.216h-.216v.2zm.002-2.015v.2h.215l-.016-.215-.2.015zm-4.008-8.755l.141-.142-.141.142zm-.002-.002l-.142.14.001.002.141-.142zm-8.754-4.007l.015-.2-.215-.015v.215h.2zm-2.015 0h.2v-.215l-.215.016.015.2zm-8.755 4.009l.14.142h.001l-.141-.142zm-.002.001l.14.143h.001l-.14-.143zM7.123 19.99l-.199-.015-.016.215h.215v-.2zm15.832-.87l.149-.134-.004-.004-.145.138zm-.006 3.847l.141.141-.141-.141zm-1.975.781l.011-.2h-.01l-.001.2zm-1.921-.781l-.142.141.142-.141zm-.594-.92l.186-.072-.05-.127h-.136v.2zm.043-2.015v.2h.136l.05-.127-.186-.073zm.593-.919l.142.142-.142-.142zm.043-.042l-.142-.142.142.142zm.877-.548l.075.185.125-.05v-.135h-.2zm2.015-.003h-.2v.136l.127.05.073-.186zm.919.593l.145-.138-.004-.003-.141.141zm-1.41 2.362l-.12-.16.12.16zm-.01.009l-.12-.16-.012.008-.01.01.142.142zm-.01-.983l-.142.142.141-.142zm-.01-.01l-.16.12.008.012.01.01.141-.142zm-.01-.01l-.16.12.16-.12zm-.973.02l.141.142-.141-.142zm-.022.022l-.141-.141.141.141zm0 .001l.14.141h.001l-.141-.141zm-.02.02l-.141.141.141.141.141-.141-.141-.141zm-.022.019l.12.16.16-.12-.12-.16-.16.12zm-.111.75l-.179.088.179-.089zm.123.143l-.09.18.09-.18zm.042.021l.16-.12-.028-.037-.042-.021-.09.178zm.029.038l.16-.12-.16.12zm4.415 5.507l.142.141.003-.003-.145-.138zm7.426-.044l-.142.141.142-.141zm1.589 3.748l.2-.006-.2.006zm0 .006h.2v-.006l-.2.006zm0 .608h-.2v.2h.2v-.2zm1.726.398l.142-.141-.142.141zm-14.013 8.997l.142-.141-.142.141zm0-8.997l-.14-.141.14.141zm1.727-.398v.2h.2v-.2h-.2zm6.161 5.19l-.142-.14-.08.081.029.11.193-.05zm.284-.33l.167.11.002-.004-.169-.107zm.005-.009l.17.107.002-.004-.172-.103zm-.2-1.817l.142-.142-.142.142zm-2.025.042l.141.142-.141-.142zm-.162 1.769l.179-.091-.007-.012-.172.103zm.327.38l.193.05.035-.134-.113-.08-.115.164zm-.429 1.635l.191.06.003-.01-.194-.05zm.039.322l.17-.106-.17.106zm.192.168l.089-.179-.09.179zm.042.021l-.09.179.043.021h.047v-.2zm2.255-.117l-.141-.141.141.141zm.117-.364h.2v-.025l-.006-.025-.194.05zm-3.671-9.822l-.142-.141.142.141zm-.962 2.89h-.2v.2h.2v-.2zm6.571 0v.2h.2v-.2h-.2zM31 28.367l.142-.141-.005-.005-.137.146zm-7.737 10.793h-.2v.2h.2v-.2zm0-5.848v-.2h-.2v.2h.2zm10.822 0h.2v-.2h-.2v.2zm0 5.848v.2h.2v-.2h-.2zm-23.709-9.198c-1.926-2.219-3.099-5.067-3.267-8.169l-.4.022c.173 3.19 1.38 6.123 3.365 8.41l.302-.263zm-3.267-9.761c.21-3.522 1.677-6.663 4.022-8.966l-.28-.285c-2.417 2.372-3.926 5.607-4.141 9.227l.4.024zm4.023-8.967a13.794 13.794 0 0 1 8.967-4.023l-.024-.4a14.194 14.194 0 0 0-9.226 4.14l.283.283zm10.558-4.023c3.522.21 6.663 1.677 8.966 4.021l.286-.28c-2.373-2.416-5.608-3.925-9.228-4.14l-.024.4zm8.968 4.023a13.793 13.793 0 0 1 4.022 8.967l.4-.024a14.194 14.194 0 0 0-4.14-9.226l-.282.283zm4.022 10.555a21.752 21.752 0 0 1-.168 1.643l.395.06c.087-.56.13-1.121.172-1.672l-.399-.031zm-14.338-1.387c-.141-.142.142.14.142.14h.001v-.001h.001v-.001h.001v-.001h.001v-.001h.001v-.001h.001v-.001h.001v-.001h.001v-.001h.001v-.001h.001v-.001h.001v-.001h.001v-.001h.001v-.001h.001v-.001h.001v-.001h.001v-.001h.001v-.001h.001v-.001h.001v-.001h.001v-.001h.001v-.001h.001v-.001h.001v-.001h.001v-.001h.001v-.001h.001v-.001h.001v-.001h.001v-.001h.001v-.001h.001v-.001h.001v-.001h.001v-.001h.001v-.001h.001v-.001h.001v-.001h.001v-.001h.001v-.001h.001v-.001h.001v-.001h.001v-.001h.001v-.001h.001l-.283-.283h-.001v.001h-.001v.001h-.001v.001h-.001v.001h-.001v.001h-.001v.001h-.001v.001h-.001v.001h-.001v.001h-.001v.001h-.001v.001h-.001v.001h-.001v.001h-.001v.001h-.001v.001h-.001v.001h-.001v.001h-.001v.001h-.001v.001h-.001v.001h-.001v.001h-.001v.001h-.001v.001h-.001v.001h-.001v.001h-.001v.001h-.001v.001h-.001v.001h-.001v.001h-.001v.001h-.001v.001h-.001v.001h-.001v.001h-.001v.001h-.001v.001h-.001v.001h-.001v.001h-.001v.001h-.001v.001h-.001v.001H20.2v.001H20.2v.001s.283.283.141.142zm-1.485 20.972c.621.062 1.265-.371 1.33-1.084l-.398-.036c-.042.466-.467.764-.892.722l-.04.398zm-.002 0h.002l.04-.398h-.002l-.04.397zM5.846 34.696a20.31 20.31 0 0 0 13.007 6.677l.043-.397A19.91 19.91 0 0 1 6.144 34.43l-.298.266zM.6 21.04a20.305 20.305 0 0 0 5.246 13.658l.297-.268A19.905 19.905 0 0 1 1 21.04H.6zM6.583 6.602A20.384 20.384 0 0 0 .6 21.04H1A19.984 19.984 0 0 1 6.866 6.885l-.283-.283zM21.021.62A20.384 20.384 0 0 0 6.583 6.602l.283.283A19.984 19.984 0 0 1 21.021 1.02v-.4zm14.396 5.94A20.35 20.35 0 0 0 21.02.62v.4a19.95 19.95 0 0 1 14.113 5.824l.283-.283zM41.4 20.999A20.384 20.384 0 0 0 35.417 6.56l-.283.283A19.984 19.984 0 0 1 41 20.998h.4zm-.608 5.03c.435-1.654.608-3.346.608-5.03H41c0 1.657-.17 3.314-.594 4.928l.386.102zm-1.819 4.722a18.442 18.442 0 0 0 1.82-4.727l-.389-.092a18.044 18.044 0 0 1-1.78 4.624l.349.195zm-1.601.507c.577.313 1.337.071 1.608-.522l-.363-.166c-.172.376-.674.543-1.054.337l-.191.351zm-.506-1.61c-.32.579-.078 1.344.518 1.616l.167-.364c-.378-.172-.545-.678-.335-1.058l-.35-.194zm1.621-4.158a18.776 18.776 0 0 1-1.623 4.161l.354.188a19.177 19.177 0 0 0 1.657-4.25l-.388-.099zm.54-4.449c0 1.501-.167 2.998-.54 4.45l.388.099c.382-1.488.552-3.018.552-4.549h-.4zM33.746 8.316a18.017 18.017 0 0 1 5.281 12.724h.4c0-5.058-2.083-9.691-5.398-13.007l-.283.283zM21.02 3.034c4.99 0 9.48 2.037 12.725 5.282l.283-.283c-3.316-3.316-7.907-5.399-13.008-5.399v.4zM8.298 8.314c3.243-3.284 7.732-5.28 12.723-5.28v-.4c-5.1 0-9.692 2.04-13.007 5.399l.284.28zm0 .001l-.284-.283v.001l.283.282zM3.014 21.04c0-4.99 2.037-9.48 5.282-12.724l-.283-.283c-3.316 3.316-5.399 7.906-5.399 13.007h.4zM7.632 33.1a18.042 18.042 0 0 1-4.617-12.06h-.4c0 4.719 1.786 9.055 4.719 12.328l.298-.267zm11.476 5.864c-4.576-.5-8.608-2.663-11.476-5.863l-.298.267c2.932 3.272 7.055 5.483 11.73 5.993l.044-.397zm1.079 1.329c.061-.62-.371-1.264-1.082-1.33l-.037.398c.465.044.763.467.72.892l.399.04zm14.72-16.8c.076-.493.118-.986.156-1.472l-.399-.031c-.038.485-.08.965-.153 1.443l.395.06zm.156-1.472l.015-.2-.399-.031-.015.2.399.03zm.015-1.843a15.095 15.095 0 0 0-.013-.203l-.399.03c.005.066.01.131.013.197l.4-.024zm-.013-.203a14.19 14.19 0 0 0-4.125-9.023l-.283.283a13.79 13.79 0 0 1 4.009 8.77l.399-.03zm-4.124-9.022c-2.329-2.37-5.487-3.868-9.025-4.127l-.03.4c3.442.251 6.51 1.706 8.77 4.007l.285-.28zm-9.025-4.127c-.067-.005-.135-.01-.203-.013l-.024.4.198.012.029-.399zm-1.842-.013l-.203.014.03.398.197-.013-.024-.4zm-.203.014a14.19 14.19 0 0 0-9.023 4.125l.283.283a13.79 13.79 0 0 1 8.77-4.01l-.03-.398zM10.85 10.95c-2.37 2.328-3.868 5.487-4.127 9.024l.4.03c.251-3.442 1.707-6.51 4.008-8.77l-.28-.284zm-4.127 9.024l-.013.203.4.024c.003-.066.008-.132.012-.197l-.399-.03zm-.013 1.841l.012.203.4-.027a14.101 14.101 0 0 1-.013-.198l-.4.022zm.012.203c.212 3.111 1.41 5.968 3.352 8.206l.302-.262c-1.885-2.172-3.049-4.946-3.255-7.971l-.399.027zm3.805 7.813c-1.853-2.136-3-4.864-3.205-7.84l-.4.027c.212 3.063 1.392 5.874 3.303 8.075l.302-.262zm8.215 4.627c-3.3-.538-6.148-2.23-8.214-4.626l-.303.26c2.124 2.465 5.055 4.207 8.453 4.761l.064-.395zm1.017 1.355a1.151 1.151 0 0 0-1.03-1.356l-.039.398a.751.751 0 0 1 .676.884l.393.074zm-1.36 1.007a1.15 1.15 0 0 0 1.363-1.024l-.398-.04a.75.75 0 0 1-.889.672l-.076.392zm-9.626-5.405a15.773 15.773 0 0 0 9.633 5.407l.062-.395a15.373 15.373 0 0 1-9.39-5.27l-.305.258zM4.936 21.04c0 3.924 1.438 7.586 3.837 10.377l.303-.26a15.534 15.534 0 0 1-3.74-10.117h-.4zM9.644 9.705A16.013 16.013 0 0 0 4.936 21.04h.4c0-4.336 1.785-8.246 4.59-11.052l-.282-.283zm11.335-4.708c-4.447 0-8.416 1.789-11.335 4.708l.283.283c2.848-2.848 6.716-4.59 11.052-4.59v-.4zm11.335 4.708a16.013 16.013 0 0 0-11.335-4.708v.4c4.336 0 8.246 1.786 11.052 4.591l.283-.283zm4.708 11.335c0-4.404-1.788-8.415-4.708-11.335l-.283.283c2.848 2.848 4.59 6.759 4.59 11.052h.4zm-.356 2.834c.315-.952.356-1.895.356-2.834h-.4c0 .931-.042 1.82-.336 2.708l.38.126zm-.73 2.654c.302-.86.562-1.768.736-2.68l-.393-.074c-.17.888-.424 1.776-.72 2.622l.378.132zm-.002.008l.003-.008-.378-.132-.003.008.378.132zm-.01.023l.004-.008-.366-.162-.003.007.366.163zm-1.534.676c.678.271 1.302-.153 1.535-.676l-.366-.163c-.17.384-.596.637-1.02.468l-.149.371zm-.007-.003l.007.003.149-.371-.007-.003-.149.371zm-.684-1.536c-.27.677.155 1.301.677 1.533l.163-.365c-.384-.17-.637-.596-.468-1.02l-.372-.148zm.615-2.295c-.124.78-.329 1.56-.615 2.297l.373.145c.297-.765.51-1.572.637-2.38l-.395-.062zm.15-1.411c-.038.48-.079.947-.15 1.412l.395.06c.074-.48.116-.96.153-1.441l-.399-.031zm-1.583.215h1.782v-.4H32.88v.4zm-1.208-1.207c0 .631.506 1.207 1.208 1.207v-.4a.807.807 0 0 1-.808-.807h-.4zm1.208-1.208c-.632 0-1.208.505-1.208 1.208h.4c0-.468.383-.808.808-.808v-.4zm1.784 0H32.88v.4h1.784v-.4zm-4.15-8.414a13.589 13.589 0 0 1 3.95 8.629l.4-.03a13.989 13.989 0 0 0-4.067-8.882l-.283.283zm0-.001v.001l.283-.283-.001-.001-.283.283zm-8.628-3.95c3.387.252 6.403 1.686 8.626 3.949l.285-.28c-2.29-2.333-5.398-3.809-8.882-4.067l-.03.399zM22.1 9.01V7.226h-.4V9.01h.4zm-1.207 1.208c.632 0 1.207-.505 1.207-1.208h-.4a.807.807 0 0 1-.807.808v.4zM19.686 9.01c0 .632.505 1.208 1.208 1.208v-.4a.807.807 0 0 1-.808-.808h-.4zm0-1.783V9.01h.4V7.227h-.4zm-8.414 4.15a13.589 13.589 0 0 1 8.63-3.951l-.03-.399a13.989 13.989 0 0 0-8.883 4.066l.283.283zm-.002.001l.002-.001-.282-.284h-.001l.281.285zm-3.948 8.627c.251-3.388 1.685-6.404 3.948-8.626l-.28-.286c-2.333 2.291-3.809 5.398-4.067 8.882l.399.03zm1.584-.215H7.122v.4h1.784v-.4zm1.208 1.208c0-.632-.505-1.208-1.208-1.208v.4c.468 0 .808.382.808.808h.4zm-1.208 1.207c.632 0 1.208-.505 1.208-1.207h-.4a.807.807 0 0 1-.808.807v.4zm-1.785 0h1.785v-.4H7.121v.4zM23.93 21.04c0-.796-.346-1.526-.826-2.054l-.296.269c.425.468.722 1.105.722 1.785h.4zm-.84 2.068c.547-.546.84-1.287.84-2.068h-.4c0 .68-.255 1.318-.722 1.786l.282.282zm-2.127.84c.85.048 1.593-.305 2.127-.84l-.282-.282c-.467.466-1.102.763-1.823.723l-.022.399zm-2.052-.84a2.906 2.906 0 0 0 2.062.84l.001-.4a2.505 2.505 0 0 1-1.78-.722l-.283.282zm-.638-.987c.149.38.372.72.639.987l.282-.282a2.501 2.501 0 0 1-.549-.851l-.372.146zm-4.52.127h4.706v-.4h-4.706v.4zm-1.207-1.208c0 .632.505 1.208 1.207 1.208v-.4a.807.807 0 0 1-.807-.808h-.4zm1.207-1.207c-.631 0-1.207.505-1.207 1.207h.4c0-.467.382-.807.807-.807v-.4zm4.749 0h-4.749v.4h4.749v-.4zm.452-.861c-.267.267-.49.607-.639.987l.373.146c.13-.33.323-.624.549-.85l-.283-.283zm.043-.043l-.043.043.283.283.042-.043-.282-.282zm.942-.59c-.323.131-.666.314-.942.59l.282.283c.224-.223.513-.382.811-.504l-.151-.37zm-.124-6.183v6.367h.4v-6.367h-.4zm1.207-1.208c-.631 0-1.207.505-1.207 1.208h.4c0-.467.382-.808.807-.808v-.4zm1.208 1.208c0-.632-.505-1.208-1.208-1.208v.4c.467 0 .808.382.808.808h.4zm0 6.364v-6.364h-.4v6.364h.4zm.86.452a2.901 2.901 0 0 0-.987-.639l-.146.373c.33.13.624.323.85.549l.283-.283zm.01.01l-.006-.007-.29.276.007.007.29-.276zm-1.68 2.333l-.012.009.24.32.012-.009-.24-.32zm.095-.317c0 .09-.016.166-.037.223a.22.22 0 0 1-.058.094l.24.32c.17-.127.255-.382.255-.637h-.4zm-.138-.355c.09.09.138.199.138.355h.4a.865.865 0 0 0-.255-.638l-.283.283zm-.01-.01l.01.01.283-.283-.01-.01-.283.283zm-.027-.033l.008.011.32-.24-.008-.01-.32.24zm-.318-.095c.09 0 .167.015.224.037a.22.22 0 0 1 .094.058l.32-.24c-.127-.17-.382-.255-.638-.255v.4zm-.355.138a.467.467 0 0 1 .355-.138v-.4a.865.865 0 0 0-.637.255l.282.283zm-.022.022l-.282-.283h-.001l.283.283zm-.444-.12l.142.14.282-.283-.142-.141-.282.283zm.421-.102l-.12-.16-.32.24.12.16.32-.24zm-.135.597c0-.09.016-.166.037-.224a.222.222 0 0 1 .058-.093l-.24-.32c-.17.127-.255.381-.255.637h.4zm.043.183a.423.423 0 0 1-.043-.183h-.4c0 .128.032.255.085.361l.358-.178zm.034.055c.01.005.009.007 0-.003a.235.235 0 0 1-.034-.052l-.358.178a.511.511 0 0 0 .213.234l.178-.358zm.042.02l-.043-.02-.178.357.042.021.179-.357zm.099.097l-.029-.037-.32.24.029.037.32-.24zm.317.095a.633.633 0 0 1-.224-.037.222.222 0 0 1-.093-.058l-.32.24c.127.17.381.255.637.255v-.4zm.355-.137a.467.467 0 0 1-.355.137v.4a.865.865 0 0 0 .638-.255l-.283-.283zm.01-.01l-.01.01.283.282.01-.01-.283-.283zm7.287 3.93c-1.508 0-2.888.595-3.859 1.61l.29.277c.892-.934 2.167-1.486 3.569-1.486v-.4zm3.853 1.563c-.968-.968-2.345-1.562-3.853-1.562v.4c1.403 0 2.678.552 3.57 1.445l.283-.283zm1.647 3.884c-.045-1.502-.638-2.875-1.647-3.884l-.283.283c.935.935 1.488 2.21 1.53 3.613l.4-.012zm0 .006v-.006l-.4.012v.006l.4-.012zm0 .614v-.608h-.4v.608h.4zm.536-.2h-.735v.4h.735v-.4zm1.133.457c-.29-.29-.69-.457-1.133-.457v.4c.34 0 .637.127.85.34l.283-.283zm.457 1.133c0-.443-.167-.843-.457-1.133l-.283.283c.213.212.34.51.34.85h.4zm0 7.014V32.73h-.4v7.014h.4zm-.457 1.133c.29-.29.457-.69.457-1.133h-.4c0 .34-.127.638-.34.85l.283.283zm-1.133.457c.443 0 .843-.167 1.133-.457l-.283-.283c-.212.212-.51.34-.85.34v.4zm-12.03 0h12.03v-.4h-12.03v.4zm-1.133-.457c.29.29.69.457 1.133.457v-.4c-.34 0-.638-.127-.85-.34l-.283.283zm-.457-1.133c0 .443.167.843.457 1.133l.283-.283a1.187 1.187 0 0 1-.34-.85h-.4zm0-7.014v7.014h.4V32.73h-.4zm.457-1.133c-.29.29-.457.69-.457 1.133h.4c0-.34.127-.638.34-.85l-.283-.283zm1.133-.457c-.443 0-.843.167-1.133.457l.283.283c.212-.213.51-.34.85-.34v-.4zm.735 0h-.735v.4h.735v-.4zm-.2-.408v.608h.4v-.608h-.4zm1.604-3.852a5.45 5.45 0 0 0-1.604 3.852h.4a5.05 5.05 0 0 1 1.486-3.569l-.283-.283zm4.9 9.791c.102-.104.219-.228.308-.36l-.333-.223c-.066.099-.16.2-.26.302l.285.281zm.31-.365l.005-.008-.338-.214-.005.008.338.214zm.008-.012c.149-.248.27-.532.27-.886h-.4c0 .255-.086.468-.213.68l.343.206zm.27-.886c0-.453-.175-.85-.5-1.175l-.283.282c.255.255.382.553.382.893h.4zm-.5-1.175c-.29-.29-.69-.458-1.133-.458v.4c.34 0 .637.128.85.34l.283-.282zm-1.133-.458c-.453 0-.85.175-1.176.5l.283.283c.255-.255.553-.383.893-.383v-.4zm-1.176.5c-.29.29-.457.69-.457 1.133h.4c0-.34.127-.638.34-.85l-.283-.283zm-.457 1.133c0 .35.119.633.265.88l.344-.206c-.126-.21-.21-.421-.21-.674h-.4zm.259.867c.093.184.224.336.39.453l.23-.327a.831.831 0 0 1-.264-.307l-.356.181zm.311.24l-.428 1.634.387.102.428-1.636-.387-.1zm-.425 1.625a.58.58 0 0 0 .06.487l.338-.212a.18.18 0 0 1-.017-.155l-.381-.12zm.06.487c.077.125.188.2.271.242l.179-.358a.277.277 0 0 1-.112-.096l-.339.212zm.271.242l.042.021.18-.358-.043-.02-.179.357zm2.092.042a.612.612 0 0 0 .437-.175l-.283-.283a.213.213 0 0 1-.154.058v.4zm.437-.175a.612.612 0 0 0 .175-.437h-.4a.213.213 0 0 1-.058.154l.283.282zm-4.458-8.046c0-.783.337-1.575.903-2.14l-.283-.283a3.484 3.484 0 0 0-1.02 2.423h.4zm0 .607v-.607h-.4v.607h.4zm6.371-.2h-6.571v.4h6.571v-.4zm-.2-.407v.607h.4v-.607h-.4zm-.9-2.18c.564.565.9 1.313.9 2.18h.4c0-.977-.381-1.826-1.017-2.463l-.283.282zm-2.185-.864a3.18 3.18 0 0 1 2.19.868l.273-.292a3.58 3.58 0 0 0-2.463-.976v.4zm-2.183.903a3.033 3.033 0 0 1 2.183-.902v-.4c-.978 0-1.828.382-2.466 1.02l.283.282zm-3.028 10.612v-5.848h-.4v5.848h.4zm-.2-5.648h10.822v-.4H23.262v.4zm10.622-.2v5.848h.4v-5.848h-.4zm.2 5.648H23.262v.4h10.822v-.4zM20.482 20.544l.043-.043-.283-.282-.042.042.283.283zm7.166 18.367h1.96v-.4h-1.96v.4zm2.572-.612v-.069h-.4v.069h.4zm-.006-.12l-.445-1.699-.387.101.445 1.7.387-.101zm-9.57-17.514l.022-.022-.282-.283-.022.022.283.283zm-.02.02l.02-.02-.283-.282-.02.02.283.282z" fill="url(#paint6_linear)" mask="url(#a)"/><defs><linearGradient id="paint0_linear" x1="21" y1=".819" x2="21" y2="41.181" gradientUnits="userSpaceOnUse"><stop stop-color="#EB862C"/><stop offset="1" stop-color="#E35930"/></linearGradient><linearGradient id="paint1_linear" x1="21" y1=".819" x2="21" y2="41.181" gradientUnits="userSpaceOnUse"><stop stop-color="#EB862C"/><stop offset="1" stop-color="#E35930"/></linearGradient><linearGradient id="paint2_linear" x1="21" y1=".819" x2="21" y2="41.181" gradientUnits="userSpaceOnUse"><stop stop-color="#EB862C"/><stop offset="1" stop-color="#E35930"/></linearGradient><linearGradient id="paint3_linear" x1="21" y1=".819" x2="21" y2="41.181" gradientUnits="userSpaceOnUse"><stop stop-color="#EB862C"/><stop offset="1" stop-color="#E35930"/></linearGradient><linearGradient id="paint4_linear" x1="21" y1=".819" x2="21" y2="41.181" gradientUnits="userSpaceOnUse"><stop stop-color="#EB862C"/><stop offset="1" stop-color="#E35930"/></linearGradient><linearGradient id="paint5_linear" x1="21" y1=".819" x2="21" y2="41.181" gradientUnits="userSpaceOnUse"><stop stop-color="#EB862C"/><stop offset="1" stop-color="#E35930"/></linearGradient><linearGradient id="paint6_linear" x1="21" y1=".819" x2="21" y2="41.181" gradientUnits="userSpaceOnUse"><stop stop-color="#EB862C"/><stop offset="1" stop-color="#E35930"/></linearGradient></defs></svg>