<svg width="40" height="40" viewBox="0 0 40 40" fill="none" xmlns="http://www.w3.org/2000/svg"><g clip-path="url(#clip0)"><path d="M19.9 10.41v.213l.164-.137 4.722-3.934h6.282V-.1H15.384V6.552H19.9v3.857zm4.319-5.326L21.39 7.441v-2.38h-4.516v-3.67h12.703v3.67H24.246l-.027.023z" fill="url(#paint0_linear)" stroke="url(#paint1_linear)" stroke-width=".2"/><path d="M18.065 2.48h-.1V3.97H19.455V2.48H18.065z" fill="url(#paint2_linear)" stroke="url(#paint3_linear)" stroke-width=".2"/><path d="M20.645 2.48h-.1V3.97H25.906V2.48h-5.26z" fill="url(#paint4_linear)" stroke="url(#paint5_linear)" stroke-width=".2"/><path d="M27.097 2.48h-.1V3.97H28.487V2.48H27.097z" fill="url(#paint6_linear)" stroke="url(#paint7_linear)" stroke-width=".2"/><mask id="a" maskUnits="userSpaceOnUse" x="-1" y="8.677" width="42" height="32" fill="#000"><path fill="#fff" d="M-1 8.677h42v32H-1z"/><path d="M32.842 38.71l-.522-5.223a4.519 4.519 0 0 0 3.809-4.455v-8.387h-2.58v-.891c0-.877-.483-1.665-1.258-2.069a3.856 3.856 0 0 0 1.257-2.846v-1.29a3.875 3.875 0 0 0-3.87-3.872 3.875 3.875 0 0 0-3.872 3.872v1.29a3.874 3.874 0 0 0 2.55 3.634l-3.462 3.463h-3.618a2.587 2.587 0 0 0-1.857-2.313l-2.645-.755v-1.152a3.858 3.858 0 0 0 1.29-2.877v-1.29a3.875 3.875 0 0 0-3.87-3.872 3.875 3.875 0 0 0-3.871 3.872v1.29c0 1.142.5 2.167 1.29 2.877v1.153l-2.645.755a2.59 2.59 0 0 0-1.871 2.481v2.411h-2.58v3.871h1.29V38.71H0V40h40v-1.29h-7.158zm-5.745-10.323v-2.959l4.571-4.571c.33-.33.527-.774.572-1.238.005.046.018.088.018.135v7.988a1.938 1.938 0 0 1-1.935 1.935H25.16v-1.29h1.936zm-1.936 5.161h3.287l.517 5.162H25.16v-5.162zm4.584 0h1.284l.516 5.162h-1.284l-.516-5.162zm3.803-5.806v-5.806h1.29v7.096a3.23 3.23 0 0 1-3.225 3.226H25.16v-1.29h5.162a3.23 3.23 0 0 0 3.225-3.226zm-6.451-12.903v-1.29a2.583 2.583 0 0 1 2.58-2.581 2.583 2.583 0 0 1 2.581 2.58v1.29a2.583 2.583 0 0 1-2.58 2.581 2.583 2.583 0 0 1-2.581-2.58zm-1.669 8.387l4.305-4.305a.724.724 0 0 1 1.023 1.023l-4.572 4.572h-6.83a.646.646 0 0 1 0-1.29h6.074zm-13.815-9.677a2.583 2.583 0 0 1 2.58-2.581 2.583 2.583 0 0 1 2.581 2.58v1.29a2.583 2.583 0 0 1-2.58 2.581 2.583 2.583 0 0 1-2.581-2.58v-1.29zm2.58 5.16c.454 0 .886-.082 1.29-.225v.693c-.16.247-.604.823-1.29.823-.685 0-1.13-.576-1.29-.823v-.693c.405.143.838.226 1.29.226zm-5.806 3.396c0-.573.385-1.083.936-1.24l2.657-.76c.375.488 1.103 1.185 2.213 1.185 1.111 0 1.84-.697 2.214-1.185l2.657.759c.495.141.84.571.908 1.07h-.617a1.938 1.938 0 0 0-1.936 1.936c0 .227.047.443.12.646H8.386v-2.41zm-2.58 3.701h20v1.29h-20v-1.29zm1.29 5.162h1.935v-1.29H7.097v-1.29H23.87v1.29H10.323v1.29H23.87v7.742h-1.537l-1.29-2.58H9.924l-1.29 2.58H7.096v-7.742zm13.795 7.742H10.075l.645-1.29h9.525l.646 1.29z"/></mask><path d="M32.842 38.71l-.522-5.223a4.519 4.519 0 0 0 3.809-4.455v-8.387h-2.58v-.891c0-.877-.483-1.665-1.258-2.069a3.856 3.856 0 0 0 1.257-2.846v-1.29a3.875 3.875 0 0 0-3.87-3.872 3.875 3.875 0 0 0-3.872 3.872v1.29a3.874 3.874 0 0 0 2.55 3.634l-3.462 3.463h-3.618a2.587 2.587 0 0 0-1.857-2.313l-2.645-.755v-1.152a3.858 3.858 0 0 0 1.29-2.877v-1.29a3.875 3.875 0 0 0-3.87-3.872 3.875 3.875 0 0 0-3.871 3.872v1.29c0 1.142.5 2.167 1.29 2.877v1.153l-2.645.755a2.59 2.59 0 0 0-1.871 2.481v2.411h-2.58v3.871h1.29V38.71H0V40h40v-1.29h-7.158zm-5.745-10.323v-2.959l4.571-4.571c.33-.33.527-.774.572-1.238.005.046.018.088.018.135v7.988a1.938 1.938 0 0 1-1.935 1.935H25.16v-1.29h1.936zm-1.936 5.161h3.287l.517 5.162H25.16v-5.162zm4.584 0h1.284l.516 5.162h-1.284l-.516-5.162zm3.803-5.806v-5.806h1.29v7.096a3.23 3.23 0 0 1-3.225 3.226H25.16v-1.29h5.162a3.23 3.23 0 0 0 3.225-3.226zm-6.451-12.903v-1.29a2.583 2.583 0 0 1 2.58-2.581 2.583 2.583 0 0 1 2.581 2.58v1.29a2.583 2.583 0 0 1-2.58 2.581 2.583 2.583 0 0 1-2.581-2.58zm-1.669 8.387l4.305-4.305a.724.724 0 0 1 1.023 1.023l-4.572 4.572h-6.83a.646.646 0 0 1 0-1.29h6.074zm-13.815-9.677a2.583 2.583 0 0 1 2.58-2.581 2.583 2.583 0 0 1 2.581 2.58v1.29a2.583 2.583 0 0 1-2.58 2.581 2.583 2.583 0 0 1-2.581-2.58v-1.29zm2.58 5.16c.454 0 .886-.082 1.29-.225v.693c-.16.247-.604.823-1.29.823-.685 0-1.13-.576-1.29-.823v-.693c.405.143.838.226 1.29.226zm-5.806 3.396c0-.573.385-1.083.936-1.24l2.657-.76c.375.488 1.103 1.185 2.213 1.185 1.111 0 1.84-.697 2.214-1.185l2.657.759c.495.141.84.571.908 1.07h-.617a1.938 1.938 0 0 0-1.936 1.936c0 .227.047.443.12.646H8.386v-2.41zm-2.58 3.701h20v1.29h-20v-1.29zm1.29 5.162h1.935v-1.29H7.097v-1.29H23.87v1.29H10.323v1.29H23.87v7.742h-1.537l-1.29-2.58H9.924l-1.29 2.58H7.096v-7.742zm13.795 7.742H10.075l.645-1.29h9.525l.646 1.29z" fill="url(#paint8_linear)"/><path d="M32.842 38.71l-.522-5.223a4.519 4.519 0 0 0 3.809-4.455v-8.387h-2.58v-.891c0-.877-.483-1.665-1.258-2.069a3.856 3.856 0 0 0 1.257-2.846v-1.29a3.875 3.875 0 0 0-3.87-3.872 3.875 3.875 0 0 0-3.872 3.872v1.29a3.874 3.874 0 0 0 2.55 3.634l-3.462 3.463h-3.618a2.587 2.587 0 0 0-1.857-2.313l-2.645-.755v-1.152a3.858 3.858 0 0 0 1.29-2.877v-1.29a3.875 3.875 0 0 0-3.87-3.872 3.875 3.875 0 0 0-3.871 3.872v1.29c0 1.142.5 2.167 1.29 2.877v1.153l-2.645.755a2.59 2.59 0 0 0-1.871 2.481v2.411h-2.58v3.871h1.29V38.71H0V40h40v-1.29h-7.158zm-5.745-10.323v-2.959l4.571-4.571c.33-.33.527-.774.572-1.238.005.046.018.088.018.135v7.988a1.938 1.938 0 0 1-1.935 1.935H25.16v-1.29h1.936zm-1.936 5.161h3.287l.517 5.162H25.16v-5.162zm4.584 0h1.284l.516 5.162h-1.284l-.516-5.162zm3.803-5.806v-5.806h1.29v7.096a3.23 3.23 0 0 1-3.225 3.226H25.16v-1.29h5.162a3.23 3.23 0 0 0 3.225-3.226zm-6.451-12.903v-1.29a2.583 2.583 0 0 1 2.58-2.581 2.583 2.583 0 0 1 2.581 2.58v1.29a2.583 2.583 0 0 1-2.58 2.581 2.583 2.583 0 0 1-2.581-2.58zm-1.669 8.387l4.305-4.305a.724.724 0 0 1 1.023 1.023l-4.572 4.572h-6.83a.646.646 0 0 1 0-1.29h6.074zm-13.815-9.677a2.583 2.583 0 0 1 2.58-2.581 2.583 2.583 0 0 1 2.581 2.58v1.29a2.583 2.583 0 0 1-2.58 2.581 2.583 2.583 0 0 1-2.581-2.58v-1.29zm2.58 5.16c.454 0 .886-.082 1.29-.225v.693c-.16.247-.604.823-1.29.823-.685 0-1.13-.576-1.29-.823v-.693c.405.143.838.226 1.29.226zm-5.806 3.396c0-.573.385-1.083.936-1.24l2.657-.76c.375.488 1.103 1.185 2.213 1.185 1.111 0 1.84-.697 2.214-1.185l2.657.759c.495.141.84.571.908 1.07h-.617a1.938 1.938 0 0 0-1.936 1.936c0 .227.047.443.12.646H8.386v-2.41zm-2.58 3.701h20v1.29h-20v-1.29zm1.29 5.162h1.935v-1.29H7.097v-1.29H23.87v1.29H10.323v1.29H23.87v7.742h-1.537l-1.29-2.58H9.924l-1.29 2.58H7.096v-7.742zm13.795 7.742H10.075l.645-1.29h9.525l.646 1.29z" stroke="url(#paint9_linear)" stroke-width=".4" mask="url(#a)"/></g><defs><linearGradient id="paint0_linear" x1="23.226" x2="23.226" y2="10.409" gradientUnits="userSpaceOnUse"><stop stop-color="#EB862C"/><stop offset="1" stop-color="#E35930"/></linearGradient><linearGradient id="paint1_linear" x1="23.226" x2="23.226" y2="10.409" gradientUnits="userSpaceOnUse"><stop stop-color="#EB862C"/><stop offset="1" stop-color="#E35930"/></linearGradient><linearGradient id="paint2_linear" x1="18.71" y1="2.581" x2="18.71" y2="3.871" gradientUnits="userSpaceOnUse"><stop stop-color="#EB862C"/><stop offset="1" stop-color="#E35930"/></linearGradient><linearGradient id="paint3_linear" x1="18.71" y1="2.581" x2="18.71" y2="3.871" gradientUnits="userSpaceOnUse"><stop stop-color="#EB862C"/><stop offset="1" stop-color="#E35930"/></linearGradient><linearGradient id="paint4_linear" x1="23.226" y1="2.581" x2="23.226" y2="3.871" gradientUnits="userSpaceOnUse"><stop stop-color="#EB862C"/><stop offset="1" stop-color="#E35930"/></linearGradient><linearGradient id="paint5_linear" x1="23.226" y1="2.581" x2="23.226" y2="3.871" gradientUnits="userSpaceOnUse"><stop stop-color="#EB862C"/><stop offset="1" stop-color="#E35930"/></linearGradient><linearGradient id="paint6_linear" x1="27.742" y1="2.581" x2="27.742" y2="3.871" gradientUnits="userSpaceOnUse"><stop stop-color="#EB862C"/><stop offset="1" stop-color="#E35930"/></linearGradient><linearGradient id="paint7_linear" x1="27.742" y1="2.581" x2="27.742" y2="3.871" gradientUnits="userSpaceOnUse"><stop stop-color="#EB862C"/><stop offset="1" stop-color="#E35930"/></linearGradient><linearGradient id="paint8_linear" x1="20" y1="9.677" x2="20" y2="40" gradientUnits="userSpaceOnUse"><stop stop-color="#EB862C"/><stop offset="1" stop-color="#E35930"/></linearGradient><linearGradient id="paint9_linear" x1="20" y1="9.677" x2="20" y2="40" gradientUnits="userSpaceOnUse"><stop stop-color="#EB862C"/><stop offset="1" stop-color="#E35930"/></linearGradient><clipPath id="clip0"><path fill="#fff" d="M0 0h40v40H0z"/></clipPath></defs></svg>