<svg width="40" height="40" viewBox="0 0 40 40" fill="none" xmlns="http://www.w3.org/2000/svg"><g clip-path="url(#clip0)"><path d="M23.301 7.93a.878.878 0 0 0 .705-.862.879.879 0 0 0-.881-.88.88.88 0 1 0 .176 1.743z" fill="url(#paint0_linear)" stroke="url(#paint1_linear)" stroke-width=".2"/><path d="M16.149 6.766a.881.881 0 0 1 .962-.79l-.962.79zm0 0a.881.881 0 0 0 .791.963m-.791-.963l.791.963m0 0c.41.04.704.075.954.105.62.074.962.115 2.106.115a.881.881 0 1 0 0-1.763c-1.042 0-1.312-.032-1.889-.101m-1.17 1.644l1.17-1.644m0 0a41.76 41.76 0 0 0-1-.11l1 .11z" fill="url(#paint2_linear)" stroke="url(#paint3_linear)" stroke-width=".2"/><mask id="a" maskUnits="userSpaceOnUse" x="-1" y="-.999" width="42" height="42" fill="#000"><path fill="#fff" d="M-1-.999h42v42H-1z"/><path d="M35.192 27.209l-2.73-.91 1.06-1.06a.782.782 0 0 0-.107-1.194l-5.76-4.007.467-5.047c2.898-.522 8.284-1.885 8.284-4.798 0-2.824-5.047-4.178-7.83-4.714.012-.266.018-.535.018-.804 0-2.271-.39-3.576-1.266-4.23-1.051-.786-2.443-.375-3.917.06-1.037.307-2.213.654-3.411.654S17.626.812 16.589.506C15.115.07 13.723-.341 12.67.446c-.874.653-1.265 1.958-1.265 4.229 0 .27.006.538.017.804-2.79.538-7.83 1.892-7.83 4.714 0 2.914 5.388 4.276 8.285 4.798l.466 5.047-5.759 4.008a.781.781 0 0 0-.106 1.193l1.06 1.06-2.731.91A7.022 7.022 0 0 0 0 33.879v5.339c0 .431.35.781.781.781H39.22c.431 0 .781-.35.781-.781v-5.34a7.022 7.022 0 0 0-4.808-6.67zM13.607 1.697c.425-.318 1.452-.014 2.54.307 1.138.337 2.429.718 3.853.718 1.424 0 2.715-.381 3.854-.718 1.087-.321 2.115-.625 2.54-.307.238.178.637.802.637 2.978 0 1.44-.172 2.912-.532 4.306-2.036.286-4.22.43-6.499.43-2.28 0-4.463-.144-6.499-.43a17.344 17.344 0 0 1-.532-4.306c0-2.176.4-2.8.638-2.978zm-8.45 8.496c0-.962 2.192-2.312 6.394-3.148.12.982.315 1.938.583 2.854a.781.781 0 0 0 .63.553c2.256.347 4.69.522 7.236.522 2.546 0 4.98-.175 7.235-.522a.781.781 0 0 0 .631-.553c.268-.916.463-1.872.583-2.854 4.202.836 6.395 2.186 6.395 3.148 0 1.061-2.6 2.556-7.57 3.358-2.218.358-4.733.548-7.274.548-2.54 0-5.056-.19-7.275-.548-4.969-.803-7.569-2.297-7.569-3.358zM20 25.468a6.12 6.12 0 0 1-6.094-5.51l-.436-4.718c2.043.276 4.278.422 6.53.422 2.252 0 4.487-.146 6.53-.422l-.436 4.714A6.12 6.12 0 0 1 20 25.468zm3.982.451l-.557 2.296c-.66.76-1.925 1.94-3.425 1.94-1.5 0-2.766-1.18-3.425-1.94l-.557-2.296A7.68 7.68 0 0 0 20 27.03a7.68 7.68 0 0 0 3.982-1.11zM1.562 38.437v-4.558a5.461 5.461 0 0 1 3.74-5.188l3.471-1.157 1.72 1.719-3.895 2.596a.781.781 0 0 0-.208 1.097l3.831 5.49H1.562zm10.564 0l-3.998-5.73 4.024-2.683a.781.781 0 0 0 .119-1.202l-4.027-4.027 4.44-3.09a7.661 7.661 0 0 0 1.29 2.41l3.47 14.322h-5.318zm6.926 0l-1.842-7.601c.906.577 1.855.882 2.79.882.934 0 1.884-.305 2.79-.882l-1.842 7.6h-1.896zm3.504 0l3.47-14.322a7.66 7.66 0 0 0 1.29-2.41l4.44 3.09-4.027 4.027a.782.782 0 0 0 .119 1.202l4.023 2.683-3.997 5.73h-5.318zm15.881 0H29.78l3.83-5.49a.781.781 0 0 0-.207-1.098l-3.895-2.596 1.72-1.72 3.471 1.158a5.461 5.461 0 0 1 3.74 5.188v4.558z"/></mask><path d="M35.192 27.209l-2.73-.91 1.06-1.06a.782.782 0 0 0-.107-1.194l-5.76-4.007.467-5.047c2.898-.522 8.284-1.885 8.284-4.798 0-2.824-5.047-4.178-7.83-4.714.012-.266.018-.535.018-.804 0-2.271-.39-3.576-1.266-4.23-1.051-.786-2.443-.375-3.917.06-1.037.307-2.213.654-3.411.654S17.626.812 16.589.506C15.115.07 13.723-.341 12.67.446c-.874.653-1.265 1.958-1.265 4.229 0 .27.006.538.017.804-2.79.538-7.83 1.892-7.83 4.714 0 2.914 5.388 4.276 8.285 4.798l.466 5.047-5.759 4.008a.781.781 0 0 0-.106 1.193l1.06 1.06-2.731.91A7.022 7.022 0 0 0 0 33.879v5.339c0 .431.35.781.781.781H39.22c.431 0 .781-.35.781-.781v-5.34a7.022 7.022 0 0 0-4.808-6.67zM13.607 1.697c.425-.318 1.452-.014 2.54.307 1.138.337 2.429.718 3.853.718 1.424 0 2.715-.381 3.854-.718 1.087-.321 2.115-.625 2.54-.307.238.178.637.802.637 2.978 0 1.44-.172 2.912-.532 4.306-2.036.286-4.22.43-6.499.43-2.28 0-4.463-.144-6.499-.43a17.344 17.344 0 0 1-.532-4.306c0-2.176.4-2.8.638-2.978zm-8.45 8.496c0-.962 2.192-2.312 6.394-3.148.12.982.315 1.938.583 2.854a.781.781 0 0 0 .63.553c2.256.347 4.69.522 7.236.522 2.546 0 4.98-.175 7.235-.522a.781.781 0 0 0 .631-.553c.268-.916.463-1.872.583-2.854 4.202.836 6.395 2.186 6.395 3.148 0 1.061-2.6 2.556-7.57 3.358-2.218.358-4.733.548-7.274.548-2.54 0-5.056-.19-7.275-.548-4.969-.803-7.569-2.297-7.569-3.358zM20 25.468a6.12 6.12 0 0 1-6.094-5.51l-.436-4.718c2.043.276 4.278.422 6.53.422 2.252 0 4.487-.146 6.53-.422l-.436 4.714A6.12 6.12 0 0 1 20 25.468zm3.982.451l-.557 2.296c-.66.76-1.925 1.94-3.425 1.94-1.5 0-2.766-1.18-3.425-1.94l-.557-2.296A7.68 7.68 0 0 0 20 27.03a7.68 7.68 0 0 0 3.982-1.11zM1.562 38.437v-4.558a5.461 5.461 0 0 1 3.74-5.188l3.471-1.157 1.72 1.719-3.895 2.596a.781.781 0 0 0-.208 1.097l3.831 5.49H1.562zm10.564 0l-3.998-5.73 4.024-2.683a.781.781 0 0 0 .119-1.202l-4.027-4.027 4.44-3.09a7.661 7.661 0 0 0 1.29 2.41l3.47 14.322h-5.318zm6.926 0l-1.842-7.601c.906.577 1.855.882 2.79.882.934 0 1.884-.305 2.79-.882l-1.842 7.6h-1.896zm3.504 0l3.47-14.322a7.66 7.66 0 0 0 1.29-2.41l4.44 3.09-4.027 4.027a.782.782 0 0 0 .119 1.202l4.023 2.683-3.997 5.73h-5.318zm15.881 0H29.78l3.83-5.49a.781.781 0 0 0-.207-1.098l-3.895-2.596 1.72-1.72 3.471 1.158a5.461 5.461 0 0 1 3.74 5.188v4.558z" fill="url(#paint4_linear)"/><path d="M35.192 27.209l-2.73-.91 1.06-1.06a.782.782 0 0 0-.107-1.194l-5.76-4.007.467-5.047c2.898-.522 8.284-1.885 8.284-4.798 0-2.824-5.047-4.178-7.83-4.714.012-.266.018-.535.018-.804 0-2.271-.39-3.576-1.266-4.23-1.051-.786-2.443-.375-3.917.06-1.037.307-2.213.654-3.411.654S17.626.812 16.589.506C15.115.07 13.723-.341 12.67.446c-.874.653-1.265 1.958-1.265 4.229 0 .27.006.538.017.804-2.79.538-7.83 1.892-7.83 4.714 0 2.914 5.388 4.276 8.285 4.798l.466 5.047-5.759 4.008a.781.781 0 0 0-.106 1.193l1.06 1.06-2.731.91A7.022 7.022 0 0 0 0 33.879v5.339c0 .431.35.781.781.781H39.22c.431 0 .781-.35.781-.781v-5.34a7.022 7.022 0 0 0-4.808-6.67zM13.607 1.697c.425-.318 1.452-.014 2.54.307 1.138.337 2.429.718 3.853.718 1.424 0 2.715-.381 3.854-.718 1.087-.321 2.115-.625 2.54-.307.238.178.637.802.637 2.978 0 1.44-.172 2.912-.532 4.306-2.036.286-4.22.43-6.499.43-2.28 0-4.463-.144-6.499-.43a17.344 17.344 0 0 1-.532-4.306c0-2.176.4-2.8.638-2.978zm-8.45 8.496c0-.962 2.192-2.312 6.394-3.148.12.982.315 1.938.583 2.854a.781.781 0 0 0 .63.553c2.256.347 4.69.522 7.236.522 2.546 0 4.98-.175 7.235-.522a.781.781 0 0 0 .631-.553c.268-.916.463-1.872.583-2.854 4.202.836 6.395 2.186 6.395 3.148 0 1.061-2.6 2.556-7.57 3.358-2.218.358-4.733.548-7.274.548-2.54 0-5.056-.19-7.275-.548-4.969-.803-7.569-2.297-7.569-3.358zM20 25.468a6.12 6.12 0 0 1-6.094-5.51l-.436-4.718c2.043.276 4.278.422 6.53.422 2.252 0 4.487-.146 6.53-.422l-.436 4.714A6.12 6.12 0 0 1 20 25.468zm3.982.451l-.557 2.296c-.66.76-1.925 1.94-3.425 1.94-1.5 0-2.766-1.18-3.425-1.94l-.557-2.296A7.68 7.68 0 0 0 20 27.03a7.68 7.68 0 0 0 3.982-1.11zM1.562 38.437v-4.558a5.461 5.461 0 0 1 3.74-5.188l3.471-1.157 1.72 1.719-3.895 2.596a.781.781 0 0 0-.208 1.097l3.831 5.49H1.562zm10.564 0l-3.998-5.73 4.024-2.683a.781.781 0 0 0 .119-1.202l-4.027-4.027 4.44-3.09a7.661 7.661 0 0 0 1.29 2.41l3.47 14.322h-5.318zm6.926 0l-1.842-7.601c.906.577 1.855.882 2.79.882.934 0 1.884-.305 2.79-.882l-1.842 7.6h-1.896zm3.504 0l3.47-14.322a7.66 7.66 0 0 0 1.29-2.41l4.44 3.09-4.027 4.027a.782.782 0 0 0 .119 1.202l4.023 2.683-3.997 5.73h-5.318zm15.881 0H29.78l3.83-5.49a.781.781 0 0 0-.207-1.098l-3.895-2.596 1.72-1.72 3.471 1.158a5.461 5.461 0 0 1 3.74 5.188v4.558z" stroke="url(#paint5_linear)" stroke-width=".4" mask="url(#a)"/></g><defs><linearGradient id="paint0_linear" x1="23.125" y1="6.287" x2="23.125" y2="7.848" gradientUnits="userSpaceOnUse"><stop stop-color="#EB862C"/><stop offset="1" stop-color="#E35930"/></linearGradient><linearGradient id="paint1_linear" x1="23.125" y1="6.287" x2="23.125" y2="7.848" gradientUnits="userSpaceOnUse"><stop stop-color="#EB862C"/><stop offset="1" stop-color="#E35930"/></linearGradient><linearGradient id="paint2_linear" x1="18.513" y1="6.071" x2="18.513" y2="7.849" gradientUnits="userSpaceOnUse"><stop stop-color="#EB862C"/><stop offset="1" stop-color="#E35930"/></linearGradient><linearGradient id="paint3_linear" x1="18.513" y1="6.071" x2="18.513" y2="7.849" gradientUnits="userSpaceOnUse"><stop stop-color="#EB862C"/><stop offset="1" stop-color="#E35930"/></linearGradient><linearGradient id="paint4_linear" x1="20" y1=".001" x2="20" y2="39.999" gradientUnits="userSpaceOnUse"><stop stop-color="#EB862C"/><stop offset="1" stop-color="#E35930"/></linearGradient><linearGradient id="paint5_linear" x1="20" y1=".001" x2="20" y2="39.999" gradientUnits="userSpaceOnUse"><stop stop-color="#EB862C"/><stop offset="1" stop-color="#E35930"/></linearGradient><clipPath id="clip0"><path fill="#fff" d="M0 0h40v40H0z"/></clipPath></defs></svg>