<svg width="54" height="54" viewBox="0 0 54 54" fill="none" xmlns="http://www.w3.org/2000/svg"><path d="M44.408 43.753a.791.791 0 0 0-.791.791v7.437c0 .24-.196.437-.437.437h-4.252V36.84a.791.791 0 0 0-1.582 0v15.578h-8.562l2.483-2.732a1.418 1.418 0 0 0 .338-1.161L29.24 34.553l.637-.959c.353.25.624.491 1.133.491.517 0 1.001-.29 1.24-.766l2.494-5 5.682 2.2c.206.09 3.19 1.433 3.19 4.983v5.35a.79.79 0 1 0 1.583 0v-5.35c0-4.677-4.005-6.377-4.175-6.447a.277.277 0 0 0-.015-.006l-9.457-3.663v-2.218a7.411 7.411 0 0 0 2.805-4.875 3.424 3.424 0 0 0 2.011-.82 3.353 3.353 0 0 0 1.166-2.545c0-.813-.293-1.59-.816-2.194v-2.93C36.718 4.398 32.32 0 26.915 0c-5.406 0-9.804 4.398-9.804 9.804v3.007a3.176 3.176 0 0 0-.815 2.117c0 .98.425 1.907 1.166 2.545a3.422 3.422 0 0 0 2.01.82 7.333 7.333 0 0 0 2.966 4.992v2.101L12.99 29.05l-.015.006c-.17.07-4.175 1.77-4.175 6.447V51.98c0 1.113.906 2.019 2.019 2.019h7.536a.791.791 0 0 0 0-1.582h-1.702V36.84a.791.791 0 0 0-1.582 0v15.578H10.82a.437.437 0 0 1-.437-.437v-16.48c0-3.56 3.005-4.902 3.19-4.98l5.678-2.202 2.494 5c.239.478.724.766 1.24.766.507 0 .775-.237 1.133-.49l.637.958-2.365 13.972a1.418 1.418 0 0 0 .338 1.162l2.484 2.731h-3.164a.791.791 0 0 0 0 1.582H43.18a2.021 2.021 0 0 0 2.02-2.019v-7.437a.791.791 0 0 0-.792-.791zM33.262 27.746l-2.325 4.66-2.797-1.986 2.872-3.546 2.25.872zm-4.675 4.932l-.604.908h-1.972l-.603-.908 1.59-1.13 1.588 1.13zm-4.567-7.036v-1.48a8.026 8.026 0 0 0 2.99.566 7.426 7.426 0 0 0 2.96-.616v1.536l-2.973 3.669-2.977-3.675zm11.932-10.714c0 .518-.224 1.008-.616 1.345a1.843 1.843 0 0 1-.913.42v-3.53a1.79 1.79 0 0 1 1.53 1.765zm-16.545 1.765c-.92-.149-1.53-.909-1.53-1.765 0-.846.702-1.534 1.53-1.726v3.492zm.043-5.102c-.252.029-.541.097-.756.17V9.804c0-4.534 3.688-8.222 8.22-8.222 4.534 0 8.222 3.688 8.222 8.222v1.903a3.518 3.518 0 0 0-.713-.138c0-.764.007-.616-2.49-3.3a1.407 1.407 0 0 0-1.797-.22c-2.756 1.8-6.118 2.705-9.22 2.482-.68-.05-1.3.397-1.466 1.06zm1.54 5.725V12.121c3.414.2 6.994-.814 9.886-2.666 1.145 1.23 1.765 1.874 1.965 2.12v5.741a5.84 5.84 0 0 1-5.83 5.83c-3.607 0-6.022-2.797-6.022-5.83zm2.068 15.09l-2.326-4.66 2.246-.87 2.873 3.546-2.793 1.984zm.907 16.29l2.29-13.529h1.484l2.29 13.528-3.032 3.335-3.032-3.335z" fill="url(#paint0_linear)"/><defs><linearGradient id="paint0_linear" x1="27" x2="27" y2="54" gradientUnits="userSpaceOnUse"><stop stop-color="#EB862C"/><stop offset="1" stop-color="#E35930"/></linearGradient></defs></svg>