<svg width="42" height="42" viewBox="0 0 42 42" fill="none" xmlns="http://www.w3.org/2000/svg"><mask id="a" maskUnits="userSpaceOnUse" x="0" y="0" width="42" height="42" fill="#000"><path fill="#fff" d="M0 0h42v42H0z"/><path d="M40.333 1H23a.667.667 0 0 0-.667.667v10a.667.667 0 0 0 1.334 0V2.333h16v37.334h-38a.667.667 0 0 0 0 1.333h38.666a.667.667 0 0 0 .667-.667V1.667A.667.667 0 0 0 40.333 1z"/><path d="M19.295 25.978l4.422-2.245a2.363 2.363 0 0 0 1.04-3.142 2.318 2.318 0 0 0-3.125-1.048l-2.533 1.283-.862-1.453a4.567 4.567 0 1 0-5.317-2.786L7.467 18.89a2.337 2.337 0 0 0-1.419 1.622l-1.106 4.48a2.352 2.352 0 0 0 1.69 2.842c.594.154 1.226.061 1.751-.256.538-.321.924-.845 1.072-1.453l.812-3.305 1.584-.658-.856 4.774-3.377 3.784-2.759-2.444a2.31 2.31 0 0 0-3.287.22 2.367 2.367 0 0 0 .22 3.303l4.421 3.92c.93.79 2.308.743 3.182-.107l4.242-4.297 3.388 2.058 2.462 4.99a2.313 2.313 0 0 0 3.125 1.053 2.363 2.363 0 0 0 1.039-3.144l-2.765-5.6a2.337 2.337 0 0 0-.881-.963l-4.097-2.49.438-1.995a2.31 2.31 0 0 0 2.949.753zm-3.282-3.379a.667.667 0 0 0-.571.52l-.938 4.281a.667.667 0 0 0 .305.712l4.504 2.737c.162.1.293.244.378.415l2.764 5.6c.247.5.05 1.105-.445 1.363a1 1 0 0 1-1.327-.451l-2.55-5.163a.662.662 0 0 0-.251-.274l-4.004-2.434a.667.667 0 0 0-.82.102l-4.613 4.672a1 1 0 0 1-1.349.046l-4.422-3.92a1.03 1.03 0 0 1-.094-1.436.977.977 0 0 1 1.394-.095l3.255 2.885c.275.243.695.219.94-.055l3.945-4.42a.667.667 0 0 0 .159-.326l1.105-6.16a.667.667 0 0 0-.911-.731L9.444 21.72a.667.667 0 0 0-.392.456l-.895 3.63c-.063.263-.23.489-.462.628a.953.953 0 0 1-.738.108 1.015 1.015 0 0 1-.724-1.231l1.106-4.481c.08-.323.314-.587.625-.706l5.308-2.24.814.353a.667.667 0 0 0 .75-1.067 3.267 3.267 0 0 1-.893-2.249 3.204 3.204 0 1 1 3.203 3.253.667.667 0 0 0-.574 1.007l1.66 2.8c.13.218.372.344.625.325l.189-.015a.671.671 0 0 0 .249-.07l2.939-1.489a.958.958 0 0 1 .748-.055c.253.084.46.266.578.505.249.5.05 1.108-.445 1.366l-4.423 2.24a1 1 0 0 1-1.326-.456l-.675-1.367a.655.655 0 0 0-.678-.367zM36.138 21.195l-2.667-2.666a.667.667 0 0 0-.942.942l1.528 1.53H27a.667.667 0 0 0 0 1.332h7.057l-1.528 1.53a.667.667 0 1 0 .942.942l2.667-2.667a.667.667 0 0 0 0-.943z"/><path d="M23 25.667a.667.667 0 0 0-.667.666V31a.667.667 0 0 0 1.334 0v-4.667a.667.667 0 0 0-.667-.666zM23 16.333a.667.667 0 0 0-.667.667v.667a.667.667 0 0 0 1.334 0V17a.667.667 0 0 0-.667-.667z"/></mask><path d="M40.333 1H23a.667.667 0 0 0-.667.667v10a.667.667 0 0 0 1.334 0V2.333h16v37.334h-38a.667.667 0 0 0 0 1.333h38.666a.667.667 0 0 0 .667-.667V1.667A.667.667 0 0 0 40.333 1z" fill="url(#paint0_linear)"/><path d="M19.295 25.978l4.422-2.245a2.363 2.363 0 0 0 1.04-3.142 2.318 2.318 0 0 0-3.125-1.048l-2.533 1.283-.862-1.453a4.567 4.567 0 1 0-5.317-2.786L7.467 18.89a2.337 2.337 0 0 0-1.419 1.622l-1.106 4.48a2.352 2.352 0 0 0 1.69 2.842c.594.154 1.226.061 1.751-.256.538-.321.924-.845 1.072-1.453l.812-3.305 1.584-.658-.856 4.774-3.377 3.784-2.759-2.444a2.31 2.31 0 0 0-3.287.22 2.367 2.367 0 0 0 .22 3.303l4.421 3.92c.93.79 2.308.743 3.182-.107l4.242-4.297 3.388 2.058 2.462 4.99a2.313 2.313 0 0 0 3.125 1.053 2.363 2.363 0 0 0 1.039-3.144l-2.765-5.6a2.337 2.337 0 0 0-.881-.963l-4.097-2.49.438-1.995a2.31 2.31 0 0 0 2.949.753zm-3.282-3.379a.667.667 0 0 0-.571.52l-.938 4.281a.667.667 0 0 0 .305.712l4.504 2.737c.162.1.293.244.378.415l2.764 5.6c.247.5.05 1.105-.445 1.363a1 1 0 0 1-1.327-.451l-2.55-5.163a.662.662 0 0 0-.251-.274l-4.004-2.434a.667.667 0 0 0-.82.102l-4.613 4.672a1 1 0 0 1-1.349.046l-4.422-3.92a1.03 1.03 0 0 1-.094-1.436.977.977 0 0 1 1.394-.095l3.255 2.885c.275.243.695.219.94-.055l3.945-4.42a.667.667 0 0 0 .159-.326l1.105-6.16a.667.667 0 0 0-.911-.731L9.444 21.72a.667.667 0 0 0-.392.456l-.895 3.63c-.063.263-.23.489-.462.628a.953.953 0 0 1-.738.108 1.015 1.015 0 0 1-.724-1.231l1.106-4.481c.08-.323.314-.587.625-.706l5.308-2.24.814.353a.667.667 0 0 0 .75-1.067 3.267 3.267 0 0 1-.893-2.249 3.204 3.204 0 1 1 3.203 3.253.667.667 0 0 0-.574 1.007l1.66 2.8c.13.218.372.344.625.325l.189-.015a.671.671 0 0 0 .249-.07l2.939-1.489a.958.958 0 0 1 .748-.055c.253.084.46.266.578.505.249.5.05 1.108-.445 1.366l-4.423 2.24a1 1 0 0 1-1.326-.456l-.675-1.367a.655.655 0 0 0-.678-.367z" fill="url(#paint1_linear)"/><path d="M36.138 21.195l-2.667-2.666a.667.667 0 0 0-.942.942l1.528 1.53H27a.667.667 0 0 0 0 1.332h7.057l-1.528 1.53a.667.667 0 1 0 .942.942l2.667-2.667a.667.667 0 0 0 0-.943z" fill="url(#paint2_linear)"/><path d="M23 25.667a.667.667 0 0 0-.667.666V31a.667.667 0 0 0 1.334 0v-4.667a.667.667 0 0 0-.667-.666z" fill="url(#paint3_linear)"/><path d="M23 16.333a.667.667 0 0 0-.667.667v.667a.667.667 0 0 0 1.334 0V17a.667.667 0 0 0-.667-.667z" fill="url(#paint4_linear)"/><path d="M40.333 1H23a.667.667 0 0 0-.667.667v10a.667.667 0 0 0 1.334 0V2.333h16v37.334h-38a.667.667 0 0 0 0 1.333h38.666a.667.667 0 0 0 .667-.667V1.667A.667.667 0 0 0 40.333 1z" stroke="url(#paint5_linear)" stroke-width=".6" mask="url(#a)"/><path d="M19.295 25.978l4.422-2.245a2.363 2.363 0 0 0 1.04-3.142 2.318 2.318 0 0 0-3.125-1.048l-2.533 1.283-.862-1.453a4.567 4.567 0 1 0-5.317-2.786L7.467 18.89a2.337 2.337 0 0 0-1.419 1.622l-1.106 4.48a2.352 2.352 0 0 0 1.69 2.842c.594.154 1.226.061 1.751-.256.538-.321.924-.845 1.072-1.453l.812-3.305 1.584-.658-.856 4.774-3.377 3.784-2.759-2.444a2.31 2.31 0 0 0-3.287.22 2.367 2.367 0 0 0 .22 3.303l4.421 3.92c.93.79 2.308.743 3.182-.107l4.242-4.297 3.388 2.058 2.462 4.99a2.313 2.313 0 0 0 3.125 1.053 2.363 2.363 0 0 0 1.039-3.144l-2.765-5.6a2.337 2.337 0 0 0-.881-.963l-4.097-2.49.438-1.995a2.31 2.31 0 0 0 2.949.753zm-3.282-3.379a.667.667 0 0 0-.571.52l-.938 4.281a.667.667 0 0 0 .305.712l4.504 2.737c.162.1.293.244.378.415l2.764 5.6c.247.5.05 1.105-.445 1.363a1 1 0 0 1-1.327-.451l-2.55-5.163a.662.662 0 0 0-.251-.274l-4.004-2.434a.667.667 0 0 0-.82.102l-4.613 4.672a1 1 0 0 1-1.349.046l-4.422-3.92a1.03 1.03 0 0 1-.094-1.436.977.977 0 0 1 1.394-.095l3.255 2.885c.275.243.695.219.94-.055l3.945-4.42a.667.667 0 0 0 .159-.326l1.105-6.16a.667.667 0 0 0-.911-.731L9.444 21.72a.667.667 0 0 0-.392.456l-.895 3.63c-.063.263-.23.489-.462.628a.953.953 0 0 1-.738.108 1.015 1.015 0 0 1-.724-1.231l1.106-4.481c.08-.323.314-.587.625-.706l5.308-2.24.814.353a.667.667 0 0 0 .75-1.067 3.267 3.267 0 0 1-.893-2.249 3.204 3.204 0 1 1 3.203 3.253.667.667 0 0 0-.574 1.007l1.66 2.8c.13.218.372.344.625.325l.189-.015a.671.671 0 0 0 .249-.07l2.939-1.489a.958.958 0 0 1 .748-.055c.253.084.46.266.578.505.249.5.05 1.108-.445 1.366l-4.423 2.24a1 1 0 0 1-1.326-.456l-.675-1.367a.655.655 0 0 0-.678-.367z" stroke="url(#paint6_linear)" stroke-width=".6" mask="url(#a)"/><path d="M36.138 21.195l-2.667-2.666a.667.667 0 0 0-.942.942l1.528 1.53H27a.667.667 0 0 0 0 1.332h7.057l-1.528 1.53a.667.667 0 1 0 .942.942l2.667-2.667a.667.667 0 0 0 0-.943z" stroke="url(#paint7_linear)" stroke-width=".6" mask="url(#a)"/><path d="M23 25.667a.667.667 0 0 0-.667.666V31a.667.667 0 0 0 1.334 0v-4.667a.667.667 0 0 0-.667-.666z" stroke="url(#paint8_linear)" stroke-width=".6" mask="url(#a)"/><path d="M23 16.333a.667.667 0 0 0-.667.667v.667a.667.667 0 0 0 1.334 0V17a.667.667 0 0 0-.667-.667z" stroke="url(#paint9_linear)" stroke-width=".6" mask="url(#a)"/><defs><linearGradient id="paint0_linear" x1="21" y1="1" x2="21" y2="41" gradientUnits="userSpaceOnUse"><stop stop-color="#EB862C"/><stop offset="1" stop-color="#E35930"/></linearGradient><linearGradient id="paint1_linear" x1="21" y1="1" x2="21" y2="41" gradientUnits="userSpaceOnUse"><stop stop-color="#EB862C"/><stop offset="1" stop-color="#E35930"/></linearGradient><linearGradient id="paint2_linear" x1="21" y1="1" x2="21" y2="41" gradientUnits="userSpaceOnUse"><stop stop-color="#EB862C"/><stop offset="1" stop-color="#E35930"/></linearGradient><linearGradient id="paint3_linear" x1="21" y1="1" x2="21" y2="41" gradientUnits="userSpaceOnUse"><stop stop-color="#EB862C"/><stop offset="1" stop-color="#E35930"/></linearGradient><linearGradient id="paint4_linear" x1="21" y1="1" x2="21" y2="41" gradientUnits="userSpaceOnUse"><stop stop-color="#EB862C"/><stop offset="1" stop-color="#E35930"/></linearGradient><linearGradient id="paint5_linear" x1="21" y1="1" x2="21" y2="41" gradientUnits="userSpaceOnUse"><stop stop-color="#EB862C"/><stop offset="1" stop-color="#E35930"/></linearGradient><linearGradient id="paint6_linear" x1="21" y1="1" x2="21" y2="41" gradientUnits="userSpaceOnUse"><stop stop-color="#EB862C"/><stop offset="1" stop-color="#E35930"/></linearGradient><linearGradient id="paint7_linear" x1="21" y1="1" x2="21" y2="41" gradientUnits="userSpaceOnUse"><stop stop-color="#EB862C"/><stop offset="1" stop-color="#E35930"/></linearGradient><linearGradient id="paint8_linear" x1="21" y1="1" x2="21" y2="41" gradientUnits="userSpaceOnUse"><stop stop-color="#EB862C"/><stop offset="1" stop-color="#E35930"/></linearGradient><linearGradient id="paint9_linear" x1="21" y1="1" x2="21" y2="41" gradientUnits="userSpaceOnUse"><stop stop-color="#EB862C"/><stop offset="1" stop-color="#E35930"/></linearGradient></defs></svg>