<svg width="12" height="12" viewBox="0 0 12 12" fill="none" xmlns="http://www.w3.org/2000/svg"><g clip-path="url(#clip0)"><path d="M11.328 3.233l-.039.018c-.874.389-1.783.672-2.714.858a9.164 9.164 0 0 1-.002 3.786 12.81 12.81 0 0 1 2.715.854l.038.017a6.03 6.03 0 0 0 .002-5.533z" fill="url(#paint0_linear)"/><path d="M4.362 8.511a8.337 8.337 0 0 0 1.637 2.939A8.325 8.325 0 0 0 7.636 8.51a12.496 12.496 0 0 0-3.274 0z" fill="url(#paint1_linear)"/><path d="M7.832 4.226A13.13 13.13 0 0 1 6 4.368c-.62 0-1.23-.058-1.832-.142a8.404 8.404 0 0 0 .001 3.555 13.299 13.299 0 0 1 3.661 0 8.392 8.392 0 0 0 .002-3.555z" fill="url(#paint2_linear)"/><path d="M6 .55a8.334 8.334 0 0 0-1.638 2.939c1.087.143 2.188.143 3.274 0A8.34 8.34 0 0 0 6 .55z" fill="url(#paint3_linear)"/><path d="M6.517 0a9.096 9.096 0 0 1 1.872 3.372 12.02 12.02 0 0 0 2.548-.792A5.987 5.987 0 0 0 6.517 0z" fill="url(#paint4_linear)"/><path d="M1.062 2.58c.818.36 1.675.621 2.549.792A9.096 9.096 0 0 1 5.483 0a5.988 5.988 0 0 0-4.421 2.58z" fill="url(#paint5_linear)"/><path d="M3.425 4.109A12.86 12.86 0 0 1 .713 3.25l-.04-.018a6.011 6.011 0 0 0 0 5.533l.04-.017c.87-.389 1.782-.67 2.714-.854a9.152 9.152 0 0 1-.002-3.786z" fill="url(#paint6_linear)"/><path d="M3.61 8.629c-.874.17-1.73.431-2.548.791A5.988 5.988 0 0 0 5.482 12 9.1 9.1 0 0 1 3.612 8.63z" fill="url(#paint7_linear)"/><path d="M8.389 8.628A9.086 9.086 0 0 1 6.517 12a5.987 5.987 0 0 0 4.42-2.58 12.02 12.02 0 0 0-2.548-.792z" fill="url(#paint8_linear)"/></g><defs><linearGradient id="paint0_linear" x1="10.287" y1="3.233" x2="10.287" y2="8.766" gradientUnits="userSpaceOnUse"><stop stop-color="#EB862C"/><stop offset="1" stop-color="#E35930"/></linearGradient><linearGradient id="paint1_linear" x1="5.999" y1="8.403" x2="5.999" y2="11.45" gradientUnits="userSpaceOnUse"><stop stop-color="#EB862C"/><stop offset="1" stop-color="#E35930"/></linearGradient><linearGradient id="paint2_linear" x1="6" y1="4.226" x2="6" y2="7.781" gradientUnits="userSpaceOnUse"><stop stop-color="#EB862C"/><stop offset="1" stop-color="#E35930"/></linearGradient><linearGradient id="paint3_linear" x1="5.999" y1=".55" x2="5.999" y2="3.596" gradientUnits="userSpaceOnUse"><stop stop-color="#EB862C"/><stop offset="1" stop-color="#E35930"/></linearGradient><linearGradient id="paint4_linear" x1="8.727" x2="8.727" y2="3.372" gradientUnits="userSpaceOnUse"><stop stop-color="#EB862C"/><stop offset="1" stop-color="#E35930"/></linearGradient><linearGradient id="paint5_linear" x1="3.272" x2="3.272" y2="3.372" gradientUnits="userSpaceOnUse"><stop stop-color="#EB862C"/><stop offset="1" stop-color="#E35930"/></linearGradient><linearGradient id="paint6_linear" x1="1.713" y1="3.233" x2="1.713" y2="8.766" gradientUnits="userSpaceOnUse"><stop stop-color="#EB862C"/><stop offset="1" stop-color="#E35930"/></linearGradient><linearGradient id="paint7_linear" x1="3.272" y1="8.629" x2="3.272" y2="12" gradientUnits="userSpaceOnUse"><stop stop-color="#EB862C"/><stop offset="1" stop-color="#E35930"/></linearGradient><linearGradient id="paint8_linear" x1="8.727" y1="8.628" x2="8.727" y2="12" gradientUnits="userSpaceOnUse"><stop stop-color="#EB862C"/><stop offset="1" stop-color="#E35930"/></linearGradient><clipPath id="clip0"><path fill="#fff" d="M0 0h12v12H0z"/></clipPath></defs></svg>