<svg width="42" height="42" viewBox="0 0 42 42" fill="none" xmlns="http://www.w3.org/2000/svg"><path d="M16.466 3.503h-5.624a.781.781 0 0 0 0 1.562h5.624a.781.781 0 1 0 0-1.562z" fill="url(#paint0_linear)"/><path d="M14.206 36.676a.786.786 0 0 0-.552-.229.787.787 0 0 0-.552.229.787.787 0 0 0-.23.552.787.787 0 0 0 .781.781.787.787 0 0 0 .553-.229.787.787 0 0 0 .229-.552.785.785 0 0 0-.229-.552z" fill="url(#paint1_linear)"/><path d="M35.971 25.833l-2.873-4.977a3.526 3.526 0 0 0 .656-4.342 3.497 3.497 0 0 0-2.138-1.64 3.497 3.497 0 0 0-1.951.036l-2.873-4.976a.78.78 0 0 0-1.292-.091l-8.946 11.424-3.754 2.167a4.491 4.491 0 0 0-1.642 6.128 4.456 4.456 0 0 0 2.724 2.09 4.46 4.46 0 0 0 3.404-.448l.447-.258 1.56 2.701H2.563V7.566h22.183v.234a.781.781 0 0 0 1.562 0V4.07a3.07 3.07 0 0 0-3.067-3.066H4.067A3.07 3.07 0 0 0 1 4.07v33.86a3.07 3.07 0 0 0 3.067 3.066H23.24a3.07 3.07 0 0 0 3.067-3.066v-9.64l9.097-1.293a.781.781 0 0 0 .566-1.164zM2.562 4.07c0-.83.675-1.504 1.505-1.504H23.24c.83 0 1.505.675 1.505 1.504v1.933H2.562V4.07zm28.65 12.312a1.961 1.961 0 0 1 1.067 3.056l-1.796-3.11c.241-.028.488-.01.729.054zm-14.707 13.47a2.905 2.905 0 0 1-2.219.292 2.905 2.905 0 0 1-1.775-1.363 2.928 2.928 0 0 1 1.07-3.994l3.21-1.853L19.713 28l-3.209 1.853zm2.581.313l1.409-.813 1.845 3.196-1.408.813-1.846-3.196zm5.66 7.765c0 .83-.675 1.504-1.505 1.504H4.067c-.83 0-1.505-.675-1.505-1.504v-2.72h22.184v2.72zm0-4.282H23.56l.237-.137a.781.781 0 0 0 .286-1.067l-2.048-3.547 2.71-.385v5.136zm-3.551-6.21l-3.179-5.504 5.681-7.255 6.619 11.463-9.121 1.297zm10.788-1.532l-7.248-12.553 1.282-1.637 8.023 13.897-2.057.293z" fill="url(#paint2_linear)"/><path d="M40.895 12.417a.781.781 0 0 0-1.067-.286l-3.83 2.211a.781.781 0 1 0 .781 1.353l3.83-2.211a.781.781 0 0 0 .286-1.067z" fill="url(#paint3_linear)"/><path d="M33.825 8.988a.781.781 0 0 0-.956.552l-.559 2.084a.781.781 0 1 0 1.51.405l.558-2.084a.781.781 0 0 0-.553-.957z" fill="url(#paint4_linear)"/><path d="M39.79 19.206l-2.153-.577a.781.781 0 1 0-.404 1.509l2.154.577a.782.782 0 0 0 .404-1.51z" fill="url(#paint5_linear)"/><path d="M15.815 9.843H5.037a.781.781 0 1 0 0 1.563h10.778a.781.781 0 1 0 0-1.563z" fill="url(#paint6_linear)"/><path d="M16.367 13.822a.784.784 0 0 0-1.104 0 .783.783 0 0 0 0 1.104.786.786 0 0 0 .552.229.787.787 0 0 0 .553-.229.787.787 0 0 0 .228-.552.787.787 0 0 0-.229-.552z" fill="url(#paint7_linear)"/><path d="M12.586 13.592h-7.55a.781.781 0 0 0 0 1.563h7.55a.781.781 0 0 0 0-1.563z" fill="url(#paint8_linear)"/><path d="M13.96 17.342H8.036a.781.781 0 0 0 0 1.562h5.922a.781.781 0 0 0 0-1.562z" fill="url(#paint9_linear)"/><path d="M5.066 17.342H5.03a.781.781 0 0 0 0 1.562h.036a.781.781 0 0 0 0-1.562z" fill="url(#paint10_linear)"/><path fill-rule="evenodd" clip-rule="evenodd" d="M26.791 9.934l2.874 4.976a3.497 3.497 0 0 1 1.951-.037 3.497 3.497 0 0 1 2.138 1.64 3.526 3.526 0 0 1-.657 4.343l2.874 4.977a.781.781 0 0 1-.566 1.164l-9.097 1.293v9.64a3.07 3.07 0 0 1-3.067 3.066H4.067A3.07 3.07 0 0 1 1 37.93V4.07a3.07 3.07 0 0 1 3.067-3.066H23.24a3.07 3.07 0 0 1 3.067 3.066V7.8a.781.781 0 0 1-1.562 0v-.235H2.562v26.082h16.73l-1.559-2.7-.447.258a4.46 4.46 0 0 1-3.404.448 4.456 4.456 0 0 1-2.724-2.09 4.491 4.491 0 0 1 1.642-6.129l3.754-2.167L25.5 9.843a.78.78 0 0 1 1.291.09zm-.607-.589a.98.98 0 0 0-.841.374L16.42 21.113 12.7 23.26a4.691 4.691 0 0 0-1.715 6.402 4.656 4.656 0 0 0 2.845 2.183m12.354-22.5a.981.981 0 0 1 .78.488l2.796 4.84a3.696 3.696 0 0 1 1.908.006c.96.257 1.762.873 2.259 1.734a3.726 3.726 0 0 1-.578 4.477l2.796 4.842a.981.981 0 0 1-.712 1.462l-8.925 1.269v9.466a3.27 3.27 0 0 1-3.267 3.267H4.067A3.27 3.27 0 0 1 .8 37.93V4.07A3.27 3.27 0 0 1 4.067.804H23.24a3.27 3.27 0 0 1 3.267 3.266V7.8a.981.981 0 0 1-1.962 0v-.035H2.762v25.682h16.184L17.66 31.22l-.274.158a4.66 4.66 0 0 1-3.556.468m17.33-15.27a1.766 1.766 0 0 0-.335-.057l1.459 2.527a1.758 1.758 0 0 0-1.124-2.47zm1.242 2.674a1.962 1.962 0 0 1-.123.188l-1.796-3.11a1.965 1.965 0 0 1 .729.054 1.959 1.959 0 0 1 1.19 2.868zm3.31-3.84a.781.781 0 0 0 1.067.285l3.83-2.211a.781.781 0 1 0-.78-1.353l-3.83 2.211a.781.781 0 0 0-.287 1.067zm.186-1.24l3.83-2.212a.981.981 0 1 1 .981 1.7l-3.83 2.21a.98.98 0 0 1-.981-1.7v.001zm-3.223-4.682a.981.981 0 1 1 1.896.508l-.193-.051a.781.781 0 1 0-1.51-.405l-.558 2.084a.781.781 0 1 0 1.51.405l.558-2.084.193.051-.558 2.084a.982.982 0 0 1-1.896-.508l.559-2.084zm4.006 9.693l-.194-.052a.981.981 0 0 1 1.202-.693l2.154.577c.523.14.834.678.693 1.201l-.193-.051a.781.781 0 0 0-.552-.957l-2.154-.577a.781.781 0 0 0-.956.552zm.552.957a.781.781 0 0 1-.552-.957l-.194-.052a.981.981 0 0 0 .694 1.202l.052-.193zm2.154.577l-2.154-.577-.052.193 2.154.577a.981.981 0 0 0 1.202-.694l-.194-.051a.782.782 0 0 1-.956.552zm-23.02-5.789a.787.787 0 0 1-.552.229.784.784 0 0 1-.552-1.333.782.782 0 0 1 1.333.552.787.787 0 0 1-.229.552zm.142-1.246a.984.984 0 0 0-1.387 0 .983.983 0 0 0 0 1.388.986.986 0 0 0 .693.287.987.987 0 0 0 .694-.287.987.987 0 0 0 .287-.694.987.987 0 0 0-.287-.694zM10.842 3.303h5.624a.981.981 0 0 1 0 1.962h-5.624a.981.981 0 0 1 0-1.962zm2.812 32.944a.984.984 0 0 1 .694 1.675.987.987 0 0 1-.694.287.987.987 0 0 1-.694-.287.987.987 0 0 1-.287-.694c0-.258.104-.51.287-.694a.987.987 0 0 1 .694-.287zM4.067 2.766c-.72 0-1.305.585-1.305 1.304v1.733h21.784V4.07c0-.719-.586-1.304-1.305-1.304H4.067zm10.271 27.185a2.705 2.705 0 0 0 2.067-.273l3.036-1.752-2.724-4.718-3.036 1.752a2.727 2.727 0 0 0-.997 3.721c.364.63.95 1.081 1.654 1.27zm2.452-7.017L19.714 28l-3.209 1.853a2.905 2.905 0 0 1-2.219.292 2.905 2.905 0 0 1-1.775-1.363 2.928 2.928 0 0 1 1.07-3.994l3.21-1.853zm2.296 7.231l1.409-.813 1.845 3.196-1.408.813-1.846-3.196zm1.919 2.923l1.062-.613-1.645-2.85-1.063.614 1.646 2.85zM4.067 39.234H23.24c.72 0 1.305-.585 1.305-1.304v-2.52H2.762v2.52c0 .719.586 1.304 1.305 1.304zm20.106-5.787h.373v-4.705l-2.189.312 1.9 3.29a.981.981 0 0 1-.084 1.103zm-.612.2l.237-.136a.781.781 0 0 0 .286-1.067l-2.048-3.547 2.71-.385v5.136H23.56zm-2.26-6.425l-3.044-5.271 5.415-6.916 6.323 10.951-8.695 1.236zm2.396-12.543l-5.68 7.255 3.178 5.505 9.12-1.297-6.618-11.463zm8.392 11.01l-7.113-12.32 1.016-1.296 7.727 13.384-1.63.232zm-6.072-13.973l-1.282 1.637 7.248 12.553 2.057-.293-8.023-13.897zM5.037 9.643h10.778a.981.981 0 0 1 0 1.963H5.037a.981.981 0 0 1 0-1.963zm0 3.75h7.55a.981.981 0 0 1 0 1.962h-7.55a.981.981 0 0 1 0-1.963zm3 3.75h5.922a.981.981 0 1 1 0 1.961H8.037a.981.981 0 1 1 0-1.962zm-3.007 0h.036a.981.981 0 0 1 0 1.961H5.03a.981.981 0 0 1 0-1.962zM4.067 2.565c-.83 0-1.505.675-1.505 1.504v1.933h22.184V4.07c0-.83-.675-1.504-1.505-1.504H4.067zM23.24 39.434c.83 0 1.505-.675 1.505-1.504v-2.72H2.562v2.72c0 .83.675 1.504 1.505 1.504H23.24zm-6.775-35.93h-5.624a.781.781 0 0 0 0 1.561h5.624a.781.781 0 1 0 0-1.562zm-11.43 6.34h10.779a.781.781 0 0 1 0 1.562H5.037a.781.781 0 0 1 0-1.563zm0 3.748h7.55a.781.781 0 0 1 0 1.563h-7.55a.781.781 0 0 1 0-1.563zm8.923 3.75H8.037a.781.781 0 0 0 0 1.562h5.922a.781.781 0 0 0 0-1.562zm-8.929 0h.036a.781.781 0 0 1 0 1.562H5.03a.781.781 0 0 1 0-1.562z" fill="url(#paint11_linear)"/><defs><linearGradient id="paint0_linear" x1="21" y1=".804" x2="21" y2="41.197" gradientUnits="userSpaceOnUse"><stop stop-color="#EB862C"/><stop offset="1" stop-color="#E35930"/></linearGradient><linearGradient id="paint1_linear" x1="21" y1=".804" x2="21" y2="41.197" gradientUnits="userSpaceOnUse"><stop stop-color="#EB862C"/><stop offset="1" stop-color="#E35930"/></linearGradient><linearGradient id="paint2_linear" x1="21" y1=".804" x2="21" y2="41.197" gradientUnits="userSpaceOnUse"><stop stop-color="#EB862C"/><stop offset="1" stop-color="#E35930"/></linearGradient><linearGradient id="paint3_linear" x1="21" y1=".804" x2="21" y2="41.197" gradientUnits="userSpaceOnUse"><stop stop-color="#EB862C"/><stop offset="1" stop-color="#E35930"/></linearGradient><linearGradient id="paint4_linear" x1="21" y1=".804" x2="21" y2="41.197" gradientUnits="userSpaceOnUse"><stop stop-color="#EB862C"/><stop offset="1" stop-color="#E35930"/></linearGradient><linearGradient id="paint5_linear" x1="21" y1=".804" x2="21" y2="41.197" gradientUnits="userSpaceOnUse"><stop stop-color="#EB862C"/><stop offset="1" stop-color="#E35930"/></linearGradient><linearGradient id="paint6_linear" x1="21" y1=".804" x2="21" y2="41.197" gradientUnits="userSpaceOnUse"><stop stop-color="#EB862C"/><stop offset="1" stop-color="#E35930"/></linearGradient><linearGradient id="paint7_linear" x1="21" y1=".804" x2="21" y2="41.197" gradientUnits="userSpaceOnUse"><stop stop-color="#EB862C"/><stop offset="1" stop-color="#E35930"/></linearGradient><linearGradient id="paint8_linear" x1="21" y1=".804" x2="21" y2="41.197" gradientUnits="userSpaceOnUse"><stop stop-color="#EB862C"/><stop offset="1" stop-color="#E35930"/></linearGradient><linearGradient id="paint9_linear" x1="21" y1=".804" x2="21" y2="41.197" gradientUnits="userSpaceOnUse"><stop stop-color="#EB862C"/><stop offset="1" stop-color="#E35930"/></linearGradient><linearGradient id="paint10_linear" x1="21" y1=".804" x2="21" y2="41.197" gradientUnits="userSpaceOnUse"><stop stop-color="#EB862C"/><stop offset="1" stop-color="#E35930"/></linearGradient><linearGradient id="paint11_linear" x1="21" y1=".804" x2="21" y2="41.197" gradientUnits="userSpaceOnUse"><stop stop-color="#EB862C"/><stop offset="1" stop-color="#E35930"/></linearGradient></defs></svg>