<svg width="42" height="42" viewBox="0 0 42 42" fill="none" xmlns="http://www.w3.org/2000/svg"><path d="M40.867 6.6l-2-2.667a.69.69 0 0 0-1.067 0l-2 2.667a.666.666 0 0 0-.133.4v31.333a2.667 2.667 0 0 0 5.333 0V7a.667.667 0 0 0-.133-.4zm-1.2 31.733a1.333 1.333 0 0 1-2.667 0V37h2.667v1.333zm0-2.666H37v-1.334h2.667v1.334zm0-2.667H37V9h2.667v24zm0-25.333H37v-.445l1.333-1.777 1.334 1.777v.445z" fill="url(#paint0_linear)"/><path d="M33.67 1H4.332a.667.667 0 0 0-.666.666v11.4A3.34 3.34 0 0 0 1 16.334v21.334A3.337 3.337 0 0 0 4.333 41h24a.67.67 0 0 0 .472-.196l5.333-5.333a.666.666 0 0 0 .133-.195c.01-.02.015-.04.022-.062a.666.666 0 0 0 .035-.173c0-.014.008-.027.008-.041V1.666A.667.667 0 0 0 33.669 1zM21 37.666a2 2 0 0 1-2 2H4.333a2 2 0 0 1-2-2V16.334a2 2 0 0 1 2-2H19a2 2 0 0 1 2 2v21.334zM12.333 9v4H7.667V9h4.666zM7.667 7.666V5h4.666v2.666H7.667zM18.333 9v4h-4.666V9h4.666zm-4.666-1.334V5h4.666v2.666h-4.666zm6 5.4V9h4.666v9.333h-2v-2a3.34 3.34 0 0 0-2.666-3.266zm0-5.4V5h4.666v2.666h-4.666zM29 38.724v-3.057h3.057L29 38.724zm4-4.39h-4.667a.667.667 0 0 0-.666.666v4.666h-6.018a3.298 3.298 0 0 0 .684-2v-18H31a.667.667 0 0 0 .667-.666V4.333A.667.667 0 0 0 31 3.666H7a.667.667 0 0 0-.667.667V13H5V2.333h28v32zM30.333 9v9.333h-4.666V9h4.666zm-4.666-1.334V5h4.666v2.666h-4.666z" fill="url(#paint1_linear)"/><path d="M19 16.333H4.333a.667.667 0 0 0-.666.667v4c0 .368.298.666.666.666H19a.667.667 0 0 0 .667-.666v-4a.667.667 0 0 0-.667-.667zm-.667 4H5v-2.666h13.333v2.666z" fill="url(#paint2_linear)"/><path d="M19.667 28.333h-4A.667.667 0 0 0 15 29v8c0 .368.299.666.667.666h4a.667.667 0 0 0 .666-.666v-8a.667.667 0 0 0-.666-.667zm-.667 8h-2.667v-6.666H19v6.666z" fill="url(#paint3_linear)"/><path d="M19.667 23h-4a.667.667 0 0 0-.667.666v2.667c0 .368.299.667.667.667h4a.667.667 0 0 0 .666-.667v-2.666a.667.667 0 0 0-.666-.667zM19 25.666h-2.667v-1.333H19v1.334z" fill="url(#paint4_linear)"/><path d="M13.667 28.333h-4A.667.667 0 0 0 9 29v2.666c0 .369.298.667.667.667h4a.667.667 0 0 0 .666-.666V29a.667.667 0 0 0-.666-.667zM13 31h-2.667v-1.334H13V31z" fill="url(#paint5_linear)"/><path d="M13.667 23h-4a.667.667 0 0 0-.667.666v2.667c0 .368.298.667.667.667h4a.667.667 0 0 0 .666-.667v-2.666a.667.667 0 0 0-.666-.667zM13 25.666h-2.667v-1.333H13v1.334z" fill="url(#paint6_linear)"/><path d="M7.667 28.333h-4A.667.667 0 0 0 3 29v2.666c0 .369.298.667.667.667h4a.667.667 0 0 0 .666-.666V29a.667.667 0 0 0-.666-.667zM7 31H4.333v-1.334H7V31z" fill="url(#paint7_linear)"/><path d="M7.667 23h-4a.667.667 0 0 0-.667.666v2.667c0 .368.298.667.667.667h4a.667.667 0 0 0 .666-.667v-2.666A.667.667 0 0 0 7.667 23zM7 25.666H4.333v-1.333H7v1.334z" fill="url(#paint8_linear)"/><path d="M13.667 33.666h-4a.667.667 0 0 0-.667.667V37c0 .368.298.666.667.666h4a.667.667 0 0 0 .666-.666v-2.667a.667.667 0 0 0-.666-.666zM13 36.334h-2.667V35H13v1.333z" fill="url(#paint9_linear)"/><path d="M7.667 33.666h-4a.667.667 0 0 0-.667.667V37c0 .368.298.666.667.666h4A.667.667 0 0 0 8.333 37v-2.667a.667.667 0 0 0-.666-.666zM7 36.334H4.333V35H7v1.333z" fill="url(#paint10_linear)"/><path fill-rule="evenodd" clip-rule="evenodd" d="M39.027 3.813l2 2.667c.112.15.173.332.173.52v31.333a2.867 2.867 0 0 1-5.733 0V7c0-.188.06-.37.173-.52l2.005-2.674a.89.89 0 0 1 1.376 0l.006.007zm-1.227.12l-2 2.667a.666.666 0 0 0-.133.4v31.333a2.667 2.667 0 0 0 5.333 0V7a.667.667 0 0 0-.133-.4l-2-2.667M1 16.333a3.34 3.34 0 0 1 2.667-3.266v-11.4c0-.369.298-.667.666-.667H33.67c.369 0 .667.298.667.666V35.008a.129.129 0 0 1-.004.012.072.072 0 0 0-.004.02.666.666 0 0 1-.035.174l-.006.018-.016.044a.666.666 0 0 1-.133.195l-5.333 5.334a.67.67 0 0 1-.472.195h-24A3.337 3.337 0 0 1 1 37.666V16.334zm33.527 18.734l.003-.014a.248.248 0 0 0 .006-.053V1.666A.867.867 0 0 0 33.669.8H4.333a.867.867 0 0 0-.866.866v11.241A3.54 3.54 0 0 0 .8 16.333v21.334A3.538 3.538 0 0 0 4.333 41.2h24a.87.87 0 0 0 .613-.254l5.333-5.333.002-.002a.865.865 0 0 0 .173-.253m-12.12-19.025v2h2V9h-4.667v4.066a3.34 3.34 0 0 1 2.666 3.267zm-2.467-3.426a3.54 3.54 0 0 1 2.666 3.426v1.8h1.6V9.2h-4.266v3.707zm2.466 24.76a3.298 3.298 0 0 1-.684 2h6.018V35c0-.368.298-.667.666-.667H33v-32H5V13h1.333V4.333c0-.368.299-.667.667-.667h24c.368 0 .667.299.667.667V19a.667.667 0 0 1-.667.666h-8.667v18zm.2-17.8v17.8a3.502 3.502 0 0 1-.505 1.8h5.439V35c0-.479.388-.867.866-.867H32.8v-31.6H5.2V12.8h.933V4.333c0-.478.388-.867.867-.867h24c.479 0 .867.389.867.867V19a.867.867 0 0 1-.867.866h-8.467zm15.8 19.6c.626 0 1.134-.508 1.134-1.134V37.2H37.2v1.133c0 .626.507 1.134 1.133 1.134zm-1.133-4v-.934h2.267v.934H37.2zm0-2.667V9.2h2.267v23.6H37.2zm0-25.333v-.178l1.133-1.511 1.134 1.51v.179H37.2zm-.2-.245v.445h2.667v-.445l-1.334-1.777L37 7.222zM19 39.467a1.8 1.8 0 0 0 1.8-1.8V16.332a1.8 1.8 0 0 0-1.8-1.8H4.333a1.8 1.8 0 0 0-1.8 1.8v21.334a1.8 1.8 0 0 0 1.8 1.8H19zM12.133 12.8V9.2H7.867v3.6h4.266zM7.867 5.2v2.266h4.266V5.2H7.867zm10.266 7.6V9.2h-4.266v3.6h4.266zm-4.266-7.6v2.266h4.266V5.2h-4.266zm6 0v2.266h4.266V5.2h-4.266zM29 38.724l3.057-3.057H29v3.057zm.2-.483l2.375-2.374H29.2v2.374zm.933-20.108V9.2h-4.266v8.933h4.266zM25.867 5.2v2.266h4.266V5.2h-4.266zM4.333 16.133H19c.479 0 .867.388.867.867v4a.867.867 0 0 1-.867.866H4.333A.867.867 0 0 1 3.467 21v-4c0-.479.388-.867.866-.867zm.867 4h12.933v-2.267H5.2v2.267zm10.467 8h4c.478 0 .866.388.866.867v8a.867.867 0 0 1-.866.867h-4A.867.867 0 0 1 14.8 37v-8c0-.479.388-.867.867-.867zm.866 8H18.8v-6.267h-2.267v6.267zM15.667 22.8h4c.478 0 .866.388.866.866v2.667a.867.867 0 0 1-.866.867h-4a.867.867 0 0 1-.867-.867v-2.666c0-.48.388-.867.867-.867zm.866 2.666H18.8v-.933h-2.267v.933zm-6.866 2.667h4c.478 0 .866.388.866.867v2.666a.867.867 0 0 1-.866.867h-4a.867.867 0 0 1-.867-.867V29c0-.479.388-.867.867-.867zm.866 2.667H12.8v-.934h-2.267v.934zm-.866-8h4c.478 0 .866.388.866.866v2.667a.867.867 0 0 1-.866.867h-4a.867.867 0 0 1-.867-.867v-2.666c0-.48.388-.867.867-.867zm.866 2.666H12.8v-.933h-2.267v.933zm-6.866 2.667h4c.478 0 .866.388.866.867v2.666a.867.867 0 0 1-.866.867h-4a.867.867 0 0 1-.867-.867V29c0-.479.388-.867.867-.867zm.866 2.667H6.8v-.934H4.533v.934zm-.866-8h4c.478 0 .866.388.866.866v2.667a.867.867 0 0 1-.866.867h-4a.867.867 0 0 1-.867-.867v-2.666c0-.48.388-.867.867-.867zm.866 2.666H6.8v-.933H4.533v.933zm5.134 8h4c.478 0 .866.389.866.867V37a.867.867 0 0 1-.866.867h-4A.867.867 0 0 1 8.8 37v-2.667c0-.478.388-.866.867-.866zm.866 2.667H12.8V35.2h-2.267v.933zm-6.866-2.666h4c.478 0 .866.388.866.866V37a.867.867 0 0 1-.866.867h-4A.867.867 0 0 1 2.8 37v-2.667c0-.478.388-.866.867-.866zm.866 2.666H6.8V35.2H4.533v.933zM21 37.666a2 2 0 0 1-2 2H4.333a2 2 0 0 1-2-2V16.334a2 2 0 0 1 2-2H19a2 2 0 0 1 2 2v21.334zM12.333 13H7.667V9h4.666v4zM7.667 5h4.666v2.666H7.667V5zm10.666 8h-4.666V9h4.666v4zm-4.666-8h4.666v2.666h-4.666V5zm6 0h4.666v2.666h-4.666V5zm10.666 13.333h-4.666V9h4.666v9.333zM25.667 5h4.666v2.666h-4.666V5zm14 33.333a1.333 1.333 0 0 1-2.667 0V37h2.667v1.333zM37 35.667v-1.334h2.667v1.334H37zM37 33V9h2.667v24H37zM4.333 16.333H19c.368 0 .667.299.667.667v4a.667.667 0 0 1-.667.666H4.333A.667.667 0 0 1 3.667 21v-4c0-.368.298-.667.666-.667zm14 4v-2.666H5v2.666h13.333zm1.334 8h-4A.667.667 0 0 0 15 29v8c0 .368.299.666.667.666h4a.667.667 0 0 0 .666-.666v-8a.667.667 0 0 0-.666-.667zm-3.334 8v-6.666H19v6.666h-2.667zM15.667 23h4c.368 0 .666.298.666.666v2.667a.667.667 0 0 1-.666.667h-4a.667.667 0 0 1-.667-.667v-2.666c0-.369.299-.667.667-.667zM19 25.666v-1.333h-2.667v1.334H19zm-5.333 2.667h-4A.667.667 0 0 0 9 29v2.666c0 .369.298.667.667.667h4a.667.667 0 0 0 .666-.666V29a.667.667 0 0 0-.666-.667zM10.333 31v-1.334H13V31h-2.667zm-.666-8h4c.368 0 .666.298.666.666v2.667a.667.667 0 0 1-.666.667h-4A.667.667 0 0 1 9 26.333v-2.666c0-.369.298-.667.667-.667zM13 25.666v-1.333h-2.667v1.334H13zm-5.333 2.667h-4A.667.667 0 0 0 3 29v2.666c0 .369.298.667.667.667h4a.667.667 0 0 0 .666-.666V29a.667.667 0 0 0-.666-.667zM4.333 31v-1.334H7V31H4.333zm-.666-8h4c.368 0 .666.298.666.666v2.667a.667.667 0 0 1-.666.667h-4A.667.667 0 0 1 3 26.333v-2.666c0-.369.298-.667.667-.667zM7 25.666v-1.333H4.333v1.334H7zm6.667 8h-4a.667.667 0 0 0-.667.667V37c0 .368.298.666.667.666h4a.667.667 0 0 0 .666-.666v-2.667a.667.667 0 0 0-.666-.666zm-3.334 2.667V35H13v1.333h-2.667zm-6.666-2.666h4c.368 0 .666.298.666.666V37a.667.667 0 0 1-.666.666h-4A.667.667 0 0 1 3 37v-2.667c0-.368.298-.666.667-.666zM7 36.332V35H4.333v1.333H7z" fill="url(#paint11_linear)"/><defs><linearGradient id="paint0_linear" x1="21" y1=".8" x2="21" y2="41.2" gradientUnits="userSpaceOnUse"><stop stop-color="#EB862C"/><stop offset="1" stop-color="#E35930"/></linearGradient><linearGradient id="paint1_linear" x1="21" y1=".8" x2="21" y2="41.2" gradientUnits="userSpaceOnUse"><stop stop-color="#EB862C"/><stop offset="1" stop-color="#E35930"/></linearGradient><linearGradient id="paint2_linear" x1="21" y1=".8" x2="21" y2="41.2" gradientUnits="userSpaceOnUse"><stop stop-color="#EB862C"/><stop offset="1" stop-color="#E35930"/></linearGradient><linearGradient id="paint3_linear" x1="21" y1=".8" x2="21" y2="41.2" gradientUnits="userSpaceOnUse"><stop stop-color="#EB862C"/><stop offset="1" stop-color="#E35930"/></linearGradient><linearGradient id="paint4_linear" x1="21" y1=".8" x2="21" y2="41.2" gradientUnits="userSpaceOnUse"><stop stop-color="#EB862C"/><stop offset="1" stop-color="#E35930"/></linearGradient><linearGradient id="paint5_linear" x1="21" y1=".8" x2="21" y2="41.2" gradientUnits="userSpaceOnUse"><stop stop-color="#EB862C"/><stop offset="1" stop-color="#E35930"/></linearGradient><linearGradient id="paint6_linear" x1="21" y1=".8" x2="21" y2="41.2" gradientUnits="userSpaceOnUse"><stop stop-color="#EB862C"/><stop offset="1" stop-color="#E35930"/></linearGradient><linearGradient id="paint7_linear" x1="21" y1=".8" x2="21" y2="41.2" gradientUnits="userSpaceOnUse"><stop stop-color="#EB862C"/><stop offset="1" stop-color="#E35930"/></linearGradient><linearGradient id="paint8_linear" x1="21" y1=".8" x2="21" y2="41.2" gradientUnits="userSpaceOnUse"><stop stop-color="#EB862C"/><stop offset="1" stop-color="#E35930"/></linearGradient><linearGradient id="paint9_linear" x1="21" y1=".8" x2="21" y2="41.2" gradientUnits="userSpaceOnUse"><stop stop-color="#EB862C"/><stop offset="1" stop-color="#E35930"/></linearGradient><linearGradient id="paint10_linear" x1="21" y1=".8" x2="21" y2="41.2" gradientUnits="userSpaceOnUse"><stop stop-color="#EB862C"/><stop offset="1" stop-color="#E35930"/></linearGradient><linearGradient id="paint11_linear" x1="21" y1=".8" x2="21" y2="41.2" gradientUnits="userSpaceOnUse"><stop stop-color="#EB862C"/><stop offset="1" stop-color="#E35930"/></linearGradient></defs></svg>