<svg width="42" height="42" viewBox="0 0 42 42" fill="none" xmlns="http://www.w3.org/2000/svg"><path d="M2.936 2.29H8.86C9.128 1.541 9.838 1 10.677 1h9.033c.84 0 1.55.541 1.816 1.29h5.926c1.067 0 1.935.869 1.935 1.936v8.387h2.197c.786 0 1.56.205 2.242.595l3.475 1.985H41v11.613h-4.32l-2.734 1.822a4.498 4.498 0 0 1-2.505.759h-2.054v9.677A1.938 1.938 0 0 1 27.452 41H2.936A1.938 1.938 0 0 1 1 39.064V4.226c0-1.067.869-1.936 1.936-1.936zm22.58 15.484h-1.29a2.583 2.583 0 0 1-2.58-2.58 2.583 2.583 0 0 1 2.58-2.581h1.29V6.16h-3.99a1.933 1.933 0 0 1-1.816 1.29h-9.033c-.84 0-1.55-.54-1.816-1.29H4.87V37.13h20.645V17.774zM20.355 2.935a.646.646 0 0 0-.645-.645h-9.033a.646.646 0 0 0-.645.645v2.58c0 .357.29.646.646.646h9.032c.356 0 .645-.29.645-.645v-2.58zm7.742 1.29a.646.646 0 0 0-.645-.645h-5.807v1.29h5.162v7.743h1.29V4.226zm3.344 23.872c.639 0 1.258-.188 1.79-.542l3.057-2.04h3.422v-9.031h-2.753l-3.772-2.156a3.231 3.231 0 0 0-1.6-.425h-7.36c-.71 0-1.29.579-1.29 1.29 0 .712.58 1.29 1.29 1.29h7.743v.646a3.23 3.23 0 0 0 3.226 3.226v1.29a4.523 4.523 0 0 1-4.47-3.871h-1.337v10.323h2.054zM2.291 39.064c0 .356.289.645.645.645h24.516c.356 0 .645-.289.645-.645v-21.29h-1.29v20.645H3.58V4.871h5.161V3.58H2.936a.646.646 0 0 0-.646.645v34.838z" fill="url(#paint0_linear)"/><path d="M19.065 3.58h-1.29v1.29h1.29V3.58z" fill="url(#paint1_linear)"/><path d="M12.613 3.58h-1.29v1.29h1.29V3.58z" fill="url(#paint2_linear)"/><path d="M10.437 30.812l2.177-.622v-.327a4.51 4.51 0 0 1-1.937-3.702v-1.29a4.522 4.522 0 0 1 4.517-4.516 4.522 4.522 0 0 1 4.516 4.516v1.29a4.51 4.51 0 0 1-1.936 3.7v.33l2.177.621a3.24 3.24 0 0 1 2.34 3.103v1.924H8.096v-1.924a3.24 3.24 0 0 1 2.34-3.103zm7.982-4.65V24.87a3.23 3.23 0 0 0-3.225-3.226 3.23 3.23 0 0 0-3.226 3.226v1.29a3.23 3.23 0 0 0 3.226 3.226 3.23 3.23 0 0 0 3.225-3.226zm-4.493 4.33l1.268 1.69 1.267-1.69a4.492 4.492 0 0 1-1.267.185c-.44 0-.865-.066-1.268-.184zm-4.539 4.056H21v-.633c0-.86-.577-1.626-1.404-1.862l-2.217-.633-2.185 2.913-2.186-2.913-2.217.633a1.945 1.945 0 0 0-1.404 1.862v.633z" fill="url(#paint3_linear)"/><path d="M24.226 8.742h-1.29v1.29h1.29v-1.29z" fill="url(#paint4_linear)"/><path d="M21.645 8.742H6.161v1.29h15.484v-1.29z" fill="url(#paint5_linear)"/><path d="M20.355 11.322H6.16v1.29h14.194v-1.29z" fill="url(#paint6_linear)"/><path d="M20.355 13.903H6.16v1.29h14.194v-1.29z" fill="url(#paint7_linear)"/><path d="M7.452 16.484h-1.29v1.29h1.29v-1.29z" fill="url(#paint8_linear)"/><path d="M20.355 16.484H8.742v1.29h11.613v-1.29z" fill="url(#paint9_linear)"/><path fill-rule="evenodd" clip-rule="evenodd" d="M41.2 14.993v12.013h-4.46l-2.683 1.789a4.699 4.699 0 0 1-2.616.792h-1.854v9.477a2.138 2.138 0 0 1-2.135 2.136H2.936A2.138 2.138 0 0 1 .8 39.064V4.226c0-1.178.958-2.136 2.136-2.136h5.789A2.13 2.13 0 0 1 10.678.8h9.032a2.13 2.13 0 0 1 1.952 1.29h5.79c1.177 0 2.135.958 2.135 2.136v8.187h1.997c.82 0 1.63.214 2.341.621m0 0l3.429 1.96H41.2m-7.374-1.786a4.52 4.52 0 0 0-2.242-.595h-2.197V4.226a1.938 1.938 0 0 0-1.935-1.936h-5.926A1.933 1.933 0 0 0 19.71 1h-9.033c-.84 0-1.55.541-1.816 1.29H2.936A1.938 1.938 0 0 0 1 4.226v34.838C1 40.131 1.869 41 2.936 41h24.516a1.938 1.938 0 0 0 1.935-1.936v-9.677h2.054c.894 0 1.761-.262 2.505-.759l2.733-1.822H41V15.193h-3.7l-3.474-1.985zm-6.82-8.537v7.742h.89V4.226c0-.246-.199-.446-.444-.446h-5.607v.89h5.162zm-5.36-1.09h5.806c.356 0 .645.289.645.645v8.387h-1.29V4.87h-5.162V3.58zm14.582 21.735h3.282v-8.632h-2.606l-3.818-2.182.1-.174 3.771 2.156h2.753v9.032h-3.422l-3.058 2.039a3.213 3.213 0 0 1-1.789.542h-2.054V17.774h1.336a4.524 4.524 0 0 0 4.47 3.871v-1.29a3.23 3.23 0 0 1-3.225-3.226v-.645h-7.742c-.712 0-1.29-.579-1.29-1.29 0-.712.578-1.291 1.29-1.291h7.358c.561 0 1.115.147 1.601.425l-.099.174a3.032 3.032 0 0 0-1.502-.399h-7.358c-.601 0-1.09.49-1.09 1.09 0 .601.489 1.09 1.09 1.09h7.942v.846a3.03 3.03 0 0 0 3.026 3.026h.2v1.69h-.2a4.724 4.724 0 0 1-4.64-3.871h-.967v9.923h1.854c.6 0 1.18-.176 1.678-.509l3.109-2.072zm-9.222 13.303H3.381V4.671h5.161v-.89H2.936c-.246 0-.446.2-.446.445v34.838c0 .246.2.446.446.446h24.516c.245 0 .445-.2.445-.446v-21.09h-.89v20.645zm-.2-20.845h1.29v21.29c0 .356-.288.645-.644.645H2.936a.646.646 0 0 1-.646-.645V4.226c0-.356.29-.646.646-.646h5.806v1.29H3.581v33.55h23.226V17.773zM19.265 3.38v1.69h-1.69V3.38h1.69zm-6.452 0v1.69h-1.69V3.38h1.69zm-2.431 27.24l2.033-.58v-.074a4.707 4.707 0 0 1-1.938-3.805v-1.29c0-2.6 2.117-4.716 4.717-4.716 2.6 0 4.716 2.116 4.716 4.716v1.29a4.71 4.71 0 0 1-1.936 3.803v.076l2.032.58a3.441 3.441 0 0 1 2.484 3.295v2.123H7.897v-2.123a3.44 3.44 0 0 1 2.485-3.295zm7.392-.758a4.51 4.51 0 0 0 1.936-3.7V24.87a4.522 4.522 0 0 0-4.516-4.516 4.522 4.522 0 0 0-4.517 4.516v1.29a4.51 4.51 0 0 0 1.938 3.702v.327l-2.178.622a3.24 3.24 0 0 0-2.34 3.103v1.924H22.29v-1.924a3.24 3.24 0 0 0-2.339-3.103l-2.177-.621v-.33zm-4.766 1.558l-2.217.633a1.945 1.945 0 0 0-1.404 1.862v.633H21v-.633c0-.86-.577-1.626-1.404-1.862l-2.217-.633-2.185 2.913-2.186-2.913zm4.448.23l-2.024 2.698H20.8v-.433c0-.77-.518-1.458-1.259-1.67l-2.085-.595zm-2.501 2.698L12.93 31.65l-2.085.596c-.74.211-1.259.899-1.259 1.669v.433h5.368zm9.47-25.806v1.69h-1.69v-1.69h1.69zm-2.58 0v1.69H5.961v-1.69h15.884zm-1.29 2.58v1.69H5.96v-1.69h14.594zm0 2.581v1.69H5.96v-1.69h14.594zm-12.903 2.58v1.691h-1.69v-1.69h1.69zm12.903 0v1.691H8.542v-1.69h12.013zm4.761 1.691h-1.09a2.783 2.783 0 0 1-2.78-2.78 2.783 2.783 0 0 1 2.78-2.781h1.09V6.36h-3.654a2.13 2.13 0 0 1-1.952 1.29h-9.033a2.13 2.13 0 0 1-1.952-1.29H5.07V36.93h20.245V17.974zm-1.09-.2a2.583 2.583 0 0 1-2.58-2.58 2.583 2.583 0 0 1 2.58-2.581h1.29V6.16h-3.99a1.933 1.933 0 0 1-1.816 1.29h-9.033c-.84 0-1.55-.54-1.816-1.29H4.87V37.13h20.645V17.774h-1.29zM20.155 2.935c0-.245-.2-.445-.445-.445h-9.033c-.245 0-.445.2-.445.445v2.58c0 .246.2.446.446.446h9.032c.245 0 .445-.2.445-.445v-2.58zm-2.38.645h1.29v1.29h-1.29V3.58zm-6.452 0h1.29v1.29h-1.29V3.58zm6.896 22.581v-1.29a3.03 3.03 0 0 0-3.025-3.026 3.03 3.03 0 0 0-3.026 3.026v1.29a3.03 3.03 0 0 0 3.026 3.026 3.03 3.03 0 0 0 3.025-3.026zm-3.025 6.021l1.267-1.69a4.45 4.45 0 0 1-2.535 0l1.268 1.69zm0-.333l.778-1.038a4.617 4.617 0 0 1-1.557 0l.779 1.038zm7.742-23.107h1.29v1.29h-1.29v-1.29zm-16.775 0h15.484v1.29H6.161v-1.29zm0 2.58h14.194v1.29H6.16v-1.29zm0 2.581h14.194v1.29H6.16v-1.29zm0 2.58h1.29v1.291h-1.29v-1.29zm2.581 0h11.613v1.291H8.742v-1.29zM19.71 2.29c.356 0 .645.29.645.645v2.58c0 .357-.29.646-.645.646h-9.033a.646.646 0 0 1-.645-.645v-2.58c0-.357.29-.646.646-.646h9.032zm-1.29 22.58v1.291a3.23 3.23 0 0 1-3.226 3.226 3.23 3.23 0 0 1-3.226-3.226v-1.29a3.23 3.23 0 0 1 3.226-3.226 3.23 3.23 0 0 1 3.225 3.226z" fill="url(#paint10_linear)"/><defs><linearGradient id="paint0_linear" x1="21" y1=".8" x2="21" y2="41.2" gradientUnits="userSpaceOnUse"><stop stop-color="#EB862C"/><stop offset="1" stop-color="#E35930"/></linearGradient><linearGradient id="paint1_linear" x1="21" y1=".8" x2="21" y2="41.2" gradientUnits="userSpaceOnUse"><stop stop-color="#EB862C"/><stop offset="1" stop-color="#E35930"/></linearGradient><linearGradient id="paint2_linear" x1="21" y1=".8" x2="21" y2="41.2" gradientUnits="userSpaceOnUse"><stop stop-color="#EB862C"/><stop offset="1" stop-color="#E35930"/></linearGradient><linearGradient id="paint3_linear" x1="21" y1=".8" x2="21" y2="41.2" gradientUnits="userSpaceOnUse"><stop stop-color="#EB862C"/><stop offset="1" stop-color="#E35930"/></linearGradient><linearGradient id="paint4_linear" x1="21" y1=".8" x2="21" y2="41.2" gradientUnits="userSpaceOnUse"><stop stop-color="#EB862C"/><stop offset="1" stop-color="#E35930"/></linearGradient><linearGradient id="paint5_linear" x1="21" y1=".8" x2="21" y2="41.2" gradientUnits="userSpaceOnUse"><stop stop-color="#EB862C"/><stop offset="1" stop-color="#E35930"/></linearGradient><linearGradient id="paint6_linear" x1="21" y1=".8" x2="21" y2="41.2" gradientUnits="userSpaceOnUse"><stop stop-color="#EB862C"/><stop offset="1" stop-color="#E35930"/></linearGradient><linearGradient id="paint7_linear" x1="21" y1=".8" x2="21" y2="41.2" gradientUnits="userSpaceOnUse"><stop stop-color="#EB862C"/><stop offset="1" stop-color="#E35930"/></linearGradient><linearGradient id="paint8_linear" x1="21" y1=".8" x2="21" y2="41.2" gradientUnits="userSpaceOnUse"><stop stop-color="#EB862C"/><stop offset="1" stop-color="#E35930"/></linearGradient><linearGradient id="paint9_linear" x1="21" y1=".8" x2="21" y2="41.2" gradientUnits="userSpaceOnUse"><stop stop-color="#EB862C"/><stop offset="1" stop-color="#E35930"/></linearGradient><linearGradient id="paint10_linear" x1="21" y1=".8" x2="21" y2="41.2" gradientUnits="userSpaceOnUse"><stop stop-color="#EB862C"/><stop offset="1" stop-color="#E35930"/></linearGradient></defs></svg>