<svg width="42" height="42" viewBox="0 0 42 42" fill="none" xmlns="http://www.w3.org/2000/svg"><path d="M41 21.645v-5.177a3.206 3.206 0 0 0-2.299-3.09l-4.153-1.245v-.98a4.511 4.511 0 0 0 1.936-3.701V5.516A4.521 4.521 0 0 0 31.968 1a4.521 4.521 0 0 0-4.516 4.516V7.45a4.51 4.51 0 0 0 1.935 3.701v.98l-3.66 1.098a7.431 7.431 0 0 0-4.981-1.908c-1.85 0-3.543.678-4.852 1.795l-3.281-.984v-.98a4.511 4.511 0 0 0 1.935-3.701V5.516A4.521 4.521 0 0 0 10.032 1a4.521 4.521 0 0 0-4.516 4.516V7.45a4.51 4.51 0 0 0 1.936 3.701v.98l-4.153 1.246A3.207 3.207 0 0 0 1 16.468v5.177h1.29v-5.177c0-.861.554-1.606 1.38-1.853l4.154-1.247c.376.488 1.102 1.18 2.208 1.18 1.107 0 1.833-.692 2.209-1.18l2.646.794a7.446 7.446 0 0 0-1.57 3.748 4.5 4.5 0 0 0-3.285-1.426A4.521 4.521 0 0 0 5.516 21v1.935a4.51 4.51 0 0 0 1.936 3.7v.98l-4.153 1.247A3.207 3.207 0 0 0 1 31.952v5.822h7.742c.355 0 .645.29.645.645V41h23.226v-2.58c0-.355.29-.645.645-.645H41v-5.822a3.206 3.206 0 0 0-2.299-3.09l-4.153-1.245v-.98a4.511 4.511 0 0 0 1.936-3.701V21a4.521 4.521 0 0 0-4.516-4.516 4.501 4.501 0 0 0-3.226 1.361v-.61a3.47 3.47 0 0 0-1.773-3.029l2.79-.837c.376.487 1.102 1.18 2.209 1.18 1.106 0 1.833-.693 2.208-1.18l4.155 1.246a1.923 1.923 0 0 1 1.379 1.853v5.177H41zM10.032 2.29a3.23 3.23 0 0 1 3.226 3.226H10.3c-.41 0-.811-.166-1.1-.456l-.457-.456-.456.456c-.29.29-.692.456-1.101.456h-.378a3.23 3.23 0 0 1 3.225-3.226zM6.806 7.451v-.645h.379c.562 0 1.098-.161 1.557-.462.459.301.995.462 1.557.462h2.96v.645a3.23 3.23 0 0 1-3.227 3.226 3.23 3.23 0 0 1-3.226-3.226zm3.226 5.807c-.685 0-1.13-.576-1.29-.823v-.657a4.49 4.49 0 0 0 2.58 0v.657c-.16.247-.604.823-1.29.823zm17.734 11.324a4.536 4.536 0 0 0 1.621 2.055v.98l-4.152 1.245c-.137.041-.27.094-.4.153l-.61-.141v-1.271a5.189 5.189 0 0 0 1.567-2.116 3.213 3.213 0 0 0 1.974-.905zM21 28.742c.685 0 1.338-.137 1.936-.38v.702L21 30.516l-1.935-1.452v-.702c.598.243 1.25.38 1.935.38zm-2.728 1.341l1.573 1.18-1.618.971-.409-2.046.454-.105zm2.015 5.11h1.426l.502 4.517h-2.43l.502-4.517zm1.538-1.29h-1.65l-.371-1.111L21 32.075l1.196.717-.37 1.111zm.33-2.64l1.573-1.18.454.105-.41 2.045-1.617-.97zm4.794-7.67a1.935 1.935 0 0 1-.815.52 5.22 5.22 0 0 0 .027-.532v-3.088c.695.264 1.211.874 1.28 1.604a1.925 1.925 0 0 1-.492 1.495zm-2.078-.012A3.875 3.875 0 0 1 21 27.45a3.875 3.875 0 0 1-3.87-3.87v-3.226h2.19c1.405 0 2.773-.351 3.997-1.022l.51 1.022h1.044v3.226zm-9.004.532a1.935 1.935 0 0 1-.816-.52 1.923 1.923 0 0 1-.493-1.495c.07-.73.587-1.341 1.28-1.604v3.087c0 .18.01.357.029.532zm.34 1.374a5.178 5.178 0 0 0 1.567 2.116v1.271l-.61.14a3.358 3.358 0 0 0-.398-.152l-4.153-1.245v-.98a4.54 4.54 0 0 0 1.62-2.055c.535.523 1.231.84 1.975.905zm-6.175-7.713A3.23 3.23 0 0 1 13.258 21h-.378c-.41 0-.812-.166-1.101-.456l-.456-.457-.457.457c-.289.29-.691.456-1.1.456h-2.96a3.23 3.23 0 0 1 3.226-3.226zm-3.226 5.161v-.645h2.96c.561 0 1.098-.161 1.557-.462.458.3.995.462 1.557.462h.378v.645a3.23 3.23 0 0 1-3.226 3.226 3.23 3.23 0 0 1-3.226-3.226zm3.226 4.516c.449 0 .882-.067 1.29-.19v.658c-.16.247-.604.823-1.29.823-.685 0-1.13-.576-1.29-.823v-.657c.409.122.842.19 1.29.19zm-1.29 9.033h-2.58v-4.517H4.87v4.517h-2.58v-4.532c0-.861.553-1.607 1.379-1.854l4.154-1.246c.376.488 1.102 1.18 2.208 1.18 1.107 0 1.833-.692 2.209-1.18l2.446.734-1.8.415a4.496 4.496 0 0 0-3.5 4.4v.792h1.29v-.791a3.212 3.212 0 0 1 2.501-3.144l3.382-.78.76 3.804 1.35-.81.382 1.146-.565 5.091h-3.293v-5.16h-1.29v5.16h-3.226v-1.29a1.938 1.938 0 0 0-1.936-1.935zm29.588-6.386c.826.248 1.38.993 1.38 1.854v4.532h-2.58v-4.517h-1.291v4.517h-2.58a1.938 1.938 0 0 0-1.936 1.935v1.29h-3.226v-5.16h-1.29v5.16h-3.294l-.566-5.091.382-1.146 1.35.81.76-3.804 3.383.78a3.212 3.212 0 0 1 2.5 3.144v.791h1.291v-.791a4.496 4.496 0 0 0-3.5-4.4l-1.8-.416 2.447-.734c.375.488 1.101 1.18 2.208 1.18 1.106 0 1.833-.692 2.208-1.18l4.154 1.247zm-5.072-2.179c-.16.247-.604.823-1.29.823-.687 0-1.132-.578-1.29-.823v-.658a4.487 4.487 0 0 0 2.58 0v.658zm-1.29-1.758a3.23 3.23 0 0 1-3.226-3.226v-.645h.378c.562 0 1.099-.161 1.557-.462.46.3.996.462 1.558.462h2.959v.645a3.23 3.23 0 0 1-3.226 3.226zm0-8.387A3.23 3.23 0 0 1 35.194 21h-2.96c-.409 0-.81-.166-1.1-.456l-.457-.457-.456.457c-.29.29-.691.456-1.101.456h-.378a3.23 3.23 0 0 1 3.226-3.226zm-4.516 1.99a3.39 3.39 0 0 0-2.047-.7h-.78l-.794-1.587-.608.405a7.014 7.014 0 0 1-3.904 1.182h-2.724a3.39 3.39 0 0 0-2.047.7v-.954a6.205 6.205 0 0 1 6.198-6.197c1.655 0 3.212.644 4.382 1.815l.685.684.145.049a2.183 2.183 0 0 1 1.494 2.072v2.531zM31.968 2.29a3.23 3.23 0 0 1 3.226 3.226h-.378c-.41 0-.812-.166-1.102-.456l-.456-.456-.456.456c-.29.29-.691.456-1.101.456h-2.959a3.23 3.23 0 0 1 3.226-3.226zm-3.226 5.161v-.645h2.959c.562 0 1.098-.161 1.557-.462.459.301.996.462 1.558.462h.378v.645a3.23 3.23 0 0 1-3.226 3.226 3.23 3.23 0 0 1-3.226-3.226zm3.226 5.807c-.687 0-1.132-.578-1.29-.823v-.658a4.49 4.49 0 0 0 2.58 0v.658c-.16.247-.604.823-1.29.823z" fill="url(#paint0_linear)"/><path d="M15.839 1h1.29v1.29h-1.29V1z" fill="url(#paint1_linear)"/><path d="M15.839 3.58h1.29v7.097h-1.29V3.58z" fill="url(#paint2_linear)"/><path d="M24.871 1h1.29v1.29h-1.29V1z" fill="url(#paint3_linear)"/><path d="M24.871 3.58h1.29v7.097h-1.29V3.58z" fill="url(#paint4_linear)"/><path d="M18.42 3.58h1.29v4.517h-1.29V3.58z" fill="url(#paint5_linear)"/><path d="M18.42 9.387h1.29v1.29h-1.29v-1.29z" fill="url(#paint6_linear)"/><path d="M22.29 3.58h1.29v4.517h-1.29V3.58z" fill="url(#paint7_linear)"/><path d="M22.29 9.387h1.29v1.29h-1.29v-1.29z" fill="url(#paint8_linear)"/><path fill-rule="evenodd" clip-rule="evenodd" d="M41.2 21.845h-1.69v-5.377c0-.773-.496-1.44-1.236-1.662L34.248 13.6c-.414.5-1.165 1.15-2.28 1.15-1.115 0-1.866-.65-2.28-1.15l-2.246.674a3.668 3.668 0 0 1 1.5 2.961v.154a4.691 4.691 0 0 1 3.026-1.104c2.6 0 4.716 2.116 4.716 4.716v1.936a4.709 4.709 0 0 1-1.936 3.803v.729l4.01 1.203a3.406 3.406 0 0 1 2.442 3.281v6.022h-7.942c-.245 0-.445.2-.445.445v2.78H9.187v-2.78c0-.245-.2-.445-.445-.445H.8v-6.022c0-1.524.982-2.843 2.441-3.282l4.01-1.203v-.728a4.708 4.708 0 0 1-1.935-3.804V21c0-2.6 2.116-4.716 4.716-4.716 1.21 0 2.31.46 3.145 1.21a7.643 7.643 0 0 1 1.375-3.224l-2.24-.671c-.413.5-1.165 1.15-2.28 1.15-1.115 0-1.866-.65-2.28-1.15l-4.025 1.207a1.723 1.723 0 0 0-1.237 1.662v5.377H.8v-5.377c0-1.524.982-2.843 2.441-3.282l4.01-1.203v-.728A4.708 4.708 0 0 1 5.317 7.45V5.516C5.316 2.916 7.432.8 10.032.8c2.601 0 4.716 2.115 4.716 4.716v1.936a4.71 4.71 0 0 1-1.935 3.803v.729l3.035.91a7.646 7.646 0 0 1 4.898-1.772c1.87 0 3.634.671 5.03 1.885l3.411-1.024v-.728a4.708 4.708 0 0 1-1.935-3.804V5.516c0-2.6 2.115-4.716 4.716-4.716 2.6 0 4.716 2.115 4.716 4.716v1.936a4.71 4.71 0 0 1-1.936 3.803v.729l4.01 1.203a3.406 3.406 0 0 1 2.442 3.281v5.377zm-6.652-9.712v-.98a4.511 4.511 0 0 0 1.936-3.701V5.516A4.521 4.521 0 0 0 31.968 1a4.521 4.521 0 0 0-4.516 4.516V7.45a4.51 4.51 0 0 0 1.935 3.701v.98l-3.66 1.098a7.431 7.431 0 0 0-4.981-1.908c-1.85 0-3.543.678-4.852 1.795l-3.281-.984v-.98a4.511 4.511 0 0 0 1.935-3.701V5.516A4.521 4.521 0 0 0 10.032 1a4.521 4.521 0 0 0-4.516 4.516V7.45a4.51 4.51 0 0 0 1.936 3.701v.98l-4.153 1.246A3.207 3.207 0 0 0 1 16.468v5.177h1.29v-5.177c0-.861.554-1.606 1.38-1.853l4.154-1.247c.376.488 1.102 1.18 2.208 1.18 1.107 0 1.833-.692 2.209-1.18l2.646.794a7.445 7.445 0 0 0-1.57 3.748 4.493 4.493 0 0 0-3.285-1.426A4.521 4.521 0 0 0 5.516 21v1.935a4.51 4.51 0 0 0 1.936 3.7v.98l-4.153 1.247A3.207 3.207 0 0 0 1 31.952v5.822h7.742c.355 0 .645.29.645.645V41h23.226v-2.58c0-.355.29-.645.645-.645H41v-5.822a3.206 3.206 0 0 0-2.299-3.09l-4.153-1.245v-.98a4.511 4.511 0 0 0 1.936-3.701V21a4.521 4.521 0 0 0-4.516-4.516 4.496 4.496 0 0 0-3.226 1.361v-.61a3.468 3.468 0 0 0-1.773-3.029l2.79-.837c.376.487 1.102 1.18 2.209 1.18 1.106 0 1.833-.693 2.208-1.18l4.155 1.246a1.923 1.923 0 0 1 1.379 1.853v5.177H41v-5.177a3.206 3.206 0 0 0-2.299-3.09l-4.153-1.245zM9.198 5.06c.29.29.692.456 1.101.456h2.96a3.23 3.23 0 0 0-3.226-3.226 3.23 3.23 0 0 0-3.227 3.226h.379c.41 0 .811-.166 1.1-.456l.457-.456.456.456zm-2.185.256h.172c.356 0 .707-.145.96-.398l.597-.597.598.597c.251.253.603.398.96.398h2.752a3.03 3.03 0 0 0-3.02-2.826 3.03 3.03 0 0 0-3.019 2.826zm16.814 15.039l-.51-1.022a8.298 8.298 0 0 1-3.997 1.021h-2.19v3.227A3.875 3.875 0 0 0 21 27.45a3.875 3.875 0 0 0 3.871-3.87v-3.226h-1.044zm.844.2v3.026A3.675 3.675 0 0 1 21 27.25a3.675 3.675 0 0 1-3.67-3.67v-3.026h1.99c1.37 0 2.704-.326 3.91-.949l.473.949h.968zm-7.905 8.307l-4.153-1.245v-.98a4.542 4.542 0 0 0 1.62-2.055 3.196 3.196 0 0 0 1.975.905 5.178 5.178 0 0 0 1.566 2.116v1.271l-.61.14a3.358 3.358 0 0 0-.398-.152zm.419-.057a3.419 3.419 0 0 0-.361-.134l-4.011-1.203v-.729a4.742 4.742 0 0 0 1.494-1.822 3.414 3.414 0 0 0 1.761.756c.336.79.856 1.483 1.506 2.025v1.017l-.39.09zm-2.428-6.688c-.047.5.11.974.443 1.34.127.14.277.254.443.343a5.152 5.152 0 0 1-.004-.22v-2.772c-.49.279-.83.76-.882 1.309zm.295 1.475a1.923 1.923 0 0 1-.494-1.494c.063-.658.489-1.22 1.08-1.516.066-.033.132-.062.2-.088v3.087a5.094 5.094 0 0 0 .029.532 2.122 2.122 0 0 1-.21-.083 1.878 1.878 0 0 1-.605-.438zm-3.273-3.048c.29.29.691.456 1.101.456h.378a3.23 3.23 0 0 0-3.226-3.226A3.23 3.23 0 0 0 6.806 21h2.96c.409 0 .811-.166 1.1-.456l.457-.457.456.457zm-4.766.256h2.752c.357 0 .708-.146.96-.398l.598-.597.597.597c.252.252.603.398.96.398h.172a3.03 3.03 0 0 0-3.02-2.826A3.03 3.03 0 0 0 7.013 20.8zM3.67 30.099a1.923 1.923 0 0 0-1.38 1.853v4.532h2.581v-4.517h1.29v4.517h2.581c1.067 0 1.935.868 1.935 1.935v1.29h3.226v-5.16h1.29v5.16h3.294l.565-5.091-.381-1.146-1.35.81-.76-3.804-3.383.78a3.212 3.212 0 0 0-2.5 3.144v.791h-1.29v-.791a4.496 4.496 0 0 1 3.5-4.4l1.799-.416-2.446-.734c-.376.488-1.102 1.18-2.209 1.18-1.106 0-1.832-.692-2.208-1.18L3.67 30.099zm4.082-1.017L3.727 30.29a1.723 1.723 0 0 0-1.237 1.662v4.332h2.181v-4.517h1.69v4.517h2.381c1.177 0 2.135.958 2.135 2.135v1.09h2.826v-5.16h1.69v5.16h2.915l.54-4.87-.288-.867-1.38.827-.776-3.88-3.18.734a3.012 3.012 0 0 0-2.347 2.949v.991h-1.69v-.991a4.696 4.696 0 0 1 3.656-4.596l1.064-.245-1.595-.479c-.413.5-1.165 1.15-2.28 1.15-1.115 0-1.866-.65-2.28-1.15zm30.52 1.208l-4.024-1.208c-.414.5-1.165 1.15-2.28 1.15-1.115 0-1.866-.65-2.28-1.15l-1.595.479 1.064.245a4.696 4.696 0 0 1 3.656 4.596v.991h-1.69v-.991c0-1.418-.965-2.63-2.346-2.949l-3.182-.734-.776 3.88-1.38-.827-.288.867.541 4.87h2.915v-5.16h1.69v5.16h2.826v-1.09c0-1.177.958-2.135 2.135-2.135h2.38v-4.517h1.691v4.517h2.18v-4.332c0-.773-.496-1.44-1.236-1.662zm-14.759 9.42l-.566-5.092.382-1.146 1.35.81.76-3.804 3.383.78a3.212 3.212 0 0 1 2.5 3.144v.791h1.291v-.791a4.496 4.496 0 0 0-3.5-4.4l-1.8-.416 2.447-.734c.375.488 1.101 1.18 2.208 1.18 1.106 0 1.833-.692 2.208-1.18l4.154 1.247c.826.247 1.38.992 1.38 1.853v4.532h-2.58v-4.517h-1.291v4.517h-2.58a1.938 1.938 0 0 0-1.936 1.935v1.29h-3.226v-5.16h-1.29v5.16h-3.294zM34.993 21h.2c0-.067-.002-.134-.005-.2h-.2a3.03 3.03 0 0 0-3.02-2.826 3.03 3.03 0 0 0-3.02 2.826h-.2a3.233 3.233 0 0 0-.006.2h.2c0-.067.002-.134.006-.2h.172c.357 0 .708-.146.96-.398l.598-.597.597.597c.252.252.603.398.96.398h2.752c.004.066.007.133.007.2zm-10.368-1.936h.78a3.367 3.367 0 0 1 2.047.7v-2.53c0-.943-.601-1.775-1.495-2.073l-.144-.049-.685-.684a6.158 6.158 0 0 0-4.382-1.815 6.205 6.205 0 0 0-6.198 6.197v.954a3.367 3.367 0 0 1 2.046-.7h2.725a7.014 7.014 0 0 0 3.904-1.182l.608-.405.794 1.587zm-9.877.323a3.557 3.557 0 0 1 1.847-.523h2.724a6.815 6.815 0 0 0 3.793-1.148l.797-.53.84 1.678h.656c.675 0 1.307.196 1.847.523v-2.154c0-.855-.546-1.612-1.358-1.883l-.19-.063-.717-.718a5.958 5.958 0 0 0-4.241-1.756 6.005 6.005 0 0 0-5.998 5.997v.577zM33.856 4.918c.252.253.603.398.96.398h.171a3.03 3.03 0 0 0-3.02-2.826 3.03 3.03 0 0 0-3.018 2.826H31.7c.356 0 .708-.145.96-.398l.597-.597.598.597zm-5.108.398a3.23 3.23 0 0 1 3.22-3.026 3.23 3.23 0 0 1 3.226 3.226h-.378c-.41 0-.812-.166-1.102-.456l-.456-.456-.456.456c-.29.29-.691.456-1.101.456h-2.959c0-.067.002-.134.006-.2zM15.638.8h1.691v1.69h-1.69V.8zm0 2.58h1.691v7.497h-1.69V3.38zM24.672.8h1.69v1.69h-1.69V.8zm0 2.58h1.69v7.497h-1.69V3.38zm-6.452 0h1.69v4.917h-1.69V3.38zm0 5.807h1.69v1.69h-1.69v-1.69zM22.09 3.38h1.69v4.917h-1.69V3.38zm0 5.807h1.69v1.69h-1.69v-1.69zM7.006 7.007v.444a3.03 3.03 0 0 0 3.026 3.026 3.03 3.03 0 0 0 3.026-3.026v-.445H10.3a3.028 3.028 0 0 1-1.557-.426c-.466.278-1 .426-1.557.426h-.178zm1.736-.663c.459.301.995.462 1.557.462h2.96v.645a3.23 3.23 0 0 1-3.227 3.226 3.23 3.23 0 0 1-3.226-3.226v-.645h.379c.562 0 1.098-.161 1.557-.462zm.574 6.44c.193.155.432.274.716.274s.524-.119.717-.275c.169-.136.295-.295.374-.409v-.336a4.67 4.67 0 0 1-2.181 0v.337c.079.113.205.272.374.408zm-.574-.349c.16.247.605.823 1.29.823.686 0 1.13-.576 1.29-.823v-.658a4.567 4.567 0 0 1-1.29.19 4.496 4.496 0 0 1-1.29-.19v.658zm19.024 12.147a3.217 3.217 0 0 1-1.974.905 5.189 5.189 0 0 1-1.566 2.116v1.271l.61.14c.13-.058.262-.111.399-.152l4.152-1.245v-.98a4.536 4.536 0 0 1-1.62-2.055zm-.073.335a3.415 3.415 0 0 1-1.761.756 5.389 5.389 0 0 1-1.506 2.025v1.017l.39.09a3.23 3.23 0 0 1 .361-.134m0 0l4.01-1.203v-.729a4.737 4.737 0 0 1-1.494-1.822m-4.958 3.733a5.315 5.315 0 0 1-3.47 0v.314L21 30.266l1.735-1.302v-.313zm0-.212a5.118 5.118 0 0 1-3.67-.076v.702L21 30.516l1.936-1.452v-.702a5.06 5.06 0 0 1-.2.076zm-4.508 1.86l-.175.041.316 1.578 1.12-.672-1.261-.946zm.045-.215l-.454.105.41 2.046 1.617-.97-1.573-1.18zm2.194 5.31l-.457 4.117h1.982l-.457-4.117h-1.068zm1.247-.2l.502 4.517h-2.43l.502-4.517h1.426zm.112-1.29l.37-1.111L21 32.075l-1.196.717.37 1.111h1.651zm-1.78-1.022l.955-.573.955.573-.274.822h-1.363l-.274-.822zm2.11-1.618l1.618.97.41-2.045-.455-.105-1.573 1.18zm.358-.018l1.12.671.315-1.577-.175-.04-1.26.946zm3.844-7.445c.166-.089.316-.203.444-.343.333-.367.49-.84.442-1.34-.052-.55-.392-1.03-.882-1.31v2.774c0 .073-.001.146-.004.219zm-.015.23c-.068.032-.137.06-.208.083a5.302 5.302 0 0 0 .027-.532v-3.088c.069.026.136.056.2.088.592.297 1.018.858 1.08 1.516a1.925 1.925 0 0 1-.492 1.495c-.172.189-.38.334-.607.438zM7.007 22.49v.445a3.03 3.03 0 0 0 3.025 3.026 3.03 3.03 0 0 0 3.026-3.026v-.445h-.178a3.028 3.028 0 0 1-1.557-.426c-.467.278-1.001.426-1.558.426H7.006zm4.316-.662c.458.3.995.462 1.557.462h.378v.645a3.23 3.23 0 0 1-3.226 3.226 3.23 3.23 0 0 1-3.226-3.226v-.645h2.96c.561 0 1.098-.161 1.557-.462zm-.2 5.694a4.67 4.67 0 0 1-2.181 0v.336c.079.114.205.273.374.41.193.155.432.274.716.274s.524-.119.717-.275c.169-.136.295-.295.374-.409v-.336zm0-.206a4.476 4.476 0 0 1-2.381-.054v.657c.16.247.605.823 1.29.823.686 0 1.13-.576 1.29-.823v-.658c-.065.02-.132.038-.2.055zm22.135.603v-.658a4.568 4.568 0 0 1-1.29.19 4.476 4.476 0 0 1-1.29-.19v.658c.158.245.603.823 1.29.823.686 0 1.13-.576 1.29-.823zm-2.38-.06c.077.113.203.271.372.407.193.157.433.276.718.276.284 0 .523-.119.717-.275.168-.136.295-.294.373-.408v-.337a4.67 4.67 0 0 1-2.18 0v.337zm-1.936-4.924a3.03 3.03 0 0 0 3.026 3.026 3.03 3.03 0 0 0 3.026-3.026v-.445h-2.76a3.028 3.028 0 0 1-1.557-.426 3.029 3.029 0 0 1-1.557.426h-.178v.445zm1.735-1.107c.46.3.996.462 1.558.462h2.959v.645a3.23 3.23 0 0 1-3.226 3.226 3.23 3.23 0 0 1-3.226-3.226v-.645h.378c.562 0 1.099-.161 1.557-.462zM28.942 7.006v.445a3.03 3.03 0 0 0 3.026 3.026 3.03 3.03 0 0 0 3.026-3.026v-.445h-.178a3.028 3.028 0 0 1-1.558-.426c-.466.278-1 .426-1.557.426h-2.759zm4.316-.662c.459.301.996.462 1.558.462h.378v.645a3.23 3.23 0 0 1-3.226 3.226 3.23 3.23 0 0 1-3.226-3.226v-.645h2.959c.562 0 1.098-.161 1.557-.462zm-2.008 6.439c.193.156.433.275.718.275.284 0 .523-.119.717-.275.168-.136.295-.295.373-.409v-.336a4.67 4.67 0 0 1-2.18 0v.337c.077.113.203.271.372.408zm-.573-.348v-.658a4.567 4.567 0 0 0 1.29.19 4.476 4.476 0 0 0 1.291-.19v.658c-.16.247-.604.823-1.29.823-.687 0-1.132-.578-1.29-.823zM17.13 1v1.29h-1.29V1h1.29zm-1.29 2.58v7.097h1.29V3.58h-1.29zM26.16 1v1.29h-1.29V1h1.29zm-1.29 2.58v7.097h1.29V3.58h-1.29zm-5.161 0v4.517h-1.29V3.58h1.29zm-1.29 5.807v1.29h1.29v-1.29h-1.29zm5.16-5.807v4.517h-1.29V3.58h1.29zm-1.29 5.807v1.29h1.29v-1.29h-1.29z" fill="url(#paint9_linear)"/><defs><linearGradient id="paint0_linear" x1="21" y1=".8" x2="21" y2="41.2" gradientUnits="userSpaceOnUse"><stop stop-color="#EB862C"/><stop offset="1" stop-color="#E35930"/></linearGradient><linearGradient id="paint1_linear" x1="21" y1=".8" x2="21" y2="41.2" gradientUnits="userSpaceOnUse"><stop stop-color="#EB862C"/><stop offset="1" stop-color="#E35930"/></linearGradient><linearGradient id="paint2_linear" x1="21" y1=".8" x2="21" y2="41.2" gradientUnits="userSpaceOnUse"><stop stop-color="#EB862C"/><stop offset="1" stop-color="#E35930"/></linearGradient><linearGradient id="paint3_linear" x1="21" y1=".8" x2="21" y2="41.2" gradientUnits="userSpaceOnUse"><stop stop-color="#EB862C"/><stop offset="1" stop-color="#E35930"/></linearGradient><linearGradient id="paint4_linear" x1="21" y1=".8" x2="21" y2="41.2" gradientUnits="userSpaceOnUse"><stop stop-color="#EB862C"/><stop offset="1" stop-color="#E35930"/></linearGradient><linearGradient id="paint5_linear" x1="21" y1=".8" x2="21" y2="41.2" gradientUnits="userSpaceOnUse"><stop stop-color="#EB862C"/><stop offset="1" stop-color="#E35930"/></linearGradient><linearGradient id="paint6_linear" x1="21" y1=".8" x2="21" y2="41.2" gradientUnits="userSpaceOnUse"><stop stop-color="#EB862C"/><stop offset="1" stop-color="#E35930"/></linearGradient><linearGradient id="paint7_linear" x1="21" y1=".8" x2="21" y2="41.2" gradientUnits="userSpaceOnUse"><stop stop-color="#EB862C"/><stop offset="1" stop-color="#E35930"/></linearGradient><linearGradient id="paint8_linear" x1="21" y1=".8" x2="21" y2="41.2" gradientUnits="userSpaceOnUse"><stop stop-color="#EB862C"/><stop offset="1" stop-color="#E35930"/></linearGradient><linearGradient id="paint9_linear" x1="21" y1=".8" x2="21" y2="41.2" gradientUnits="userSpaceOnUse"><stop stop-color="#EB862C"/><stop offset="1" stop-color="#E35930"/></linearGradient></defs></svg>