<svg width="42" height="42" viewBox="0 0 42 42" fill="none" xmlns="http://www.w3.org/2000/svg"><path d="M37.5 28.066l-4.887-1.128v-1.27a5.196 5.196 0 0 0 1.237-1.442h.698A3.23 3.23 0 0 0 37.774 21c0-.72-.245-1.378-.645-1.916v-2.6c0-4.27-3.473-7.742-7.742-7.742-4.27 0-7.742 3.472-7.742 7.742v2.6A3.196 3.196 0 0 0 21 21a3.23 3.23 0 0 0 3.226 3.226h.698c.321.553.74 1.043 1.237 1.442v1.27l-4.886 1.128c-.32.073-.626.188-.92.328v-3.523a1.938 1.938 0 0 0-1.936-1.936H2.935A1.938 1.938 0 0 0 1 24.871v11.613c0 1.067.869 1.935 1.935 1.935h5.162v1.29h-1.29V41H41v-8.533a4.495 4.495 0 0 0-3.5-4.4zm-10.84.082l1.573 1.179-1.59.954-.343-2.05.36-.083zm2.03 5.11h1.394l.538 6.451h-2.47l.538-6.451zm1.522-1.29h-1.65l-.371-1.111 1.196-.718 1.196.718-.37 1.11zm.33-2.641l1.573-1.18.455.106-.41 2.045-1.618-.971zm4.006-6.392h-.17c.108-.413.17-.844.17-1.29v-2.58c1.067 0 1.936.868 1.936 1.935a1.938 1.938 0 0 1-1.936 1.935zm-5.16-12.903a6.459 6.459 0 0 1 6.45 6.452v1.563a3.193 3.193 0 0 0-1.29-.273v-1.29h-1.29v.36c-.448.39-.984.667-1.557.811.025-.024.052-.045.078-.07l-.913-.912a3.774 3.774 0 0 1-1.746.982c.025-.024.053-.045.078-.07l-.912-.912c-.7.7-1.67 1.101-2.659 1.101h-.11v-1.29h-1.291v1.29c-.46 0-.895.1-1.29.273v-1.563a6.459 6.459 0 0 1 6.451-6.452zm-5.162 12.903A1.938 1.938 0 0 1 22.29 21c0-1.067.869-1.936 1.936-1.936v2.581c0 .446.063.877.17 1.29h-.17zm1.29-1.29v-2.58h.111c.627 0 1.245-.125 1.825-.35v.35h.756c.626 0 1.245-.125 1.824-.35v.35h.756c.867 0 1.72-.234 2.47-.653v3.233c0 .453-.083.886-.226 1.29h-3.645v1.29h2.877a3.858 3.858 0 0 1-2.877 1.29 3.875 3.875 0 0 1-3.87-3.87zm3.871 5.161c.685 0 1.338-.137 1.936-.38v.703l-1.936 1.451-1.935-1.451v-.703c.597.244 1.25.38 1.935.38zm-7.823 2.517l3.477-.802.64 3.842 1.377-.826.385 1.154-.585 7.018h-3.277v-7.096h-1.29v7.096h-3.227V38.3a1.933 1.933 0 0 0 1.29-1.816v-6.591c.36-.27.77-.468 1.21-.57zm-8.306 9.096h4.516v1.29h-4.516v-1.29zM2.935 37.13a.646.646 0 0 1-.645-.645V24.87c0-.356.29-.645.645-.645H18.42c.356 0 .645.289.645.645v11.613c0 .356-.289.645-.645.645h-5.16v-1.29a2.583 2.583 0 0 0-2.582-2.581 2.583 2.583 0 0 0-2.58 2.58v1.29H2.935zm6.452-1.29c0-.712.579-1.29 1.29-1.29.712 0 1.29.578 1.29 1.29v3.87h-2.58v-3.87zm30.323 3.87h-3.226v-7.096h-1.29v7.096h-3.278l-.584-7.018.384-1.154 1.35.81.76-3.804 3.384.78a3.21 3.21 0 0 1 2.5 3.143v7.243z" fill="url(#paint0_linear)"/><path d="M17.129 14.188c0-.835-.532-1.573-1.323-1.836l-2.548-.85v-.841a3.213 3.213 0 0 0 1.29-2.564v-1.29a3.23 3.23 0 0 0-3.225-3.227 3.23 3.23 0 0 0-3.226 3.226v1.29c0 1.05.511 1.975 1.29 2.565v.841l-2.548.85a1.933 1.933 0 0 0-1.323 1.835v3.587H17.13v-3.587zM9.387 6.806c0-1.067.869-1.935 1.936-1.935 1.066 0 1.935.868 1.935 1.935v1.29a1.938 1.938 0 0 1-1.935 1.936 1.938 1.938 0 0 1-1.936-1.935v-1.29zm6.452 9.678H6.806v-2.297c0-.278.177-.523.442-.612l3.43-1.142v-1.176a3.232 3.232 0 0 0 1.29 0v1.176l3.43 1.142a.645.645 0 0 1 .44.613v2.296z" fill="url(#paint1_linear)"/><path d="M11.323 21.645c5.691 0 10.322-4.631 10.322-10.323C21.645 5.631 17.014 1 11.323 1 5.63 1 1 5.63 1 11.322c0 5.692 4.631 10.323 10.323 10.323zm0-19.355c4.98 0 9.032 4.052 9.032 9.032 0 4.981-4.052 9.033-9.032 9.033-4.981 0-9.033-4.052-9.033-9.033 0-4.98 4.052-9.032 9.033-9.032z" fill="url(#paint2_linear)"/><path d="M24.871 4.87h1.29v1.291h-1.29v-1.29z" fill="url(#paint3_linear)"/><path d="M28.742 4.87h1.29v1.291h-1.29v-1.29z" fill="url(#paint4_linear)"/><path d="M32.613 4.87h1.29v1.291h-1.29v-1.29z" fill="url(#paint5_linear)"/><path fill-rule="evenodd" clip-rule="evenodd" d="M41 41H6.806v-1.29h1.29v-1.29h-5.16A1.938 1.938 0 0 1 1 36.483V24.87c0-1.067.869-1.936 1.935-1.936H18.42c1.067 0 1.936.869 1.936 1.936v3.523a4.288 4.288 0 0 1 .92-.328l4.886-1.128v-1.27a5.184 5.184 0 0 1-1.237-1.442h-.698A3.23 3.23 0 0 1 21 21c0-.72.245-1.378.645-1.916v-2.6c0-4.27 3.473-7.742 7.742-7.742 4.27 0 7.742 3.472 7.742 7.742v2.6c.4.538.645 1.196.645 1.916a3.23 3.23 0 0 1-3.226 3.226h-.698a5.196 5.196 0 0 1-1.237 1.442v1.27l4.886 1.128a4.495 4.495 0 0 1 3.501 4.4V41zm-3.456-13.13l-4.731-1.091v-1.017c.454-.378.842-.83 1.15-1.336h.585A3.43 3.43 0 0 0 37.974 21c0-.743-.245-1.422-.645-1.981v-2.535c0-4.38-3.562-7.942-7.942-7.942-4.38 0-7.942 3.562-7.942 7.942v2.535a3.39 3.39 0 0 0-.645 1.98 3.43 3.43 0 0 0 3.426 3.427h.584c.309.506.697.958 1.151 1.336v1.017L21.23 27.87m0 0a4.419 4.419 0 0 0-.675.216zm-.675.216v-3.216a2.138 2.138 0 0 0-2.136-2.136H2.935A2.138 2.138 0 0 0 .8 24.871v11.613c0 1.177.958 2.135 2.135 2.135h4.962v.89h-1.29v1.69H41.2v-8.733c0-2.208-1.504-4.099-3.656-4.595m-5.512-10.316a3.772 3.772 0 0 0 1.226-.711v-.36h1.29v1.29a3.18 3.18 0 0 1 1.29.273v-1.563a6.459 6.459 0 0 0-6.45-6.452 6.459 6.459 0 0 0-6.453 6.452v1.563a3.18 3.18 0 0 1 1.29-.273v-1.29h1.291v1.29h.111l.09-.001a3.788 3.788 0 0 0 2.569-1.1l.912.912-.039.035a.924.924 0 0 0-.04.035 3.83 3.83 0 0 0 1.746-.983h.001l.913.913a.81.81 0 0 1-.04.035.922.922 0 0 0-.038.035l.01-.002a4.22 4.22 0 0 0 .321-.098zm-.158-.157l-1.008-1.008-.141.141c-.4.4-.895.695-1.431.867l-1.008-1.008-.142.141a3.588 3.588 0 0 1-2.428 1.042v-1.29h-1.69v1.297c-.31.018-.608.08-.89.175v-1.271a6.259 6.259 0 0 1 6.251-6.252 6.259 6.259 0 0 1 6.252 6.252v1.271a3.381 3.381 0 0 0-.89-.175v-1.296h-1.69v.467c-.35.29-.754.508-1.185.647zm-2.487 5.537h3.645c.144-.404.226-.837.226-1.29v-3.233a5.062 5.062 0 0 1-2.47.652h-.756v-.349a5.01 5.01 0 0 1-1.825.349h-.755v-.349a5.01 5.01 0 0 1-1.825.349h-.11v2.581a3.875 3.875 0 0 0 3.87 3.87 3.85 3.85 0 0 0 2.877-1.29h-2.877v-1.29zm2.388 1.49h-2.588v-1.69h3.701c.109-.345.17-.71.17-1.09v-2.904a5.255 5.255 0 0 1-2.27.523h-.956V19a5.2 5.2 0 0 1-1.624.264h-.956V19a5.213 5.213 0 0 1-1.536.264v2.381a3.675 3.675 0 0 0 3.671 3.67c.912 0 1.746-.335 2.388-.89zm-6.734 4.096l-3.477.802c-.44.102-.85.3-1.21.57v6.59c0 .84-.54 1.55-1.29 1.817v1.41h3.226v-7.097h1.29v7.096h3.278l.585-7.018-.385-1.154-1.377.826-.64-3.842zm1.906 3.315l-1.415.85-.654-3.922-3.268.754c-.38.088-.737.252-1.055.476v6.49a2.13 2.13 0 0 1-1.29 1.952v1.074h2.825v-7.097h1.69v7.097h2.894l.566-6.794-.293-.88zm4.769-.3l-.384 1.155.584 7.018h3.277v-7.096h1.29v7.096h3.227v-7.243a3.21 3.21 0 0 0-2.5-3.142l-3.384-.781-.76 3.804-1.35-.81zm2.266-2.752l-.776 3.88-1.379-.828-.293.88.566 6.794h2.893v-7.097h1.69v7.097h2.827v-7.044a3.01 3.01 0 0 0-2.345-2.948l-3.183-.734zM6.84 12.352l2.548-.85v-.841a3.211 3.211 0 0 1-1.29-2.564v-1.29a3.23 3.23 0 0 1 3.226-3.227 3.23 3.23 0 0 1 3.225 3.226v1.29a3.213 3.213 0 0 1-1.29 2.565v.841l2.548.85a1.933 1.933 0 0 1 1.323 1.835v3.587H5.516v-3.587c0-.834.532-1.571 1.323-1.835zm9.03-.19a2.133 2.133 0 0 1 1.46 2.025v3.605a8.81 8.81 0 0 0 2.826-6.47c0-4.87-3.962-8.832-8.832-8.832-4.87 0-8.833 3.962-8.833 8.832a8.81 8.81 0 0 0 2.826 6.47v-3.605c0-.92.587-1.734 1.46-2.025l2.411-.804v-.6a3.407 3.407 0 0 1-1.29-2.661v-1.29a3.43 3.43 0 0 1 3.426-3.427 3.43 3.43 0 0 1 3.425 3.426v1.29c0 1.08-.51 2.036-1.29 2.662v.6l2.411.804zM5.518 17.974h11.61a8.796 8.796 0 0 1-5.805 2.18 8.796 8.796 0 0 1-5.805-2.18zm6.45-5.541v-1.176a3.272 3.272 0 0 1-1.09.034 3.298 3.298 0 0 1-.2-.034v1.176l-3.43 1.142a.644.644 0 0 0-.442.613v2.296h9.033v-2.297a.645.645 0 0 0-.442-.612l-3.43-1.142zm3.366 1.332l-3.566-1.188v-1.084a3.427 3.427 0 0 1-.89 0v1.084L7.31 13.765a.444.444 0 0 0-.305.422v2.097h8.633v-2.096a.445.445 0 0 0-.305-.423zm9.337-9.094h1.69v1.69h-1.69v-1.69zm3.87 0h1.691v1.69h-1.69v-1.69zm3.872 0h1.69v1.69h-1.69v-1.69zm-5.799 23.692l-.085.02.263 1.576 1.083-.65-1.26-.946zm.046-.215l-.36.082.343 2.051 1.59-.954-1.573-1.18zm2.214 5.31l-.504 6.052h2.035l-.505-6.052h-1.026zm1.21-.2H28.69l-.537 6.451h2.469l-.538-6.451zm.128-1.29l.37-1.111-1.195-.718-1.196.718.37 1.11h1.651zm-1.78-1.023l.955-.573.955.573-.274.822h-1.362l-.275-.822zm2.11-1.618l1.618.97.41-2.044-.455-.105-1.573 1.179zm.358-.018l1.12.671.316-1.576-.176-.04-1.26.945zm3.685-6.374H34.378a5.044 5.044 0 0 0 .17-1.29v-2.58A1.939 1.939 0 0 1 36.483 21a1.938 1.938 0 0 1-1.898 1.934zm.163-3.66c.863.1 1.536.836 1.536 1.725 0 .928-.734 1.69-1.652 1.733a5.23 5.23 0 0 0 .116-1.088v-2.37zm-10.4 3.46c.014.067.03.134.048.2H24.189A1.938 1.938 0 0 1 22.29 21a1.939 1.939 0 0 1 1.936-1.936v2.581c0 .375.044.738.122 1.09zm-.322-3.46c-.863.1-1.536.836-1.536 1.725 0 .928.735 1.69 1.653 1.733a5.23 5.23 0 0 1-.117-1.088v-2.37zm7.097 7.44a5.316 5.316 0 0 1-3.471 0v.314l1.735 1.302 1.736-1.302v-.314zm0-.212a5.118 5.118 0 0 1-3.671-.077v.703l1.935 1.451 1.936-1.451v-.703a5.287 5.287 0 0 1-.2.077zM17.574 38.619h-4.116v.89h4.116v-.89zM2.49 36.484c0 .245.2.445.445.445h4.962v-1.09a2.783 2.783 0 0 1 2.78-2.781 2.783 2.783 0 0 1 2.781 2.78v1.09h4.961c.246 0 .445-.199.445-.444V24.87c0-.246-.2-.445-.445-.445H2.935c-.245 0-.445.2-.445.445v11.613zm8.187-1.736c-.6 0-1.09.49-1.09 1.09v3.672h2.18v-3.671c0-.602-.488-1.09-1.09-1.09zm.646-29.677c-.957 0-1.736.779-1.736 1.735v1.29c0 .957.78 1.736 1.736 1.736s1.735-.779 1.735-1.735v-1.29c0-.957-.779-1.736-1.735-1.736zm10.522 6.251c0 5.802-4.72 10.523-10.522 10.523C5.52 21.845.8 17.125.8 11.322.8 5.52 5.52.8 11.323.8c5.802 0 10.522 4.72 10.522 10.522zM11.323 21.645c5.691 0 10.322-4.631 10.322-10.323C21.645 5.631 17.014 1 11.323 1 5.63 1 1 5.63 1 11.322c0 5.692 4.631 10.323 10.323 10.323zm0-19.355c4.98 0 9.032 4.052 9.032 9.032 0 4.981-4.052 9.033-9.032 9.033-4.981 0-9.033-4.052-9.033-9.033 0-4.98 4.052-9.032 9.033-9.032zm0 2.58a1.938 1.938 0 0 0-1.936 1.936v1.29c0 1.068.869 1.936 1.936 1.936a1.938 1.938 0 0 0 1.935-1.935v-1.29a1.938 1.938 0 0 0-1.935-1.936zm1.935 33.55v1.29h4.516v-1.29h-4.516zM2.29 36.483c0 .356.29.645.645.645h5.162v-1.29a2.583 2.583 0 0 1 2.58-2.581 2.583 2.583 0 0 1 2.581 2.58v1.29h5.161c.356 0 .645-.288.645-.644V24.87a.646.646 0 0 0-.645-.645H2.935a.646.646 0 0 0-.645.645v11.613zm8.387-1.936c-.711 0-1.29.579-1.29 1.29v3.871h2.58v-3.87c0-.712-.578-1.29-1.29-1.29zM24.871 4.871v1.29h1.29v-1.29h-1.29zm5.161 0v1.29h-1.29v-1.29h1.29zm2.58 0v1.29h1.291v-1.29h-1.29z" fill="url(#paint6_linear)"/><defs><linearGradient id="paint0_linear" x1="21" y1=".8" x2="21" y2="41.2" gradientUnits="userSpaceOnUse"><stop stop-color="#EB862C"/><stop offset="1" stop-color="#E35930"/></linearGradient><linearGradient id="paint1_linear" x1="21" y1=".8" x2="21" y2="41.2" gradientUnits="userSpaceOnUse"><stop stop-color="#EB862C"/><stop offset="1" stop-color="#E35930"/></linearGradient><linearGradient id="paint2_linear" x1="21" y1=".8" x2="21" y2="41.2" gradientUnits="userSpaceOnUse"><stop stop-color="#EB862C"/><stop offset="1" stop-color="#E35930"/></linearGradient><linearGradient id="paint3_linear" x1="21" y1=".8" x2="21" y2="41.2" gradientUnits="userSpaceOnUse"><stop stop-color="#EB862C"/><stop offset="1" stop-color="#E35930"/></linearGradient><linearGradient id="paint4_linear" x1="21" y1=".8" x2="21" y2="41.2" gradientUnits="userSpaceOnUse"><stop stop-color="#EB862C"/><stop offset="1" stop-color="#E35930"/></linearGradient><linearGradient id="paint5_linear" x1="21" y1=".8" x2="21" y2="41.2" gradientUnits="userSpaceOnUse"><stop stop-color="#EB862C"/><stop offset="1" stop-color="#E35930"/></linearGradient><linearGradient id="paint6_linear" x1="21" y1=".8" x2="21" y2="41.2" gradientUnits="userSpaceOnUse"><stop stop-color="#EB862C"/><stop offset="1" stop-color="#E35930"/></linearGradient></defs></svg>