<svg width="42" height="34" viewBox="0 0 42 34" fill="none" xmlns="http://www.w3.org/2000/svg"><mask id="a" maskUnits="userSpaceOnUse" x="0" y="-.484" width="42" height="35" fill="#000"><path fill="#fff" d="M0-.484h42v35H0z"/><path d="M38.479.516h-3.761a.593.593 0 0 0 0 1.185h3.76c.737 0 1.336.6 1.336 1.336v9.047c0 .736-.599 1.335-1.335 1.335h-13.86a.594.594 0 0 0-.42.174l-3.414 3.414v-2.995a.593.593 0 0 0-.593-.593h-1.129c-.736 0-1.335-.599-1.335-1.335V3.037c0-.737.599-1.336 1.335-1.336h13.679a.593.593 0 0 0 0-1.185H19.063a2.524 2.524 0 0 0-2.52 2.52v9.048a2.524 2.524 0 0 0 2.52 2.521h.537v3.833a.593.593 0 0 0 1.011.42l4.252-4.253H38.48a2.524 2.524 0 0 0 2.52-2.521V3.037A2.524 2.524 0 0 0 38.48.516z"/><path d="M22.428 8.119c.703-.481 1.578-1.08 1.578-2.104 0-.486-.197-.9-.569-1.198a2.018 2.018 0 0 0-1.244-.414c-.853 0-1.759.524-1.759 1.495 0 .429.18.637.552.637.419 0 .644-.232.644-.45 0-.363.208-.571.57-.571.428 0 .58.29.58.54 0 .46-.544.858-1.119 1.28-.649.476-1.32.969-1.32 1.614v.75c0 .233.318.382.537.382h2.755c.199 0 .373-.255.373-.544 0-.282-.174-.529-.373-.529h-2.018v-.06c0-.271.377-.529.813-.828zM27.285 10.08c.422 0 .614-.198.614-.382v-.81h.323c.192 0 .381-.281.381-.567 0-.39-.198-.567-.381-.567h-.323v-.532c0-.172-.16-.374-.614-.374-.453 0-.613.201-.613.374v.532h-.64l1.363-2.734a.39.39 0 0 0 .04-.15c0-.127-.081-.248-.228-.342a.787.787 0 0 0-.386-.125.554.554 0 0 0-.512.315l-1.787 3.505a.502.502 0 0 0-.063.237c0 .256.166.428.412.428h1.8v.81c0 .184.193.381.614.381zM31.912 4.285l-2.716 5.579a.355.355 0 0 0-.04.151c0 .203.178.42.443.42.156 0 .303-.082.357-.198l2.724-5.58a.345.345 0 0 0 .032-.151c0-.252-.24-.42-.466-.42a.351.351 0 0 0-.334.199zM33.987 6.365c.337 0 .621-.174.621-.381v-.51h1.366v.53L34.07 9.3a.406.406 0 0 0-.055.206c0 .366.409.62.776.62.175 0 .289-.054.35-.167l1.81-3.467c.058-.11.249-.486.249-.74v-.967c0-.166-.26-.381-.536-.381h-2.748c-.27 0-.536.189-.536.381v1.2c0 .21.272.381.606.381zM25.513 21.096a1.622 1.622 0 0 0-1.154-.478c-.436 0-.847.17-1.155.478l-3.623 3.624c-1.443-.755-2.698-1.473-4.1-2.656a.593.593 0 0 0-.765.906c1.62 1.366 3.03 2.137 4.705 3.002.229.119.508.075.69-.107l1.95-1.95 6.427 6.427c-2.076 1.782-5.015 2.403-8.353 1.747-3.754-.739-7.726-3.05-11.185-6.508-3.459-3.46-5.77-7.432-6.508-11.185-.656-3.339-.036-6.278 1.746-8.354l6.427 6.428-1.95 1.95a.593.593 0 0 0-.107.69c1.18 2.283 2.133 3.958 4.519 6.344a.593.593 0 0 0 .838-.838c-2.139-2.14-3.035-3.62-4.104-5.665l3.623-3.624a1.62 1.62 0 0 0 .479-1.155c0-.436-.17-.846-.479-1.154l-5.81-5.811a1.621 1.621 0 0 0-1.155-.479c-.436 0-.847.17-1.155.478L3.752 4.768C1.375 7.146.496 10.646 1.278 14.624c.783 3.982 3.21 8.171 6.834 11.795 3.623 3.623 7.812 6.05 11.794 6.833.948.186 1.869.278 2.754.278 2.828 0 5.29-.941 7.102-2.752l1.562-1.562c.308-.309.478-.718.478-1.154 0-.437-.17-.847-.478-1.155l-5.81-5.81zM6.153 4.045a.444.444 0 0 1 .632 0l5.811 5.811a.444.444 0 0 1 0 .632l-1.143 1.143L5.01 5.187l1.143-1.142zm24.333 24.333l-1.143 1.143-6.443-6.444 1.143-1.142a.444.444 0 0 1 .632 0l5.81 5.81a.448.448 0 0 1 0 .633z"/></mask><path d="M38.479.516h-3.761a.593.593 0 0 0 0 1.185h3.76c.737 0 1.336.6 1.336 1.336v9.047c0 .736-.599 1.335-1.335 1.335h-13.86a.594.594 0 0 0-.42.174l-3.414 3.414v-2.995a.593.593 0 0 0-.593-.593h-1.129c-.736 0-1.335-.599-1.335-1.335V3.037c0-.737.599-1.336 1.335-1.336h13.679a.593.593 0 0 0 0-1.185H19.063a2.524 2.524 0 0 0-2.52 2.52v9.048a2.524 2.524 0 0 0 2.52 2.521h.537v3.833a.593.593 0 0 0 1.011.42l4.252-4.253H38.48a2.524 2.524 0 0 0 2.52-2.521V3.037A2.524 2.524 0 0 0 38.48.516z" fill="url(#paint0_linear)"/><path d="M22.428 8.119c.703-.481 1.578-1.08 1.578-2.104 0-.486-.197-.9-.569-1.198a2.018 2.018 0 0 0-1.244-.414c-.853 0-1.759.524-1.759 1.495 0 .429.18.637.552.637.419 0 .644-.232.644-.45 0-.363.208-.571.57-.571.428 0 .58.29.58.54 0 .46-.544.858-1.119 1.28-.649.476-1.32.969-1.32 1.614v.75c0 .233.318.382.537.382h2.755c.199 0 .373-.255.373-.544 0-.282-.174-.529-.373-.529h-2.018v-.06c0-.271.377-.529.813-.828z" fill="url(#paint1_linear)"/><path d="M27.285 10.08c.422 0 .614-.198.614-.382v-.81h.323c.192 0 .381-.281.381-.567 0-.39-.198-.567-.381-.567h-.323v-.532c0-.172-.16-.374-.614-.374-.453 0-.613.201-.613.374v.532h-.64l1.363-2.734a.39.39 0 0 0 .04-.15c0-.127-.081-.248-.228-.342a.787.787 0 0 0-.386-.125.554.554 0 0 0-.512.315l-1.787 3.505a.502.502 0 0 0-.063.237c0 .256.166.428.412.428h1.8v.81c0 .184.193.381.614.381z" fill="url(#paint2_linear)"/><path d="M31.912 4.285l-2.716 5.579a.355.355 0 0 0-.04.151c0 .203.178.42.443.42.156 0 .303-.082.357-.198l2.724-5.58a.345.345 0 0 0 .032-.151c0-.252-.24-.42-.466-.42a.351.351 0 0 0-.334.199z" fill="url(#paint3_linear)"/><path d="M33.987 6.365c.337 0 .621-.174.621-.381v-.51h1.366v.53L34.07 9.3a.406.406 0 0 0-.055.206c0 .366.409.62.776.62.175 0 .289-.054.35-.167l1.81-3.467c.058-.11.249-.486.249-.74v-.967c0-.166-.26-.381-.536-.381h-2.748c-.27 0-.536.189-.536.381v1.2c0 .21.272.381.606.381z" fill="url(#paint4_linear)"/><path d="M25.513 21.096a1.622 1.622 0 0 0-1.154-.478c-.436 0-.847.17-1.155.478l-3.623 3.624c-1.443-.755-2.698-1.473-4.1-2.656a.593.593 0 0 0-.765.906c1.62 1.366 3.03 2.137 4.705 3.002.229.119.508.075.69-.107l1.95-1.95 6.427 6.427c-2.076 1.782-5.015 2.403-8.353 1.747-3.754-.739-7.726-3.05-11.185-6.508-3.459-3.46-5.77-7.432-6.508-11.185-.656-3.339-.036-6.278 1.746-8.354l6.427 6.428-1.95 1.95a.593.593 0 0 0-.107.69c1.18 2.283 2.133 3.958 4.519 6.344a.593.593 0 0 0 .838-.838c-2.139-2.14-3.035-3.62-4.104-5.665l3.623-3.624a1.62 1.62 0 0 0 .479-1.155c0-.436-.17-.846-.479-1.154l-5.81-5.811a1.621 1.621 0 0 0-1.155-.479c-.436 0-.847.17-1.155.478L3.752 4.768C1.375 7.146.496 10.646 1.278 14.624c.783 3.982 3.21 8.171 6.834 11.795 3.623 3.623 7.812 6.05 11.794 6.833.948.186 1.869.278 2.754.278 2.828 0 5.29-.941 7.102-2.752l1.562-1.562c.308-.309.478-.718.478-1.154 0-.437-.17-.847-.478-1.155l-5.81-5.81zM6.153 4.045a.444.444 0 0 1 .632 0l5.811 5.811a.444.444 0 0 1 0 .632l-1.143 1.143L5.01 5.187l1.143-1.142zm24.333 24.333l-1.143 1.143-6.443-6.444 1.143-1.142a.444.444 0 0 1 .632 0l5.81 5.81a.448.448 0 0 1 0 .633z" fill="url(#paint5_linear)"/><path d="M38.479.516h-3.761a.593.593 0 0 0 0 1.185h3.76c.737 0 1.336.6 1.336 1.336v9.047c0 .736-.599 1.335-1.335 1.335h-13.86a.594.594 0 0 0-.42.174l-3.414 3.414v-2.995a.593.593 0 0 0-.593-.593h-1.129c-.736 0-1.335-.599-1.335-1.335V3.037c0-.737.599-1.336 1.335-1.336h13.679a.593.593 0 0 0 0-1.185H19.063a2.524 2.524 0 0 0-2.52 2.52v9.048a2.524 2.524 0 0 0 2.52 2.521h.537v3.833a.593.593 0 0 0 1.011.42l4.252-4.253H38.48a2.524 2.524 0 0 0 2.52-2.521V3.037A2.524 2.524 0 0 0 38.48.516z" stroke="url(#paint6_linear)" stroke-width=".4" mask="url(#a)"/><path d="M22.428 8.119c.703-.481 1.578-1.08 1.578-2.104 0-.486-.197-.9-.569-1.198a2.018 2.018 0 0 0-1.244-.414c-.853 0-1.759.524-1.759 1.495 0 .429.18.637.552.637.419 0 .644-.232.644-.45 0-.363.208-.571.57-.571.428 0 .58.29.58.54 0 .46-.544.858-1.119 1.28-.649.476-1.32.969-1.32 1.614v.75c0 .233.318.382.537.382h2.755c.199 0 .373-.255.373-.544 0-.282-.174-.529-.373-.529h-2.018v-.06c0-.271.377-.529.813-.828z" stroke="url(#paint7_linear)" stroke-width=".4" mask="url(#a)"/><path d="M27.285 10.08c.422 0 .614-.198.614-.382v-.81h.323c.192 0 .381-.281.381-.567 0-.39-.198-.567-.381-.567h-.323v-.532c0-.172-.16-.374-.614-.374-.453 0-.613.201-.613.374v.532h-.64l1.363-2.734a.39.39 0 0 0 .04-.15c0-.127-.081-.248-.228-.342a.787.787 0 0 0-.386-.125.554.554 0 0 0-.512.315l-1.787 3.505a.502.502 0 0 0-.063.237c0 .256.166.428.412.428h1.8v.81c0 .184.193.381.614.381z" stroke="url(#paint8_linear)" stroke-width=".4" mask="url(#a)"/><path d="M31.912 4.285l-2.716 5.579a.355.355 0 0 0-.04.151c0 .203.178.42.443.42.156 0 .303-.082.357-.198l2.724-5.58a.345.345 0 0 0 .032-.151c0-.252-.24-.42-.466-.42a.351.351 0 0 0-.334.199z" stroke="url(#paint9_linear)" stroke-width=".4" mask="url(#a)"/><path d="M33.987 6.365c.337 0 .621-.174.621-.381v-.51h1.366v.53L34.07 9.3a.406.406 0 0 0-.055.206c0 .366.409.62.776.62.175 0 .289-.054.35-.167l1.81-3.467c.058-.11.249-.486.249-.74v-.967c0-.166-.26-.381-.536-.381h-2.748c-.27 0-.536.189-.536.381v1.2c0 .21.272.381.606.381z" stroke="url(#paint10_linear)" stroke-width=".4" mask="url(#a)"/><path d="M25.513 21.096a1.622 1.622 0 0 0-1.154-.478c-.436 0-.847.17-1.155.478l-3.623 3.624c-1.443-.755-2.698-1.473-4.1-2.656a.593.593 0 0 0-.765.906c1.62 1.366 3.03 2.137 4.705 3.002.229.119.508.075.69-.107l1.95-1.95 6.427 6.427c-2.076 1.782-5.015 2.403-8.353 1.747-3.754-.739-7.726-3.05-11.185-6.508-3.459-3.46-5.77-7.432-6.508-11.185-.656-3.339-.036-6.278 1.746-8.354l6.427 6.428-1.95 1.95a.593.593 0 0 0-.107.69c1.18 2.283 2.133 3.958 4.519 6.344a.593.593 0 0 0 .838-.838c-2.139-2.14-3.035-3.62-4.104-5.665l3.623-3.624a1.62 1.62 0 0 0 .479-1.155c0-.436-.17-.846-.479-1.154l-5.81-5.811a1.621 1.621 0 0 0-1.155-.479c-.436 0-.847.17-1.155.478L3.752 4.768C1.375 7.146.496 10.646 1.278 14.624c.783 3.982 3.21 8.171 6.834 11.795 3.623 3.623 7.812 6.05 11.794 6.833.948.186 1.869.278 2.754.278 2.828 0 5.29-.941 7.102-2.752l1.562-1.562c.308-.309.478-.718.478-1.154 0-.437-.17-.847-.478-1.155l-5.81-5.81zM6.153 4.045a.444.444 0 0 1 .632 0l5.811 5.811a.444.444 0 0 1 0 .632l-1.143 1.143L5.01 5.187l1.143-1.142zm24.333 24.333l-1.143 1.143-6.443-6.444 1.143-1.142a.444.444 0 0 1 .632 0l5.81 5.81a.448.448 0 0 1 0 .633z" stroke="url(#paint11_linear)" stroke-width=".4" mask="url(#a)"/><defs><linearGradient id="paint0_linear" x1="21" y1=".516" x2="21" y2="33.53" gradientUnits="userSpaceOnUse"><stop stop-color="#EB862C"/><stop offset="1" stop-color="#E35930"/></linearGradient><linearGradient id="paint1_linear" x1="21" y1=".516" x2="21" y2="33.53" gradientUnits="userSpaceOnUse"><stop stop-color="#EB862C"/><stop offset="1" stop-color="#E35930"/></linearGradient><linearGradient id="paint2_linear" x1="21" y1=".516" x2="21" y2="33.53" gradientUnits="userSpaceOnUse"><stop stop-color="#EB862C"/><stop offset="1" stop-color="#E35930"/></linearGradient><linearGradient id="paint3_linear" x1="21" y1=".516" x2="21" y2="33.53" gradientUnits="userSpaceOnUse"><stop stop-color="#EB862C"/><stop offset="1" stop-color="#E35930"/></linearGradient><linearGradient id="paint4_linear" x1="21" y1=".516" x2="21" y2="33.53" gradientUnits="userSpaceOnUse"><stop stop-color="#EB862C"/><stop offset="1" stop-color="#E35930"/></linearGradient><linearGradient id="paint5_linear" x1="21" y1=".516" x2="21" y2="33.53" gradientUnits="userSpaceOnUse"><stop stop-color="#EB862C"/><stop offset="1" stop-color="#E35930"/></linearGradient><linearGradient id="paint6_linear" x1="21" y1=".516" x2="21" y2="33.53" gradientUnits="userSpaceOnUse"><stop stop-color="#EB862C"/><stop offset="1" stop-color="#E35930"/></linearGradient><linearGradient id="paint7_linear" x1="21" y1=".516" x2="21" y2="33.53" gradientUnits="userSpaceOnUse"><stop stop-color="#EB862C"/><stop offset="1" stop-color="#E35930"/></linearGradient><linearGradient id="paint8_linear" x1="21" y1=".516" x2="21" y2="33.53" gradientUnits="userSpaceOnUse"><stop stop-color="#EB862C"/><stop offset="1" stop-color="#E35930"/></linearGradient><linearGradient id="paint9_linear" x1="21" y1=".516" x2="21" y2="33.53" gradientUnits="userSpaceOnUse"><stop stop-color="#EB862C"/><stop offset="1" stop-color="#E35930"/></linearGradient><linearGradient id="paint10_linear" x1="21" y1=".516" x2="21" y2="33.53" gradientUnits="userSpaceOnUse"><stop stop-color="#EB862C"/><stop offset="1" stop-color="#E35930"/></linearGradient><linearGradient id="paint11_linear" x1="21" y1=".516" x2="21" y2="33.53" gradientUnits="userSpaceOnUse"><stop stop-color="#EB862C"/><stop offset="1" stop-color="#E35930"/></linearGradient></defs></svg>