<svg width="40" height="40" viewBox="0 0 40 40" fill="none" xmlns="http://www.w3.org/2000/svg"><g clip-path="url(#clip0)" stroke-width=".2"><path d="M37.656-.1H9.844A2.446 2.446 0 0 0 7.4 2.344V5a.881.881 0 0 0 1.762 0V2.344c0-.376.306-.681.682-.681h27.812c.376 0 .681.305.681.68v35.313a.682.682 0 0 1-.68.681H9.843a.682.682 0 0 1-.681-.68V35.13a.881.881 0 0 0-1.763 0v2.526A2.446 2.446 0 0 0 9.844 40.1h27.812a2.446 2.446 0 0 0 2.444-2.444V2.344A2.446 2.446 0 0 0 37.656-.1z" fill="url(#paint0_linear)" stroke="url(#paint1_linear)"/><path d="M33.898 30.056h-18.75a.881.881 0 0 0 0 1.763h18.75a.881.881 0 0 0 0-1.763z" fill="url(#paint2_linear)" stroke="url(#paint3_linear)"/><path d="M33.275 35.623a.887.887 0 0 0 .623.258c.232 0 .459-.094.623-.258a.887.887 0 0 0 .258-.623.885.885 0 0 0-.881-.881l-.623 1.504zm0 0l.07-.07-.07.07z" fill="url(#paint4_linear)" stroke="url(#paint5_linear)"/><path d="M30.703 34.119H15.148a.881.881 0 0 0 0 1.762h15.555a.881.881 0 0 0 0-1.762z" fill="url(#paint6_linear)" stroke="url(#paint7_linear)"/><path d="M20.623 6.757c-4.704 0-8.531 3.827-8.531 8.531a8.508 8.508 0 0 0 2.775 6.291 8.499 8.499 0 0 0 5.756 2.24 8.499 8.499 0 0 0 5.853-2.33 8.509 8.509 0 0 0 2.679-6.2c0-4.705-3.828-8.532-8.532-8.532zm0 15.3a6.734 6.734 0 0 1-4.125-1.406 4.686 4.686 0 0 1 4.125-2.43c1.743 0 3.302.936 4.125 2.43a6.734 6.734 0 0 1-4.125 1.406zm-1.544-7.142v-.606c0-.852.693-1.545 1.544-1.545.851 0 1.544.693 1.544 1.545v.606c0 .851-.693 1.544-1.544 1.544a1.546 1.546 0 0 1-1.544-1.544zm8.313.373a6.733 6.733 0 0 1-1.365 4.072 6.422 6.422 0 0 0-2.83-2.373 3.29 3.29 0 0 0 .733-2.072v-.606a3.31 3.31 0 0 0-3.307-3.307 3.31 3.31 0 0 0-3.307 3.307v.606c0 .784.275 1.505.733 2.072a6.423 6.423 0 0 0-2.83 2.373 6.733 6.733 0 0 1-1.365-4.072 6.777 6.777 0 0 1 6.77-6.769 6.777 6.777 0 0 1 6.768 6.77z" fill="url(#paint8_linear)" stroke="url(#paint9_linear)"/><path d="M2.06 31.931l-.07-.07.07.07 4.638-4.638a.881.881 0 0 0-1.246-1.246l.07.07-.07-.07-4.638 4.638A3.1 3.1 0 0 0-.1 32.89a3.1 3.1 0 0 0 .914 2.206l.07-.07-.07.07a3.111 3.111 0 0 0 2.206.913c.8 0 1.598-.304 2.207-.913l-.071-.07.07.07 9.22-9.219a12.188 12.188 0 0 0 6.177 1.674c6.762 0 12.263-5.502 12.263-12.264s-5.5-12.263-12.263-12.263c-6.762 0-12.263 5.501-12.263 12.263 0 3.87 1.801 7.326 4.609 9.575L3.98 33.85a1.36 1.36 0 0 1-2.317-.96c0-.363.14-.703.397-.96zm18.563-6.142c-5.79 0-10.5-4.71-10.5-10.5s4.71-10.502 10.5-10.502 10.5 4.711 10.5 10.501c0 5.79-4.71 10.5-10.5 10.5z" fill="url(#paint10_linear)" stroke="url(#paint11_linear)"/><path d="M8.534 25.092a.884.884 0 0 0 .623-1.504.886.886 0 0 0-.623-.258.887.887 0 0 0-.623.258.887.887 0 0 0-.259.623c0 .232.095.459.259.623a.887.887 0 0 0 .623.258z" fill="url(#paint12_linear)" stroke="url(#paint13_linear)"/></g><defs><linearGradient id="paint0_linear" x1="23.75" x2="23.75" y2="40" gradientUnits="userSpaceOnUse"><stop stop-color="#EB862C"/><stop offset="1" stop-color="#E35930"/></linearGradient><linearGradient id="paint1_linear" x1="23.75" x2="23.75" y2="40" gradientUnits="userSpaceOnUse"><stop stop-color="#EB862C"/><stop offset="1" stop-color="#E35930"/></linearGradient><linearGradient id="paint2_linear" x1="24.523" y1="30.156" x2="24.523" y2="31.719" gradientUnits="userSpaceOnUse"><stop stop-color="#EB862C"/><stop offset="1" stop-color="#E35930"/></linearGradient><linearGradient id="paint3_linear" x1="24.523" y1="30.156" x2="24.523" y2="31.719" gradientUnits="userSpaceOnUse"><stop stop-color="#EB862C"/><stop offset="1" stop-color="#E35930"/></linearGradient><linearGradient id="paint4_linear" x1="33.898" y1="34.219" x2="33.898" y2="35.781" gradientUnits="userSpaceOnUse"><stop stop-color="#EB862C"/><stop offset="1" stop-color="#E35930"/></linearGradient><linearGradient id="paint5_linear" x1="33.898" y1="34.219" x2="33.898" y2="35.781" gradientUnits="userSpaceOnUse"><stop stop-color="#EB862C"/><stop offset="1" stop-color="#E35930"/></linearGradient><linearGradient id="paint6_linear" x1="22.925" y1="34.219" x2="22.925" y2="35.781" gradientUnits="userSpaceOnUse"><stop stop-color="#EB862C"/><stop offset="1" stop-color="#E35930"/></linearGradient><linearGradient id="paint7_linear" x1="22.925" y1="34.219" x2="22.925" y2="35.781" gradientUnits="userSpaceOnUse"><stop stop-color="#EB862C"/><stop offset="1" stop-color="#E35930"/></linearGradient><linearGradient id="paint8_linear" x1="20.623" y1="6.857" x2="20.623" y2="23.72" gradientUnits="userSpaceOnUse"><stop stop-color="#EB862C"/><stop offset="1" stop-color="#E35930"/></linearGradient><linearGradient id="paint9_linear" x1="20.623" y1="6.857" x2="20.623" y2="23.72" gradientUnits="userSpaceOnUse"><stop stop-color="#EB862C"/><stop offset="1" stop-color="#E35930"/></linearGradient><linearGradient id="paint10_linear" x1="16.393" y1="3.125" x2="16.393" y2="35.91" gradientUnits="userSpaceOnUse"><stop stop-color="#EB862C"/><stop offset="1" stop-color="#E35930"/></linearGradient><linearGradient id="paint11_linear" x1="16.393" y1="3.125" x2="16.393" y2="35.91" gradientUnits="userSpaceOnUse"><stop stop-color="#EB862C"/><stop offset="1" stop-color="#E35930"/></linearGradient><linearGradient id="paint12_linear" x1="8.534" y1="23.43" x2="8.534" y2="24.992" gradientUnits="userSpaceOnUse"><stop stop-color="#EB862C"/><stop offset="1" stop-color="#E35930"/></linearGradient><linearGradient id="paint13_linear" x1="8.534" y1="23.43" x2="8.534" y2="24.992" gradientUnits="userSpaceOnUse"><stop stop-color="#EB862C"/><stop offset="1" stop-color="#E35930"/></linearGradient><clipPath id="clip0"><path fill="#fff" d="M0 0h40v40H0z"/></clipPath></defs></svg>