<svg width="38" height="38" viewBox="0 0 38 38" fill="none" xmlns="http://www.w3.org/2000/svg"><mask id="a" maskUnits="userSpaceOnUse" x="-.77" y="-.77" width="39" height="39" fill="#000"><path fill="#fff" d="M-.77-.77h39v39h-39z"/><path d="M34.625 8.642a.74.74 0 1 0-1.236.819 17.187 17.187 0 0 1 2.86 9.52c0 4.612-1.797 8.948-5.058 12.21a17.157 17.157 0 0 1-12.21 5.057 17.12 17.12 0 0 1-10.346-3.44 17.398 17.398 0 0 1-2.655-2.464A17.253 17.253 0 0 1 1.713 18.98c0-4.612 1.796-8.948 5.057-12.21a17.156 17.156 0 0 1 12.21-5.057c3.825 0 7.45 1.225 10.48 3.543a.742.742 0 0 0 .9-1.177A18.578 18.578 0 0 0 18.98.23c-5.008 0-9.716 1.95-13.258 5.492A18.627 18.627 0 0 0 .23 18.98c0 4.542 1.646 8.925 4.634 12.34a18.91 18.91 0 0 0 2.883 2.674A18.592 18.592 0 0 0 18.98 37.73c5.009 0 9.717-1.95 13.259-5.491A18.627 18.627 0 0 0 37.73 18.98c0-3.696-1.074-7.27-3.106-10.339z"/><path d="M25.482 14.858a6.882 6.882 0 0 0-.662-2.379l3.86-3.856a.749.749 0 0 0-.047-1.091 14.985 14.985 0 0 0-9.652-3.527c-8.258 0-14.976 6.718-14.976 14.975 0 3.53 1.253 6.959 3.527 9.653a.748.748 0 0 0 1.09.048l4.747-4.721c.19.63.289 1.286.289 1.945v.997l-3.285 3.269a.749.749 0 0 0 .101 1.135 14.89 14.89 0 0 0 8.506 2.65c8.258 0 14.976-6.718 14.976-14.976 0-3.057-.917-5.998-2.65-8.506a.749.749 0 0 0-1.122-.114l-4.702 4.498zm-11.294 7.207l-1.616-3.061a6.295 6.295 0 0 1 1.472-7.727 5.868 5.868 0 0 1 3.816-1.412h.17a6.314 6.314 0 0 1 4.05 1.466c.468.39.86.85 1.168 1.357l.008.014c.5.832.773 1.792.773 2.79a4.04 4.04 0 0 0 1.19 2.875l.522.52h-.355c-.41 0-.74.333-.74.742v3.865c0 .23-.09.446-.253.609a.853.853 0 0 1-.608.252h-.492c-1.131 0-2.051.92-2.051 2.05v.924H15.14v-1.424a8.255 8.255 0 0 0-.952-3.84zm-6.024 4.98a13.507 13.507 0 0 1-2.677-8.065c0-7.44 6.053-13.493 13.493-13.493 2.91 0 5.743.945 8.064 2.675l-3.035 3.032a6.939 6.939 0 0 0-.98-1.002 7.786 7.786 0 0 0-4.998-1.81h-.17c-1.753 0-3.451.629-4.781 1.77a7.775 7.775 0 0 0-2.719 5.91c0 1.261.311 2.518.9 3.634l1.478 2.8-4.575 4.55zm24.31-8.065c0 7.441-6.053 13.494-13.493 13.494-2.454 0-4.825-.655-6.91-1.902l1.904-1.894c.12.084.266.133.424.133h7.584c.409 0 .74-.331.74-.74v-1.665a.57.57 0 0 1 .57-.57h.492c.626 0 1.214-.243 1.656-.685.443-.442.686-1.03.686-1.657V20.37h.305c.485 0 .919-.29 1.105-.739.186-.448.084-.96-.26-1.303l-1.01-1.01a2.596 2.596 0 0 1-.493-.69l4.787-4.577a13.419 13.419 0 0 1 1.913 6.93z"/><path d="M28.44 23.203c.04 0 .08-.003.12-.01l1.28-.207a.74.74 0 1 0-.236-1.463l-1.281.207c-.873.141-.767 1.473.117 1.473zM29.278 24.84l-1.124-.648a.741.741 0 0 0-.741 1.284l1.124.648a.749.749 0 0 0 1.04-.322.748.748 0 0 0-.299-.961zM26.727 26.459a.742.742 0 0 0-1.393.509l.446 1.219c.143.39.593.587.977.43a.747.747 0 0 0 .415-.939l-.445-1.22zM32.151 7.42a.75.75 0 0 0 .741-.742.75.75 0 0 0-.74-.741.75.75 0 0 0-.74.709.749.749 0 0 0 .74.773z"/></mask><path d="M34.625 8.642a.74.74 0 1 0-1.236.819 17.187 17.187 0 0 1 2.86 9.52c0 4.612-1.797 8.948-5.058 12.21a17.157 17.157 0 0 1-12.21 5.057 17.12 17.12 0 0 1-10.346-3.44 17.398 17.398 0 0 1-2.655-2.464A17.253 17.253 0 0 1 1.713 18.98c0-4.612 1.796-8.948 5.057-12.21a17.156 17.156 0 0 1 12.21-5.057c3.825 0 7.45 1.225 10.48 3.543a.742.742 0 0 0 .9-1.177A18.578 18.578 0 0 0 18.98.23c-5.008 0-9.716 1.95-13.258 5.492A18.627 18.627 0 0 0 .23 18.98c0 4.542 1.646 8.925 4.634 12.34a18.91 18.91 0 0 0 2.883 2.674A18.592 18.592 0 0 0 18.98 37.73c5.009 0 9.717-1.95 13.259-5.491A18.627 18.627 0 0 0 37.73 18.98c0-3.696-1.074-7.27-3.106-10.339z" fill="url(#paint0_linear)"/><path d="M25.482 14.858a6.882 6.882 0 0 0-.662-2.379l3.86-3.856a.749.749 0 0 0-.047-1.091 14.985 14.985 0 0 0-9.652-3.527c-8.258 0-14.976 6.718-14.976 14.975 0 3.53 1.253 6.959 3.527 9.653a.748.748 0 0 0 1.09.048l4.747-4.721c.19.63.289 1.286.289 1.945v.997l-3.285 3.269a.749.749 0 0 0 .101 1.135 14.89 14.89 0 0 0 8.506 2.65c8.258 0 14.976-6.718 14.976-14.976 0-3.057-.917-5.998-2.65-8.506a.749.749 0 0 0-1.122-.114l-4.702 4.498zm-11.294 7.207l-1.616-3.061a6.295 6.295 0 0 1 1.472-7.727 5.868 5.868 0 0 1 3.816-1.412h.17a6.314 6.314 0 0 1 4.05 1.466c.468.39.86.85 1.168 1.357l.008.014c.5.832.773 1.792.773 2.79a4.04 4.04 0 0 0 1.19 2.875l.522.52h-.355c-.41 0-.74.333-.74.742v3.865c0 .23-.09.446-.253.609a.853.853 0 0 1-.608.252h-.492c-1.131 0-2.051.92-2.051 2.05v.924H15.14v-1.424a8.255 8.255 0 0 0-.952-3.84zm-6.024 4.98a13.507 13.507 0 0 1-2.677-8.065c0-7.44 6.053-13.493 13.493-13.493 2.91 0 5.743.945 8.064 2.675l-3.035 3.032a6.939 6.939 0 0 0-.98-1.002 7.786 7.786 0 0 0-4.998-1.81h-.17c-1.753 0-3.451.629-4.781 1.77a7.775 7.775 0 0 0-2.719 5.91c0 1.261.311 2.518.9 3.634l1.478 2.8-4.575 4.55zm24.31-8.065c0 7.441-6.053 13.494-13.493 13.494-2.454 0-4.825-.655-6.91-1.902l1.904-1.894c.12.084.266.133.424.133h7.584c.409 0 .74-.331.74-.74v-1.665a.57.57 0 0 1 .57-.57h.492c.626 0 1.214-.243 1.656-.685.443-.442.686-1.03.686-1.657V20.37h.305c.485 0 .919-.29 1.105-.739.186-.448.084-.96-.26-1.303l-1.01-1.01a2.596 2.596 0 0 1-.493-.69l4.787-4.577a13.419 13.419 0 0 1 1.913 6.93z" fill="url(#paint1_linear)"/><path d="M28.44 23.203c.04 0 .08-.003.12-.01l1.28-.207a.74.74 0 1 0-.236-1.463l-1.281.207c-.873.141-.767 1.473.117 1.473z" fill="url(#paint2_linear)"/><path d="M29.278 24.84l-1.124-.648a.741.741 0 0 0-.741 1.284l1.124.648a.749.749 0 0 0 1.04-.322.748.748 0 0 0-.299-.961z" fill="url(#paint3_linear)"/><path d="M26.727 26.459a.742.742 0 0 0-1.393.509l.446 1.219c.143.39.593.587.977.43a.747.747 0 0 0 .415-.939l-.445-1.22z" fill="url(#paint4_linear)"/><path d="M32.151 7.42a.75.75 0 0 0 .741-.742.75.75 0 0 0-.74-.741.75.75 0 0 0-.74.709.749.749 0 0 0 .74.773z" fill="url(#paint5_linear)"/><path d="M34.625 8.642a.74.74 0 1 0-1.236.819 17.187 17.187 0 0 1 2.86 9.52c0 4.612-1.797 8.948-5.058 12.21a17.157 17.157 0 0 1-12.21 5.057 17.12 17.12 0 0 1-10.346-3.44 17.398 17.398 0 0 1-2.655-2.464A17.253 17.253 0 0 1 1.713 18.98c0-4.612 1.796-8.948 5.057-12.21a17.156 17.156 0 0 1 12.21-5.057c3.825 0 7.45 1.225 10.48 3.543a.742.742 0 0 0 .9-1.177A18.578 18.578 0 0 0 18.98.23c-5.008 0-9.716 1.95-13.258 5.492A18.627 18.627 0 0 0 .23 18.98c0 4.542 1.646 8.925 4.634 12.34a18.91 18.91 0 0 0 2.883 2.674A18.592 18.592 0 0 0 18.98 37.73c5.009 0 9.717-1.95 13.259-5.491A18.627 18.627 0 0 0 37.73 18.98c0-3.696-1.074-7.27-3.106-10.339z" stroke="url(#paint6_linear)" stroke-width=".4" mask="url(#a)"/><path d="M34.625 8.642a.74.74 0 1 0-1.236.819 17.187 17.187 0 0 1 2.86 9.52c0 4.612-1.797 8.948-5.058 12.21a17.157 17.157 0 0 1-12.21 5.057 17.12 17.12 0 0 1-10.346-3.44 17.398 17.398 0 0 1-2.655-2.464A17.253 17.253 0 0 1 1.713 18.98c0-4.612 1.796-8.948 5.057-12.21a17.156 17.156 0 0 1 12.21-5.057c3.825 0 7.45 1.225 10.48 3.543a.742.742 0 0 0 .9-1.177A18.578 18.578 0 0 0 18.98.23c-5.008 0-9.716 1.95-13.258 5.492A18.627 18.627 0 0 0 .23 18.98c0 4.542 1.646 8.925 4.634 12.34a18.91 18.91 0 0 0 2.883 2.674A18.592 18.592 0 0 0 18.98 37.73c5.009 0 9.717-1.95 13.259-5.491A18.627 18.627 0 0 0 37.73 18.98c0-3.696-1.074-7.27-3.106-10.339z" stroke="url(#paint7_linear)" stroke-width=".4" mask="url(#a)"/><path d="M25.482 14.858a6.882 6.882 0 0 0-.662-2.379l3.86-3.856a.749.749 0 0 0-.047-1.091 14.985 14.985 0 0 0-9.652-3.527c-8.258 0-14.976 6.718-14.976 14.975 0 3.53 1.253 6.959 3.527 9.653a.748.748 0 0 0 1.09.048l4.747-4.721c.19.63.289 1.286.289 1.945v.997l-3.285 3.269a.749.749 0 0 0 .101 1.135 14.89 14.89 0 0 0 8.506 2.65c8.258 0 14.976-6.718 14.976-14.976 0-3.057-.917-5.998-2.65-8.506a.749.749 0 0 0-1.122-.114l-4.702 4.498zm-11.294 7.207l-1.616-3.061a6.295 6.295 0 0 1 1.472-7.727 5.868 5.868 0 0 1 3.816-1.412h.17a6.314 6.314 0 0 1 4.05 1.466c.468.39.86.85 1.168 1.357l.008.014c.5.832.773 1.792.773 2.79a4.04 4.04 0 0 0 1.19 2.875l.522.52h-.355c-.41 0-.74.333-.74.742v3.865c0 .23-.09.446-.253.609a.853.853 0 0 1-.608.252h-.492c-1.131 0-2.051.92-2.051 2.05v.924H15.14v-1.424a8.255 8.255 0 0 0-.952-3.84zm-6.024 4.98a13.507 13.507 0 0 1-2.677-8.065c0-7.44 6.053-13.493 13.493-13.493 2.91 0 5.743.945 8.064 2.675l-3.035 3.032a6.939 6.939 0 0 0-.98-1.002 7.786 7.786 0 0 0-4.998-1.81h-.17c-1.753 0-3.451.629-4.781 1.77a7.775 7.775 0 0 0-2.719 5.91c0 1.261.311 2.518.9 3.634l1.478 2.8-4.575 4.55zm24.31-8.065c0 7.441-6.053 13.494-13.493 13.494-2.454 0-4.825-.655-6.91-1.902l1.904-1.894c.12.084.266.133.424.133h7.584c.409 0 .74-.331.74-.74v-1.665a.57.57 0 0 1 .57-.57h.492c.626 0 1.214-.243 1.656-.685.443-.442.686-1.03.686-1.657V20.37h.305c.485 0 .919-.29 1.105-.739.186-.448.084-.96-.26-1.303l-1.01-1.01a2.596 2.596 0 0 1-.493-.69l4.787-4.577a13.419 13.419 0 0 1 1.913 6.93z" stroke="url(#paint8_linear)" stroke-width=".4" mask="url(#a)"/><path d="M25.482 14.858a6.882 6.882 0 0 0-.662-2.379l3.86-3.856a.749.749 0 0 0-.047-1.091 14.985 14.985 0 0 0-9.652-3.527c-8.258 0-14.976 6.718-14.976 14.975 0 3.53 1.253 6.959 3.527 9.653a.748.748 0 0 0 1.09.048l4.747-4.721c.19.63.289 1.286.289 1.945v.997l-3.285 3.269a.749.749 0 0 0 .101 1.135 14.89 14.89 0 0 0 8.506 2.65c8.258 0 14.976-6.718 14.976-14.976 0-3.057-.917-5.998-2.65-8.506a.749.749 0 0 0-1.122-.114l-4.702 4.498zm-11.294 7.207l-1.616-3.061a6.295 6.295 0 0 1 1.472-7.727 5.868 5.868 0 0 1 3.816-1.412h.17a6.314 6.314 0 0 1 4.05 1.466c.468.39.86.85 1.168 1.357l.008.014c.5.832.773 1.792.773 2.79a4.04 4.04 0 0 0 1.19 2.875l.522.52h-.355c-.41 0-.74.333-.74.742v3.865c0 .23-.09.446-.253.609a.853.853 0 0 1-.608.252h-.492c-1.131 0-2.051.92-2.051 2.05v.924H15.14v-1.424a8.255 8.255 0 0 0-.952-3.84zm-6.024 4.98a13.507 13.507 0 0 1-2.677-8.065c0-7.44 6.053-13.493 13.493-13.493 2.91 0 5.743.945 8.064 2.675l-3.035 3.032a6.939 6.939 0 0 0-.98-1.002 7.786 7.786 0 0 0-4.998-1.81h-.17c-1.753 0-3.451.629-4.781 1.77a7.775 7.775 0 0 0-2.719 5.91c0 1.261.311 2.518.9 3.634l1.478 2.8-4.575 4.55zm24.31-8.065c0 7.441-6.053 13.494-13.493 13.494-2.454 0-4.825-.655-6.91-1.902l1.904-1.894c.12.084.266.133.424.133h7.584c.409 0 .74-.331.74-.74v-1.665a.57.57 0 0 1 .57-.57h.492c.626 0 1.214-.243 1.656-.685.443-.442.686-1.03.686-1.657V20.37h.305c.485 0 .919-.29 1.105-.739.186-.448.084-.96-.26-1.303l-1.01-1.01a2.596 2.596 0 0 1-.493-.69l4.787-4.577a13.419 13.419 0 0 1 1.913 6.93z" stroke="url(#paint9_linear)" stroke-width=".4" mask="url(#a)"/><path d="M28.44 23.203c.04 0 .08-.003.12-.01l1.28-.207a.74.74 0 1 0-.236-1.463l-1.281.207c-.873.141-.767 1.473.117 1.473z" stroke="url(#paint10_linear)" stroke-width=".4" mask="url(#a)"/><path d="M28.44 23.203c.04 0 .08-.003.12-.01l1.28-.207a.74.74 0 1 0-.236-1.463l-1.281.207c-.873.141-.767 1.473.117 1.473z" stroke="url(#paint11_linear)" stroke-width=".4" mask="url(#a)"/><path d="M29.278 24.84l-1.124-.648a.741.741 0 0 0-.741 1.284l1.124.648a.749.749 0 0 0 1.04-.322.748.748 0 0 0-.299-.961z" stroke="url(#paint12_linear)" stroke-width=".4" mask="url(#a)"/><path d="M29.278 24.84l-1.124-.648a.741.741 0 0 0-.741 1.284l1.124.648a.749.749 0 0 0 1.04-.322.748.748 0 0 0-.299-.961z" stroke="url(#paint13_linear)" stroke-width=".4" mask="url(#a)"/><path d="M26.727 26.459a.742.742 0 0 0-1.393.509l.446 1.219c.143.39.593.587.977.43a.747.747 0 0 0 .415-.939l-.445-1.22z" stroke="url(#paint14_linear)" stroke-width=".4" mask="url(#a)"/><path d="M26.727 26.459a.742.742 0 0 0-1.393.509l.446 1.219c.143.39.593.587.977.43a.747.747 0 0 0 .415-.939l-.445-1.22z" stroke="url(#paint15_linear)" stroke-width=".4" mask="url(#a)"/><path d="M32.151 7.42a.75.75 0 0 0 .741-.742.75.75 0 0 0-.74-.741.75.75 0 0 0-.74.709.749.749 0 0 0 .74.773z" stroke="url(#paint16_linear)" stroke-width=".4" mask="url(#a)"/><path d="M32.151 7.42a.75.75 0 0 0 .741-.742.75.75 0 0 0-.74-.741.75.75 0 0 0-.74.709.749.749 0 0 0 .74.773z" stroke="url(#paint17_linear)" stroke-width=".4" mask="url(#a)"/><defs><linearGradient id="paint0_linear" x1="18.98" y1=".23" x2="18.98" y2="37.73" gradientUnits="userSpaceOnUse"><stop stop-color="#EB862C"/><stop offset="1" stop-color="#E35930"/></linearGradient><linearGradient id="paint1_linear" x1="18.98" y1=".23" x2="18.98" y2="37.73" gradientUnits="userSpaceOnUse"><stop stop-color="#EB862C"/><stop offset="1" stop-color="#E35930"/></linearGradient><linearGradient id="paint2_linear" x1="18.98" y1=".23" x2="18.98" y2="37.73" gradientUnits="userSpaceOnUse"><stop stop-color="#EB862C"/><stop offset="1" stop-color="#E35930"/></linearGradient><linearGradient id="paint3_linear" x1="18.98" y1=".23" x2="18.98" y2="37.73" gradientUnits="userSpaceOnUse"><stop stop-color="#EB862C"/><stop offset="1" stop-color="#E35930"/></linearGradient><linearGradient id="paint4_linear" x1="18.98" y1=".23" x2="18.98" y2="37.73" gradientUnits="userSpaceOnUse"><stop stop-color="#EB862C"/><stop offset="1" stop-color="#E35930"/></linearGradient><linearGradient id="paint5_linear" x1="18.98" y1=".23" x2="18.98" y2="37.73" gradientUnits="userSpaceOnUse"><stop stop-color="#EB862C"/><stop offset="1" stop-color="#E35930"/></linearGradient><linearGradient id="paint6_linear" x1="18.98" y1=".23" x2="18.98" y2="37.73" gradientUnits="userSpaceOnUse"><stop stop-color="#EB862C"/><stop offset="1" stop-color="#E35930"/></linearGradient><linearGradient id="paint7_linear" x1="18.98" y1=".23" x2="18.98" y2="37.73" gradientUnits="userSpaceOnUse"><stop stop-color="#fff"/><stop offset="1" stop-color="#fff" stop-opacity="0"/></linearGradient><linearGradient id="paint8_linear" x1="18.98" y1=".23" x2="18.98" y2="37.73" gradientUnits="userSpaceOnUse"><stop stop-color="#EB862C"/><stop offset="1" stop-color="#E35930"/></linearGradient><linearGradient id="paint9_linear" x1="18.98" y1=".23" x2="18.98" y2="37.73" gradientUnits="userSpaceOnUse"><stop stop-color="#fff"/><stop offset="1" stop-color="#fff" stop-opacity="0"/></linearGradient><linearGradient id="paint10_linear" x1="18.98" y1=".23" x2="18.98" y2="37.73" gradientUnits="userSpaceOnUse"><stop stop-color="#EB862C"/><stop offset="1" stop-color="#E35930"/></linearGradient><linearGradient id="paint11_linear" x1="18.98" y1=".23" x2="18.98" y2="37.73" gradientUnits="userSpaceOnUse"><stop stop-color="#fff"/><stop offset="1" stop-color="#fff" stop-opacity="0"/></linearGradient><linearGradient id="paint12_linear" x1="18.98" y1=".23" x2="18.98" y2="37.73" gradientUnits="userSpaceOnUse"><stop stop-color="#EB862C"/><stop offset="1" stop-color="#E35930"/></linearGradient><linearGradient id="paint13_linear" x1="18.98" y1=".23" x2="18.98" y2="37.73" gradientUnits="userSpaceOnUse"><stop stop-color="#fff"/><stop offset="1" stop-color="#fff" stop-opacity="0"/></linearGradient><linearGradient id="paint14_linear" x1="18.98" y1=".23" x2="18.98" y2="37.73" gradientUnits="userSpaceOnUse"><stop stop-color="#EB862C"/><stop offset="1" stop-color="#E35930"/></linearGradient><linearGradient id="paint15_linear" x1="18.98" y1=".23" x2="18.98" y2="37.73" gradientUnits="userSpaceOnUse"><stop stop-color="#fff"/><stop offset="1" stop-color="#fff" stop-opacity="0"/></linearGradient><linearGradient id="paint16_linear" x1="18.98" y1=".23" x2="18.98" y2="37.73" gradientUnits="userSpaceOnUse"><stop stop-color="#EB862C"/><stop offset="1" stop-color="#E35930"/></linearGradient><linearGradient id="paint17_linear" x1="18.98" y1=".23" x2="18.98" y2="37.73" gradientUnits="userSpaceOnUse"><stop stop-color="#fff"/><stop offset="1" stop-color="#fff" stop-opacity="0"/></linearGradient></defs></svg>