<svg width="40" height="40" viewBox="0 0 40 40" fill="none" xmlns="http://www.w3.org/2000/svg"><g clip-path="url(#clip0)"><mask id="a" maskUnits="userSpaceOnUse" x="3.598" y="-1" width="33" height="42" fill="#000"><path fill="#fff" d="M3.598-1h33v42h-33z"/><path d="M34.414 28.206l-.014-.022a6.795 6.795 0 0 0-.333-.497l-.03-.04-.02-.028a6.665 6.665 0 0 0-.123-.157l-.044-.054-.126-.15-.053-.061a6.758 6.758 0 0 0-.11-.119c-.026-.03-.053-.059-.081-.088l-.064-.063a6.792 6.792 0 0 0-2.928-1.748.585.585 0 0 0-.059-.014l-5.296-.984-.029-.004a1.298 1.298 0 0 0-.728.093 1.365 1.365 0 0 1-.306-.825v-.959c.335-.214.66-.454.974-.724 1.312-1.13 2.139-2.762 2.317-4.541a1.821 1.821 0 0 0 1.734-1.817v-1.366c0-.553-.247-1.064-.664-1.405V9.492c1.915-.944 2.331-2.044 2.331-2.82 0-1.333-1.24-3-3.238-4.353C26.244 1.453 23.565 0 20 0c-3.566 0-6.245 1.453-7.524 2.32C10.478 3.67 9.238 5.338 9.238 6.67c0 .777.416 1.877 2.33 2.82v3.142a1.811 1.811 0 0 0-.663 1.405v1.366c0 .974.77 1.772 1.734 1.817.178 1.78 1.005 3.411 2.317 4.541.314.27.639.51.974.724v.96c0 .286-.122.597-.306.824a1.296 1.296 0 0 0-.757-.089l-5.296.984a.583.583 0 0 0-.059.014 6.793 6.793 0 0 0-2.927 1.746l-.065.066-.08.086a7.51 7.51 0 0 0-.11.12l-.054.06-.126.15-.044.055a6.944 6.944 0 0 0-.122.157l-.022.028-.029.04a6.936 6.936 0 0 0-.333.497l-.014.022a6.79 6.79 0 0 0-.988 3.543v.714a.586.586 0 1 0 1.172 0v-.714c0-.571.085-1.13.248-1.663a1.917 1.917 0 0 0 1.408.41 1.92 1.92 0 0 0 1.298-.709l.638-.791a1.92 1.92 0 0 0 .417-1.419 1.918 1.918 0 0 0-.48-1.082c.168-.068.34-.13.516-.183l3.38-.628 2.682 3.753a1.38 1.38 0 0 0 1.671.47l.179-.076.78.908-1.125 8.089h-7.366v-4.753a.586.586 0 1 0-1.172 0v4.753H6.5a.73.73 0 0 1-.73-.73v-2.907a.586.586 0 0 0-1.172 0v2.907C4.598 39.147 5.45 40 6.5 40h27a1.904 1.904 0 0 0 1.902-1.902v-6.349c0-1.264-.34-2.475-.988-3.543zM8.45 28.26l-.637.791a.756.756 0 0 1-1.069.115l-.245-.197c.053-.094.108-.186.165-.276l.002-.003c.05-.077.101-.152.154-.227l.048-.067c.047-.064.096-.128.145-.19l.039-.048c.056-.069.113-.136.173-.202l.052-.057c.058-.063.118-.126.18-.187l.015-.015c.227-.223.473-.426.736-.609l.128.104a.756.756 0 0 1 .114 1.069zm23.216-1.069l.128-.103c.264.182.51.386.736.608l.015.016c.062.061.122.123.18.187l.053.057c.059.066.116.133.172.202l.039.048a5.693 5.693 0 0 1 .347.484l.002.003c.057.09.112.182.165.276l-.245.197a.756.756 0 0 1-1.069-.115l-.638-.79a.76.76 0 0 1 .115-1.07zm-6.998-1.719l.002-.001.154-.115a.123.123 0 0 1 .095-.022l.615.114-2.364 3.307a.214.214 0 0 1-.26.073l-1.742-.74 3.5-2.616zM20 27.497l-3.416-2.552c.323-.424.518-.963.518-1.5v-.343c.904.379 1.87.577 2.891.588h.014a7.645 7.645 0 0 0 2.891-.588v.343c0 .537.195 1.076.517 1.5L20 27.497zm1.14 1.854l-.533.62h-1.214l-.534-.62L20 28.866l1.14.485zM11.57 8.155c-.753-.465-1.16-.978-1.16-1.485 0-1.056 1.412-2.493 2.724-3.38C14.3 2.498 16.747 1.171 20 1.171S25.699 2.5 26.867 3.29c1.311.888 2.723 2.325 2.723 3.381 0 .507-.406 1.02-1.16 1.485V7.09c0-.828-.56-1.55-1.362-1.754-1.517-.388-4.5-1.039-7.435-1.04h-.008c-2.54 0-5.065.56-6.735 1.03a1.817 1.817 0 0 0-1.321 1.742v1.088zm2.033 2.058l-.025-.016a3.758 3.758 0 0 1-.356-.26 2.322 2.322 0 0 1-.062-.056l-.045-.041a2.1 2.1 0 0 1-.065-.066l-.03-.032-.003-.004h9.84a.586.586 0 0 0 0-1.172H12.741V7.068a.64.64 0 0 1 .466-.614c1.6-.45 4.01-.985 6.418-.985h.007c2.807 0 5.682.628 7.146 1.003.283.072.48.326.48.618v1.477h-1.571a.586.586 0 1 0 0 1.172h1.297c0 .002-.002.003-.003.004l-.03.032a2.104 2.104 0 0 1-.065.066l-.045.041a2.328 2.328 0 0 1-.265.213 5.288 5.288 0 0 1-.178.119 5.785 5.785 0 0 1-.865.438l-.02.01c-1.256.518-3.143.909-5.513.909s-4.257-.391-5.513-.909l-.02-.01a5.786 5.786 0 0 1-.865-.438zm.055 1.362v1.141a3.252 3.252 0 0 0-.916-.304V11.05c.252.18.554.356.916.526zm12.686 0c.362-.17.664-.347.916-.526v1.362a3.254 3.254 0 0 0-.916.305v-1.142zm-10.622 9.298c-1.2-1.034-1.91-2.583-1.945-4.25a.586.586 0 0 0-.586-.573h-.466a.647.647 0 0 1-.647-.647v-1.366c0-.197.088-.38.238-.5.206.018.592.08.92.287l.009.007a1.358 1.358 0 0 1 .21.167.824.824 0 0 0 .055.049l.016.013a.759.759 0 0 0 .043.031l.017.012a.814.814 0 0 0 .125.066l.019.007a.763.763 0 0 0 .136.04.78.78 0 0 0 .07.01l.02.002a.729.729 0 0 0 .053.003h.02a.85.85 0 0 0 .07-.003h.001a.787.787 0 0 0 .071-.011l.02-.004.052-.013.02-.006a.806.806 0 0 0 .566-.77V12.02c1.51.475 3.366.721 5.172.721 1.806 0 3.662-.246 5.17-.721v1.402a.806.806 0 0 0 .567.77.793.793 0 0 0 .073.02l.02.004a.802.802 0 0 0 .142.014h.019a.834.834 0 0 0 .28-.055l.018-.007a.755.755 0 0 0 .125-.066l.018-.012a.768.768 0 0 0 .043-.03l.017-.014a.797.797 0 0 0 .054-.049 1.18 1.18 0 0 1 .136-.116l.005-.004c.021-.016.043-.03.066-.045l.018-.012.06-.035.008-.006.07-.036.017-.008.062-.029.009-.004.072-.029.013-.005a1.99 1.99 0 0 1 .068-.024h.004c.025-.01.05-.017.075-.024l.003-.001c.178-.051.342-.074.453-.084.15.122.238.304.238.5v1.367c0 .357-.29.646-.646.646h-.467a.586.586 0 0 0-.586.574c-.035 1.667-.744 3.216-1.945 4.25-1.245 1.071-2.684 1.625-4.279 1.644-1.595-.02-3.034-.573-4.28-1.644zm1.369 7.954c-.094.04-.2.01-.26-.072l-2.363-3.308.615-.114a.123.123 0 0 1 .095.022l.153.115c.001 0 .002 0 .003.002l3.5 2.615-1.743.74zm1.475 10l1.07-7.685h.73l1.07 7.685h-2.87zm14.935 0h-2.344v-4.753a.586.586 0 1 0-1.172 0v4.753h-7.366l-1.125-8.09.78-.907.179.076a1.38 1.38 0 0 0 1.672-.47l2.681-3.753 3.38.628c.176.053.348.115.517.183a1.935 1.935 0 0 0-.064 2.5l.638.792a1.92 1.92 0 0 0 1.508.72c.434 0 .853-.147 1.198-.42.163.532.248 1.09.248 1.662v6.349a.73.73 0 0 1-.73.73z"/></mask><path d="M34.414 28.206l-.014-.022a6.795 6.795 0 0 0-.333-.497l-.03-.04-.02-.028a6.665 6.665 0 0 0-.123-.157l-.044-.054-.126-.15-.053-.061a6.758 6.758 0 0 0-.11-.119c-.026-.03-.053-.059-.081-.088l-.064-.063a6.792 6.792 0 0 0-2.928-1.748.585.585 0 0 0-.059-.014l-5.296-.984-.029-.004a1.298 1.298 0 0 0-.728.093 1.365 1.365 0 0 1-.306-.825v-.959c.335-.214.66-.454.974-.724 1.312-1.13 2.139-2.762 2.317-4.541a1.821 1.821 0 0 0 1.734-1.817v-1.366c0-.553-.247-1.064-.664-1.405V9.492c1.915-.944 2.331-2.044 2.331-2.82 0-1.333-1.24-3-3.238-4.353C26.244 1.453 23.565 0 20 0c-3.566 0-6.245 1.453-7.524 2.32C10.478 3.67 9.238 5.338 9.238 6.67c0 .777.416 1.877 2.33 2.82v3.142a1.811 1.811 0 0 0-.663 1.405v1.366c0 .974.77 1.772 1.734 1.817.178 1.78 1.005 3.411 2.317 4.541.314.27.639.51.974.724v.96c0 .286-.122.597-.306.824a1.296 1.296 0 0 0-.757-.089l-5.296.984a.583.583 0 0 0-.059.014 6.793 6.793 0 0 0-2.927 1.746l-.065.066-.08.086a7.51 7.51 0 0 0-.11.12l-.054.06-.126.15-.044.055a6.944 6.944 0 0 0-.122.157l-.022.028-.029.04a6.936 6.936 0 0 0-.333.497l-.014.022a6.79 6.79 0 0 0-.988 3.543v.714a.586.586 0 1 0 1.172 0v-.714c0-.571.085-1.13.248-1.663a1.917 1.917 0 0 0 1.408.41 1.92 1.92 0 0 0 1.298-.709l.638-.791a1.92 1.92 0 0 0 .417-1.419 1.918 1.918 0 0 0-.48-1.082c.168-.068.34-.13.516-.183l3.38-.628 2.682 3.753a1.38 1.38 0 0 0 1.671.47l.179-.076.78.908-1.125 8.089h-7.366v-4.753a.586.586 0 1 0-1.172 0v4.753H6.5a.73.73 0 0 1-.73-.73v-2.907a.586.586 0 0 0-1.172 0v2.907C4.598 39.147 5.45 40 6.5 40h27a1.904 1.904 0 0 0 1.902-1.902v-6.349c0-1.264-.34-2.475-.988-3.543zM8.45 28.26l-.637.791a.756.756 0 0 1-1.069.115l-.245-.197c.053-.094.108-.186.165-.276l.002-.003c.05-.077.101-.152.154-.227l.048-.067c.047-.064.096-.128.145-.19l.039-.048c.056-.069.113-.136.173-.202l.052-.057c.058-.063.118-.126.18-.187l.015-.015c.227-.223.473-.426.736-.609l.128.104a.756.756 0 0 1 .114 1.069zm23.216-1.069l.128-.103c.264.182.51.386.736.608l.015.016c.062.061.122.123.18.187l.053.057c.059.066.116.133.172.202l.039.048a5.693 5.693 0 0 1 .347.484l.002.003c.057.09.112.182.165.276l-.245.197a.756.756 0 0 1-1.069-.115l-.638-.79a.76.76 0 0 1 .115-1.07zm-6.998-1.719l.002-.001.154-.115a.123.123 0 0 1 .095-.022l.615.114-2.364 3.307a.214.214 0 0 1-.26.073l-1.742-.74 3.5-2.616zM20 27.497l-3.416-2.552c.323-.424.518-.963.518-1.5v-.343c.904.379 1.87.577 2.891.588h.014a7.645 7.645 0 0 0 2.891-.588v.343c0 .537.195 1.076.517 1.5L20 27.497zm1.14 1.854l-.533.62h-1.214l-.534-.62L20 28.866l1.14.485zM11.57 8.155c-.753-.465-1.16-.978-1.16-1.485 0-1.056 1.412-2.493 2.724-3.38C14.3 2.498 16.747 1.171 20 1.171S25.699 2.5 26.867 3.29c1.311.888 2.723 2.325 2.723 3.381 0 .507-.406 1.02-1.16 1.485V7.09c0-.828-.56-1.55-1.362-1.754-1.517-.388-4.5-1.039-7.435-1.04h-.008c-2.54 0-5.065.56-6.735 1.03a1.817 1.817 0 0 0-1.321 1.742v1.088zm2.033 2.058l-.025-.016a3.758 3.758 0 0 1-.356-.26 2.322 2.322 0 0 1-.062-.056l-.045-.041a2.1 2.1 0 0 1-.065-.066l-.03-.032-.003-.004h9.84a.586.586 0 0 0 0-1.172H12.741V7.068a.64.64 0 0 1 .466-.614c1.6-.45 4.01-.985 6.418-.985h.007c2.807 0 5.682.628 7.146 1.003.283.072.48.326.48.618v1.477h-1.571a.586.586 0 1 0 0 1.172h1.297c0 .002-.002.003-.003.004l-.03.032a2.104 2.104 0 0 1-.065.066l-.045.041a2.328 2.328 0 0 1-.265.213 5.288 5.288 0 0 1-.178.119 5.785 5.785 0 0 1-.865.438l-.02.01c-1.256.518-3.143.909-5.513.909s-4.257-.391-5.513-.909l-.02-.01a5.786 5.786 0 0 1-.865-.438zm.055 1.362v1.141a3.252 3.252 0 0 0-.916-.304V11.05c.252.18.554.356.916.526zm12.686 0c.362-.17.664-.347.916-.526v1.362a3.254 3.254 0 0 0-.916.305v-1.142zm-10.622 9.298c-1.2-1.034-1.91-2.583-1.945-4.25a.586.586 0 0 0-.586-.573h-.466a.647.647 0 0 1-.647-.647v-1.366c0-.197.088-.38.238-.5.206.018.592.08.92.287l.009.007a1.358 1.358 0 0 1 .21.167.824.824 0 0 0 .055.049l.016.013a.759.759 0 0 0 .043.031l.017.012a.814.814 0 0 0 .125.066l.019.007a.763.763 0 0 0 .136.04.78.78 0 0 0 .07.01l.02.002a.729.729 0 0 0 .053.003h.02a.85.85 0 0 0 .07-.003h.001a.787.787 0 0 0 .071-.011l.02-.004.052-.013.02-.006a.806.806 0 0 0 .566-.77V12.02c1.51.475 3.366.721 5.172.721 1.806 0 3.662-.246 5.17-.721v1.402a.806.806 0 0 0 .567.77.793.793 0 0 0 .073.02l.02.004a.802.802 0 0 0 .142.014h.019a.834.834 0 0 0 .28-.055l.018-.007a.755.755 0 0 0 .125-.066l.018-.012a.768.768 0 0 0 .043-.03l.017-.014a.797.797 0 0 0 .054-.049 1.18 1.18 0 0 1 .136-.116l.005-.004c.021-.016.043-.03.066-.045l.018-.012.06-.035.008-.006.07-.036.017-.008.062-.029.009-.004.072-.029.013-.005a1.99 1.99 0 0 1 .068-.024h.004c.025-.01.05-.017.075-.024l.003-.001c.178-.051.342-.074.453-.084.15.122.238.304.238.5v1.367c0 .357-.29.646-.646.646h-.467a.586.586 0 0 0-.586.574c-.035 1.667-.744 3.216-1.945 4.25-1.245 1.071-2.684 1.625-4.279 1.644-1.595-.02-3.034-.573-4.28-1.644zm1.369 7.954c-.094.04-.2.01-.26-.072l-2.363-3.308.615-.114a.123.123 0 0 1 .095.022l.153.115c.001 0 .002 0 .003.002l3.5 2.615-1.743.74zm1.475 10l1.07-7.685h.73l1.07 7.685h-2.87zm14.935 0h-2.344v-4.753a.586.586 0 1 0-1.172 0v4.753h-7.366l-1.125-8.09.78-.907.179.076a1.38 1.38 0 0 0 1.672-.47l2.681-3.753 3.38.628c.176.053.348.115.517.183a1.935 1.935 0 0 0-.064 2.5l.638.792a1.92 1.92 0 0 0 1.508.72c.434 0 .853-.147 1.198-.42.163.532.248 1.09.248 1.662v6.349a.73.73 0 0 1-.73.73z" fill="url(#paint0_linear)"/><path d="M34.414 28.206l-.014-.022a6.795 6.795 0 0 0-.333-.497l-.03-.04-.02-.028a6.665 6.665 0 0 0-.123-.157l-.044-.054-.126-.15-.053-.061a6.758 6.758 0 0 0-.11-.119c-.026-.03-.053-.059-.081-.088l-.064-.063a6.792 6.792 0 0 0-2.928-1.748.585.585 0 0 0-.059-.014l-5.296-.984-.029-.004a1.298 1.298 0 0 0-.728.093 1.365 1.365 0 0 1-.306-.825v-.959c.335-.214.66-.454.974-.724 1.312-1.13 2.139-2.762 2.317-4.541a1.821 1.821 0 0 0 1.734-1.817v-1.366c0-.553-.247-1.064-.664-1.405V9.492c1.915-.944 2.331-2.044 2.331-2.82 0-1.333-1.24-3-3.238-4.353C26.244 1.453 23.565 0 20 0c-3.566 0-6.245 1.453-7.524 2.32C10.478 3.67 9.238 5.338 9.238 6.67c0 .777.416 1.877 2.33 2.82v3.142a1.811 1.811 0 0 0-.663 1.405v1.366c0 .974.77 1.772 1.734 1.817.178 1.78 1.005 3.411 2.317 4.541.314.27.639.51.974.724v.96c0 .286-.122.597-.306.824a1.296 1.296 0 0 0-.757-.089l-5.296.984a.583.583 0 0 0-.059.014 6.793 6.793 0 0 0-2.927 1.746l-.065.066-.08.086a7.51 7.51 0 0 0-.11.12l-.054.06-.126.15-.044.055a6.944 6.944 0 0 0-.122.157l-.022.028-.029.04a6.936 6.936 0 0 0-.333.497l-.014.022a6.79 6.79 0 0 0-.988 3.543v.714a.586.586 0 1 0 1.172 0v-.714c0-.571.085-1.13.248-1.663a1.917 1.917 0 0 0 1.408.41 1.92 1.92 0 0 0 1.298-.709l.638-.791a1.92 1.92 0 0 0 .417-1.419 1.918 1.918 0 0 0-.48-1.082c.168-.068.34-.13.516-.183l3.38-.628 2.682 3.753a1.38 1.38 0 0 0 1.671.47l.179-.076.78.908-1.125 8.089h-7.366v-4.753a.586.586 0 1 0-1.172 0v4.753H6.5a.73.73 0 0 1-.73-.73v-2.907a.586.586 0 0 0-1.172 0v2.907C4.598 39.147 5.45 40 6.5 40h27a1.904 1.904 0 0 0 1.902-1.902v-6.349c0-1.264-.34-2.475-.988-3.543zM8.45 28.26l-.637.791a.756.756 0 0 1-1.069.115l-.245-.197c.053-.094.108-.186.165-.276l.002-.003c.05-.077.101-.152.154-.227l.048-.067c.047-.064.096-.128.145-.19l.039-.048c.056-.069.113-.136.173-.202l.052-.057c.058-.063.118-.126.18-.187l.015-.015c.227-.223.473-.426.736-.609l.128.104a.756.756 0 0 1 .114 1.069zm23.216-1.069l.128-.103c.264.182.51.386.736.608l.015.016c.062.061.122.123.18.187l.053.057c.059.066.116.133.172.202l.039.048a5.693 5.693 0 0 1 .347.484l.002.003c.057.09.112.182.165.276l-.245.197a.756.756 0 0 1-1.069-.115l-.638-.79a.76.76 0 0 1 .115-1.07zm-6.998-1.719l.002-.001.154-.115a.123.123 0 0 1 .095-.022l.615.114-2.364 3.307a.214.214 0 0 1-.26.073l-1.742-.74 3.5-2.616zM20 27.497l-3.416-2.552c.323-.424.518-.963.518-1.5v-.343c.904.379 1.87.577 2.891.588h.014a7.645 7.645 0 0 0 2.891-.588v.343c0 .537.195 1.076.517 1.5L20 27.497zm1.14 1.854l-.533.62h-1.214l-.534-.62L20 28.866l1.14.485zM11.57 8.155c-.753-.465-1.16-.978-1.16-1.485 0-1.056 1.412-2.493 2.724-3.38C14.3 2.498 16.747 1.171 20 1.171S25.699 2.5 26.867 3.29c1.311.888 2.723 2.325 2.723 3.381 0 .507-.406 1.02-1.16 1.485V7.09c0-.828-.56-1.55-1.362-1.754-1.517-.388-4.5-1.039-7.435-1.04h-.008c-2.54 0-5.065.56-6.735 1.03a1.817 1.817 0 0 0-1.321 1.742v1.088zm2.033 2.058l-.025-.016a3.758 3.758 0 0 1-.356-.26 2.322 2.322 0 0 1-.062-.056l-.045-.041a2.1 2.1 0 0 1-.065-.066l-.03-.032-.003-.004h9.84a.586.586 0 0 0 0-1.172H12.741V7.068a.64.64 0 0 1 .466-.614c1.6-.45 4.01-.985 6.418-.985h.007c2.807 0 5.682.628 7.146 1.003.283.072.48.326.48.618v1.477h-1.571a.586.586 0 1 0 0 1.172h1.297c0 .002-.002.003-.003.004l-.03.032a2.104 2.104 0 0 1-.065.066l-.045.041a2.328 2.328 0 0 1-.265.213 5.288 5.288 0 0 1-.178.119 5.785 5.785 0 0 1-.865.438l-.02.01c-1.256.518-3.143.909-5.513.909s-4.257-.391-5.513-.909l-.02-.01a5.786 5.786 0 0 1-.865-.438zm.055 1.362v1.141a3.252 3.252 0 0 0-.916-.304V11.05c.252.18.554.356.916.526zm12.686 0c.362-.17.664-.347.916-.526v1.362a3.254 3.254 0 0 0-.916.305v-1.142zm-10.622 9.298c-1.2-1.034-1.91-2.583-1.945-4.25a.586.586 0 0 0-.586-.573h-.466a.647.647 0 0 1-.647-.647v-1.366c0-.197.088-.38.238-.5.206.018.592.08.92.287l.009.007a1.358 1.358 0 0 1 .21.167.824.824 0 0 0 .055.049l.016.013a.759.759 0 0 0 .043.031l.017.012a.814.814 0 0 0 .125.066l.019.007a.763.763 0 0 0 .136.04.78.78 0 0 0 .07.01l.02.002a.729.729 0 0 0 .053.003h.02a.85.85 0 0 0 .07-.003h.001a.787.787 0 0 0 .071-.011l.02-.004.052-.013.02-.006a.806.806 0 0 0 .566-.77V12.02c1.51.475 3.366.721 5.172.721 1.806 0 3.662-.246 5.17-.721v1.402a.806.806 0 0 0 .567.77.793.793 0 0 0 .073.02l.02.004a.802.802 0 0 0 .142.014h.019a.834.834 0 0 0 .28-.055l.018-.007a.755.755 0 0 0 .125-.066l.018-.012a.768.768 0 0 0 .043-.03l.017-.014a.797.797 0 0 0 .054-.049 1.18 1.18 0 0 1 .136-.116l.005-.004c.021-.016.043-.03.066-.045l.018-.012.06-.035.008-.006.07-.036.017-.008.062-.029.009-.004.072-.029.013-.005a1.99 1.99 0 0 1 .068-.024h.004c.025-.01.05-.017.075-.024l.003-.001c.178-.051.342-.074.453-.084.15.122.238.304.238.5v1.367c0 .357-.29.646-.646.646h-.467a.586.586 0 0 0-.586.574c-.035 1.667-.744 3.216-1.945 4.25-1.245 1.071-2.684 1.625-4.279 1.644-1.595-.02-3.034-.573-4.28-1.644zm1.369 7.954c-.094.04-.2.01-.26-.072l-2.363-3.308.615-.114a.123.123 0 0 1 .095.022l.153.115c.001 0 .002 0 .003.002l3.5 2.615-1.743.74zm1.475 10l1.07-7.685h.73l1.07 7.685h-2.87zm14.935 0h-2.344v-4.753a.586.586 0 1 0-1.172 0v4.753h-7.366l-1.125-8.09.78-.907.179.076a1.38 1.38 0 0 0 1.672-.47l2.681-3.753 3.38.628c.176.053.348.115.517.183a1.935 1.935 0 0 0-.064 2.5l.638.792a1.92 1.92 0 0 0 1.508.72c.434 0 .853-.147 1.198-.42.163.532.248 1.09.248 1.662v6.349a.73.73 0 0 1-.73.73z" stroke="url(#paint1_linear)" stroke-width=".6" mask="url(#a)"/><path d="M28 33.339h-3.086c-.61 0-1.108.497-1.108 1.108v1.644c0 .61.497 1.108 1.108 1.108H28c.61 0 1.107-.497 1.107-1.108v-1.645c0-.61-.497-1.107-1.107-1.107zm-2.721 2.387v-.915h2.357v.915h-2.357z" fill="url(#paint2_linear)" stroke="url(#paint3_linear)" stroke-width=".3"/><path d="M15.086 33.339h-3.087c-.61 0-1.107.497-1.107 1.107v1.645c0 .61.497 1.107 1.107 1.107h3.087c.61 0 1.107-.496 1.107-1.107v-1.645c0-.61-.496-1.107-1.107-1.107zm-.365 2.387h-2.357v-.915h2.357v.915z" fill="url(#paint4_linear)" stroke="url(#paint5_linear)" stroke-width=".3"/></g><defs><linearGradient id="paint0_linear" x1="20" x2="20" y2="40" gradientUnits="userSpaceOnUse"><stop stop-color="#EB862C"/><stop offset="1" stop-color="#E35930"/></linearGradient><linearGradient id="paint1_linear" x1="20" x2="20" y2="40" gradientUnits="userSpaceOnUse"><stop stop-color="#EB862C"/><stop offset="1" stop-color="#E35930"/></linearGradient><linearGradient id="paint2_linear" x1="26.457" y1="33.489" x2="26.457" y2="37.048" gradientUnits="userSpaceOnUse"><stop stop-color="#EB862C"/><stop offset="1" stop-color="#E35930"/></linearGradient><linearGradient id="paint3_linear" x1="26.457" y1="33.489" x2="26.457" y2="37.048" gradientUnits="userSpaceOnUse"><stop stop-color="#EB862C"/><stop offset="1" stop-color="#E35930"/></linearGradient><linearGradient id="paint4_linear" x1="13.543" y1="33.489" x2="13.543" y2="37.048" gradientUnits="userSpaceOnUse"><stop stop-color="#EB862C"/><stop offset="1" stop-color="#E35930"/></linearGradient><linearGradient id="paint5_linear" x1="13.543" y1="33.489" x2="13.543" y2="37.048" gradientUnits="userSpaceOnUse"><stop stop-color="#EB862C"/><stop offset="1" stop-color="#E35930"/></linearGradient><clipPath id="clip0"><path fill="#fff" d="M0 0h40v40H0z"/></clipPath></defs></svg>