<svg width="54" height="54" viewBox="0 0 54 54" fill="none" xmlns="http://www.w3.org/2000/svg"><path d="M36.95 5H11.685a2.581 2.581 0 0 0-2.578 2.578v8.766a.86.86 0 0 0 1.718 0V7.578a.86.86 0 0 1 .86-.86H36.95a.86.86 0 0 1 .86.86v31.969a.86.86 0 0 1-.86.86H11.685a.86.86 0 0 1-.86-.86V23.59a.86.86 0 0 0-1.718 0v15.956a2.581 2.581 0 0 0 2.578 2.578H36.95a2.581 2.581 0 0 0 2.578-2.578V7.578A2.581 2.581 0 0 0 36.95 5z" fill="url(#paint0_linear)"/><path d="M10.573 19.584a.865.865 0 0 0-1.215 0 .869.869 0 0 0-.251.608c0 .226.092.447.251.608.16.16.382.252.608.252a.866.866 0 0 0 .607-.252.866.866 0 0 0 .252-.608.868.868 0 0 0-.252-.608z" fill="url(#paint1_linear)"/><path d="M14.016 44.1a.864.864 0 0 0-.607-.25.866.866 0 0 0-.608.25.865.865 0 0 0-.252.608.862.862 0 0 0 1.467.608c.16-.16.252-.38.252-.608a.866.866 0 0 0-.252-.607z" fill="url(#paint2_linear)"/><path d="M42.112 8.443a.86.86 0 0 0-.86.86V42.99a.86.86 0 0 1-.859.86H16.846a.86.86 0 0 0 0 1.718h23.547a2.581 2.581 0 0 0 2.578-2.578V9.302a.86.86 0 0 0-.859-.86z" fill="url(#paint3_linear)"/><path d="M45.555 11.875a.86.86 0 0 0-.86.86v33.687a.86.86 0 0 1-.859.86H16.852a.86.86 0 0 0 0 1.718h26.984a2.581 2.581 0 0 0 2.578-2.578V12.734a.86.86 0 0 0-.859-.859z" fill="url(#paint4_linear)"/><path d="M23.029 11.36h-8.25a.86.86 0 0 0-.86.859v8.25c0 .474.385.86.86.86h8.25a.86.86 0 0 0 .859-.86v-8.25a.86.86 0 0 0-.86-.86zm-.86 8.25h-6.531v-6.532h6.531v6.531z" fill="url(#paint5_linear)"/><path d="M20.263 25.23a.86.86 0 0 0-1.215 0l-2.284 2.284L15.7 26.45a.86.86 0 0 0-1.215 1.216l1.67 1.67a.86.86 0 0 0 1.215 0l2.892-2.892a.86.86 0 0 0 0-1.216z" fill="url(#paint6_linear)"/><path d="M34.344 26.398H24.318a.86.86 0 0 0 0 1.72h10.026a.86.86 0 0 0 0-1.72z" fill="url(#paint7_linear)"/><path d="M33.857 11.36H27.84a.86.86 0 0 0 0 1.718h6.016a.86.86 0 1 0 0-1.719z" fill="url(#paint8_linear)"/><path d="M33.857 15.484H27.84a.86.86 0 0 0 0 1.72h6.016a.86.86 0 1 0 0-1.72z" fill="url(#paint9_linear)"/><path d="M33.857 19.61H27.84a.86.86 0 0 0 0 1.718h6.016a.86.86 0 1 0 0-1.719z" fill="url(#paint10_linear)"/><path d="M20.263 31.793a.86.86 0 0 0-1.215 0l-2.284 2.284-1.063-1.062a.86.86 0 0 0-1.215 1.215l1.67 1.67a.86.86 0 0 0 1.215 0l2.892-2.892a.86.86 0 0 0 0-1.215z" fill="url(#paint11_linear)"/><path d="M34.344 32.93H24.318a.86.86 0 1 0 0 1.718h10.026a.86.86 0 1 0 0-1.718z" fill="url(#paint12_linear)"/><defs><linearGradient id="paint0_linear" x1="24.318" y1="5" x2="24.318" y2="42.125" gradientUnits="userSpaceOnUse"><stop stop-color="#EB862C"/><stop offset="1" stop-color="#E35930"/></linearGradient><linearGradient id="paint1_linear" x1="9.966" y1="19.333" x2="9.966" y2="21.052" gradientUnits="userSpaceOnUse"><stop stop-color="#EB862C"/><stop offset="1" stop-color="#E35930"/></linearGradient><linearGradient id="paint2_linear" x1="13.409" y1="43.849" x2="13.409" y2="45.568" gradientUnits="userSpaceOnUse"><stop stop-color="#EB862C"/><stop offset="1" stop-color="#E35930"/></linearGradient><linearGradient id="paint3_linear" x1="29.479" y1="8.443" x2="29.479" y2="45.568" gradientUnits="userSpaceOnUse"><stop stop-color="#EB862C"/><stop offset="1" stop-color="#E35930"/></linearGradient><linearGradient id="paint4_linear" x1="31.203" y1="11.875" x2="31.203" y2="49" gradientUnits="userSpaceOnUse"><stop stop-color="#EB862C"/><stop offset="1" stop-color="#E35930"/></linearGradient><linearGradient id="paint5_linear" x1="18.904" y1="11.359" x2="18.904" y2="21.328" gradientUnits="userSpaceOnUse"><stop stop-color="#EB862C"/><stop offset="1" stop-color="#E35930"/></linearGradient><linearGradient id="paint6_linear" x1="17.375" y1="24.977" x2="17.375" y2="29.588" gradientUnits="userSpaceOnUse"><stop stop-color="#EB862C"/><stop offset="1" stop-color="#E35930"/></linearGradient><linearGradient id="paint7_linear" x1="29.331" y1="26.398" x2="29.331" y2="28.117" gradientUnits="userSpaceOnUse"><stop stop-color="#EB862C"/><stop offset="1" stop-color="#E35930"/></linearGradient><linearGradient id="paint8_linear" x1="30.849" y1="11.359" x2="30.849" y2="13.078" gradientUnits="userSpaceOnUse"><stop stop-color="#EB862C"/><stop offset="1" stop-color="#E35930"/></linearGradient><linearGradient id="paint9_linear" x1="30.849" y1="15.484" x2="30.849" y2="17.203" gradientUnits="userSpaceOnUse"><stop stop-color="#EB862C"/><stop offset="1" stop-color="#E35930"/></linearGradient><linearGradient id="paint10_linear" x1="30.849" y1="19.609" x2="30.849" y2="21.328" gradientUnits="userSpaceOnUse"><stop stop-color="#EB862C"/><stop offset="1" stop-color="#E35930"/></linearGradient><linearGradient id="paint11_linear" x1="17.375" y1="31.541" x2="17.375" y2="36.152" gradientUnits="userSpaceOnUse"><stop stop-color="#EB862C"/><stop offset="1" stop-color="#E35930"/></linearGradient><linearGradient id="paint12_linear" x1="29.331" y1="32.93" x2="29.331" y2="34.648" gradientUnits="userSpaceOnUse"><stop stop-color="#EB862C"/><stop offset="1" stop-color="#E35930"/></linearGradient></defs></svg>