<svg width="54" height="54" viewBox="0 0 54 54" fill="none" xmlns="http://www.w3.org/2000/svg"><g clip-path="url(#clip0)"><path d="M30.125 40.144l1.718-1.719 1.216 1.216-1.72 1.718-1.214-1.215z" fill="url(#paint0_linear)"/><path d="M24.17 46.099a.86.86 0 0 1-1.216 0l-2.517-2.517-1.216 1.215 2.518 2.517a2.572 2.572 0 0 0 1.823.753c.66 0 1.32-.251 1.823-.754l4.949-4.948-1.215-1.215-4.95 4.949z" fill="url(#paint1_linear)"/><path d="M30.438 0L18.405 12.033 7.892 1.52A3.998 3.998 0 0 0 5.083.356c-1.046 0-2.07.424-2.809 1.164l-.754.754a3.945 3.945 0 0 0-1.164 2.81c0 1.06.412 2.057 1.164 2.808l10.513 10.513L0 30.438 23.562 54 54 23.562 30.438 0zm-6.17 24.268l-3.18-.455 2.726-2.726.454 3.18zM7.232 8.448l13.396 13.395-1.363 1.363L5.869 9.81l1.363-1.363zm14.611 12.18L8.447 7.232 9.81 5.869l13.396 13.396-1.363 1.363zM2.075 5.083c0-.602.234-1.167.66-1.593l.755-.756c.838-.839 2.348-.839 3.187 0l1.918 1.92-3.942 3.94-1.918-1.917a2.238 2.238 0 0 1-.66-1.594zm.356 25.355l10.817-10.817 5.612 5.611 7.434 1.062-1.062-7.434-5.611-5.612L30.438 2.431l21.131 21.131L23.562 51.57 2.431 30.438z" fill="url(#paint2_linear)"/><path d="M36.749 16.686a7.392 7.392 0 0 0-5.26 2.18l-1.763 1.762 3.646 3.646 1.762-1.762a2.272 2.272 0 0 1 1.615-.669 2.286 2.286 0 0 1 2.284 2.283 2.27 2.27 0 0 1-.669 1.615A4.33 4.33 0 0 1 35.326 27H30.23l-.79.792-6.2 6.979 2.863 2.862 6.23-5.476h2.992a9.388 9.388 0 0 0 6.684-2.77 7.385 7.385 0 0 0 2.18-5.26c0-4.103-3.338-7.441-7.44-7.441zm4.046 11.486a7.683 7.683 0 0 1-5.47 2.266h-3.639l-5.507 4.839-.576-.576 5.088-5.73.25-.252h4.385a6.06 6.06 0 0 0 4.254-1.762 3.98 3.98 0 0 0 1.172-2.83 4.007 4.007 0 0 0-4.003-4.003 3.981 3.981 0 0 0-2.83 1.172l-.547.547-1.215-1.215.546-.547a5.685 5.685 0 0 1 4.046-1.676 5.728 5.728 0 0 1 5.722 5.721 5.681 5.681 0 0 1-1.676 4.046z" fill="url(#paint3_linear)"/><path d="M19.265 39.033a2.582 2.582 0 0 0 2.578 2.578 2.582 2.582 0 0 0 2.579-2.578 2.582 2.582 0 0 0-2.579-2.578 2.581 2.581 0 0 0-2.578 2.578zm2.578-.86a.86.86 0 1 1-.002 1.721.86.86 0 0 1 .002-1.72z" fill="url(#paint4_linear)"/><path d="M28.97 6.98l1.216-1.215 6.016 6.016-1.216 1.215L28.97 6.98z" fill="url(#paint5_linear)"/><path d="M26.392 9.559l1.215-1.216 6.016 6.016-1.215 1.216-6.016-6.016z" fill="url(#paint6_linear)"/><path d="M23.814 12.137l1.215-1.216 6.016 6.016-1.216 1.216-6.015-6.016z" fill="url(#paint7_linear)"/><path d="M11.78 25.03l1.216-1.216 8.595 8.594-1.216 1.216-8.594-8.595z" fill="url(#paint8_linear)"/><path d="M9.202 27.608l1.216-1.215 8.594 8.594-1.215 1.216-8.595-8.595z" fill="url(#paint9_linear)"/><path d="M6.624 30.186l1.215-1.215 8.595 8.594-1.215 1.216-8.595-8.595z" fill="url(#paint10_linear)"/></g><defs><linearGradient id="paint0_linear" x1="31.592" y1="38.425" x2="31.592" y2="41.359" gradientUnits="userSpaceOnUse"><stop stop-color="#EB862C"/><stop offset="1" stop-color="#E35930"/></linearGradient><linearGradient id="paint1_linear" x1="24.778" y1="41.15" x2="24.778" y2="48.067" gradientUnits="userSpaceOnUse"><stop stop-color="#EB862C"/><stop offset="1" stop-color="#E35930"/></linearGradient><linearGradient id="paint2_linear" x1="27" x2="27" y2="54" gradientUnits="userSpaceOnUse"><stop stop-color="#EB862C"/><stop offset="1" stop-color="#E35930"/></linearGradient><linearGradient id="paint3_linear" x1="33.715" y1="16.686" x2="33.715" y2="37.633" gradientUnits="userSpaceOnUse"><stop stop-color="#EB862C"/><stop offset="1" stop-color="#E35930"/></linearGradient><linearGradient id="paint4_linear" x1="21.843" y1="36.455" x2="21.843" y2="41.611" gradientUnits="userSpaceOnUse"><stop stop-color="#EB862C"/><stop offset="1" stop-color="#E35930"/></linearGradient><linearGradient id="paint5_linear" x1="32.586" y1="5.765" x2="32.586" y2="12.996" gradientUnits="userSpaceOnUse"><stop stop-color="#EB862C"/><stop offset="1" stop-color="#E35930"/></linearGradient><linearGradient id="paint6_linear" x1="30.008" y1="8.343" x2="30.008" y2="15.575" gradientUnits="userSpaceOnUse"><stop stop-color="#EB862C"/><stop offset="1" stop-color="#E35930"/></linearGradient><linearGradient id="paint7_linear" x1="27.429" y1="10.921" x2="27.429" y2="18.153" gradientUnits="userSpaceOnUse"><stop stop-color="#EB862C"/><stop offset="1" stop-color="#E35930"/></linearGradient><linearGradient id="paint8_linear" x1="16.686" y1="23.814" x2="16.686" y2="33.624" gradientUnits="userSpaceOnUse"><stop stop-color="#EB862C"/><stop offset="1" stop-color="#E35930"/></linearGradient><linearGradient id="paint9_linear" x1="14.107" y1="26.393" x2="14.107" y2="36.203" gradientUnits="userSpaceOnUse"><stop stop-color="#EB862C"/><stop offset="1" stop-color="#E35930"/></linearGradient><linearGradient id="paint10_linear" x1="11.529" y1="28.971" x2="11.529" y2="38.781" gradientUnits="userSpaceOnUse"><stop stop-color="#EB862C"/><stop offset="1" stop-color="#E35930"/></linearGradient><clipPath id="clip0"><path fill="#fff" d="M0 0h54v54H0z"/></clipPath></defs></svg>