<svg width="40" height="40" viewBox="0 0 40 40" fill="none" xmlns="http://www.w3.org/2000/svg"><g clip-path="url(#clip0)"><path d="M12.672 20.669c0 .368.299.666.667.666h5.332a.667.667 0 0 0 .667-.666v-5.333a3.332 3.332 0 0 0-2.474-3.206 4 4 0 1 0-5.716 0 3.333 3.333 0 0 0-2.475 3.206v2.292a.667.667 0 0 0 1.333 0v-2.292a2 2 0 0 1 2-2h3.999a2 2 0 0 1 2 2v4.666h-4.666a.666.666 0 0 0-.667.667zM14.005 6.67a2.666 2.666 0 1 1 0 5.332 2.666 2.666 0 0 1 0-5.332z" fill="url(#paint0_linear)"/><path d="M16.005 16.67a.666.666 0 1 0 0-1.334h-1.333a.667.667 0 0 0 0 1.333h1.333z" fill="url(#paint1_linear)"/><path d="M39.415 33.758l-8.013-8.013a2.051 2.051 0 0 0-2.266-.379l-3.532-3.532c4.23-6.264 2.725-14.756-3.402-19.182C16.075-1.775 7.54-.538 2.922 5.447-1.695 11.43-.728 20 5.11 24.805a.666.666 0 1 0 .848-1.03C.588 19.38-.248 11.483 4.081 6.059c4.328-5.424 12.213-6.36 17.692-2.1 5.479 4.259 6.515 12.131 2.325 17.664-.16.212-.322.42-.495.62-.015.019-.031.035-.047.053-.387.446-.806.864-1.252 1.252l-.061.056c-.2.17-.404.333-.613.489a12.586 12.586 0 0 1-7.625 2.576c-.21 0-.42-.01-.63-.022a.668.668 0 1 0-.073 1.333c.234.013.467.024.703.024 2.791.003 5.519-.833 7.828-2.4l3.914 3.914c.26.26.682.26.942 0l2.828-2.828a.684.684 0 0 1 .943 0l8.012 8.013c.26.26.26.681 0 .942l-2.827 2.828a.666.666 0 0 1-.943 0L29.45 33.22a.667.667 0 0 0-.943.942l5.251 5.251a2 2 0 0 0 2.829 0l2.827-2.827a2 2 0 0 0 0-2.828v-.002zM24.796 22.909l3.307 3.307-1.885 1.886-3.307-3.308a14.117 14.117 0 0 0 1.885-1.885z" fill="url(#paint2_linear)"/><path d="M14.005 24.002a.667.667 0 1 0 0 1.333A11.294 11.294 0 0 0 24.966 11.17a.667.667 0 0 0-1.29.333 9.96 9.96 0 0 1-9.67 12.498z" fill="url(#paint3_linear)"/><path d="M19.488 4.089a11.324 11.324 0 0 0-13.05 18.334.667.667 0 1 0 .89-.991A9.991 9.991 0 0 1 18.842 5.255a.667.667 0 1 0 .646-1.166z" fill="url(#paint4_linear)"/><path d="M6.007 35.333a.667.667 0 0 0 0 1.333h4a.666.666 0 1 0 0-1.333h-4z" fill="url(#paint5_linear)"/><path d="M18.671 29.334H11.34v-8.665a.666.666 0 0 0-1.245-.334l-5.14 8.999h-.947a2 2 0 0 0-2 2v6.665a2 2 0 0 0 2 2h14.664a2 2 0 0 0 2-2v-1.333a.667.667 0 0 0-1.333 0v1.333a.667.667 0 0 1-.667.666H4.007A.667.667 0 0 1 3.341 38v-6.666c0-.368.298-.666.666-.666H5.34c.239 0 .46-.127.579-.333l4.087-7.155V30c0 .368.299.667.667.667h7.998c.368 0 .667.298.667.666v1.334a.666.666 0 1 0 1.333 0v-1.334a2 2 0 0 0-2-2z" fill="url(#paint6_linear)"/><path d="M12.672 33.333a.667.667 0 0 0-.666-.666H7.34a.667.667 0 0 0 0 1.333h4.666a.666.666 0 0 0 .666-.667z" fill="url(#paint7_linear)"/><path d="M18.005 33.333a.667.667 0 0 0-.667-.666h-2.666a.667.667 0 0 0 0 1.333h2.666a.666.666 0 0 0 .666-.667z" fill="url(#paint8_linear)"/><path d="M12.672 36.666h2.666a.666.666 0 1 0 0-1.333h-2.666a.667.667 0 0 0 0 1.333z" fill="url(#paint9_linear)"/><path d="M29.336 5.338h5.999a.667.667 0 0 0 0-1.333h-6a.667.667 0 0 0 0 1.333z" fill="url(#paint10_linear)"/><path d="M29.336 8.671h5.999a.667.667 0 0 0 0-1.333h-6a.667.667 0 0 0 0 1.333z" fill="url(#paint11_linear)"/><path d="M35.335 10.67h-3.333a.666.666 0 1 0 0 1.334h3.333a.667.667 0 0 0 0-1.333z" fill="url(#paint12_linear)"/><path d="M35.335 14.003h-3.333a.666.666 0 1 0 0 1.333h3.333a.667.667 0 0 0 0-1.333z" fill="url(#paint13_linear)"/><path d="M30.669 19.336a.667.667 0 0 0 0 1.333h4c.736 0 1.332-.597 1.332-1.333v-1.333c0-.737-.596-1.334-1.333-1.334H30.67a.667.667 0 0 0 0 1.334h4v1.333h-4z" fill="url(#paint14_linear)"/></g><defs><linearGradient id="paint0_linear" x1="14.005" y1="5.333" x2="14.005" y2="21.335" gradientUnits="userSpaceOnUse"><stop stop-color="#EB862C"/><stop offset="1" stop-color="#E35930"/></linearGradient><linearGradient id="paint1_linear" x1="15.338" y1="15.336" x2="15.338" y2="16.669" gradientUnits="userSpaceOnUse"><stop stop-color="#EB862C"/><stop offset="1" stop-color="#E35930"/></linearGradient><linearGradient id="paint2_linear" x1="20.004" y1="-.001" x2="20.004" y2="40" gradientUnits="userSpaceOnUse"><stop stop-color="#EB862C"/><stop offset="1" stop-color="#E35930"/></linearGradient><linearGradient id="paint3_linear" x1="19.338" y1="10.671" x2="19.338" y2="25.335" gradientUnits="userSpaceOnUse"><stop stop-color="#EB862C"/><stop offset="1" stop-color="#E35930"/></linearGradient><linearGradient id="paint4_linear" x1="11.252" y1="2.668" x2="11.252" y2="22.601" gradientUnits="userSpaceOnUse"><stop stop-color="#EB862C"/><stop offset="1" stop-color="#E35930"/></linearGradient><linearGradient id="paint5_linear" x1="8.006" y1="35.333" x2="8.006" y2="36.666" gradientUnits="userSpaceOnUse"><stop stop-color="#EB862C"/><stop offset="1" stop-color="#E35930"/></linearGradient><linearGradient id="paint6_linear" x1="11.339" y1="20" x2="11.339" y2="39.998" gradientUnits="userSpaceOnUse"><stop stop-color="#EB862C"/><stop offset="1" stop-color="#E35930"/></linearGradient><linearGradient id="paint7_linear" x1="9.673" y1="32.667" x2="9.673" y2="34" gradientUnits="userSpaceOnUse"><stop stop-color="#EB862C"/><stop offset="1" stop-color="#E35930"/></linearGradient><linearGradient id="paint8_linear" x1="16.005" y1="32.667" x2="16.005" y2="34" gradientUnits="userSpaceOnUse"><stop stop-color="#EB862C"/><stop offset="1" stop-color="#E35930"/></linearGradient><linearGradient id="paint9_linear" x1="14.005" y1="35.333" x2="14.005" y2="36.666" gradientUnits="userSpaceOnUse"><stop stop-color="#EB862C"/><stop offset="1" stop-color="#E35930"/></linearGradient><linearGradient id="paint10_linear" x1="32.335" y1="4.005" x2="32.335" y2="5.338" gradientUnits="userSpaceOnUse"><stop stop-color="#EB862C"/><stop offset="1" stop-color="#E35930"/></linearGradient><linearGradient id="paint11_linear" x1="32.335" y1="7.338" x2="32.335" y2="8.671" gradientUnits="userSpaceOnUse"><stop stop-color="#EB862C"/><stop offset="1" stop-color="#E35930"/></linearGradient><linearGradient id="paint12_linear" x1="33.669" y1="10.671" x2="33.669" y2="12.004" gradientUnits="userSpaceOnUse"><stop stop-color="#EB862C"/><stop offset="1" stop-color="#E35930"/></linearGradient><linearGradient id="paint13_linear" x1="33.669" y1="14.003" x2="33.669" y2="15.336" gradientUnits="userSpaceOnUse"><stop stop-color="#EB862C"/><stop offset="1" stop-color="#E35930"/></linearGradient><linearGradient id="paint14_linear" x1="33.002" y1="16.669" x2="33.002" y2="20.669" gradientUnits="userSpaceOnUse"><stop stop-color="#EB862C"/><stop offset="1" stop-color="#E35930"/></linearGradient><clipPath id="clip0"><path fill="#fff" d="M0 0h40v40H0z"/></clipPath></defs></svg>