<svg width="50" height="42" viewBox="0 0 50 42" fill="none" xmlns="http://www.w3.org/2000/svg"><path d="M48.045 7.692a.977.977 0 0 0-1.698.965c2.901 5.102 2.026 11.567-2.13 15.722l-.74.74a3.656 3.656 0 0 0-.834-1.287L32.608 13.797a6.75 6.75 0 0 0 1.796-1.286l1.924-1.924a.977.977 0 0 0-1.381-1.382l-1.925 1.925a4.756 4.756 0 0 1-3.385 1.402H25.79a.977.977 0 0 0-.69.286l-2.946 2.946a2.246 2.246 0 0 1-3.172 0 2.246 2.246 0 0 1 0-3.173l6.724-6.724c4.11-4.11 10.524-5.013 15.6-2.198a.977.977 0 0 0 .948-1.708A15.15 15.15 0 0 0 32.965.212a14.884 14.884 0 0 0-7.958 3.631A14.932 14.932 0 0 0 15.043.07 14.945 14.945 0 0 0 4.406 4.476 14.945 14.945 0 0 0 0 15.113c0 4.018 1.565 7.795 4.406 10.637l.368.368a.976.976 0 0 0 .21.159 3.669 3.669 0 0 0 3.813 3.389 3.656 3.656 0 0 0 1.074 2.75 3.668 3.668 0 0 0 2.75 1.073 3.656 3.656 0 0 0 1.074 2.75 3.67 3.67 0 0 0 2.752 1.074 3.672 3.672 0 0 0 1.072 2.75 3.656 3.656 0 0 0 2.603 1.079c.983 0 1.907-.383 2.602-1.078l1.365-1.365 1.844 1.843a3.656 3.656 0 0 0 2.602 1.078c.983 0 1.907-.383 2.602-1.078a3.672 3.672 0 0 0 1.072-2.787 3.67 3.67 0 0 0 2.787-1.071 3.67 3.67 0 0 0 1.072-2.75 3.656 3.656 0 0 0 2.75-1.074 3.67 3.67 0 0 0 1.074-2.75 3.656 3.656 0 0 0 2.75-1.074c.354-.352.62-.76.799-1.195a.976.976 0 0 0 .263-.187l1.894-1.894c4.776-4.775 5.782-12.205 2.447-18.068zM8.651 27.717c-.461 0-.895-.18-1.221-.505a1.716 1.716 0 0 1-.506-1.222c0-.46.18-.895.506-1.22l1.683-1.684c.326-.326.76-.506 1.22-.506a1.729 1.729 0 0 1 1.221 2.948l-1.682 1.684c-.326.326-.76.505-1.221.505zm2.602 3.318a1.716 1.716 0 0 1-.505-1.22c0-.462.18-.896.505-1.222l1.684-1.683c.326-.326.76-.506 1.22-.506a1.729 1.729 0 0 1 1.221 2.948l-1.682 1.683a1.73 1.73 0 0 1-2.443 0zm3.824 3.824a1.716 1.716 0 0 1-.506-1.221c0-.462.18-.895.506-1.221l1.683-1.684c.326-.326.76-.506 1.221-.506a1.73 1.73 0 0 1 1.221 2.948L17.52 34.86a1.729 1.729 0 0 1-2.442 0zm7.95 2.14l-1.684 1.684c-.326.326-.76.506-1.221.506A1.73 1.73 0 0 1 18.9 36.24l1.683-1.684c.326-.326.76-.506 1.22-.506.462 0 .896.18 1.222.506.326.326.506.76.506 1.221 0 .462-.18.895-.506 1.221zm18.235-9.344c-.326.327-.76.506-1.221.506-.461 0-.895-.18-1.221-.506l-4.066-4.065-3.823-3.823a.977.977 0 0 0-1.381 1.38l7.888 7.89a1.729 1.729 0 0 1-1.22 2.948c-.462 0-.896-.18-1.222-.506l-7.889-7.889a.977.977 0 0 0-1.381 1.381l3.823 3.823v.001l4.066 4.065a1.73 1.73 0 0 1 0 2.443 1.73 1.73 0 0 1-2.443 0l-4.065-4.065a.976.976 0 0 0-.25-.18l-1.159-1.16a.977.977 0 0 0-1.381 1.38l5.44 5.44a1.73 1.73 0 0 1-1.222 2.949c-.46 0-.895-.18-1.22-.506l-2.07-2.07a3.68 3.68 0 0 0 .24-1.313c0-.983-.382-1.907-1.078-2.602a3.657 3.657 0 0 0-2.75-1.075 3.671 3.671 0 0 0-1.073-2.749 3.656 3.656 0 0 0-2.751-1.074 3.67 3.67 0 0 0-1.073-2.75 3.657 3.657 0 0 0-2.75-1.074 3.67 3.67 0 0 0-1.073-2.75 3.685 3.685 0 0 0-5.205 0l-1.683 1.684a3.679 3.679 0 0 0-.542.69 12.999 12.999 0 0 1-3.553-8.965c0-3.497 1.361-6.784 3.834-9.256a13.004 13.004 0 0 1 9.256-3.834c3.177 0 6.181 1.124 8.559 3.185L17.6 11.21a4.17 4.17 0 0 0-1.23 2.967 4.17 4.17 0 0 0 1.23 2.968 4.184 4.184 0 0 0 2.967 1.227c1.075 0 2.15-.41 2.968-1.227l2.66-2.66h3.442c.284 0 .565-.02.843-.054l10.782 10.782a1.73 1.73 0 0 1 0 2.442z" fill="url(#paint0_linear)"/><defs><linearGradient id="paint0_linear" x1="25" y1=".07" x2="25" y2="41.62" gradientUnits="userSpaceOnUse"><stop stop-color="#EB862C"/><stop offset="1" stop-color="#E35930"/></linearGradient></defs></svg>