<svg width="50" height="50" viewBox="0 0 50 50" fill="none" xmlns="http://www.w3.org/2000/svg"><path d="M47.509 24.982l-2.269-.284a15.598 15.598 0 0 0-2.912-4.598l1.668-7.066a.976.976 0 0 0-.95-1.2h-.217c-2.768 0-5.264 1.741-6.245 4.296a15.36 15.36 0 0 0-2.135-.675.976.976 0 1 0-.45 1.9 13.523 13.523 0 0 1 6.451 3.59.975.975 0 0 0 .237.243 13.59 13.59 0 0 1 2.935 4.74c.125.345.433.59.796.636l2.848.356c.445.056.781.436.781.885v4.924a.893.893 0 0 1-.78.884l-2.64.33a.977.977 0 0 0-.81.678 13.55 13.55 0 0 1-4.303 6.397.977.977 0 0 0-.353.752v5.397a.88.88 0 0 1-.879.88h-5.664a.88.88 0 0 1-.879-.88V45.11a.977.977 0 0 0-.977-.976h-8.204a.977.977 0 0 0-.977.976v2.057a.88.88 0 0 1-.878.88h-5.665a.88.88 0 0 1-.879-.88v-3.81a.977.977 0 0 0-.51-.86 13.573 13.573 0 0 1-7.106-11.934c0-7.483 6.088-13.572 13.571-13.572h1.224a.977.977 0 0 0 0-1.953h-1.224c-7.25 0-13.353 4.995-15.053 11.724h-.715a2.395 2.395 0 0 1-2.393-2.393 2.395 2.395 0 0 1 2.393-2.392.977.977 0 0 0 0-1.953A4.35 4.35 0 0 0 0 24.369a4.35 4.35 0 0 0 4.346 4.346H4.7a15.523 15.523 0 0 0 7.506 15.21v3.243a2.835 2.835 0 0 0 2.832 2.831h5.665a2.835 2.835 0 0 0 2.831-2.831v-1.081h6.252v1.08A2.835 2.835 0 0 0 32.617 50h5.665a2.835 2.835 0 0 0 2.832-2.831V42.22a15.492 15.492 0 0 0 4.364-6.414l2.03-.255A2.85 2.85 0 0 0 50 32.73v-4.924a2.85 2.85 0 0 0-2.491-2.823zm-6.82-6.436a15.57 15.57 0 0 0-2.33-1.577 4.769 4.769 0 0 1 3.425-3.064l-1.096 4.64z" fill="url(#paint0_linear)"/><path d="M38.874 24.797a.983.983 0 0 0-.69-.286.984.984 0 0 0-.69.286.984.984 0 0 0-.287.69c0 .257.105.51.286.691a.984.984 0 0 0 .69.286.983.983 0 0 0 .691-.286.984.984 0 0 0 .286-.69.984.984 0 0 0-.286-.69z" fill="url(#paint1_linear)"/><path d="M28.637 5.696a.977.977 0 0 0-.977.977v3.873a.977.977 0 0 0 1.953 0V6.673a.977.977 0 0 0-.976-.977z" fill="url(#paint2_linear)"/><path d="M29.327 2.439a.983.983 0 0 0-.69-.286.984.984 0 0 0-.69.286.984.984 0 0 0-.287.69c0 .258.105.51.286.69a.984.984 0 0 0 .69.287.983.983 0 0 0 .691-.286.984.984 0 0 0 .286-.69.986.986 0 0 0-.286-.691z" fill="url(#paint3_linear)"/><path d="M20.703 0a.977.977 0 0 0-.976.976v1.66a.977.977 0 0 0 1.953 0V.976a.977.977 0 0 0-.977-.977z" fill="url(#paint4_linear)"/><path d="M11.127 30.563a.977.977 0 0 0-1.953 0v.052c.003.537.44.97.976.97h.006a.977.977 0 0 0 .97-.983v-.04z" fill="url(#paint5_linear)"/><path d="M15.45 38.246a9.052 9.052 0 0 1-3.732-4.469.976.976 0 1 0-1.823.7 11.014 11.014 0 0 0 4.54 5.438.976.976 0 0 0 1.015-1.669z" fill="url(#paint6_linear)"/><path d="M20.703 4.692a4.106 4.106 0 0 0-4.101 4.102 4.106 4.106 0 0 0 4.101 4.101 4.106 4.106 0 0 0 4.102-4.101 4.106 4.106 0 0 0-4.102-4.102zm0 6.25a2.15 2.15 0 0 1-2.148-2.148 2.15 2.15 0 0 1 2.148-2.149 2.15 2.15 0 0 1 2.149 2.149 2.15 2.15 0 0 1-2.149 2.148z" fill="url(#paint7_linear)"/><path d="M33.008 20.703h-.88c.387-.626.61-1.362.61-2.149a4.106 4.106 0 0 0-4.101-4.101 4.106 4.106 0 0 0-4.102 4.101c0 .787.224 1.523.61 2.149h-4.832a.977.977 0 0 0 0 1.953h12.695a.977.977 0 0 0 0-1.953zm-4.371 0a2.15 2.15 0 0 1-2.149-2.149 2.15 2.15 0 0 1 2.149-2.148 2.15 2.15 0 0 1 2.148 2.148 2.15 2.15 0 0 1-2.148 2.149z" fill="url(#paint8_linear)"/><defs><linearGradient id="paint0_linear" x1="25" y1="11.833" x2="25" y2="49.999" gradientUnits="userSpaceOnUse"><stop stop-color="#EB862C"/><stop offset="1" stop-color="#E35930"/></linearGradient><linearGradient id="paint1_linear" x1="38.184" y1="24.511" x2="38.184" y2="26.464" gradientUnits="userSpaceOnUse"><stop stop-color="#EB862C"/><stop offset="1" stop-color="#E35930"/></linearGradient><linearGradient id="paint2_linear" x1="28.637" y1="5.696" x2="28.637" y2="11.523" gradientUnits="userSpaceOnUse"><stop stop-color="#EB862C"/><stop offset="1" stop-color="#E35930"/></linearGradient><linearGradient id="paint3_linear" x1="28.637" y1="2.153" x2="28.637" y2="4.106" gradientUnits="userSpaceOnUse"><stop stop-color="#EB862C"/><stop offset="1" stop-color="#E35930"/></linearGradient><linearGradient id="paint4_linear" x1="20.703" y1="-.001" x2="20.703" y2="3.613" gradientUnits="userSpaceOnUse"><stop stop-color="#EB862C"/><stop offset="1" stop-color="#E35930"/></linearGradient><linearGradient id="paint5_linear" x1="10.15" y1="29.586" x2="10.15" y2="31.585" gradientUnits="userSpaceOnUse"><stop stop-color="#EB862C"/><stop offset="1" stop-color="#E35930"/></linearGradient><linearGradient id="paint6_linear" x1="12.874" y1="33.15" x2="12.874" y2="40.057" gradientUnits="userSpaceOnUse"><stop stop-color="#EB862C"/><stop offset="1" stop-color="#E35930"/></linearGradient><linearGradient id="paint7_linear" x1="20.703" y1="4.692" x2="20.703" y2="12.895" gradientUnits="userSpaceOnUse"><stop stop-color="#EB862C"/><stop offset="1" stop-color="#E35930"/></linearGradient><linearGradient id="paint8_linear" x1="26.66" y1="14.453" x2="26.66" y2="22.656" gradientUnits="userSpaceOnUse"><stop stop-color="#EB862C"/><stop offset="1" stop-color="#E35930"/></linearGradient></defs></svg>