<svg width="40" height="40" viewBox="0 0 40 40" fill="none" xmlns="http://www.w3.org/2000/svg"><path d="M13.352 25.011h-.063a.78.78 0 1 0 0 1.561h.073a.78.78 0 1 0-.01-1.56z" fill="url(#paint0_linear)"/><path d="M13.289 4.097c-5.078 0-9.21 4.13-9.21 9.208s4.132 9.209 9.21 9.209c5.077 0 9.208-4.131 9.208-9.209 0-5.077-4.13-9.208-9.208-9.208zm0 16.856a7.613 7.613 0 0 1-4.846-1.735 1.923 1.923 0 0 1 1.565-1.715l1.265-.234 1.354 2.166a.78.78 0 0 0 1.324 0l1.354-2.166 1.264.234a1.923 1.923 0 0 1 1.565 1.715 7.613 7.613 0 0 1-4.845 1.735zm-1.492-8.979c.956 0 1.867-.34 2.582-.949l1.047.615v.793a2.14 2.14 0 0 1-2.137 2.137 2.14 2.14 0 0 1-2.138-2.137v-.46l.646.001zm-.644-1.561a2.14 2.14 0 0 1 2.136-2.06 2.14 2.14 0 0 1 2.005 1.4l-.644-.38a.78.78 0 0 0-.994.172 2.42 2.42 0 0 1-1.859.868h-.644zm2.845 6.003l-.71 1.133-.709-1.134c.065-.102.121-.21.166-.325a3.704 3.704 0 0 0 1.086 0c.045.115.101.223.167.326zm5.38 1.51a3.483 3.483 0 0 0-2.525-1.958l-1.321-.244a.352.352 0 0 1-.24-.185 3.697 3.697 0 0 0 1.694-3.106V10.49a3.702 3.702 0 0 0-3.698-3.698 3.702 3.702 0 0 0-3.698 3.698v1.942c0 1.3.676 2.446 1.694 3.105a.35.35 0 0 1-.24.186l-1.32.244a3.483 3.483 0 0 0-2.526 1.958 7.608 7.608 0 0 1-1.558-4.62c0-4.218 3.431-7.648 7.648-7.648 4.218 0 7.648 3.43 7.648 7.647 0 1.735-.58 3.336-1.557 4.62z" fill="url(#paint1_linear)"/><path d="M38.707 32.689l-10.88-10.88a.78.78 0 0 0-1.104 0l-.6.6-1.774-1.774a13.252 13.252 0 0 0 2.206-7.33C26.555 5.99 20.604.038 13.29.038 5.973.038.022 5.99.022 13.305c0 2.95.948 5.743 2.74 8.077a13.359 13.359 0 0 0 6.923 4.694.78.78 0 1 0 .423-1.502c-5.02-1.414-8.525-6.048-8.525-11.269C1.583 6.851 6.833 1.6 13.288 1.6s11.706 5.252 11.706 11.706a11.696 11.696 0 0 1-4.526 9.252.779.779 0 0 0-.166.125l-.002.003a11.653 11.653 0 0 1-4.07 1.953.78.78 0 0 0 .392 1.511 13.217 13.217 0 0 0 4.156-1.887l1.746 1.746-.732.732a.78.78 0 0 0 0 1.103l10.88 10.88a4.254 4.254 0 0 0 3.017 1.248 4.255 4.255 0 0 0 3.018-1.247 4.24 4.24 0 0 0 1.25-3.018 4.24 4.24 0 0 0-1.25-3.017zM22.02 23.298c.495-.434.957-.902 1.381-1.402l1.617 1.616-1.391 1.392-1.607-1.606zM37.603 37.62a2.71 2.71 0 0 1-3.827 0l-7.88-7.88 1.914-1.914a.78.78 0 0 0-1.104-1.103l-1.914 1.913-1.345-1.345.732-.731 2.496-2.496.6-.6 10.328 10.328c.511.512.793 1.191.793 1.914 0 .723-.282 1.403-.793 1.914z" fill="url(#paint2_linear)"/><path d="M33.579 0a6.401 6.401 0 0 0-5.516 3.16h-2.039a.78.78 0 0 0 0 1.561h1.38a6.38 6.38 0 0 0-.224 1.678c0 3.275 2.473 5.982 5.65 6.354v7.193a.78.78 0 0 0 1.56 0v-7.2c3.147-.401 5.588-3.093 5.588-6.347 0-3.528-2.87-6.399-6.4-6.399zm3.22 10.006a4.818 4.818 0 0 1-3.22 1.232 4.817 4.817 0 0 1-3.221-1.232v-.049c0-.465.332-.865.79-.95l.64-.12a2.675 2.675 0 0 0 3.581 0l.641.12c.458.085.79.485.79.95v.049zm-4.345-3.119v-1.24c0-.62.504-1.125 1.125-1.125.62 0 1.125.505 1.125 1.125v1.24a1.126 1.126 0 0 1-2.25 0zm5.466 1.646a2.525 2.525 0 0 0-1.624-1.06l-.092-.018c.04-.183.06-.373.06-.568v-1.24a2.689 2.689 0 0 0-2.685-2.686 2.689 2.689 0 0 0-2.686 2.686v1.24c0 .195.021.385.06.568l-.092.017c-.68.127-1.255.52-1.624 1.06A4.809 4.809 0 0 1 28.74 6.4a4.844 4.844 0 0 1 4.839-4.838 4.844 4.844 0 0 1 4.838 4.838c0 .766-.179 1.49-.497 2.134z" fill="url(#paint3_linear)"/><path d="M34.162 22.422a.785.785 0 0 0-.552-.229.787.787 0 0 0-.552.229.787.787 0 0 0-.228.552c0 .205.083.406.228.551a.788.788 0 0 0 .552.229.783.783 0 0 0 .552-1.332z" fill="url(#paint4_linear)"/><path d="M16.663 32.82h-3.892c-.387-3.161-3.086-5.618-6.35-5.618-.595 0-1.17.083-1.717.235v-1.646a.78.78 0 1 0-1.56 0v2.317A6.401 6.401 0 0 0 .021 33.6c0 3.529 2.87 6.4 6.399 6.4 3.264 0 5.964-2.458 6.35-5.62h3.892a.78.78 0 0 0 0-1.56zm-7.021 4.387A4.818 4.818 0 0 1 6.42 38.44 4.818 4.818 0 0 1 3.2 37.207v-.048c0-.466.332-.865.79-.95l.64-.12a2.674 2.674 0 0 0 1.79.686c.688 0 1.316-.26 1.791-.686l.641.12c.458.084.79.484.79.95v.048zM5.296 34.09v-1.24c0-.62.504-1.125 1.125-1.125.62 0 1.125.504 1.125 1.125v1.24c0 .62-.505 1.125-1.125 1.125s-1.125-.505-1.125-1.125zm5.466 1.645a2.524 2.524 0 0 0-1.624-1.06l-.092-.017c.04-.183.06-.373.06-.568v-1.24a2.689 2.689 0 0 0-2.685-2.686 2.689 2.689 0 0 0-2.686 2.686v1.24c0 .194.021.384.06.567l-.092.018c-.68.127-1.255.52-1.624 1.06a4.808 4.808 0 0 1-.496-2.133 4.844 4.844 0 0 1 4.838-4.839 4.844 4.844 0 0 1 4.838 4.839c0 .765-.179 1.49-.497 2.133z" fill="url(#paint5_linear)"/><path d="M23.121 32.82H20a.78.78 0 1 0 0 1.56h3.121a.78.78 0 1 0 0-1.56z" fill="url(#paint6_linear)"/><path d="M16.254 36.093a.78.78 0 0 0 0 1.56h.008c.43 0 .776-.349.776-.78a.784.784 0 0 0-.784-.78z" fill="url(#paint7_linear)"/><path d="M19.996 36.093a.78.78 0 0 0 0 1.56h.008c.43 0 .776-.349.776-.78a.784.784 0 0 0-.784-.78z" fill="url(#paint8_linear)"/><path d="M23.738 36.093a.78.78 0 0 0 0 1.56h.008c.431 0 .777-.349.777-.78a.784.784 0 0 0-.785-.78z" fill="url(#paint9_linear)"/><defs><linearGradient id="paint0_linear" x1="20" x2="20" y2="40" gradientUnits="userSpaceOnUse"><stop stop-color="#EB862C"/><stop offset="1" stop-color="#E35930"/></linearGradient><linearGradient id="paint1_linear" x1="20" x2="20" y2="40" gradientUnits="userSpaceOnUse"><stop stop-color="#EB862C"/><stop offset="1" stop-color="#E35930"/></linearGradient><linearGradient id="paint2_linear" x1="20" x2="20" y2="40" gradientUnits="userSpaceOnUse"><stop stop-color="#EB862C"/><stop offset="1" stop-color="#E35930"/></linearGradient><linearGradient id="paint3_linear" x1="20" x2="20" y2="40" gradientUnits="userSpaceOnUse"><stop stop-color="#EB862C"/><stop offset="1" stop-color="#E35930"/></linearGradient><linearGradient id="paint4_linear" x1="20" x2="20" y2="40" gradientUnits="userSpaceOnUse"><stop stop-color="#EB862C"/><stop offset="1" stop-color="#E35930"/></linearGradient><linearGradient id="paint5_linear" x1="20" x2="20" y2="40" gradientUnits="userSpaceOnUse"><stop stop-color="#EB862C"/><stop offset="1" stop-color="#E35930"/></linearGradient><linearGradient id="paint6_linear" x1="20" x2="20" y2="40" gradientUnits="userSpaceOnUse"><stop stop-color="#EB862C"/><stop offset="1" stop-color="#E35930"/></linearGradient><linearGradient id="paint7_linear" x1="20" x2="20" y2="40" gradientUnits="userSpaceOnUse"><stop stop-color="#EB862C"/><stop offset="1" stop-color="#E35930"/></linearGradient><linearGradient id="paint8_linear" x1="20" x2="20" y2="40" gradientUnits="userSpaceOnUse"><stop stop-color="#EB862C"/><stop offset="1" stop-color="#E35930"/></linearGradient><linearGradient id="paint9_linear" x1="20" x2="20" y2="40" gradientUnits="userSpaceOnUse"><stop stop-color="#EB862C"/><stop offset="1" stop-color="#E35930"/></linearGradient></defs></svg>