<svg width="40" height="40" viewBox="0 0 40 40" fill="none" xmlns="http://www.w3.org/2000/svg"><g clip-path="url(#clip0)"><path d="M17.62 4.48h-6.965a.731.731 0 0 1-.732-.732l7.697.731zm0 0a.731.731 0 0 0 .732-.732m-.732.731l.732-.731m0 0a.732.732 0 0 0-.732-.732m.732.732l-.732-.732m0 0h-6.965m6.965 0h-6.965m0 0a.731.731 0 0 0-.732.732l.732-.732z" fill="url(#paint0_linear)" stroke="url(#paint1_linear)" stroke-width=".2"/><path d="M10.655 7.267h13.93a.731.731 0 1 0 0-1.463h-13.93a.732.732 0 1 0 0 1.463z" fill="url(#paint2_linear)" stroke="url(#paint3_linear)" stroke-width=".2"/><path d="M17.62 15.95h-6.965a.731.731 0 0 1-.732-.731l7.697.732zm0 0a.731.731 0 0 0 .732-.731m-.732.732l.732-.732m0 0a.732.732 0 0 0-.732-.732m.732.732l-.732-.732m0 0h-6.965m6.965 0h-6.965m0 0a.731.731 0 0 0-.732.732l.732-.732z" fill="url(#paint4_linear)" stroke="url(#paint5_linear)" stroke-width=".2"/><path d="M24.432 18.738H10.655a.732.732 0 0 1-.732-.732l14.509.732zm0 0a.731.731 0 0 0 .732-.732m-.732.732l.732-.732m0 0a.731.731 0 0 0-.732-.731m.732.731l-.732-.731m0 0H10.655m13.777 0H10.655m0 0a.731.731 0 0 0-.732.731l.732-.731z" fill="url(#paint6_linear)" stroke="url(#paint7_linear)" stroke-width=".2"/><path d="M17.62 27.422h-6.965a.731.731 0 0 1-.732-.732l7.697.732zm0 0a.731.731 0 0 0 .732-.732m-.732.732l.732-.732m0 0a.732.732 0 0 0-.732-.731m.732.731l-.732-.731m0 0h-6.965m6.965 0h-6.965m0 0a.731.731 0 0 0-.732.731l.732-.731z" fill="url(#paint8_linear)" stroke="url(#paint9_linear)" stroke-width=".2"/><path d="M25.065 29.477a.732.732 0 0 0-.732-.731H10.655a.731.731 0 1 0 0 1.463h13.678a.731.731 0 0 0 .732-.732z" fill="url(#paint10_linear)" stroke="url(#paint11_linear)" stroke-width=".2"/><mask id="a" maskUnits="userSpaceOnUse" x="-1" y="10.471" width="42" height="30" fill="#000"><path fill="#fff" d="M-1 10.471h42v30H-1z"/><path d="M37.006 31.626l-3.669-1.47v-.806a4.335 4.335 0 0 0 2.097-2.62 2.232 2.232 0 1 0 1.309-4.033v-1.678c0-3.121-2.54-5.66-5.661-5.66h-.42c-.467 0-.922.057-1.357.165v-3.421a.631.631 0 0 0-.631-.632h-1.876a.631.631 0 1 0 0 1.263h1.244v3.27a5.67 5.67 0 0 0-3.015 4.487H1.263v-7.757h23.42a.631.631 0 1 0 0-1.263H.633a.632.632 0 0 0-.632.632v9.02c0 .348.283.631.632.631h24.37v.935c-.104.076-.201.16-.291.253H.63a.632.632 0 0 0-.631.632v9.02c0 .349.283.631.632.631H22.6c-.534.734-.933 1.723-.933 3.002v3.14c0 .35.282.633.631.633h2.386a.631.631 0 1 0 0-1.263H22.93v-2.51c0-2.626 2.067-3.38 2.15-3.41a.48.48 0 0 0 .03-.01l3.457-1.354c.016.02.033.038.051.056l1.814 1.767c.118.114.276.179.44.179h.01a.631.631 0 0 0 .445-.194l1.774-1.84 3.45 1.384.03.011c.089.031 2.156.785 2.156 3.411v2.51H26.705a.632.632 0 1 0 0 1.263h12.663a.637.637 0 0 0 .632-.638v-3.135c0-2.827-1.947-4.24-2.994-4.6zm-1.408-8.084a.972.972 0 0 1 .795.954c0 .475-.344.87-.795.954v-1.908zm-9.333-2.523a4.403 4.403 0 0 1 4.398-4.398h.42a4.403 4.403 0 0 1 4.397 4.398v1.032l-.003-.004a.569.569 0 0 0-.058-.07l-.019-.018a.752.752 0 0 0-.026-.024l-.02-.015a.678.678 0 0 0-.029-.022l-.022-.014a.546.546 0 0 0-.029-.018l-.027-.014-.027-.013-.033-.013-.024-.009-.04-.01-.017-.006c-1.374-.313-1.804-2.09-1.808-2.105a.632.632 0 0 0-1.128-.23c-1.662 2.296-5.32 2.32-5.37 2.32h-.002a.652.652 0 0 0-.065.003l-.02.003-.042.006-.027.007c-.011.003-.023.005-.034.009l-.03.01-.027.01-.034.017-.021.01-.034.02-.019.012-.03.022-.018.014c-.01.007-.017.015-.026.023l-.02.018-.021.024-.02.02-.018.025-.018.024-.01.016v-1.06h.001zm-.099 2.519v1.916a.971.971 0 0 1-.823-.958c0-.485.358-.887.823-.958zm2.261 6.613l-3.764 1.475c-.21.072-.456.186-.715.346a.642.642 0 0 0-.106-.01H1.263v-7.756H24.1a2.236 2.236 0 0 0 2.214 2.524l.017-.001a4.335 4.335 0 0 0 2.097 2.62v.802zm3.647.441v.074l-1.216 1.262-1.168-1.138v-.993c.257.048.522.074.792.074h.8c.27 0 .535-.026.792-.074v.795zm-.792-1.984h-.8a3.056 3.056 0 0 1-3.052-3.053v-2.538c1.102-.095 3.397-.474 5.033-1.989.335.66.917 1.457 1.872 1.848v2.679a3.056 3.056 0 0 1-3.053 3.053z"/></mask><path d="M37.006 31.626l-3.669-1.47v-.806a4.335 4.335 0 0 0 2.097-2.62 2.232 2.232 0 1 0 1.309-4.033v-1.678c0-3.121-2.54-5.66-5.661-5.66h-.42c-.467 0-.922.057-1.357.165v-3.421a.631.631 0 0 0-.631-.632h-1.876a.631.631 0 1 0 0 1.263h1.244v3.27a5.67 5.67 0 0 0-3.015 4.487H1.263v-7.757h23.42a.631.631 0 1 0 0-1.263H.633a.632.632 0 0 0-.632.632v9.02c0 .348.283.631.632.631h24.37v.935c-.104.076-.201.16-.291.253H.63a.632.632 0 0 0-.631.632v9.02c0 .349.283.631.632.631H22.6c-.534.734-.933 1.723-.933 3.002v3.14c0 .35.282.633.631.633h2.386a.631.631 0 1 0 0-1.263H22.93v-2.51c0-2.626 2.067-3.38 2.15-3.41a.48.48 0 0 0 .03-.01l3.457-1.354c.016.02.033.038.051.056l1.814 1.767c.118.114.276.179.44.179h.01a.631.631 0 0 0 .445-.194l1.774-1.84 3.45 1.384.03.011c.089.031 2.156.785 2.156 3.411v2.51H26.705a.632.632 0 1 0 0 1.263h12.663a.637.637 0 0 0 .632-.638v-3.135c0-2.827-1.947-4.24-2.994-4.6zm-1.408-8.084a.972.972 0 0 1 .795.954c0 .475-.344.87-.795.954v-1.908zm-9.333-2.523a4.403 4.403 0 0 1 4.398-4.398h.42a4.403 4.403 0 0 1 4.397 4.398v1.032l-.003-.004a.569.569 0 0 0-.058-.07l-.019-.018a.752.752 0 0 0-.026-.024l-.02-.015a.678.678 0 0 0-.029-.022l-.022-.014a.546.546 0 0 0-.029-.018l-.027-.014-.027-.013-.033-.013-.024-.009-.04-.01-.017-.006c-1.374-.313-1.804-2.09-1.808-2.105a.632.632 0 0 0-1.128-.23c-1.662 2.296-5.32 2.32-5.37 2.32h-.002a.652.652 0 0 0-.065.003l-.02.003-.042.006-.027.007c-.011.003-.023.005-.034.009l-.03.01-.027.01-.034.017-.021.01-.034.02-.019.012-.03.022-.018.014c-.01.007-.017.015-.026.023l-.02.018-.021.024-.02.02-.018.025-.018.024-.01.016v-1.06h.001zm-.099 2.519v1.916a.971.971 0 0 1-.823-.958c0-.485.358-.887.823-.958zm2.261 6.613l-3.764 1.475c-.21.072-.456.186-.715.346a.642.642 0 0 0-.106-.01H1.263v-7.756H24.1a2.236 2.236 0 0 0 2.214 2.524l.017-.001a4.335 4.335 0 0 0 2.097 2.62v.802zm3.647.441v.074l-1.216 1.262-1.168-1.138v-.993c.257.048.522.074.792.074h.8c.27 0 .535-.026.792-.074v.795zm-.792-1.984h-.8a3.056 3.056 0 0 1-3.052-3.053v-2.538c1.102-.095 3.397-.474 5.033-1.989.335.66.917 1.457 1.872 1.848v2.679a3.056 3.056 0 0 1-3.053 3.053z" fill="url(#paint12_linear)"/><path d="M37.006 31.626l-3.669-1.47v-.806a4.335 4.335 0 0 0 2.097-2.62 2.232 2.232 0 1 0 1.309-4.033v-1.678c0-3.121-2.54-5.66-5.661-5.66h-.42c-.467 0-.922.057-1.357.165v-3.421a.631.631 0 0 0-.631-.632h-1.876a.631.631 0 1 0 0 1.263h1.244v3.27a5.67 5.67 0 0 0-3.015 4.487H1.263v-7.757h23.42a.631.631 0 1 0 0-1.263H.633a.632.632 0 0 0-.632.632v9.02c0 .348.283.631.632.631h24.37v.935c-.104.076-.201.16-.291.253H.63a.632.632 0 0 0-.631.632v9.02c0 .349.283.631.632.631H22.6c-.534.734-.933 1.723-.933 3.002v3.14c0 .35.282.633.631.633h2.386a.631.631 0 1 0 0-1.263H22.93v-2.51c0-2.626 2.067-3.38 2.15-3.41a.48.48 0 0 0 .03-.01l3.457-1.354c.016.02.033.038.051.056l1.814 1.767c.118.114.276.179.44.179h.01a.631.631 0 0 0 .445-.194l1.774-1.84 3.45 1.384.03.011c.089.031 2.156.785 2.156 3.411v2.51H26.705a.632.632 0 1 0 0 1.263h12.663a.637.637 0 0 0 .632-.638v-3.135c0-2.827-1.947-4.24-2.994-4.6zm-1.408-8.084a.972.972 0 0 1 .795.954c0 .475-.344.87-.795.954v-1.908zm-9.333-2.523a4.403 4.403 0 0 1 4.398-4.398h.42a4.403 4.403 0 0 1 4.397 4.398v1.032l-.003-.004a.569.569 0 0 0-.058-.07l-.019-.018a.752.752 0 0 0-.026-.024l-.02-.015a.678.678 0 0 0-.029-.022l-.022-.014a.546.546 0 0 0-.029-.018l-.027-.014-.027-.013-.033-.013-.024-.009-.04-.01-.017-.006c-1.374-.313-1.804-2.09-1.808-2.105a.632.632 0 0 0-1.128-.23c-1.662 2.296-5.32 2.32-5.37 2.32h-.002a.652.652 0 0 0-.065.003l-.02.003-.042.006-.027.007c-.011.003-.023.005-.034.009l-.03.01-.027.01-.034.017-.021.01-.034.02-.019.012-.03.022-.018.014c-.01.007-.017.015-.026.023l-.02.018-.021.024-.02.02-.018.025-.018.024-.01.016v-1.06h.001zm-.099 2.519v1.916a.971.971 0 0 1-.823-.958c0-.485.358-.887.823-.958zm2.261 6.613l-3.764 1.475c-.21.072-.456.186-.715.346a.642.642 0 0 0-.106-.01H1.263v-7.756H24.1a2.236 2.236 0 0 0 2.214 2.524l.017-.001a4.335 4.335 0 0 0 2.097 2.62v.802zm3.647.441v.074l-1.216 1.262-1.168-1.138v-.993c.257.048.522.074.792.074h.8c.27 0 .535-.026.792-.074v.795zm-.792-1.984h-.8a3.056 3.056 0 0 1-3.052-3.053v-2.538c1.102-.095 3.397-.474 5.033-1.989.335.66.917 1.457 1.872 1.848v2.679a3.056 3.056 0 0 1-3.053 3.053z" stroke="url(#paint13_linear)" stroke-width=".4" mask="url(#a)"/><path d="M6.452 3.78a.731.731 0 1 0 0-1.463H3.267a.731.731 0 0 0-.732.732v4.186c0 .404.328.731.732.731h4.391a.732.732 0 0 0 .732-.731v-1.13a.732.732 0 1 0-1.463 0v.398H3.998V3.78h2.454z" fill="url(#paint14_linear)" stroke="url(#paint15_linear)" stroke-width=".2"/><path d="M8.961 2.516c.294.277.308.74.03 1.034L6.429 6.27a.732.732 0 0 1-.532.23H5.89a.732.732 0 0 1-.534-.237L4.249 5.057a.732.732 0 1 1 1.078-.99m3.634-1.55L5.253 4.134m3.708-1.619a.732.732 0 0 0-1.034.03L5.903 4.696M8.96 2.516l-2.99 2.252m-.644-.7l-.074.067m.074-.068l-.074.068m.074-.068l.576.628m-.65-.56l.581.632.069-.072m0 0l.068.073m0 0l-.07.073.07-.073z" fill="url(#paint16_linear)" stroke="url(#paint17_linear)" stroke-width=".2"/><path d="M6.352 15.251h.1a.732.732 0 1 0 0-1.463H3.267a.732.732 0 0 0-.732.732v4.186c0 .404.328.731.732.731h4.391a.731.731 0 0 0 .732-.732v-1.129a.732.732 0 0 0-1.463 0v.398H3.998V15.25h2.354z" fill="url(#paint18_linear)" stroke="url(#paint19_linear)" stroke-width=".2"/><path d="M8.961 13.987a.732.732 0 0 0-1.034.03l-2.024 2.148-.576-.627a.732.732 0 0 0-1.078.99l1.108 1.206c.137.15.33.236.534.237h.004a.732.732 0 0 0 .533-.23l2.564-2.72a.732.732 0 0 0-.03-1.034z" fill="url(#paint20_linear)" stroke="url(#paint21_linear)" stroke-width=".2"/><path d="M7.658 28.316a.731.731 0 0 0-.731.731v.398H3.998v-2.723h2.454a.732.732 0 0 0 0-1.463H3.267a.731.731 0 0 0-.732.732v4.186c0 .404.328.731.732.731h4.391a.731.731 0 0 0 .732-.732v-1.129a.732.732 0 0 0-.732-.731z" fill="url(#paint22_linear)" stroke="url(#paint23_linear)" stroke-width=".2"/><path d="M4.293 26.965A.732.732 0 0 0 4.25 28l1.108 1.207c.137.15.33.235.534.236h.004a.732.732 0 0 0 .533-.23l2.564-2.72a.732.732 0 0 0-1.065-1.003l-2.024 2.148-.576-.627a.732.732 0 0 0-1.034-.045z" fill="url(#paint24_linear)" stroke="url(#paint25_linear)" stroke-width=".2"/><path d="M.632 10.383h28.042a.731.731 0 0 0 .731-.731V.632a.731.731 0 0 0-.731-.732h-1.876a.731.731 0 1 0 0 1.463h1.144V8.92H1.363V1.363h23.32a.731.731 0 1 0 0-1.463H.633A.732.732 0 0 0-.1.632v9.02c0 .404.328.731.732.731z" fill="url(#paint26_linear)" stroke="url(#paint27_linear)" stroke-width=".2"/></g><defs><linearGradient id="paint0_linear" x1="14.137" y1="3.116" x2="14.137" y2="4.379" gradientUnits="userSpaceOnUse"><stop stop-color="#EB862C"/><stop offset="1" stop-color="#E35930"/></linearGradient><linearGradient id="paint1_linear" x1="14.137" y1="3.116" x2="14.137" y2="4.379" gradientUnits="userSpaceOnUse"><stop stop-color="#EB862C"/><stop offset="1" stop-color="#E35930"/></linearGradient><linearGradient id="paint2_linear" x1="17.62" y1="5.904" x2="17.62" y2="7.167" gradientUnits="userSpaceOnUse"><stop stop-color="#EB862C"/><stop offset="1" stop-color="#E35930"/></linearGradient><linearGradient id="paint3_linear" x1="17.62" y1="5.904" x2="17.62" y2="7.167" gradientUnits="userSpaceOnUse"><stop stop-color="#EB862C"/><stop offset="1" stop-color="#E35930"/></linearGradient><linearGradient id="paint4_linear" x1="14.137" y1="14.587" x2="14.137" y2="15.851" gradientUnits="userSpaceOnUse"><stop stop-color="#EB862C"/><stop offset="1" stop-color="#E35930"/></linearGradient><linearGradient id="paint5_linear" x1="14.137" y1="14.587" x2="14.137" y2="15.851" gradientUnits="userSpaceOnUse"><stop stop-color="#EB862C"/><stop offset="1" stop-color="#E35930"/></linearGradient><linearGradient id="paint6_linear" x1="17.543" y1="17.375" x2="17.543" y2="18.638" gradientUnits="userSpaceOnUse"><stop stop-color="#EB862C"/><stop offset="1" stop-color="#E35930"/></linearGradient><linearGradient id="paint7_linear" x1="17.543" y1="17.375" x2="17.543" y2="18.638" gradientUnits="userSpaceOnUse"><stop stop-color="#EB862C"/><stop offset="1" stop-color="#E35930"/></linearGradient><linearGradient id="paint8_linear" x1="14.137" y1="26.059" x2="14.137" y2="27.322" gradientUnits="userSpaceOnUse"><stop stop-color="#EB862C"/><stop offset="1" stop-color="#E35930"/></linearGradient><linearGradient id="paint9_linear" x1="14.137" y1="26.059" x2="14.137" y2="27.322" gradientUnits="userSpaceOnUse"><stop stop-color="#EB862C"/><stop offset="1" stop-color="#E35930"/></linearGradient><linearGradient id="paint10_linear" x1="17.494" y1="28.846" x2="17.494" y2="30.109" gradientUnits="userSpaceOnUse"><stop stop-color="#EB862C"/><stop offset="1" stop-color="#E35930"/></linearGradient><linearGradient id="paint11_linear" x1="17.494" y1="28.846" x2="17.494" y2="30.109" gradientUnits="userSpaceOnUse"><stop stop-color="#EB862C"/><stop offset="1" stop-color="#E35930"/></linearGradient><linearGradient id="paint12_linear" x1="20" y1="11.471" x2="20" y2="40" gradientUnits="userSpaceOnUse"><stop stop-color="#EB862C"/><stop offset="1" stop-color="#E35930"/></linearGradient><linearGradient id="paint13_linear" x1="20" y1="11.471" x2="20" y2="40" gradientUnits="userSpaceOnUse"><stop stop-color="#EB862C"/><stop offset="1" stop-color="#E35930"/></linearGradient><linearGradient id="paint14_linear" x1="5.462" y1="2.417" x2="5.462" y2="7.866" gradientUnits="userSpaceOnUse"><stop stop-color="#EB862C"/><stop offset="1" stop-color="#E35930"/></linearGradient><linearGradient id="paint15_linear" x1="5.462" y1="2.417" x2="5.462" y2="7.866" gradientUnits="userSpaceOnUse"><stop stop-color="#EB862C"/><stop offset="1" stop-color="#E35930"/></linearGradient><linearGradient id="paint16_linear" x1="6.624" y1="2.417" x2="6.624" y2="6.4" gradientUnits="userSpaceOnUse"><stop stop-color="#EB862C"/><stop offset="1" stop-color="#E35930"/></linearGradient><linearGradient id="paint17_linear" x1="6.624" y1="2.417" x2="6.624" y2="6.4" gradientUnits="userSpaceOnUse"><stop stop-color="#EB862C"/><stop offset="1" stop-color="#E35930"/></linearGradient><linearGradient id="paint18_linear" x1="5.462" y1="13.888" x2="5.462" y2="19.337" gradientUnits="userSpaceOnUse"><stop stop-color="#EB862C"/><stop offset="1" stop-color="#E35930"/></linearGradient><linearGradient id="paint19_linear" x1="5.462" y1="13.888" x2="5.462" y2="19.337" gradientUnits="userSpaceOnUse"><stop stop-color="#EB862C"/><stop offset="1" stop-color="#E35930"/></linearGradient><linearGradient id="paint20_linear" x1="6.624" y1="13.888" x2="6.624" y2="17.871" gradientUnits="userSpaceOnUse"><stop stop-color="#EB862C"/><stop offset="1" stop-color="#E35930"/></linearGradient><linearGradient id="paint21_linear" x1="6.624" y1="13.888" x2="6.624" y2="17.871" gradientUnits="userSpaceOnUse"><stop stop-color="#EB862C"/><stop offset="1" stop-color="#E35930"/></linearGradient><linearGradient id="paint22_linear" x1="5.462" y1="25.359" x2="5.462" y2="30.808" gradientUnits="userSpaceOnUse"><stop stop-color="#EB862C"/><stop offset="1" stop-color="#E35930"/></linearGradient><linearGradient id="paint23_linear" x1="5.462" y1="25.359" x2="5.462" y2="30.808" gradientUnits="userSpaceOnUse"><stop stop-color="#EB862C"/><stop offset="1" stop-color="#E35930"/></linearGradient><linearGradient id="paint24_linear" x1="6.624" y1="25.359" x2="6.624" y2="29.343" gradientUnits="userSpaceOnUse"><stop stop-color="#EB862C"/><stop offset="1" stop-color="#E35930"/></linearGradient><linearGradient id="paint25_linear" x1="6.624" y1="25.359" x2="6.624" y2="29.343" gradientUnits="userSpaceOnUse"><stop stop-color="#EB862C"/><stop offset="1" stop-color="#E35930"/></linearGradient><linearGradient id="paint26_linear" x1="14.653" x2="14.653" y2="10.283" gradientUnits="userSpaceOnUse"><stop stop-color="#EB862C"/><stop offset="1" stop-color="#E35930"/></linearGradient><linearGradient id="paint27_linear" x1="14.653" x2="14.653" y2="10.283" gradientUnits="userSpaceOnUse"><stop stop-color="#EB862C"/><stop offset="1" stop-color="#E35930"/></linearGradient><clipPath id="clip0"><path fill="#fff" d="M0 0h40v40H0z"/></clipPath></defs></svg>