<svg width="60" height="46" viewBox="0 0 60 46" fill="none" xmlns="http://www.w3.org/2000/svg"><path d="M57.318 33.317l-3.63-1.037a.368.368 0 0 1-.266-.353v-1.212c.295-.204.577-.433.84-.689a6.466 6.466 0 0 0 1.98-4.678v-1.671l.35-.702c.385-.77.589-1.633.589-2.495v-4.53a.879.879 0 0 0-.88-.878h-8.457a5.584 5.584 0 0 0-5.578 5.578v.052c0 .716.17 1.434.49 2.074l.45.9v1.436a6.858 6.858 0 0 0 2.82 5.545v1.27c0 .195 0 .276-.726.484l-1.771.506-5.124-1.863a.878.878 0 0 0-.24-.673l-1.636-1.72v-2.888c.173-.142.343-.289.509-.444a10.315 10.315 0 0 0 3.25-7.499v-2.306a10.16 10.16 0 0 0 .94-4.272V1.855a.879.879 0 0 0-.88-.88H27.192c-4.63 0-8.397 3.768-8.397 8.398v1.88c0 1.478.316 2.915.94 4.272v1.984a10.74 10.74 0 0 0 3.759 8.197v2.955l-1.637 1.72a.878.878 0 0 0-.24.673l-5.408 1.966a4.609 4.609 0 0 0-1.086.57l-.85-.425c2.528-1.1 3.33-2.648 3.368-2.725a.879.879 0 0 0 0-.786c-.634-1.267-.71-3.59-.772-5.456-.021-.621-.04-1.208-.078-1.731-.3-4.216-3.504-7.395-7.454-7.395-3.95 0-7.156 3.18-7.455 7.395a47.56 47.56 0 0 0-.077 1.731c-.062 1.866-.139 4.189-.772 5.456a.879.879 0 0 0 0 .786c.038.077.837 1.621 3.37 2.723l-2.359 1.18A3.68 3.68 0 0 0 0 37.65v6.493a.879.879 0 0 0 1.758 0V37.65c0-.74.41-1.404 1.072-1.735l2.937-1.469 1.022.971a3.688 3.688 0 0 0 2.548 1.018c.916 0 1.833-.34 2.547-1.018l1.022-.97.957.478a4.628 4.628 0 0 0-.707 2.454v6.765a.879.879 0 0 0 1.758 0v-6.765c0-1.206.762-2.294 1.896-2.707l5.702-2.073 2.373 3.56a1.812 1.812 0 0 0 1.515.81c.48 0 .94-.189 1.284-.532l1.448-1.448v9.155a.879.879 0 0 0 1.758 0v-9.155l1.448 1.448a1.81 1.81 0 0 0 1.465.524 1.812 1.812 0 0 0 1.334-.801l2.374-3.56 5.701 2.073a2.889 2.889 0 0 1 1.896 2.706v6.765a.879.879 0 0 0 1.758 0v-6.765a4.646 4.646 0 0 0-1.3-3.215l.217-.063a4.82 4.82 0 0 0 .818-.295l2.244 2.244v8.094a.879.879 0 0 0 1.758 0V36.05l2.228-2.228c.118.06.243.11.374.148l3.63 1.037a1.949 1.949 0 0 1 1.407 1.866v7.27a.879.879 0 0 0 1.758 0v-7.27a3.714 3.714 0 0 0-2.682-3.556zm-51.68-1.553c-1.644-.591-2.468-1.38-2.82-1.81.24-.628.395-1.347.5-2.105a6.554 6.554 0 0 0 2.32 2.862v1.053zm5.035 2.379a1.94 1.94 0 0 1-2.673 0l-.817-.777c.138-.258.213-.551.213-.858v-.937a6.54 6.54 0 0 0 3.88 0l.001.937c0 .307.076.6.214.858l-.818.777zm-1.336-4.035a4.765 4.765 0 0 1-4.76-4.76.879.879 0 0 0-1.023-.865l.008-.227c.02-.604.038-1.175.073-1.664.112-1.58.743-3.035 1.777-4.098a5.432 5.432 0 0 1 3.925-1.664c1.488 0 2.882.59 3.925 1.664 1.033 1.063 1.664 2.518 1.776 4.098.035.49.054 1.06.074 1.664l.005.157c-.956-1.473-2.433-2.56-4.34-3.172-1.764-.567-3.28-.532-3.344-.53a.879.879 0 0 0-.608.269l-1.586 1.644a.879.879 0 1 0 1.265 1.22l1.32-1.368c1.136.056 4.792.48 6.214 3.611a4.748 4.748 0 0 1-4.701 4.021zm3.698 1.66v-1.049a6.501 6.501 0 0 0 2.32-2.865c.105.757.261 1.474.5 2.1-.35.426-1.178 1.222-2.82 1.813zm8.457-14.26v-2.18a.878.878 0 0 0-.087-.382 8.431 8.431 0 0 1-.852-3.694v-1.88a6.647 6.647 0 0 1 6.639-6.638h12.277v8.518a8.43 8.43 0 0 1-.852 3.694.88.88 0 0 0-.087.382v2.503c0 2.38-.957 4.588-2.694 6.216a8.741 8.741 0 0 1-.675.571l-.015.011a8.451 8.451 0 0 1-5.704 1.702c-4.457-.289-7.95-4.164-7.95-8.822zm4.95 17.686a.055.055 0 0 1-.05.017.056.056 0 0 1-.044-.027l-2.734-4.1.88-.924 4.146 2.834-2.199 2.2zm3.57-3.392l-4.76-3.254v-1.64a9.896 9.896 0 0 0 4.768 1.2c1.68 0 3.298-.403 4.75-1.165v1.605l-4.759 3.254zm3.663 3.382a.056.056 0 0 1-.045.027c-.029.004-.043-.011-.049-.017l-2.2-2.2 4.147-2.834.88.924-2.733 4.1zm16.049-.741l-1.995-1.995c.035-.158.055-.33.054-.522v-.37a6.167 6.167 0 0 0 1.943.31c.667 0 1.318-.1 1.938-.293v.354c0 .175.022.347.063.512l-2.003 2.004zm3.314-5.678a4.724 4.724 0 0 1-3.461 1.34c-2.544-.075-4.613-2.316-4.613-4.993V23.47a.878.878 0 0 0-.093-.393l-.543-1.086a2.895 2.895 0 0 1-.304-1.288v-.052a3.824 3.824 0 0 1 3.82-3.82h7.579v3.65c0 .59-.14 1.181-.403 1.709l-.444.887a.878.878 0 0 0-.093.393v1.88a4.722 4.722 0 0 1-1.445 3.416z" fill="url(#paint0_linear)"/><defs><linearGradient id="paint0_linear" x1="30" y1=".976" x2="30" y2="45.023" gradientUnits="userSpaceOnUse"><stop stop-color="#EB862C"/><stop offset="1" stop-color="#E35930"/></linearGradient></defs></svg>